<svg version="1.1" viewBox="0 0 16 16" xmlns="http://www.w3.org/2000/svg">
 <defs>
  <style id="current-color-scheme" type="text/css">.ColorScheme-Text {
        color:#363636;
      }</style>
 </defs>
 <g class="ColorScheme-Text" fill="currentColor">
  <path class="ColorScheme-Text" d="m11 9v5l3-2.5z" fill="currentColor"/>
  <path d="m2 3c-1.108 0-2 0.892-2 2v6c0 1.108 0.892 2 2 2h2v-1h-2c-0.554 0-1-0.446-1-1v-6c0-0.554 0.446-1 1-1h12c0.554 0 1 0.446 1 1v5h1v-5c0-1.108-0.892-2-2-2h-12z"/>
  <path class="ColorScheme-Text" d="m5 0c-1.108 0-2.0366 0.8926-2 2v2h1v-2c0-0.554 0.446-1 1-1h6c0.554 0 1.0418 0.44758 1 1v2h1v-2c0-1.108-0.892-2-2-2z" fill="currentColor"/>
  <path class="ColorScheme-Text" d="m5 7c-1.108 0-2 0.892-2 2v5c0 1.108 0.892 2 2 2h6c0.74107 0 1.379-0.4042 1.7246-1h-7.7246c-0.554 0-1-0.446-1-1v-5c0-0.554 0.446-1 1-1h7.7246c-0.34556-0.5958-0.98354-1-1.7246-1h-6z" fill="currentColor"/>
  <circle class="ColorScheme-Text" cx="13.5" cy="5.5" r=".5" fill="currentColor"/>
 </g>
</svg>
