<svg width="22" height="22" version="1.1" xmlns="http://www.w3.org/2000/svg">
 <defs>
  <style id="current-color-scheme" type="text/css">.ColorScheme-Text { color:#dedede; } .ColorScheme-Highlight { color:#4285f4; }</style>
 </defs>
 <path class="ColorScheme-Text" d="m13 4.0061c0-0.873-1.0403-1.3269-1.6803-0.733l-3.8721 3.5934c-0.0925 0.0858-0.21396 0.1335-0.34011 0.1335h-2.6075c-0.82843 0-1.5 0.6715-1.5 1.5v5c0 0.8284 0.67157 1.5 1.5 1.5h2.6075c0.12615 0 0.24764 0.0476 0.34011 0.1335l3.8721 3.5933c0.64 0.5939 1.6803 0.1401 1.6803-0.733zm-4.8722 3.5934 3.8722-3.5934v13.988l-3.8722-3.5933c-0.27741-0.2575-0.64188-0.4005-1.0203-0.4005h-2.6075c-0.27614 0-0.5-0.2239-0.5-0.5v-5c0-0.2762 0.22386-0.5 0.5-0.5h2.6075c0.37846 0 0.74293-0.1431 1.0203-0.4005zm6.0186 1.0469c0.1953-0.1952 0.5119-0.1952 0.7071 0l1.6465 1.6465 1.6464-1.6465c0.1953-0.1952 0.5119-0.1952 0.7071 0 0.1953 0.1953 0.1953 0.5119 0 0.7071l-1.6464 1.6465 1.6464 1.6464c0.1953 0.1953 0.1953 0.5119 0 0.7071-0.1952 0.1953-0.5118 0.1953-0.7071 0l-1.6464-1.6464-1.6465 1.6464c-0.1952 0.1953-0.5118 0.1953-0.7071 0-0.1952-0.1952-0.1952-0.5118 0-0.7071l1.6465-1.6464-1.6465-1.6465c-0.1952-0.1952-0.1952-0.5118 0-0.7071z" fill="currentColor"/>
</svg>
