<svg width="22" height="22" version="1.1" xmlns="http://www.w3.org/2000/svg">
 <defs>
  <style id="current-color-scheme" type="text/css">.ColorScheme-Text { color:#dedede; } .ColorScheme-Highlight { color:#4285f4; }</style>
 </defs>
 <path class="ColorScheme-Text" d="m12.999 4.0061c0-0.873-1.0403-1.3269-1.6803-0.733l-3.8721 3.5934c-0.0925 0.0858-0.21396 0.1335-0.34011 0.1335h-2.6075c-0.82843 0-1.5 0.6715-1.5 1.5v5c0 0.8284 0.67157 1.5 1.5 1.5h2.6075c0.12615 0 0.24764 0.0476 0.34011 0.1335l3.8721 3.5933c0.64 0.5939 1.6803 0.1401 1.6803-0.733zm-4.8722 3.5934 3.8722-3.5934v13.988l-3.8722-3.5933c-0.27741-0.2575-0.64188-0.4005-1.0203-0.4005h-2.6075c-0.27614 0-0.5-0.2239-0.5-0.5v-5c0-0.2762 0.22386-0.5 0.5-0.5h2.6075c0.37846 0 0.74293-0.1431 1.0203-0.4005zm8.1318-1.9719c0.2056-0.1843 0.5218-0.167 0.706 0.0387 2.7163 3.0316 2.7163 7.6357 1e-4 10.667-0.1843 0.2057-0.5004 0.223-0.7061 0.0387-0.2057-0.1842-0.223-0.5003-0.0387-0.706 2.3759-2.6518 2.3759-6.6809-1e-4 -9.3327-0.1842-0.2057-0.1669-0.5218 0.0388-0.706zm-1.1753 8.3056c-0.2393-0.1378-0.3215-0.4436-0.1837-0.6828 0.7762-1.3476 0.8317-3.0588-7e-4 -4.5005-0.138-0.2392-0.0561-0.545 0.183-0.683 0.2392-0.1381 0.545-0.0562 0.6831 0.183 1.018 1.7632 0.9481 3.8555 0.0011 5.4996-0.1378 0.2393-0.4435 0.3215-0.6828 0.1837z" fill="currentColor"/>
</svg>
