<svg width="22" height="22" version="1.1" xmlns="http://www.w3.org/2000/svg">
 <defs>
  <style id="current-color-scheme" type="text/css">.ColorScheme-Text {
                color:#dedede;
            }
            .ColorScheme-PositiveText {
                color:#27ae60;
            }</style>
 </defs>
 <g class="ColorScheme-Text" transform="translate(1,3)" fill="currentColor">
  <rect x="3" y="5" width="6" height="6" rx="1" ry="1" opacity=".35"/>
  <path d="m10.334 4-3.334 5h3l-0.75 3h0.416l3.334-5h-3l0.75-3z"/>
  <path d="m4 3c-1.662 0-3 1.338-3 3v4c0 1.662 1.338 3 3 3h11c1.662 0 3-1.338 3-3v-1h1v-2h-1v-1c0-1.662-1.338-3-3-3zm0 1h11c1.108 0 1.9254 0.89452 2 2v4c0 1.108-0.892 2-2 2h-11c-1.108 0-2-0.892-2-2v-4c0-1.108 0.892-2 2-2z" color="#dedede"/>
 </g>
</svg>
