<svg width="22" height="22" version="1.1" xmlns="http://www.w3.org/2000/svg">
 <defs>
  <style id="current-color-scheme" type="text/css">.ColorScheme-Text { color:#dedede; } .ColorScheme-Highlight { color:#4285f4; }</style>
 </defs>
 <path class="ColorScheme-Text" d="m3 6c-0.554 0-1 0.446-1 1v9c0 0.554 0.446 1 1 1h16c0.554 0 1-0.446 1-1v-9c0-0.554-0.446-1-1-1zm0 1h16v9h-16zm1 2v1h2v-1zm3 0v1h2v-1zm3 0v1h2v-1zm3 0v1h2v-1zm3 0v1h2v-1zm-12 2v1h2v-1zm3 0v1h2v-1zm3 0v1h2v-1zm3 0v1h2v-1zm3 0v1h2v-1zm-12 2v1h2v-1zm3 0v1h8v-1zm9 0v1h2v-1z" fill="currentColor"/>
</svg>
