<svg width="22" height="22" version="1.1" xmlns="http://www.w3.org/2000/svg">
 <defs>
  <style id="current-color-scheme" type="text/css">.ColorScheme-Text { color:#dedede; } .ColorScheme-Highlight { color:#4285f4; }</style>
 </defs>
 <path class="ColorScheme-Text" d="m5.5 5h1.5854c0.20592 0.5826 0.76154 1 1.4146 1h3c0.6531 0 1.2087-0.4174 1.4146-1h1.5854c0.2761 0 0.5 0.2239 0.5 0.5v1c0 0.2761 0.2239 0.5 0.5 0.5s0.5-0.2239 0.5-0.5v-1c0-0.8284-0.6716-1.5-1.5-1.5h-1.5854c-0.2059-0.5826-0.7615-1-1.4146-1h-3c-0.65311 0-1.2087 0.4174-1.4146 1h-1.5854c-0.82843 0-1.5 0.6716-1.5 1.5v12c0 0.8284 0.67157 1.5 1.5 1.5h3c0.27614 0 0.5-0.2239 0.5-0.5s-0.22386-0.5-0.5-0.5h-3c-0.27614 0-0.5-0.2239-0.5-0.5v-12c0-0.2761 0.22386-0.5 0.5-0.5zm3 0c-0.27614 0-0.5-0.2239-0.5-0.5s0.22386-0.5 0.5-0.5h3c0.2761 0 0.5 0.2239 0.5 0.5s-0.2239 0.5-0.5 0.5zm3 3c-0.82843 0-1.5 0.6716-1.5 1.5v8c0 0.8284 0.67157 1.5 1.5 1.5h5c0.8284 0 1.5-0.6716 1.5-1.5v-8c0-0.8284-0.6716-1.5-1.5-1.5zm-0.5 1.5c0-0.2761 0.2239-0.5 0.5-0.5h5c0.2761 0 0.5 0.2239 0.5 0.5v8c0 0.2761-0.2239 0.5-0.5 0.5h-5c-0.2761 0-0.5-0.2239-0.5-0.5z" fill="currentColor"/>
</svg>
