<svg width="22" height="22" version="1.1" xmlns="http://www.w3.org/2000/svg">
 <defs>
  <style id="current-color-scheme" type="text/css">.ColorScheme-Text { color:#dedede; } .ColorScheme-Highlight { color:#4285f4; }</style>
 </defs>
 <path class="ColorScheme-Text" d="m8.0002 9.9867a1 1 0 1 0 0 2 1 1 0 0 0 0-2zm3 0a1 1 0 1 0 0 2 1 1 0 0 0 0-2zm3 0a1 1 0 1 0 0 2 1 1 0 0 0 0-2z" fill="currentColor"/>
 <path class="ColorScheme-Text" d="m10.723 3.084c0.16795-0.11196 0.38675-0.11196 0.55475 0 1.9381 1.2921 4.0343 2.0983 6.2933 2.4211 0.2463 0.0352 0.4293 0.24614 0.4293 0.49497v4.5c0 3.8913-2.307 6.7307-6.8205 8.4667-0.1155 0.0444-0.24345 0.0444-0.35899 0-4.5135-1.736-6.8205-4.5754-6.8205-8.4667v-4.5c0-0.24883 0.18296-0.45979 0.42929-0.49497 2.259-0.32273 4.3552-1.1289 6.2934-2.4211zm-0.12351 1.2619c-1.7464 1.0502-3.6137 1.7447-5.5991 2.082v4.0721c0 3.392 1.968 5.8634 6 7.4632 4.0321-1.5998 6-4.0712 6-7.4632v-4.0721c-1.9854-0.33732-3.8527-1.0318-5.5991-2.082l-0.4009-0.24868z" fill="currentColor"/>
</svg>
