<svg width="22" height="22" version="1.1" xmlns="http://www.w3.org/2000/svg">
 <style id="current-color-scheme" type="text/css">.ColorScheme-Text {
            color:#dedede;
        }
        .ColorScheme-Highlight {
            color:#3daee9;
        }
        .ColorScheme-NegativeText {
            color:#da4453;
        }</style>
 <path class="ColorScheme-Text" d="m11 4c-3.2266 0-5.8715 2.4513-5.9941 5.5684l-0.00391 0.22461v3.6074l-0.92382 2.2207-0.042969 0.12695-0.021484 0.12695c-0.050399 0.4635 0.19274 0.88173 0.60352 1.0527l0.125 0.04297c0.08456 0.0228 0.17182 0.0332 0.25977 0.0332h3.5l0.00586 0.16016c0.084649 1.3041 1.1687 2.3359 2.4941 2.3359 1.3252 0 2.409-1.0303 2.4941-2.334l0.0059-0.16211h3.502l0.13477-0.0098 0.11523-0.02734c0.4527-0.129 0.75-0.51489 0.75-0.96289l-0.0098-0.13086-0.01367-0.08594c-0.0127-0.0569-0.03209-0.11192-0.05469-0.16602l-0.92383-2.2227v-3.5957l-0.0039-0.22461-0.0078-0.11914a4 4 0 0 1-0.98828 0.40625v3.6348l0.03906 0.19141 0.96289 2.3125-0.04492 2e-3 -11.957-2e-3 0.96289-2.3125 0.037085-0.19141v-3.6973l0.00391-0.20508 0.013672-0.21289c0.21002-2.4613 2.3579-4.3848 4.9805-4.3848 0.04509 0 0.08997 0.0028 0.13477 0.0039a4 4 0 0 1 0.39844-0.98047c-0.17569-0.014885-0.35357-0.023432-0.5332-0.023432zm-1.498 13.004h3l-0.0059 0.14062c-0.072559 0.7606-0.7144 1.3555-1.4941 1.3555l-0.14453-0.0078c-0.71281-0.0681-1.2791-0.63496-1.3477-1.3477z" fill="currentColor"/>
 <path class="ColorScheme-Highlight" d="m18 6a3 3 0 0 1-6 0 3 3 0 1 1 6 0z" fill="currentColor"/>
</svg>
