<svg width="22" height="22" version="1.1" xmlns="http://www.w3.org/2000/svg">
 <style id="current-color-scheme" type="text/css">.ColorScheme-Text {
            color:#dedede;
        }
        .ColorScheme-ButtonFocus {
            color:#3daee9;
        }
        .ColorScheme-NegativeText {
            color:#da4453;
        }</style>
 <path class="ColorScheme-Text" d="m10.994 4c3.1489 0 5.7439 2.3349 5.9844 5.3554l0.0134 0.22222 0.0045 0.22452-1e-3 3.5959 0.9254 2.2222c0.0226 0.0541 0.0403 0.11 0.053 0.1669l0.0152 0.0862 0.0087 0.1313c0 0.448-0.2965 0.8341-0.7492 0.9631l-0.1163 0.0268-0.1345 0.0101-3.5017-6e-4 -5e-3 0.1613c-0.0851 1.3037-1.1694 2.3347-2.4946 2.3347-1.3255 0-2.41-1.0315-2.4947-2.3356l-0.0057-0.1604-3.5007 6e-4c-0.08795 0-0.17533-0.0116-0.25989-0.0344l-0.12446-0.0425c-0.41078-0.171-0.65275-0.5885-0.60235-1.052l0.02109-0.1274 0.04242-0.1281 0.9233-2.2192 0.0011-3.6082 0.0043-0.22457c0.12262-3.1171 2.7666-5.5682 5.9933-5.5682zm1.5019 13.004h-3l0.0074 0.1414c0.06855 0.7127 0.63578 1.2796 1.3486 1.3477l0.14444 7e-3c0.7797 0 1.4205-0.5949 1.4931-1.3555zm-1.5019-12.004c-2.6226 0-4.7705 1.9237-4.9805 4.385l-0.01322 0.21225-0.0039 0.20491v3.6979l-0.03841 0.1922-0.96271 2.3124 11.958 2e-3 0.0453-2e-3 -0.9635-2.3123-0.0384-0.1922 1e-4 -3.6876-0.0041-0.2041c-0.1051-2.5734-2.3013-4.6083-4.9983-4.6083z" fill="currentColor"/>
</svg>
