<svg width="22" height="22" version="1.1" xmlns="http://www.w3.org/2000/svg">
 <defs>
  <style id="current-color-scheme" type="text/css">.ColorScheme-Text { color:#dedede; } .ColorScheme-Highlight { color:#4285f4; }</style>
 </defs>
 <path class="ColorScheme-Text" fill="currentColor" d="m3 6c-0.554 0-1 0.446-1 1v9c0 0.554 0.446 1 1 1h9.4238a5 5 0 0 1-0.31055-1h-9.1133v-9h16v3.4199a5 5 0 0 1 1 0.58203v-4.002c0-0.554-0.446-1-1-1h-16zm1 3v1h2v-1h-2zm3 0v1h2v-1h-2zm3 0v1h2v-1h-2zm3 0v1h2v-1h-2zm3 0v1h1 1v-1h-2zm-12 2v1h2v-1h-2zm3 0v1h2v-1h-2zm3 0v1h2v-1h-2zm3 0v1h0.015625a5 5 0 0 1 1.0059-1h-1.0215zm-9 2v1h2v-1h-2zm3 0v1h5.1133a5 5 0 0 1 0.31055-1h-5.4238z"/>
 <path d="m17 11a4 4 0 0 0-4 4 4 4 0 0 0 4 4 4 4 0 0 0 4-4 4 4 0 0 0-4-4zm0 1a3 3 0 0 1 3 3 3 3 0 0 1-3 3 3 3 0 0 1-3-3 3 3 0 0 1 3-3z" class="ColorScheme-Text" fill="currentColor"/>
 <circle cx="17" cy="15" r="2" class="ColorScheme-Text" fill="currentColor"/>
</svg>
