<svg width="22" height="22" version="1.1" xmlns="http://www.w3.org/2000/svg">
 <defs>
  <style id="current-color-scheme" type="text/css">.ColorScheme-Text { color:#dedede; } .ColorScheme-Highlight { color:#4285f4; }</style>
 </defs>
 <path class="ColorScheme-Text" d="m7.5 4c-0.82843 1e-7 -1.5 0.67157-1.5 1.5v0.5h-0.5c-1.3807 0-2.5 1.1193-2.5 2.5v5c0 0.8284 0.67157 1.5 1.5 1.5h1.5v1.5c0 0.8284 0.67157 1.5 1.5 1.5h7c0.8284 0 1.5-0.6716 1.5-1.5v-1.5h1.5c0.8284 0 1.5-0.6716 1.5-1.5v-5c0-1.3807-1.1193-2.5-2.5-2.5h-0.5v-0.5c0-0.82843-0.6716-1.5-1.5-1.5h-1.5v1h1.5c0.2761 0 0.5 0.22386 0.5 0.5v0.5h-2v1h3.5c0.8284 0 1.5 0.67157 1.5 1.5v5c0 0.27614-0.2239 0.5-0.5 0.5h-1.5v-1.5c0-0.82843-0.6716-1.5-1.5-1.5h-7c-0.82843 0-1.5 0.67157-1.5 1.5v1.5h-1.5c-0.27614 0-0.5-0.22386-0.5-0.5v-5c0-0.82843 0.67157-1.5 1.5-1.5h3.5v-1h-2v-0.5c0-0.27614 0.22386-0.5 0.5-0.5h1.5v-1zm0 8h7c0.2761 0 0.5 0.22386 0.5 0.5v4c0 0.2761-0.2239 0.5-0.5 0.5h-7c-0.27614 0-0.5-0.2239-0.5-0.5v-4c0-0.27614 0.22386-0.5 0.5-0.5z" fill="currentColor"/>
 <path d="m10 2.9961v5h-1l2 2 2-2h-1v-5z" fill="#00a6ff"/>
</svg>
