<?xml version="1.0" encoding="UTF-8"?>
<!-- Created with Inkscape (http://www.inkscape.org/) -->
<svg width="1680" height="1680" version="1.1" viewBox="0 0 444.5 444.5" xmlns="http://www.w3.org/2000/svg">
 <defs>
  <style id="current-color-scheme" type="text/css">.ColorScheme-Text { color:#363636; }</style>
  <style type="text/css">.ColorScheme-Text { color:#363636; }</style>
 </defs>
 <rect x="154.95" y="10.319" width="134.6" height="20.108" rx="10.054" ry="10.054" fill="#4d4d4d" stroke-width=".77362"/>
 <rect x="26.425" y="41.3" width="391.65" height="173.63" rx="11.486" ry="11.486" fill="#f5f5f5" stroke="#000" stroke-linecap="square" stroke-opacity=".2" stroke-width=".46391" style="paint-order:normal"/>
 <text x="171.79041" y="23.307209" fill="#ffffff" font-family="sans-serif" font-size="10.583px" letter-spacing="0px" stroke-width=".26458" word-spacing="0px" style="line-height:1.25" xml:space="preserve"><tspan x="171.79041" y="23.307209" fill="#ffffff" stroke-width=".26458">Install round version</tspan></text>
 <rect x="26.723" y="173.67" width="391.05" height=".52917" rx="0" ry="0" fill-opacity=".2"/>
 <rect x="50.97" y="72.965" width="342.56" height="26.458" rx="6.1739" ry="6.1739" fill="#fff" stroke-linecap="round" stroke-linejoin="round" stroke-width=".50546" style="paint-order:stroke fill markers"/>
 <g transform="translate(-3.9863 1.8088)">
  <path d="m78.41 80.604q0.37603 0.37603 0.66433 0.81474 0.29247 0.43869 0.49302 0.92337 0.20056 0.48049 0.30082 0.99858 0.10445 0.51391 0.10445 1.0445 0 0.53061-0.10445 1.0487-0.10027 0.51391-0.30082 0.99856-0.20056 0.48049-0.49302 0.9192-0.28829 0.43871-0.66433 0.81475l-0.37603-0.37604q0.33843-0.33842 0.59746-0.73119 0.26322-0.39693 0.44288-0.83142 0.17967-0.43451 0.27158-0.89831 0.09611-0.46794 0.09611-0.94425 0-0.47631-0.09611-0.94011-0.09193-0.46794-0.27158-0.90245-0.17967-0.43453-0.44288-0.82726-0.25904-0.39692-0.59746-0.73537zm-1.1323 1.1323q0.26322 0.26322 0.46377 0.57239 0.20473 0.30499 0.34261 0.64343 0.14207 0.33842 0.21308 0.7019 0.0752 0.36349 0.0752 0.73119 0 0.37186-0.0752 0.73537-0.07104 0.35931-0.21308 0.69773-0.13789 0.33842-0.34261 0.64759-0.20056 0.30501-0.46377 0.56823l-0.38021-0.38022q0.45124-0.45124 0.69356-1.0404 0.24651-0.5891 0.24651-1.2284 0-0.63925-0.24651-1.2284-0.24233-0.58912-0.69356-1.0404zm-1.1364 1.1364q0.30082 0.30082 0.46377 0.69357 0.16296 0.39275 0.16296 0.81891t-0.16296 0.81891q-0.16296 0.39275-0.46377 0.69357l-0.37603-0.37602q0.22562-0.22563 0.34678-0.51809 0.12116-0.29666 0.12116-0.61836 0-0.32174-0.12116-0.61419-0.12116-0.29664-0.34678-0.52227zm-1.8927-1.6963h0.38021v6.4177h-0.38021l-1.6044-1.6044h-1.2242v-3.2088h1.2242zm-0.15459 0.91503-1.2242 1.2242h-0.91503v2.1392h0.91503l1.2242 1.2242z" fill="#363636" stroke-linecap="round" stroke-linejoin="round" stroke-width="1.0696" style="paint-order:stroke fill markers"/>
  <g transform="matrix(.53454 0 0 .53454 98.864 80.643)" fill="#363636" stroke-linecap="round" stroke-linejoin="round">
   <path d="m6 3v1h7c0.554 0 1 0.446 1 1v6c0 0.554-0.446 1-1 1h-9v1h9c1.108 0 2-0.892 2-2v-2h1v-2h-1v-2c0-1.108-0.892-2-2-2z" stroke-width="1.5" style="paint-order:stroke fill markers"/>
   <path d="m6 5v0.5c0 1.3994-0.81858 2.5934-2 3.1543v2.3457h3v-6z" stroke-width="1.5" style="paint-order:stroke fill markers"/>
   <g transform="translate(-.069557)" stroke-width="4" style="paint-order:stroke fill markers" aria-label="">
    <path d="m5.0696 5.5c0 0.29167-0.052083 0.57292-0.15625 0.84375-0.09375 0.27083-0.22917 0.51562-0.40625 0.73438s-0.39062 0.40625-0.64062 0.5625c-0.23958 0.14583-0.50521 0.25-0.79688 0.3125v5.0469h-1v-5.0469c-0.29167-0.0625-0.5625-0.16667-0.8125-0.3125-0.23958-0.15625-0.44792-0.34375-0.625-0.5625s-0.31771-0.46354-0.42188-0.73438c-0.09375-0.27083-0.14062-0.55208-0.14062-0.84375v-2.5h1v-2h1v2h1v-2h1v2h1zm-4 0c0 0.41667 0.14583 0.77083 0.4375 1.0625s0.64583 0.4375 1.0625 0.4375 0.77083-0.14583 1.0625-0.4375 0.4375-0.64583 0.4375-1.0625v-1.5h-3z" fill="#363636" stroke-width="4"/>
   </g>
  </g>
  <path d="m158.03 80.376c-0.59046 0-1.0691 0.47864-1.0691 1.0691h-1.0691v3e-3c-0.59494 0.01737-1.0691 0.49897-1.0691 1.0983v4.7461c0 0.61044 0.491 1.1014 1.1014 1.1014h4.2116c0.61043 0 1.1014-0.49099 1.1014-1.1014v-4.7461c0-0.61044-0.491-1.1014-1.1014-1.1014h-1.0367c0-0.07376-2e-3 -0.14766-0.0161-0.21716-0.10486-0.49732-0.5441-0.85291-1.0524-0.85195zm-6e-3 0.53454c2e-3 -1.2e-5 4e-3 -1.2e-5 6e-3 0 0.22129 0 0.40316 0.14219 0.48442 0.33409 0.0305 0.06263 0.0475 0.1309 0.0501 0.20046-4e-5 0.47474-0.57282 0.71372-0.91037 0.38003-0.33759-0.33369-0.10505-0.90898 0.36958-0.91454zm-2.1319 1.0691h1.0691v0.53454s-0.53456 0-0.53456 0.53454h3.2072c0-0.4009-0.3008-0.50942-0.45101-0.53454h-0.0834v-0.53454h1.0691c0.29613 0 0.53453 0.2384 0.53453 0.53454v4.8109c0 0.29614-0.2384 0.53454-0.53453 0.53454h-4.2763c-0.29614 0-0.53453-0.2384-0.53453-0.53454v-4.8109c0-0.29614 0.23839-0.53454 0.53453-0.53454z" fill="#363636" stroke-width=".53454"/>
  <g transform="matrix(.53454 0 0 .53454 126.31 80.109)" fill="#363636" stroke-linecap="round" stroke-linejoin="round" stroke-width="1.5">
   <path d="m2 3c-1.108 0-2 0.892-2 2v6c0 1.108 0.892 2 2 2h11c1.108 0 2-0.892 2-2v-2h1v-2h-1v-2c0-1.108-0.892-2-2-2zm0 1h11c0.554 0 1 0.446 1 1v6c0 0.554-0.446 1-1 1h-11c-0.554 0-1-0.446-1-1v-6c0-0.554 0.446-1 1-1z" style="paint-order:stroke fill markers"/>
   <rect x="2" y="5" width="11" height="6" rx="0" ry="0" style="paint-order:stroke fill markers"/>
  </g>
  <g transform="matrix(.53454 0 0 .53454 181.46 79.841)">
   <g transform="translate(-613,191)">
    <path d="m620.25-190c-0.13807 0-0.25 0.11193-0.25 0.25v1.5c0 0.139 0.112 0.25 0.25 0.25h0.5c0.13807 0 0.25-0.11193 0.25-0.25v-1.5c0-0.13807-0.11193-0.25-0.25-0.25zm-4.699 1.947c-0.0667-3.8e-4 -0.13078 0.0259-0.178 0.073l-0.353 0.353c-0.0979 0.0977-0.0979 0.25632 0 0.354l1.06 1.06c0.0977 0.0979 0.25632 0.0979 0.354 0l0.353-0.353c0.0979-0.0977 0.0979-0.25632 0-0.354l-1.06-1.06c-0.0465-0.047-0.10991-0.0733-0.176-0.073zm9.898 0c-0.0657-3e-5 -0.12877 0.0263-0.175 0.073l-1.06 1.06c-0.0979 0.0977-0.0979 0.25632 0 0.354l0.353 0.353c0.0976 0.0973 0.25543 0.0973 0.353 0l1.06-1.06c0.0979-0.0977 0.0979-0.25632 0-0.354l-0.353-0.353c-0.0472-0.0471-0.1113-0.0734-0.178-0.073zm-12.199 5.053c-0.13807 0-0.25 0.11193-0.25 0.25v0.5c0 0.139 0.112 0.25 0.25 0.25h1.5c0.13807 0 0.25-0.11193 0.25-0.25v-0.5c0-0.13807-0.11193-0.25-0.25-0.25zm13 0c-0.13807 0-0.25 0.11193-0.25 0.25v0.5c0 0.139 0.112 0.25 0.25 0.25h1.5c0.13807 0 0.25-0.11193 0.25-0.25v-0.5c0-0.13807-0.11193-0.25-0.25-0.25zm-9.992 4.139c-0.0668 1e-4 -0.13082 0.0267-0.178 0.074l-1.06 1.06c-0.0979 0.0977-0.0979 0.25632 0 0.354l0.353 0.353c0.0977 0.0979 0.25632 0.0979 0.354 0l1.06-1.06c0.0979-0.0977 0.0979-0.25632 0-0.354l-0.353-0.353c-0.0464-0.0472-0.10981-0.0738-0.176-0.074zm8.484 0c-0.0658 4.6e-4 -0.1288 0.0271-0.175 0.074l-0.354 0.353c-0.0979 0.0977-0.0979 0.25632 0 0.354l1.06 1.06c0.0977 0.0979 0.25632 0.0979 0.354 0l0.354-0.353c0.0979-0.0977 0.0979-0.25632 0-0.354l-1.06-1.06c-0.0474-0.0475-0.11186-0.0742-0.179-0.074zm-4.492 1.861c-0.13807 0-0.25 0.11193-0.25 0.25v1.5c0 0.139 0.112 0.25 0.25 0.25h0.5c0.13807 0 0.25-0.11193 0.25-0.25v-1.5c0-0.13807-0.11193-0.25-0.25-0.25z" color="#000000" fill="#363636" overflow="visible" style="isolation:auto;mix-blend-mode:normal"/>
   </g>
   <circle cx="7.5" cy="8.5" r="3.5" fill="#363636" fill-rule="evenodd" style="paint-order:stroke fill markers"/>
  </g>
  <g fill="#363636">
   <path d="m212.92 88.127v-3.7418h-3.7418l7.4836-3.7418z" color="#000000" overflow="visible" stroke-width=".53454"/>
   <path d="m236.62 81.178c-0.29614 0-0.53455 0.2384-0.53455 0.53454v2.1382c0 0.29614 0.23841 0.53454 0.53455 0.53454h0.53453v3.2072h0.53453v-1.6036h2.6727v1.0691h-1.6036v0.53454h3.7418v-0.53454h-1.6036v-1.0691h3.2072c0.29613 0 0.53455-0.2384 0.53455-0.53454v-3.7418c0-0.29614-0.23842-0.53454-0.53455-0.53454h-6.4145zm0 0.53454h1.6036v0.53454h-1.6036zm2.1382 0h5.3454v3.7418h-6.4145v-1.0691h0.53456c0.29612 0 0.53453-0.2384 0.53453-0.53454zm-2.1382 1.0691h0.53453v0.53454h0.53453v-0.53454h0.53456v1.0691h-1.6036z" stroke-linecap="round" stroke-linejoin="round" stroke-width="5.3454" style="paint-order:stroke fill markers"/>
   <path d="m267.8 80.376a0.53454 0.53454 0 0 0-0.53132 0.58799 2.6663 2.6663 0 0 0-2.1414 2.6192v2.4054l-1.0691 1.0691v0.26727h7.4836v-0.26727l-1.0691-1.0691v-2.4054a2.6658 2.6658 0 0 0-2.1414-2.6192 0.53454 0.53454 0 0 0-0.53134-0.58799zm0 1.0691a2.1382 2.1382 0 0 1 2.1382 2.1382v2.631l0.53454 0.57623h-5.3454l0.53453-0.57623v-2.631a2.1382 2.1382 0 0 1 2.1382-2.1382zm-0.92476 6.4145a1.0691 1.0691 0 0 0 0.92476 0.53453 1.0691 1.0691 0 0 0 0.92423-0.53453z" stroke-linecap="round" stroke-width="1.6036"/>
   <path d="m293.11 85.989v0.53454h-1.0691v-0.53454zm6.4145 0.53454h-3.7418v0.53454h1.0691v0.53454h-5.8799v-4.8109h0.53453v-1.6036h8.0181zm-5.88 0.53454v-3.7418h-2.1382v3.7418zm1.6036 0v-0.53454h-1.0691v0.53454zm-1.0691-1.0691h4.8109v-4.2763h-6.949v1.0691h2.1382z" stroke-linecap="square" stroke-width="1.4254" style="paint-order:stroke fill markers"/>
  </g>
  <g transform="matrix(.53454 0 0 .53454 318.41 80.109)">
   <path d="m7 2v5h-1l2 2 2-2h-1v-5z" fill="#00a6ff"/>
   <g fill="#363636" stroke-linecap="round" stroke-linejoin="round" stroke-width="2" style="paint-order:stroke fill markers" aria-label="">
    <path d="m4 0v6h-3c-0.13541 0-0.26562 0.026042-0.39062 0.078125-0.11979 0.052087-0.22657 0.125-0.32031 0.21875-0.088543 0.08854-0.15885 0.19531-0.21094 0.32031-0.052083 0.11979-0.078125 0.2474-0.078125 0.38281v7h4v2h8v-2h4v-7c0-0.13541-0.02604-0.26302-0.07813-0.38281-0.05209-0.125-0.125-0.23177-0.21875-0.32031-0.088535-0.09375-0.1953-0.16667-0.3203-0.21875-0.11979-0.052083-0.2474-0.078125-0.38281-0.078125h-3v-6h-8zm1 1h6v6h4v6h-3v-3h-8v3h-3v-6h4v-2zm-2.5 7c-0.13541 0-0.2526 0.049478-0.35156 0.14844s-0.14844 0.21615-0.14844 0.35156 0.049478 0.2526 0.14844 0.35156 0.21615 0.14844 0.35156 0.14844 0.2526-0.049478 0.35156-0.14844 0.14844-0.21615 0.14844-0.35156-0.049478-0.2526-0.14844-0.35156-0.21615-0.14844-0.35156-0.14844zm2.5 3h6v4h-6z" fill="#363636"/>
   </g>
  </g>
  <path d="m346.93 80.627v4.2763c0 1.1076 0.8419 1.8827 1.5699 2.3889a7.8887 7.8887 0 0 0 1.4368 0.7847l0.20042 0.06681 0.20042-0.06681s0.71095-0.29079 1.4363-0.80181c0.72642-0.51049 1.5705-1.2792 1.5705-2.3718v-4.2763zm0.53453 0.53454h5.3454v3.7418c0 1.5844-2.6727 2.6727-2.6727 2.6727s-2.6727-1.0424-2.6727-2.6727z" color="#363636" fill="#363636" font-family="Sans" font-weight="400" overflow="visible" stroke-width="1.0691" style="text-decoration-line:none;text-indent:0;text-transform:none"/>
  <g transform="matrix(.53454 0 0 .53454 373.57 80.375)" fill="#363636">
   <path d="m1 7.43c-0.01 0.68 0.088 1.37 0.3 2.043 0.854 2.696 3.366 4.531 6.2 4.531s5.346-1.835 6.2-4.531a6.47 6.47 0 0 0-2.472-7.256l-0.572 0.82c1.968 1.374 2.812 3.853 2.09 6.135s-2.843 3.832-5.246 3.832-4.524-1.55-5.246-3.832 0.122-4.761 2.09-6.135l-0.573-0.82a6.477 6.477 0 0 0-2.771 5.213z"/>
   <path d="m7 1v7h1v-7z"/>
  </g>
 </g>
 <rect x="50.97" y="131.92" width="342.56" height="26.458" rx="6.1739" ry="6.1739" fill="#fff" stroke-linecap="round" stroke-linejoin="round" stroke-width=".50546" style="paint-order:stroke fill markers"/>
 <g transform="translate(-3.9862 2.2499)">
  <g transform="matrix(.53454 0 0 .53454 71.42 138.63)" fill="#363636" stroke-linecap="round" stroke-linejoin="round" stroke-width="2.001" style="paint-order:stroke fill markers" aria-label="">
   <path d="m12.363 0.92969a0.5 0.5 0 0 0 0 0.70703c1.688 1.6877 2.6364 3.9763 2.6367 6.3633-0.0097 2.3829-0.96468 4.6633-2.6543 6.3438a0.5 0.5 0 0 0-2e-3 0.70898 0.5 0.5 0 0 0 0.70898 2e-3c1.8776-1.8674 2.9371-4.4047 2.9473-7.0528a0.50005 0.50005 0 0 0 0-0.00195c-4.01e-4 -2.6518-1.0544-5.1954-2.9297-7.0703a0.5 0.5 0 0 0-0.70703 0z" color="#000000" style="-inkscape-stroke:none;paint-order:normal"/>
   <path d="m10.242 3.0508a0.5 0.5 0 0 0 0 0.70703c1.1254 1.1252 1.7576 2.6508 1.7578 4.2422-0.0065 1.5885-0.64326 3.1082-1.7695 4.2285a0.5 0.5 0 0 0-2e-3 0.70898 0.5 0.5 0 0 0 0.70898 2e-3c1.3143-1.3073 2.0556-3.0839 2.0625-4.9375a0.50005 0.50005 0 0 0 0-0.00195c-2.8e-4 -1.8562-0.7381-3.6368-2.0508-4.9492a0.5 0.5 0 0 0-0.70703 0z" color="#000000" style="-inkscape-stroke:none;paint-order:normal"/>
   <path d="m8.4746 5.0254a0.5 0.5 0 0 0-0.35352 0.14648 0.5 0.5 0 0 0 0 0.70703c0.56277 0.56265 0.87879 1.3253 0.87891 2.1211-0.00327 0.7941-0.32182 1.5551-0.88477 2.1152a0.5 0.5 0 0 0 0 0.70703 0.5 0.5 0 0 0 0.70703 0c0.75086-0.74715 1.174-1.7611 1.1777-2.8203a0.50005 0.50005 0 0 0 0-0.00195c-1.602e-4 -1.0606-0.42183-2.0782-1.1719-2.8281a0.5 0.5 0 0 0-0.35352-0.14648z" color="#000000" style="-inkscape-stroke:none;paint-order:normal"/>
   <path d="m6.0977 2.7129a1.0001 1.0001 0 0 0-0.80469 0.28906l-1.9961 1.998h-1.2969c-1.0907 0-2 0.9093-2 2v2c0 1.0907 0.9093 2 2 2h1.2969l1.9961 1.998a1.0001 1.0001 0 0 0 1.707-0.70703v-8.582a1.0001 1.0001 0 0 0-0.61719-0.92383 1.0001 1.0001 0 0 0-0.28516-0.072266zm-0.097656 0.99609v8.582l-2.2891-2.291h-1.7109c-0.554 0-1-0.446-1-1v-2c0-0.554 0.446-1 1-1h1.7109z" color="#000000" style="-inkscape-stroke:none"/>
  </g>
  <g transform="matrix(.53454 0 0 .53454 126.31 138.62)" fill="#363636">
   <rect x="2" y="5" width="11" height="6" rx="1" ry="1" stroke-linecap="round" stroke-linejoin="round" stroke-width="1.5" style="paint-order:stroke fill markers"/>
   <path d="m3 3c-1.662 0-3 1.338-3 3v4c0 1.662 1.338 3 3 3h9c1.662 0 3-1.338 3-3v-1h1v-2h-1v-1c0-1.662-1.338-3-3-3zm0 1h9c1.108 0 1.9254 0.89452 2 2v4c0 1.108-0.892 2-2 2h-9c-1.108 0-2-0.892-2-2v-4c0-1.108 0.892-2 2-2z"/>
  </g>
  <g transform="matrix(.53454 0 0 .53454 153.75 138.89)" fill="#363636" stroke-linecap="round" stroke-linejoin="round" stroke-width="2">
   <path d="m5.5 0c-0.65571 0-1.2111 0.41602-1.416 1h-1.084c-1.108 0-2 0.892-2 2v10c0 1.108 0.892 2 2 2h2.5c0.277 0 0.5-0.223 0.5-0.5s-0.223-0.5-0.5-0.5h-2.5c-0.554 0-1-0.446-1-1v-10c0-0.554 0.446-1 1-1h1.084c0.2049 0.58398 0.7603 1 1.416 1h3c0.65571 0 1.2111-0.41602 1.416-1h1.084c0.554 0 1 0.446 1 1v0.5c0 0.277 0.223 0.5 0.5 0.5s0.5-0.223 0.5-0.5v-0.5c0-1.108-0.892-2-2-2h-1.084c-0.2049-0.58398-0.7603-1-1.416-1zm0 1h3c0.277 0 0.5 0.223 0.5 0.5s-0.223 0.5-0.5 0.5h-3c-0.277 0-0.5-0.223-0.5-0.5s0.223-0.5 0.5-0.5zm-1.4414 0.080078c-0.011106 0.038401-0.019277 0.077566-0.027344 0.11719-0.0046 0.022588-0.010094 0.045408-0.013672 0.068359 0.00355-0.023165 0.00908-0.045564 0.013672-0.068359 0.00799-0.039721 0.016277-0.078714 0.027344-0.11719zm5.8828 0c0.011067 0.038473 0.019349 0.077466 0.027344 0.11719 0.00459 0.022796 0.010122 0.045194 0.013672 0.068359-0.00358-0.022952-0.00907-0.045771-0.013672-0.068359-0.00807-0.039622-0.016238-0.078787-0.027344-0.11719zm-5.9238 0.6543c0.00358 0.022952 0.00907 0.045771 0.013672 0.068359 0.00807 0.039622 0.016238 0.078787 0.027344 0.11719-0.011067-0.038473-0.01935-0.077466-0.027344-0.11719-0.004588-0.022796-0.010122-0.045194-0.013672-0.068359zm5.9648 0c-0.00355 0.023165-0.00908 0.045564-0.013672 0.068359-0.00799 0.039721-0.016277 0.078714-0.027344 0.11719 0.011106-0.038401 0.019277-0.077566 0.027344-0.11719 0.0046-0.022588 0.010094-0.045408 0.013672-0.068359z" style="paint-order:stroke fill markers"/>
   <path d="m9 5c-1.108 0-2 0.892-2 2v6c0 1.108 0.892 2 2 2h4c1.108 0 2-0.892 2-2v-6c0-1.108-0.892-2-2-2zm0 1h4c0.554 0 1 0.446 1 1v6c0 0.554-0.446 1-1 1h-4c-0.554 0-1-0.446-1-1v-6c0-0.554 0.446-1 1-1z" style="paint-order:stroke fill markers"/>
  </g>
  <g fill="#363636" stroke-width=".53454">
   <path d="m185.74 139.42c0-0.14767-0.11961-0.26725-0.26729-0.26725-0.14769 0-0.26727 0.1196-0.26727 0.26725v0.53454c0 0.14768 0.1196 0.26727 0.26727 0.26727 0.14768 0 0.26729-0.11961 0.26729-0.26727zm-2.5351 0.82865c-0.10445-0.10445-0.27359-0.10445-0.37798 0-0.10445 0.10446-0.10445 0.27359 0 0.37796l0.37798 0.37798c0.10444 0.10446 0.2736 0.10446 0.37797 0 0.10445-0.10445 0.10445-0.27359 0-0.37798zm4.9136 0.37796c0.10445-0.10445 0.10445-0.27359 0-0.37796-0.10425-0.10445-0.27357-0.10445-0.37796 0l-0.37798 0.37796c-0.10425 0.10446-0.10425 0.27361 0 0.37798 0.10445 0.10446 0.27363 0.10446 0.37798 0zm-6.1205 2.0006c-0.14768 0-0.26727 0.1196-0.26727 0.26729 0 0.14768 0.1196 0.26726 0.26727 0.26726h0.53455c0.14769 0 0.26727-0.1196 0.26727-0.26726 0-0.14769-0.1196-0.26729-0.26727-0.26729zm6.4145 0c-0.14748 0-0.26726 0.1196-0.26726 0.26729 0 0.14768 0.1196 0.26726 0.26726 0.26726h0.53455c0.14769 0 0.26727-0.1196 0.26727-0.26726 0-0.14769-0.1196-0.26729-0.26727-0.26729zm-4.8298 2.5351c0.10445-0.10425 0.10445-0.27359 0-0.37798-0.10446-0.10445-0.27361-0.10445-0.37798 0l-0.37798 0.37798c-0.10446 0.10445-0.10446 0.27363 0 0.37796 0.10445 0.10445 0.27361 0.10445 0.37798 0zm4.1577-0.37798c-0.10426-0.10445-0.27359-0.10445-0.37798 0-0.10425 0.10445-0.10425 0.27363 0 0.37798l0.37798 0.37796c0.10444 0.10445 0.27363 0.10445 0.37796 0 0.10444-0.10425 0.10444-0.27357 0-0.37796zm-2.0006 1.0501c0-0.14748-0.1196-0.26727-0.26729-0.26727-0.14768 0-0.26726 0.1196-0.26726 0.26727v0.53455c0 0.14768 0.1196 0.26726 0.26726 0.26726 0.14769 0 0.26729-0.1196 0.26729-0.26726zm-0.26729-5.0781c-1.1808 0-2.1382 0.95731-2.1382 2.1382 0 1.1808 0.9573 2.1382 2.1382 2.1382 1.1809 0 2.1382-0.95731 2.1382-2.1382 0-1.1809-0.9573-2.1382-2.1382-2.1382zm-1.6036 2.1382c0-0.88565 0.718-1.6036 1.6036-1.6036 0.88564 0 1.6036 0.71797 1.6036 1.6036 0 0.88562-0.71798 1.6036-1.6036 1.6036-0.88562 0-1.6036-0.71795-1.6036-1.6036z"/>
   <path d="m212.92 139.16c1.7713 0 3.2072 1.4359 3.2072 3.2072 0 1.5326-1.0343 2.9431-3.0638 4.2345-0.0875 0.0558-0.1994 0.0558-0.28698 0-2.0294-1.2915-3.0638-2.7019-3.0638-4.2345 0-1.7713 1.4359-3.2072 3.2072-3.2072zm0 0.53453c-1.4761 0-2.6727 1.1966-2.6727 2.6727 0 1.243 0.82302 2.4363 2.502 3.577l0.17071 0.11395 0.17072-0.11395c1.6789-1.1408 2.5019-2.334 2.5019-3.577 0-1.4761-1.1966-2.6727-2.6727-2.6727zm0 1.8709c0.44283 0 0.80182 0.35897 0.80182 0.8018s-0.35899 0.8018-0.80182 0.8018-0.8018-0.35897-0.8018-0.8018 0.35897-0.8018 0.8018-0.8018z"/>
   <path d="m242.5 138.89c-0.29615 0-0.53456 0.23842-0.53456 0.53456v2.6727c0 0.29613 0.23841 0.53455 0.53456 0.53455h0.53453v3.9798c0 0.16445 0.1192 0.2965 0.26727 0.2965 0.14808 0 0.26726-0.13193 0.26726-0.2965v-3.9798h0.53455c0.29612 0 0.53454-0.23842 0.53454-0.53455v-2.6727c0-0.29614-0.23842-0.53456-0.53454-0.53456zm-5.3454 0.53456c-0.59227 0-1.0691 0.47681-1.0691 1.0691v3.7418c0 0.59228 0.47902 1.0179 1.0691 1.0691h1.6036v1.0691h-0.8018c-0.0182 0-0.0368 2e-3 -0.0543 6e-3 -0.0182 4e-3 -0.0342 8e-3 -0.0501 0.0162-0.0161 6e-3 -0.0307 0.0161-0.0448 0.0251-0.0142 0.0103-0.0277 0.0202-0.0397 0.0323-0.0121 0.0121-0.0228 0.0254-0.0323 0.0396-0.0103 0.0142-0.0182 0.0289-0.0251 0.0448-6e-3 0.0162-0.0121 0.0327-0.0162 0.0501-4e-3 0.0182-6e-3 0.0357-6e-3 0.0543 0 0.0182 2e-3 0.0368 6e-3 0.0543 4e-3 0.0182 8e-3 0.0342 0.0162 0.0501 6e-3 0.0161 0.0161 0.0307 0.0251 0.0448 0.0103 0.0141 0.0204 0.0277 0.0323 0.0396 0.0121 0.0121 0.0255 0.0228 0.0397 0.0323 0.0141 0.0103 0.0289 0.0182 0.0448 0.0251 0.0161 6e-3 0.0327 0.0121 0.0501 0.0161 0.0182 4e-3 0.0357 6e-3 0.0543 6e-3h4.2763c0.0182 0 0.0368-2e-3 0.0543-6e-3 0.0182-4e-3 0.0342-8e-3 0.0501-0.0161 0.0161-6e-3 0.0307-0.0162 0.0448-0.0251 0.0142-0.0103 0.0277-0.0202 0.0396-0.0323 0.0121-0.0121 0.0228-0.0255 0.0323-0.0396 0.0103-0.0142 0.0182-0.0289 0.0251-0.0448 6e-3 -0.0162 0.0121-0.0327 0.0161-0.0501 4e-3 -0.0182 6e-3 -0.0357 6e-3 -0.0543 0-0.14809-0.1192-0.26727-0.26727-0.26727h-0.26726v-1.0691h0.26726c0.14809 0 0.26727-0.1192 0.26727-0.26727 0-0.14809-0.11981-0.28008-0.26727-0.26728h-5.0781c-0.29613 0-0.53453-0.2384-0.53453-0.53454v-3.7418c0-0.29613 0.2384-0.53455 0.53453-0.53455h4.0091c0.14808 0 0.26725-0.1192 0.26725-0.26726 0-0.14809-0.11918-0.26727-0.26725-0.26727h-4.0091zm5.3454 0h1.6036v0.53453h-1.6036zm0 1.0691h1.6036v1.6036h-1.6036zm-3.2072 4.8109h2.1382v1.0691h-2.1382z"/>
   <path d="m267.8 138.89c-1.7248 0-3.1385 1.3103-3.2041 2.9765l-2e-3 0.12v1.9283l-0.49383 1.187-0.023 0.0678-0.0121 0.0678c-0.0268 0.24778 0.10306 0.47132 0.3226 0.56272l0.0669 0.023c0.0452 0.0121 0.0919 0.0182 0.1388 0.0182h1.0711v-2e-3h0.62953a1.6036 1.6036 0 0 0 1.5086 1.0691 1.6036 1.6036 0 0 0 1.5086-1.0691h1.1641v2e-3h0.53351l0.0721-6e-3 0.0616-0.0142c0.24198-0.0689 0.4009-0.27525 0.4009-0.51471l-6e-3 -0.0699-8e-3 -0.0459c-6e-3 -0.0305-0.0161-0.0598-0.0281-0.0887l-0.49485-1.1881v-1.9223l-2e-3 -0.12-8e-3 -0.119c-0.12849-1.6146-1.5157-2.8627-3.1989-2.8627zm0 0.53453c1.4416 0 2.6154 1.0873 2.6716 2.4628l2e-3 0.10971v1.9711l0.0209 0.10223 0.51469 1.2361-0.0241 1e-3h-1.5786a1.6036 1.6036 0 0 0 0-2e-3h-0.53454a1.0691 1.0691 0 0 1 0 2e-3l-2.1382-1e-3a1.0691 1.0691 0 0 1 0-2e-3h-0.53434a1.6036 1.6036 0 0 0 0 2e-3h-1.6057l0.5147-1.2361 0.0202-0.10223v-1.9764l2e-3 -0.1097 8e-3 -0.11374c0.11233-1.3157 1.2604-2.3439 2.6623-2.3439zm-0.91877 6.4145h1.8437a1.0691 1.0691 0 0 1-0.92187 0.53453 1.0691 1.0691 0 0 1-0.92186-0.53453z"/>
   <path d="m293.11 139.16h5.3454c0.29523 0 0.53454 0.23933 0.53454 0.53455v3.7418c0 0.29522-0.23931 0.53453-0.53454 0.53453h-3.7418v0.53455h1.6036v1.0691h-1.6036v0.53455h2.94c0.14768 0 0.26728-0.1196 0.26728-0.26727 0-0.14768-0.1196-0.26728-0.26728-0.26728h-0.8018v-1.0691h1.6036c0.59046 0 1.0691-0.47863 1.0691-1.0691v-3.7418c0-0.59045-0.47863-1.0691-1.0691-1.0691h-5.3454c-0.59046 0-1.0691 0.47866-1.0691 1.0691v1.6036h0.53454v-1.6036c0-0.29522 0.23932-0.53455 0.53455-0.53455zm-0.80182 6.4145c-0.14769 0-0.26727 0.1196-0.26727 0.26728 0 0.14748 0.1196 0.26727 0.26727 0.26727h0.53453c0.14769 0 0.26729-0.1196 0.26729-0.26727 0-0.14768-0.1196-0.26728-0.26729-0.26728zm-1.3364-2.94c0-0.44283 0.35899-0.80182 0.80182-0.80182h1.6036c0.44283 0 0.8018 0.35899 0.8018 0.80182v3.7418c0 0.44281-0.35897 0.8018-0.8018 0.8018h-1.6036c-0.44283 0-0.80182-0.35899-0.80182-0.8018zm0.80182-0.26729c-0.14769 0-0.26727 0.1196-0.26727 0.26729v3.7418c0 0.14748 0.1196 0.26726 0.26727 0.26726h1.6036c0.14769 0 0.26727-0.1196 0.26727-0.26726v-3.7418c0-0.14769-0.1196-0.26729-0.26727-0.26729z"/>
  </g>
  <g transform="matrix(.53454 0 0 .53454 318.41 138.89)">
   <path d="m4.5 1.0039c-0.82843 1e-7 -1.5 0.67157-1.5 1.5v0.5h-0.5c-1.3807 0-2.5 1.1193-2.5 2.5v5c0 0.8284 0.67157 1.5 1.5 1.5h1.5v1.5c0 0.8284 0.67157 1.5 1.5 1.5h7c0.8284 0 1.5-0.6716 1.5-1.5v-1.5h1.5c0.8284 0 1.5-0.6716 1.5-1.5v-5c0-1.3807-1.1193-2.5-2.5-2.5h-0.5v-0.5c0-0.82843-0.6716-1.5-1.5-1.5h-1.5v1h1.5c0.2761 0 0.5 0.22386 0.5 0.5v0.5h-2v1h3.5c0.8284 0 1.5 0.67157 1.5 1.5v5c0 0.27614-0.2239 0.5-0.5 0.5h-1.5v-1.5c0-0.82843-0.6716-1.5-1.5-1.5h-7c-0.82843 0-1.5 0.67157-1.5 1.5v1.5h-1.5c-0.27614 0-0.5-0.22386-0.5-0.5v-5c0-0.82843 0.67157-1.5 1.5-1.5h3.5v-1h-2v-0.5c0-0.27614 0.22386-0.5 0.5-0.5h1.5v-1zm0 8h7c0.2761 0 0.5 0.22386 0.5 0.5v4c0 0.2761-0.2239 0.5-0.5 0.5h-7c-0.27614 0-0.5-0.2239-0.5-0.5v-4c0-0.27614 0.22386-0.5 0.5-0.5z" fill="#363636"/>
   <path d="m7 0v5h-1l2 2 2-2h-1v-5z" fill="#00a6ff"/>
  </g>
  <path d="m350.13 138.62c-0.14486 0-0.28937 0.0327-0.43537 0.0834a0.53459 0.53459 0 0 0-0.0202 8e-3c-0.60633 0.23893-2.0137 0.70489-2.775 1.0085a0.53459 0.53459 0 0 0-0.0121 6e-3c-0.12283 0.0528-0.2974 0.16527-0.39464 0.3414-0.0972 0.17617-0.10119 0.33062-0.10119 0.45311l-2e-3 2.8554c-6.4e-4 0.79897 0.25361 1.4641 0.78723 1.9826 0.53274 0.51763 1.2804 0.94596 2.3898 1.6224 6.7e-4 4e-4 1e-3 6.5e-4 2e-3 1e-3 8.9e-4 5.2e-4 1e-3 4.9e-4 2e-3 1e-3 0.16809 0.10384 0.36204 0.1893 0.55544 0.19011l1e-3 1e-3h1e-3l1e-3 -1e-3c0.19112-7e-4 0.39385-0.0875 0.56269-0.19213h1e-3c1.0941-0.66149 1.8417-1.0873 2.3773-1.6068 0.53674-0.52056 0.80011-1.1907 0.80076-1.9972l2e-3 -2.8554c1.1e-4 -0.12284-2e-3 -0.27884-0.10244-0.45832-0.10016-0.17941-0.28577-0.29515-0.41864-0.34556a0.53459 0.53459 0 0 0-0.0103-4e-3c-0.72947-0.2596-2.1299-0.7575-2.751-1.0023a0.53459 0.53459 0 0 0-0.0209-8e-3c-0.14606-0.0507-0.29486-0.0834-0.43953-0.0834zm0 0.53454c0.0733 0 0.15171 0.0162 0.26413 0.0543 0.64557 0.25441 2.039 0.7482 2.7677 1.0075 0.14183 0.0537 0.17657 0.12668 0.17637 0.30277l-2e-3 2.8554c-1e-3 1.4335-0.72446 1.82-2.9254 3.1508-0.14121 0.0877-0.20995 0.11254-0.28294 0.11274-0.0681-2.4e-4 -0.1386-0.0251-0.27979-0.11274-2.2303-1.3601-2.9255-1.7272-2.9243-3.1508l2e-3 -2.8554c1.6e-4 -0.17617 0.0344-0.24406 0.17112-0.30277 0.72388-0.28866 2.1284-0.75307 2.774-1.0075 0.11254-0.0392 0.19053-0.0543 0.25893-0.0543z" fill="#363636" stroke-width=".53454"/>
  <g transform="matrix(.53454 0 0 .53454 373.57 138.89)" fill="#363636">
   <rect x="7" y="1" width="1" height="7" rx=".5" ry=".5" style="paint-order:stroke fill markers"/>
   <path d="m11.297 2.3926a0.5 0.5 0 0 0-0.33984 0.17773 0.5 0.5 0 0 0 0.06445 0.70508c1.254 1.0453 1.9787 2.5921 1.9785 4.2246 0 3.0435-2.4565 5.5-5.5 5.5s-5.5-2.4565-5.5-5.5c0.00231-1.6312 0.72854-3.1753 1.9824-4.2188a0.5 0.5 0 0 0 0.064453-0.70508 0.5 0.5 0 0 0-0.70508-0.064453c-1.4813 1.2327-2.3391 3.0612-2.3418 4.9883 0 3.5839 2.9161 6.5 6.5 6.5s6.5-2.9161 6.5-6.5c2e-4 -1.9286-0.85646-3.7592-2.3379-4.9941a0.5 0.5 0 0 0-0.36523-0.11328z"/>
  </g>
  <g transform="matrix(.53454 0 0 .53454 98.864 139.16)" fill="#363636">
   <path d="m6 5v0.5c0 0.40274-0.077 0.80306-0.21875 1.1797-0.13016 0.37203-0.31906 0.72178-0.56641 1.0273-0.24864 0.30716-0.55082 0.57009-0.88867 0.78125l-0.00586 0.00391-0.00391 0.00195c-0.096948 0.059013-0.21401 0.075969-0.3164 0.125v2.3809h3c0.554 0 1-0.446 1-1v-4c0-0.554-0.446-1-1-1z" style="paint-order:stroke fill markers"/>
   <path class="ColorScheme-Text" d="m6 3v1h6c1.108 0 1.9254 0.89452 2 2v4c0 1.108-0.892 2-2 2h-8v1h8c1.662 0 3-1.338 3-3v-1h1v-2h-1v-1c0-1.662-1.338-3-3-3z" color="#333333"/>
   <g transform="translate(-.069557)" stroke-linecap="round" stroke-linejoin="round" stroke-width="4" style="paint-order:stroke fill markers" aria-label="">
    <path d="m5.0696 5.5c0 0.29167-0.052083 0.57292-0.15625 0.84375-0.09375 0.27083-0.22917 0.51562-0.40625 0.73438s-0.39062 0.40625-0.64062 0.5625c-0.23958 0.14583-0.50521 0.25-0.79688 0.3125v5.0469h-1v-5.0469c-0.29167-0.0625-0.5625-0.16667-0.8125-0.3125-0.23958-0.15625-0.44792-0.34375-0.625-0.5625s-0.31771-0.46354-0.42188-0.73438c-0.09375-0.27083-0.14062-0.55208-0.14062-0.84375v-2.5h1v-2h1v2h1v-2h1v2h1zm-4 0c0 0.41667 0.14583 0.77083 0.4375 1.0625s0.64583 0.4375 1.0625 0.4375 0.77083-0.14583 1.0625-0.4375 0.4375-0.64583 0.4375-1.0625v-1.5h-3z" color="#000000" fill="#363636" stroke-linecap="round" stroke-width="2" style="-inkscape-stroke:none"/>
   </g>
  </g>
 </g>
 <g stroke-linecap="square">
  <g transform="translate(.97065 -169.95)">
   <rect x="190.06" y="220.88" width="62.442" height="11.112" rx="2.5234" ry="2.5234" opacity=".15" stroke-width=".56776"/>
   <text x="197.16336" y="228.5787" fill="#4d4d4d" font-family="Cantarell" font-size="7.0556px" stroke-width=".52917" xml:space="preserve"><tspan x="197.16336" y="228.5787" fill="#4d4d4d" font-size="7.0556px" stroke-width=".52917">Normal version</tspan></text>
  </g>
  <g transform="translate(.97065 -110.42)">
   <rect x="190.06" y="220.88" width="62.442" height="11.112" rx="2.5234" ry="2.5234" opacity=".15" stroke-width=".56776"/>
   <text x="198.88493" y="228.5787" fill="#4d4d4d" font-family="Cantarell" font-size="7.0556px" stroke-width=".52917" xml:space="preserve"><tspan x="198.88493" y="228.5787" fill="#4d4d4d" font-size="7.0556px" stroke-width=".52917">Round version</tspan></text>
  </g>
  <rect x="191.03" y="187.99" width="62.442" height="12.7" rx="6.35" ry="6.35" opacity=".5" stroke-width=".60697"/>
  <text x="202.26506" y="196.53656" fill="#ffffff" font-family="Cantarell" font-size="7.0556px" stroke-width=".52917" xml:space="preserve"><tspan x="202.26506" y="196.53656" fill="#ffffff" font-size="7.0556px" stroke-width=".52917">./install.sh -r</tspan></text>
 </g>
 <rect x="154.95" y="229.39" width="134.6" height="20.108" rx="10.054" ry="10.054" fill="#4d4d4d" stroke-width=".77362"/>
 <rect x="26.425" y="260.38" width="391.65" height="173.63" rx="11.486" ry="11.486" fill="#f5f5f5" stroke="#000" stroke-linecap="square" stroke-opacity=".2" stroke-width=".46391" style="paint-order:normal"/>
 <text x="173.34081" y="242.38222" fill="#ffffff" font-family="sans-serif" font-size="10.583px" letter-spacing="0px" stroke-width=".26458" word-spacing="0px" style="line-height:1.25" xml:space="preserve"><tspan x="173.34081" y="242.38222" fill="#ffffff" stroke-width=".26458">Install black version</tspan></text>
 <rect x="26.723" y="392.75" width="391.05" height=".52917" rx="0" ry="0" fill-opacity=".2"/>
 <rect x="50.97" y="292.04" width="342.56" height="26.458" rx="6.1739" ry="6.1739" fill="#4d4d4d" stroke-linecap="round" stroke-linejoin="round" stroke-width=".50546" style="paint-order:stroke fill markers"/>
 <rect x="50.97" y="350.99" width="342.56" height="26.458" rx="6.1739" ry="6.1739" fill="#ccc" stroke-linecap="round" stroke-linejoin="round" stroke-width=".50546" style="paint-order:stroke fill markers"/>
 <g transform="translate(-3.9862 221.32)">
  <g transform="matrix(.53454 0 0 .53454 71.42 138.63)" fill="#363636" stroke-linecap="round" stroke-linejoin="round" stroke-width="2.001" style="paint-order:stroke fill markers" aria-label="">
   <path d="m12.363 0.92969a0.5 0.5 0 0 0 0 0.70703c1.688 1.6877 2.6364 3.9763 2.6367 6.3633-0.0097 2.3829-0.96468 4.6633-2.6543 6.3438a0.5 0.5 0 0 0-2e-3 0.70898 0.5 0.5 0 0 0 0.70898 2e-3c1.8776-1.8674 2.9371-4.4047 2.9473-7.0528a0.50005 0.50005 0 0 0 0-0.00195c-4.01e-4 -2.6518-1.0544-5.1954-2.9297-7.0703a0.5 0.5 0 0 0-0.70703 0z" color="#000000" style="-inkscape-stroke:none;paint-order:normal"/>
   <path d="m10.242 3.0508a0.5 0.5 0 0 0 0 0.70703c1.1254 1.1252 1.7576 2.6508 1.7578 4.2422-0.0065 1.5885-0.64326 3.1082-1.7695 4.2285a0.5 0.5 0 0 0-2e-3 0.70898 0.5 0.5 0 0 0 0.70898 2e-3c1.3143-1.3073 2.0556-3.0839 2.0625-4.9375a0.50005 0.50005 0 0 0 0-0.00195c-2.8e-4 -1.8562-0.7381-3.6368-2.0508-4.9492a0.5 0.5 0 0 0-0.70703 0z" color="#000000" style="-inkscape-stroke:none;paint-order:normal"/>
   <path d="m8.4746 5.0254a0.5 0.5 0 0 0-0.35352 0.14648 0.5 0.5 0 0 0 0 0.70703c0.56277 0.56265 0.87879 1.3253 0.87891 2.1211-0.00327 0.7941-0.32182 1.5551-0.88477 2.1152a0.5 0.5 0 0 0 0 0.70703 0.5 0.5 0 0 0 0.70703 0c0.75086-0.74715 1.174-1.7611 1.1777-2.8203a0.50005 0.50005 0 0 0 0-0.00195c-1.602e-4 -1.0606-0.42183-2.0782-1.1719-2.8281a0.5 0.5 0 0 0-0.35352-0.14648z" color="#000000" style="-inkscape-stroke:none;paint-order:normal"/>
   <path d="m6.0977 2.7129a1.0001 1.0001 0 0 0-0.80469 0.28906l-1.9961 1.998h-1.2969c-1.0907 0-2 0.9093-2 2v2c0 1.0907 0.9093 2 2 2h1.2969l1.9961 1.998a1.0001 1.0001 0 0 0 1.707-0.70703v-8.582a1.0001 1.0001 0 0 0-0.61719-0.92383 1.0001 1.0001 0 0 0-0.28516-0.072266zm-0.097656 0.99609v8.582l-2.2891-2.291h-1.7109c-0.554 0-1-0.446-1-1v-2c0-0.554 0.446-1 1-1h1.7109z" color="#000000" style="-inkscape-stroke:none"/>
  </g>
  <g transform="matrix(.53454 0 0 .53454 126.31 138.62)" fill="#363636">
   <rect x="2" y="5" width="11" height="6" rx="1" ry="1" stroke-linecap="round" stroke-linejoin="round" stroke-width="1.5" style="paint-order:stroke fill markers"/>
   <path d="m3 3c-1.662 0-3 1.338-3 3v4c0 1.662 1.338 3 3 3h9c1.662 0 3-1.338 3-3v-1h1v-2h-1v-1c0-1.662-1.338-3-3-3zm0 1h9c1.108 0 1.9254 0.89452 2 2v4c0 1.108-0.892 2-2 2h-9c-1.108 0-2-0.892-2-2v-4c0-1.108 0.892-2 2-2z"/>
  </g>
  <g transform="matrix(.53454 0 0 .53454 153.75 138.89)" fill="#363636" stroke-linecap="round" stroke-linejoin="round" stroke-width="2">
   <path d="m5.5 0c-0.65571 0-1.2111 0.41602-1.416 1h-1.084c-1.108 0-2 0.892-2 2v10c0 1.108 0.892 2 2 2h2.5c0.277 0 0.5-0.223 0.5-0.5s-0.223-0.5-0.5-0.5h-2.5c-0.554 0-1-0.446-1-1v-10c0-0.554 0.446-1 1-1h1.084c0.2049 0.58398 0.7603 1 1.416 1h3c0.65571 0 1.2111-0.41602 1.416-1h1.084c0.554 0 1 0.446 1 1v0.5c0 0.277 0.223 0.5 0.5 0.5s0.5-0.223 0.5-0.5v-0.5c0-1.108-0.892-2-2-2h-1.084c-0.2049-0.58398-0.7603-1-1.416-1zm0 1h3c0.277 0 0.5 0.223 0.5 0.5s-0.223 0.5-0.5 0.5h-3c-0.277 0-0.5-0.223-0.5-0.5s0.223-0.5 0.5-0.5zm-1.4414 0.080078c-0.011106 0.038401-0.019277 0.077566-0.027344 0.11719-0.0046 0.022588-0.010094 0.045408-0.013672 0.068359 0.00355-0.023165 0.00908-0.045564 0.013672-0.068359 0.00799-0.039721 0.016277-0.078714 0.027344-0.11719zm5.8828 0c0.011067 0.038473 0.019349 0.077466 0.027344 0.11719 0.00459 0.022796 0.010122 0.045194 0.013672 0.068359-0.00358-0.022952-0.00907-0.045771-0.013672-0.068359-0.00807-0.039622-0.016238-0.078787-0.027344-0.11719zm-5.9238 0.6543c0.00358 0.022952 0.00907 0.045771 0.013672 0.068359 0.00807 0.039622 0.016238 0.078787 0.027344 0.11719-0.011067-0.038473-0.01935-0.077466-0.027344-0.11719-0.004588-0.022796-0.010122-0.045194-0.013672-0.068359zm5.9648 0c-0.00355 0.023165-0.00908 0.045564-0.013672 0.068359-0.00799 0.039721-0.016277 0.078714-0.027344 0.11719 0.011106-0.038401 0.019277-0.077566 0.027344-0.11719 0.0046-0.022588 0.010094-0.045408 0.013672-0.068359z" style="paint-order:stroke fill markers"/>
   <path d="m9 5c-1.108 0-2 0.892-2 2v6c0 1.108 0.892 2 2 2h4c1.108 0 2-0.892 2-2v-6c0-1.108-0.892-2-2-2zm0 1h4c0.554 0 1 0.446 1 1v6c0 0.554-0.446 1-1 1h-4c-0.554 0-1-0.446-1-1v-6c0-0.554 0.446-1 1-1z" style="paint-order:stroke fill markers"/>
  </g>
  <g fill="#363636" stroke-width=".53454">
   <path d="m185.74 139.42c0-0.14767-0.11961-0.26725-0.26729-0.26725-0.14769 0-0.26727 0.1196-0.26727 0.26725v0.53454c0 0.14768 0.1196 0.26727 0.26727 0.26727 0.14768 0 0.26729-0.11961 0.26729-0.26727zm-2.5351 0.82865c-0.10445-0.10445-0.27359-0.10445-0.37798 0-0.10445 0.10446-0.10445 0.27359 0 0.37796l0.37798 0.37798c0.10444 0.10446 0.2736 0.10446 0.37797 0 0.10445-0.10445 0.10445-0.27359 0-0.37798zm4.9136 0.37796c0.10445-0.10445 0.10445-0.27359 0-0.37796-0.10425-0.10445-0.27357-0.10445-0.37796 0l-0.37798 0.37796c-0.10425 0.10446-0.10425 0.27361 0 0.37798 0.10445 0.10446 0.27363 0.10446 0.37798 0zm-6.1205 2.0006c-0.14768 0-0.26727 0.1196-0.26727 0.26729 0 0.14768 0.1196 0.26726 0.26727 0.26726h0.53455c0.14769 0 0.26727-0.1196 0.26727-0.26726 0-0.14769-0.1196-0.26729-0.26727-0.26729zm6.4145 0c-0.14748 0-0.26726 0.1196-0.26726 0.26729 0 0.14768 0.1196 0.26726 0.26726 0.26726h0.53455c0.14769 0 0.26727-0.1196 0.26727-0.26726 0-0.14769-0.1196-0.26729-0.26727-0.26729zm-4.8298 2.5351c0.10445-0.10425 0.10445-0.27359 0-0.37798-0.10446-0.10445-0.27361-0.10445-0.37798 0l-0.37798 0.37798c-0.10446 0.10445-0.10446 0.27363 0 0.37796 0.10445 0.10445 0.27361 0.10445 0.37798 0zm4.1577-0.37798c-0.10426-0.10445-0.27359-0.10445-0.37798 0-0.10425 0.10445-0.10425 0.27363 0 0.37798l0.37798 0.37796c0.10444 0.10445 0.27363 0.10445 0.37796 0 0.10444-0.10425 0.10444-0.27357 0-0.37796zm-2.0006 1.0501c0-0.14748-0.1196-0.26727-0.26729-0.26727-0.14768 0-0.26726 0.1196-0.26726 0.26727v0.53455c0 0.14768 0.1196 0.26726 0.26726 0.26726 0.14769 0 0.26729-0.1196 0.26729-0.26726zm-0.26729-5.0781c-1.1808 0-2.1382 0.95731-2.1382 2.1382 0 1.1808 0.9573 2.1382 2.1382 2.1382 1.1809 0 2.1382-0.95731 2.1382-2.1382 0-1.1809-0.9573-2.1382-2.1382-2.1382zm-1.6036 2.1382c0-0.88565 0.718-1.6036 1.6036-1.6036 0.88564 0 1.6036 0.71797 1.6036 1.6036 0 0.88562-0.71798 1.6036-1.6036 1.6036-0.88562 0-1.6036-0.71795-1.6036-1.6036z"/>
   <path d="m212.92 139.16c1.7713 0 3.2072 1.4359 3.2072 3.2072 0 1.5326-1.0343 2.9431-3.0638 4.2345-0.0875 0.0558-0.1994 0.0558-0.28698 0-2.0294-1.2915-3.0638-2.7019-3.0638-4.2345 0-1.7713 1.4359-3.2072 3.2072-3.2072zm0 0.53453c-1.4761 0-2.6727 1.1966-2.6727 2.6727 0 1.243 0.82302 2.4363 2.502 3.577l0.17071 0.11395 0.17072-0.11395c1.6789-1.1408 2.5019-2.334 2.5019-3.577 0-1.4761-1.1966-2.6727-2.6727-2.6727zm0 1.8709c0.44283 0 0.80182 0.35897 0.80182 0.8018s-0.35899 0.8018-0.80182 0.8018-0.8018-0.35897-0.8018-0.8018 0.35897-0.8018 0.8018-0.8018z"/>
   <path d="m242.5 138.89c-0.29615 0-0.53456 0.23842-0.53456 0.53456v2.6727c0 0.29613 0.23841 0.53455 0.53456 0.53455h0.53453v3.9798c0 0.16445 0.1192 0.2965 0.26727 0.2965 0.14808 0 0.26726-0.13193 0.26726-0.2965v-3.9798h0.53455c0.29612 0 0.53454-0.23842 0.53454-0.53455v-2.6727c0-0.29614-0.23842-0.53456-0.53454-0.53456zm-5.3454 0.53456c-0.59227 0-1.0691 0.47681-1.0691 1.0691v3.7418c0 0.59228 0.47902 1.0179 1.0691 1.0691h1.6036v1.0691h-0.8018c-0.0182 0-0.0368 2e-3 -0.0543 6e-3 -0.0182 4e-3 -0.0342 8e-3 -0.0501 0.0162-0.0161 6e-3 -0.0307 0.0161-0.0448 0.0251-0.0142 0.0103-0.0277 0.0202-0.0397 0.0323-0.0121 0.0121-0.0228 0.0254-0.0323 0.0396-0.0103 0.0142-0.0182 0.0289-0.0251 0.0448-6e-3 0.0162-0.0121 0.0327-0.0162 0.0501-4e-3 0.0182-6e-3 0.0357-6e-3 0.0543 0 0.0182 2e-3 0.0368 6e-3 0.0543 4e-3 0.0182 8e-3 0.0342 0.0162 0.0501 6e-3 0.0161 0.0161 0.0307 0.0251 0.0448 0.0103 0.0141 0.0204 0.0277 0.0323 0.0396 0.0121 0.0121 0.0255 0.0228 0.0397 0.0323 0.0141 0.0103 0.0289 0.0182 0.0448 0.0251 0.0161 6e-3 0.0327 0.0121 0.0501 0.0161 0.0182 4e-3 0.0357 6e-3 0.0543 6e-3h4.2763c0.0182 0 0.0368-2e-3 0.0543-6e-3 0.0182-4e-3 0.0342-8e-3 0.0501-0.0161 0.0161-6e-3 0.0307-0.0162 0.0448-0.0251 0.0142-0.0103 0.0277-0.0202 0.0396-0.0323 0.0121-0.0121 0.0228-0.0255 0.0323-0.0396 0.0103-0.0142 0.0182-0.0289 0.0251-0.0448 6e-3 -0.0162 0.0121-0.0327 0.0161-0.0501 4e-3 -0.0182 6e-3 -0.0357 6e-3 -0.0543 0-0.14809-0.1192-0.26727-0.26727-0.26727h-0.26726v-1.0691h0.26726c0.14809 0 0.26727-0.1192 0.26727-0.26727 0-0.14809-0.11981-0.28008-0.26727-0.26728h-5.0781c-0.29613 0-0.53453-0.2384-0.53453-0.53454v-3.7418c0-0.29613 0.2384-0.53455 0.53453-0.53455h4.0091c0.14808 0 0.26725-0.1192 0.26725-0.26726 0-0.14809-0.11918-0.26727-0.26725-0.26727h-4.0091zm5.3454 0h1.6036v0.53453h-1.6036zm0 1.0691h1.6036v1.6036h-1.6036zm-3.2072 4.8109h2.1382v1.0691h-2.1382z"/>
   <path d="m267.8 138.89c-1.7248 0-3.1385 1.3103-3.2041 2.9765l-2e-3 0.12v1.9283l-0.49383 1.187-0.023 0.0678-0.0121 0.0678c-0.0268 0.24778 0.10306 0.47132 0.3226 0.56272l0.0669 0.023c0.0452 0.0121 0.0919 0.0182 0.1388 0.0182h1.0711v-2e-3h0.62953a1.6036 1.6036 0 0 0 1.5086 1.0691 1.6036 1.6036 0 0 0 1.5086-1.0691h1.1641v2e-3h0.53351l0.0721-6e-3 0.0616-0.0142c0.24198-0.0689 0.4009-0.27525 0.4009-0.51471l-6e-3 -0.0699-8e-3 -0.0459c-6e-3 -0.0305-0.0161-0.0598-0.0281-0.0887l-0.49485-1.1881v-1.9223l-2e-3 -0.12-8e-3 -0.119c-0.12849-1.6146-1.5157-2.8627-3.1989-2.8627zm0 0.53453c1.4416 0 2.6154 1.0873 2.6716 2.4628l2e-3 0.10971v1.9711l0.0209 0.10223 0.51469 1.2361-0.0241 1e-3h-1.5786a1.6036 1.6036 0 0 0 0-2e-3h-0.53454a1.0691 1.0691 0 0 1 0 2e-3l-2.1382-1e-3a1.0691 1.0691 0 0 1 0-2e-3h-0.53434a1.6036 1.6036 0 0 0 0 2e-3h-1.6057l0.5147-1.2361 0.0202-0.10223v-1.9764l2e-3 -0.1097 8e-3 -0.11374c0.11233-1.3157 1.2604-2.3439 2.6623-2.3439zm-0.91877 6.4145h1.8437a1.0691 1.0691 0 0 1-0.92187 0.53453 1.0691 1.0691 0 0 1-0.92186-0.53453z"/>
   <path d="m293.11 139.16h5.3454c0.29523 0 0.53454 0.23933 0.53454 0.53455v3.7418c0 0.29522-0.23931 0.53453-0.53454 0.53453h-3.7418v0.53455h1.6036v1.0691h-1.6036v0.53455h2.94c0.14768 0 0.26728-0.1196 0.26728-0.26727 0-0.14768-0.1196-0.26728-0.26728-0.26728h-0.8018v-1.0691h1.6036c0.59046 0 1.0691-0.47863 1.0691-1.0691v-3.7418c0-0.59045-0.47863-1.0691-1.0691-1.0691h-5.3454c-0.59046 0-1.0691 0.47866-1.0691 1.0691v1.6036h0.53454v-1.6036c0-0.29522 0.23932-0.53455 0.53455-0.53455zm-0.80182 6.4145c-0.14769 0-0.26727 0.1196-0.26727 0.26728 0 0.14748 0.1196 0.26727 0.26727 0.26727h0.53453c0.14769 0 0.26729-0.1196 0.26729-0.26727 0-0.14768-0.1196-0.26728-0.26729-0.26728zm-1.3364-2.94c0-0.44283 0.35899-0.80182 0.80182-0.80182h1.6036c0.44283 0 0.8018 0.35899 0.8018 0.80182v3.7418c0 0.44281-0.35897 0.8018-0.8018 0.8018h-1.6036c-0.44283 0-0.80182-0.35899-0.80182-0.8018zm0.80182-0.26729c-0.14769 0-0.26727 0.1196-0.26727 0.26729v3.7418c0 0.14748 0.1196 0.26726 0.26727 0.26726h1.6036c0.14769 0 0.26727-0.1196 0.26727-0.26726v-3.7418c0-0.14769-0.1196-0.26729-0.26727-0.26729z"/>
  </g>
  <g transform="matrix(.53454 0 0 .53454 318.41 138.89)">
   <path d="m4.5 1.0039c-0.82843 1e-7 -1.5 0.67157-1.5 1.5v0.5h-0.5c-1.3807 0-2.5 1.1193-2.5 2.5v5c0 0.8284 0.67157 1.5 1.5 1.5h1.5v1.5c0 0.8284 0.67157 1.5 1.5 1.5h7c0.8284 0 1.5-0.6716 1.5-1.5v-1.5h1.5c0.8284 0 1.5-0.6716 1.5-1.5v-5c0-1.3807-1.1193-2.5-2.5-2.5h-0.5v-0.5c0-0.82843-0.6716-1.5-1.5-1.5h-1.5v1h1.5c0.2761 0 0.5 0.22386 0.5 0.5v0.5h-2v1h3.5c0.8284 0 1.5 0.67157 1.5 1.5v5c0 0.27614-0.2239 0.5-0.5 0.5h-1.5v-1.5c0-0.82843-0.6716-1.5-1.5-1.5h-7c-0.82843 0-1.5 0.67157-1.5 1.5v1.5h-1.5c-0.27614 0-0.5-0.22386-0.5-0.5v-5c0-0.82843 0.67157-1.5 1.5-1.5h3.5v-1h-2v-0.5c0-0.27614 0.22386-0.5 0.5-0.5h1.5v-1zm0 8h7c0.2761 0 0.5 0.22386 0.5 0.5v4c0 0.2761-0.2239 0.5-0.5 0.5h-7c-0.27614 0-0.5-0.2239-0.5-0.5v-4c0-0.27614 0.22386-0.5 0.5-0.5z" fill="#363636"/>
   <path d="m7 0v5h-1l2 2 2-2h-1v-5z" fill="#00a6ff"/>
  </g>
  <path d="m350.13 138.62c-0.14486 0-0.28937 0.0327-0.43537 0.0834a0.53459 0.53459 0 0 0-0.0202 8e-3c-0.60633 0.23893-2.0137 0.70489-2.775 1.0085a0.53459 0.53459 0 0 0-0.0121 6e-3c-0.12283 0.0528-0.2974 0.16527-0.39464 0.3414-0.0972 0.17617-0.10119 0.33062-0.10119 0.45311l-2e-3 2.8554c-6.4e-4 0.79897 0.25361 1.4641 0.78723 1.9826 0.53274 0.51763 1.2804 0.94596 2.3898 1.6224 6.7e-4 4e-4 1e-3 6.5e-4 2e-3 1e-3 8.9e-4 5.2e-4 1e-3 4.9e-4 2e-3 1e-3 0.16809 0.10384 0.36204 0.1893 0.55544 0.19011l1e-3 1e-3h1e-3l1e-3 -1e-3c0.19112-7e-4 0.39385-0.0875 0.56269-0.19213h1e-3c1.0941-0.66149 1.8417-1.0873 2.3773-1.6068 0.53674-0.52056 0.80011-1.1907 0.80076-1.9972l2e-3 -2.8554c1.1e-4 -0.12284-2e-3 -0.27884-0.10244-0.45832-0.10016-0.17941-0.28577-0.29515-0.41864-0.34556a0.53459 0.53459 0 0 0-0.0103-4e-3c-0.72947-0.2596-2.1299-0.7575-2.751-1.0023a0.53459 0.53459 0 0 0-0.0209-8e-3c-0.14606-0.0507-0.29486-0.0834-0.43953-0.0834zm0 0.53454c0.0733 0 0.15171 0.0162 0.26413 0.0543 0.64557 0.25441 2.039 0.7482 2.7677 1.0075 0.14183 0.0537 0.17657 0.12668 0.17637 0.30277l-2e-3 2.8554c-1e-3 1.4335-0.72446 1.82-2.9254 3.1508-0.14121 0.0877-0.20995 0.11254-0.28294 0.11274-0.0681-2.4e-4 -0.1386-0.0251-0.27979-0.11274-2.2303-1.3601-2.9255-1.7272-2.9243-3.1508l2e-3 -2.8554c1.6e-4 -0.17617 0.0344-0.24406 0.17112-0.30277 0.72388-0.28866 2.1284-0.75307 2.774-1.0075 0.11254-0.0392 0.19053-0.0543 0.25893-0.0543z" fill="#363636" stroke-width=".53454"/>
  <g transform="matrix(.53454 0 0 .53454 373.57 138.89)" fill="#363636">
   <rect x="7" y="1" width="1" height="7" rx=".5" ry=".5" style="paint-order:stroke fill markers"/>
   <path d="m11.297 2.3926a0.5 0.5 0 0 0-0.33984 0.17773 0.5 0.5 0 0 0 0.06445 0.70508c1.254 1.0453 1.9787 2.5921 1.9785 4.2246 0 3.0435-2.4565 5.5-5.5 5.5s-5.5-2.4565-5.5-5.5c0.00231-1.6312 0.72854-3.1753 1.9824-4.2188a0.5 0.5 0 0 0 0.064453-0.70508 0.5 0.5 0 0 0-0.70508-0.064453c-1.4813 1.2327-2.3391 3.0612-2.3418 4.9883 0 3.5839 2.9161 6.5 6.5 6.5s6.5-2.9161 6.5-6.5c2e-4 -1.9286-0.85646-3.7592-2.3379-4.9941a0.5 0.5 0 0 0-0.36523-0.11328z"/>
  </g>
  <g transform="matrix(.53454 0 0 .53454 98.864 139.16)" fill="#363636">
   <path d="m6 5v0.5c0 0.40274-0.077 0.80306-0.21875 1.1797-0.13016 0.37203-0.31906 0.72178-0.56641 1.0273-0.24864 0.30716-0.55082 0.57009-0.88867 0.78125l-0.00586 0.00391-0.00391 0.00195c-0.096948 0.059013-0.21401 0.075969-0.3164 0.125v2.3809h3c0.554 0 1-0.446 1-1v-4c0-0.554-0.446-1-1-1z" style="paint-order:stroke fill markers"/>
   <path class="ColorScheme-Text" d="m6 3v1h6c1.108 0 1.9254 0.89452 2 2v4c0 1.108-0.892 2-2 2h-8v1h8c1.662 0 3-1.338 3-3v-1h1v-2h-1v-1c0-1.662-1.338-3-3-3z" color="#333333"/>
   <g transform="translate(-.069557)" stroke-linecap="round" stroke-linejoin="round" stroke-width="4" style="paint-order:stroke fill markers" aria-label="">
    <path d="m5.0696 5.5c0 0.29167-0.052083 0.57292-0.15625 0.84375-0.09375 0.27083-0.22917 0.51562-0.40625 0.73438s-0.39062 0.40625-0.64062 0.5625c-0.23958 0.14583-0.50521 0.25-0.79688 0.3125v5.0469h-1v-5.0469c-0.29167-0.0625-0.5625-0.16667-0.8125-0.3125-0.23958-0.15625-0.44792-0.34375-0.625-0.5625s-0.31771-0.46354-0.42188-0.73438c-0.09375-0.27083-0.14062-0.55208-0.14062-0.84375v-2.5h1v-2h1v2h1v-2h1v2h1zm-4 0c0 0.41667 0.14583 0.77083 0.4375 1.0625s0.64583 0.4375 1.0625 0.4375 0.77083-0.14583 1.0625-0.4375 0.4375-0.64583 0.4375-1.0625v-1.5h-3z" color="#000000" fill="#363636" stroke-linecap="round" stroke-width="2" style="-inkscape-stroke:none"/>
   </g>
  </g>
 </g>
 <g stroke-linecap="square">
  <rect x="187.38" y="270.01" width="69.738" height="11.112" rx="2.6391" ry="2.6391" opacity=".15" stroke-width=".60002"/>
  <text x="191.27245" y="277.70474" fill="#4d4d4d" font-family="Cantarell" font-size="7.0556px" stroke-width=".52917" xml:space="preserve"><tspan x="191.27245" y="277.70474" fill="#4d4d4d" font-size="7.0556px" stroke-width=".52917">White icon on panel</tspan></text>
  <rect x="188.58" y="329.54" width="67.336" height="11.112" rx="2.5564" ry="2.5564" opacity=".15" stroke-width=".5896"/>
  <text x="192.03798" y="337.23599" fill="#4d4d4d" font-family="Cantarell" font-size="7.0556px" stroke-width=".52917" xml:space="preserve"><tspan x="192.03798" y="337.23599" fill="#4d4d4d" font-size="7.0556px" stroke-width=".52917">Black icon on panel</tspan></text>
  <rect x="191.03" y="407.06" width="62.442" height="12.7" rx="6.35" ry="6.35" opacity=".5" stroke-width=".60697"/>
  <text x="202.26506" y="415.61154" fill="#ffffff" font-family="Cantarell" font-size="7.0556px" stroke-width=".52917" xml:space="preserve"><tspan x="202.26506" y="415.61154" fill="#ffffff" font-size="7.0556px" stroke-width=".52917">./install.sh -b</tspan></text>
 </g>
 <g fill="#fff">
  <g transform="matrix(.53454 0 0 .53454 67.434 301)" stroke-linecap="round" stroke-linejoin="round" stroke-width="2.001" style="paint-order:stroke fill markers" aria-label="">
   <path d="m12.363 0.92969a0.5 0.5 0 0 0 0 0.70703c1.688 1.6877 2.6364 3.9763 2.6367 6.3633-0.0097 2.3829-0.96468 4.6633-2.6543 6.3438a0.5 0.5 0 0 0-2e-3 0.70898 0.5 0.5 0 0 0 0.70898 2e-3c1.8776-1.8674 2.9371-4.4047 2.9473-7.0528a0.50005 0.50005 0 0 0 0-0.00195c-4.01e-4 -2.6518-1.0544-5.1954-2.9297-7.0703a0.5 0.5 0 0 0-0.70703 0z" color="#000000" style="-inkscape-stroke:none;paint-order:normal"/>
   <path d="m10.242 3.0508a0.5 0.5 0 0 0 0 0.70703c1.1254 1.1252 1.7576 2.6508 1.7578 4.2422-0.0065 1.5885-0.64326 3.1082-1.7695 4.2285a0.5 0.5 0 0 0-2e-3 0.70898 0.5 0.5 0 0 0 0.70898 2e-3c1.3143-1.3073 2.0556-3.0839 2.0625-4.9375a0.50005 0.50005 0 0 0 0-0.00195c-2.8e-4 -1.8562-0.7381-3.6368-2.0508-4.9492a0.5 0.5 0 0 0-0.70703 0z" color="#000000" style="-inkscape-stroke:none;paint-order:normal"/>
   <path d="m8.4746 5.0254a0.5 0.5 0 0 0-0.35352 0.14648 0.5 0.5 0 0 0 0 0.70703c0.56277 0.56265 0.87879 1.3253 0.87891 2.1211-0.00327 0.7941-0.32182 1.5551-0.88477 2.1152a0.5 0.5 0 0 0 0 0.70703 0.5 0.5 0 0 0 0.70703 0c0.75086-0.74715 1.174-1.7611 1.1777-2.8203a0.50005 0.50005 0 0 0 0-0.00195c-1.602e-4 -1.0606-0.42183-2.0782-1.1719-2.8281a0.5 0.5 0 0 0-0.35352-0.14648z" color="#000000" style="-inkscape-stroke:none;paint-order:normal"/>
   <path d="m6.0977 2.7129a1.0001 1.0001 0 0 0-0.80469 0.28906l-1.9961 1.998h-1.2969c-1.0907 0-2 0.9093-2 2v2c0 1.0907 0.9093 2 2 2h1.2969l1.9961 1.998a1.0001 1.0001 0 0 0 1.707-0.70703v-8.582a1.0001 1.0001 0 0 0-0.61719-0.92383 1.0001 1.0001 0 0 0-0.28516-0.072266zm-0.097656 0.99609v8.582l-2.2891-2.291h-1.7109c-0.554 0-1-0.446-1-1v-2c0-0.554 0.446-1 1-1h1.7109z" color="#000000" style="-inkscape-stroke:none"/>
  </g>
  <g transform="matrix(.53454 0 0 .53454 122.32 300.99)">
   <rect x="2" y="5" width="11" height="6" rx="1" ry="1" stroke-linecap="round" stroke-linejoin="round" stroke-width="1.5" style="paint-order:stroke fill markers"/>
   <path d="m3 3c-1.662 0-3 1.338-3 3v4c0 1.662 1.338 3 3 3h9c1.662 0 3-1.338 3-3v-1h1v-2h-1v-1c0-1.662-1.338-3-3-3zm0 1h9c1.108 0 1.9254 0.89452 2 2v4c0 1.108-0.892 2-2 2h-9c-1.108 0-2-0.892-2-2v-4c0-1.108 0.892-2 2-2z"/>
  </g>
  <g transform="matrix(.53454 0 0 .53454 149.77 301.26)" stroke-linecap="round" stroke-linejoin="round" stroke-width="2">
   <path d="m5.5 0c-0.65571 0-1.2111 0.41602-1.416 1h-1.084c-1.108 0-2 0.892-2 2v10c0 1.108 0.892 2 2 2h2.5c0.277 0 0.5-0.223 0.5-0.5s-0.223-0.5-0.5-0.5h-2.5c-0.554 0-1-0.446-1-1v-10c0-0.554 0.446-1 1-1h1.084c0.2049 0.58398 0.7603 1 1.416 1h3c0.65571 0 1.2111-0.41602 1.416-1h1.084c0.554 0 1 0.446 1 1v0.5c0 0.277 0.223 0.5 0.5 0.5s0.5-0.223 0.5-0.5v-0.5c0-1.108-0.892-2-2-2h-1.084c-0.2049-0.58398-0.7603-1-1.416-1zm0 1h3c0.277 0 0.5 0.223 0.5 0.5s-0.223 0.5-0.5 0.5h-3c-0.277 0-0.5-0.223-0.5-0.5s0.223-0.5 0.5-0.5zm-1.4414 0.080078c-0.011106 0.038401-0.019277 0.077566-0.027344 0.11719-0.0046 0.022588-0.010094 0.045408-0.013672 0.068359 0.00355-0.023165 0.00908-0.045564 0.013672-0.068359 0.00799-0.039721 0.016277-0.078714 0.027344-0.11719zm5.8828 0c0.011067 0.038473 0.019349 0.077466 0.027344 0.11719 0.00459 0.022796 0.010122 0.045194 0.013672 0.068359-0.00358-0.022952-0.00907-0.045771-0.013672-0.068359-0.00807-0.039622-0.016238-0.078787-0.027344-0.11719zm-5.9238 0.6543c0.00358 0.022952 0.00907 0.045771 0.013672 0.068359 0.00807 0.039622 0.016238 0.078787 0.027344 0.11719-0.011067-0.038473-0.01935-0.077466-0.027344-0.11719-0.004588-0.022796-0.010122-0.045194-0.013672-0.068359zm5.9648 0c-0.00355 0.023165-0.00908 0.045564-0.013672 0.068359-0.00799 0.039721-0.016277 0.078714-0.027344 0.11719 0.011106-0.038401 0.019277-0.077566 0.027344-0.11719 0.0046-0.022588 0.010094-0.045408 0.013672-0.068359z" style="paint-order:stroke fill markers"/>
   <path d="m9 5c-1.108 0-2 0.892-2 2v6c0 1.108 0.892 2 2 2h4c1.108 0 2-0.892 2-2v-6c0-1.108-0.892-2-2-2zm0 1h4c0.554 0 1 0.446 1 1v6c0 0.554-0.446 1-1 1h-4c-0.554 0-1-0.446-1-1v-6c0-0.554 0.446-1 1-1z" style="paint-order:stroke fill markers"/>
  </g>
  <g stroke-width=".53454">
   <path d="m181.75 301.79c0-0.14767-0.11961-0.26725-0.26729-0.26725-0.14769 0-0.26727 0.1196-0.26727 0.26725v0.53454c0 0.14768 0.1196 0.26727 0.26727 0.26727 0.14768 0 0.26729-0.11961 0.26729-0.26727zm-2.5351 0.82865c-0.10445-0.10445-0.27359-0.10445-0.37798 0-0.10445 0.10446-0.10445 0.27359 0 0.37796l0.37798 0.37798c0.10444 0.10446 0.2736 0.10446 0.37797 0 0.10445-0.10445 0.10445-0.27359 0-0.37798zm4.9136 0.37796c0.10445-0.10445 0.10445-0.27359 0-0.37796-0.10425-0.10445-0.27357-0.10445-0.37796 0l-0.37798 0.37796c-0.10425 0.10446-0.10425 0.27361 0 0.37798 0.10445 0.10446 0.27363 0.10446 0.37798 0zm-6.1205 2.0006c-0.14768 0-0.26727 0.1196-0.26727 0.26729 0 0.14768 0.1196 0.26726 0.26727 0.26726h0.53455c0.14769 0 0.26727-0.1196 0.26727-0.26726 0-0.14769-0.1196-0.26729-0.26727-0.26729zm6.4145 0c-0.14748 0-0.26726 0.1196-0.26726 0.26729 0 0.14768 0.1196 0.26726 0.26726 0.26726h0.53455c0.14769 0 0.26727-0.1196 0.26727-0.26726 0-0.14769-0.1196-0.26729-0.26727-0.26729zm-4.8298 2.5351c0.10445-0.10425 0.10445-0.27359 0-0.37798-0.10446-0.10445-0.27361-0.10445-0.37798 0l-0.37798 0.37798c-0.10446 0.10445-0.10446 0.27363 0 0.37796 0.10445 0.10445 0.27361 0.10445 0.37798 0zm4.1577-0.37798c-0.10426-0.10445-0.27359-0.10445-0.37798 0-0.10425 0.10445-0.10425 0.27363 0 0.37798l0.37798 0.37796c0.10444 0.10445 0.27363 0.10445 0.37796 0 0.10444-0.10425 0.10444-0.27357 0-0.37796zm-2.0006 1.0501c0-0.14748-0.1196-0.26727-0.26729-0.26727-0.14768 0-0.26726 0.1196-0.26726 0.26727v0.53455c0 0.14768 0.1196 0.26726 0.26726 0.26726 0.14769 0 0.26729-0.1196 0.26729-0.26726zm-0.26729-5.0781c-1.1808 0-2.1382 0.95731-2.1382 2.1382 0 1.1808 0.9573 2.1382 2.1382 2.1382 1.1809 0 2.1382-0.95731 2.1382-2.1382 0-1.1809-0.9573-2.1382-2.1382-2.1382zm-1.6036 2.1382c0-0.88565 0.718-1.6036 1.6036-1.6036 0.88564 0 1.6036 0.71797 1.6036 1.6036 0 0.88562-0.71798 1.6036-1.6036 1.6036-0.88562 0-1.6036-0.71795-1.6036-1.6036z"/>
   <path d="m208.93 301.53c1.7713 0 3.2072 1.4359 3.2072 3.2072 0 1.5326-1.0343 2.9431-3.0638 4.2345-0.0875 0.0558-0.1994 0.0558-0.28698 0-2.0294-1.2915-3.0638-2.7019-3.0638-4.2345 0-1.7713 1.4359-3.2072 3.2072-3.2072zm0 0.53453c-1.4761 0-2.6727 1.1966-2.6727 2.6727 0 1.243 0.82302 2.4363 2.502 3.577l0.17071 0.11395 0.17072-0.11395c1.6789-1.1408 2.5019-2.334 2.5019-3.577 0-1.4761-1.1966-2.6727-2.6727-2.6727zm0 1.8709c0.44283 0 0.80182 0.35897 0.80182 0.8018s-0.35899 0.8018-0.80182 0.8018-0.8018-0.35897-0.8018-0.8018 0.35897-0.8018 0.8018-0.8018z"/>
   <path d="m238.51 301.26c-0.29615 0-0.53456 0.23842-0.53456 0.53456v2.6727c0 0.29613 0.23841 0.53455 0.53456 0.53455h0.53453v3.9798c0 0.16445 0.1192 0.2965 0.26727 0.2965 0.14808 0 0.26726-0.13193 0.26726-0.2965v-3.9798h0.53455c0.29612 0 0.53454-0.23842 0.53454-0.53455v-2.6727c0-0.29614-0.23842-0.53456-0.53454-0.53456zm-5.3454 0.53456c-0.59227 0-1.0691 0.47681-1.0691 1.0691v3.7418c0 0.59228 0.47902 1.0179 1.0691 1.0691h1.6036v1.0691h-0.8018c-0.0182 0-0.0368 2e-3 -0.0543 6e-3 -0.0182 4e-3 -0.0342 8e-3 -0.0501 0.0162-0.0161 6e-3 -0.0307 0.0161-0.0448 0.0251-0.0142 0.0103-0.0277 0.0202-0.0397 0.0323-0.0121 0.0121-0.0228 0.0254-0.0323 0.0396-0.0103 0.0142-0.0182 0.0289-0.0251 0.0448-6e-3 0.0162-0.0121 0.0327-0.0162 0.0501-4e-3 0.0182-6e-3 0.0357-6e-3 0.0543 0 0.0182 2e-3 0.0368 6e-3 0.0543 4e-3 0.0182 8e-3 0.0342 0.0162 0.0501 6e-3 0.0161 0.0161 0.0307 0.0251 0.0448 0.0103 0.0141 0.0204 0.0277 0.0323 0.0396 0.0121 0.0121 0.0255 0.0228 0.0397 0.0323 0.0141 0.0103 0.0289 0.0182 0.0448 0.0251 0.0161 6e-3 0.0327 0.0121 0.0501 0.0161 0.0182 4e-3 0.0357 6e-3 0.0543 6e-3h4.2763c0.0182 0 0.0368-2e-3 0.0543-6e-3 0.0182-4e-3 0.0342-8e-3 0.0501-0.0161 0.0161-6e-3 0.0307-0.0162 0.0448-0.0251 0.0142-0.0103 0.0277-0.0202 0.0396-0.0323 0.0121-0.0121 0.0228-0.0255 0.0323-0.0396 0.0103-0.0142 0.0182-0.0289 0.0251-0.0448 6e-3 -0.0162 0.0121-0.0327 0.0161-0.0501 4e-3 -0.0182 6e-3 -0.0357 6e-3 -0.0543 0-0.14809-0.1192-0.26727-0.26727-0.26727h-0.26726v-1.0691h0.26726c0.14809 0 0.26727-0.1192 0.26727-0.26727 0-0.14809-0.11981-0.28008-0.26727-0.26728h-5.0781c-0.29613 0-0.53453-0.2384-0.53453-0.53454v-3.7418c0-0.29613 0.2384-0.53455 0.53453-0.53455h4.0091c0.14808 0 0.26725-0.1192 0.26725-0.26726 0-0.14809-0.11918-0.26727-0.26725-0.26727h-4.0091zm5.3454 0h1.6036v0.53453h-1.6036zm0 1.0691h1.6036v1.6036h-1.6036zm-3.2072 4.8109h2.1382v1.0691h-2.1382z"/>
   <path d="m263.81 301.26c-1.7248 0-3.1385 1.3103-3.2041 2.9765l-2e-3 0.12v1.9283l-0.49383 1.187-0.023 0.0678-0.0121 0.0678c-0.0268 0.24778 0.10306 0.47132 0.3226 0.56272l0.0669 0.023c0.0452 0.0121 0.0919 0.0182 0.1388 0.0182h1.0711v-2e-3h0.62953a1.6036 1.6036 0 0 0 1.5086 1.0691 1.6036 1.6036 0 0 0 1.5086-1.0691h1.1641v2e-3h0.53351l0.0721-6e-3 0.0616-0.0142c0.24198-0.0689 0.4009-0.27525 0.4009-0.51471l-6e-3 -0.0699-8e-3 -0.0459c-6e-3 -0.0305-0.0161-0.0598-0.0281-0.0887l-0.49485-1.1881v-1.9223l-2e-3 -0.12-8e-3 -0.119c-0.12849-1.6146-1.5157-2.8627-3.1989-2.8627zm0 0.53453c1.4416 0 2.6154 1.0873 2.6716 2.4628l2e-3 0.10971v1.9711l0.0209 0.10223 0.51469 1.2361-0.0241 1e-3h-1.5786a1.6036 1.6036 0 0 0 0-2e-3h-0.53454a1.0691 1.0691 0 0 1 0 2e-3l-2.1382-1e-3a1.0691 1.0691 0 0 1 0-2e-3h-0.53434a1.6036 1.6036 0 0 0 0 2e-3h-1.6057l0.5147-1.2361 0.0202-0.10223v-1.9764l2e-3 -0.1097 8e-3 -0.11374c0.11233-1.3157 1.2604-2.3439 2.6623-2.3439zm-0.91877 6.4145h1.8437a1.0691 1.0691 0 0 1-0.92187 0.53453 1.0691 1.0691 0 0 1-0.92186-0.53453z"/>
   <path d="m289.12 301.53h5.3454c0.29523 0 0.53454 0.23933 0.53454 0.53455v3.7418c0 0.29522-0.23931 0.53453-0.53454 0.53453h-3.7418v0.53455h1.6036v1.0691h-1.6036v0.53455h2.94c0.14768 0 0.26728-0.1196 0.26728-0.26727 0-0.14768-0.1196-0.26728-0.26728-0.26728h-0.8018v-1.0691h1.6036c0.59046 0 1.0691-0.47863 1.0691-1.0691v-3.7418c0-0.59045-0.47863-1.0691-1.0691-1.0691h-5.3454c-0.59046 0-1.0691 0.47866-1.0691 1.0691v1.6036h0.53454v-1.6036c0-0.29522 0.23932-0.53455 0.53455-0.53455zm-0.80182 6.4145c-0.14769 0-0.26727 0.1196-0.26727 0.26728 0 0.14748 0.1196 0.26727 0.26727 0.26727h0.53453c0.14769 0 0.26729-0.1196 0.26729-0.26727 0-0.14768-0.1196-0.26728-0.26729-0.26728zm-1.3364-2.94c0-0.44283 0.35899-0.80182 0.80182-0.80182h1.6036c0.44283 0 0.8018 0.35899 0.8018 0.80182v3.7418c0 0.44281-0.35897 0.8018-0.8018 0.8018h-1.6036c-0.44283 0-0.80182-0.35899-0.80182-0.8018zm0.80182-0.26729c-0.14769 0-0.26727 0.1196-0.26727 0.26729v3.7418c0 0.14748 0.1196 0.26726 0.26727 0.26726h1.6036c0.14769 0 0.26727-0.1196 0.26727-0.26726v-3.7418c0-0.14769-0.1196-0.26729-0.26727-0.26729z"/>
  </g>
  <g transform="matrix(.53454 0 0 .53454 314.43 301.26)">
   <path d="m4.5 1.0039c-0.82843 1e-7 -1.5 0.67157-1.5 1.5v0.5h-0.5c-1.3807 0-2.5 1.1193-2.5 2.5v5c0 0.8284 0.67157 1.5 1.5 1.5h1.5v1.5c0 0.8284 0.67157 1.5 1.5 1.5h7c0.8284 0 1.5-0.6716 1.5-1.5v-1.5h1.5c0.8284 0 1.5-0.6716 1.5-1.5v-5c0-1.3807-1.1193-2.5-2.5-2.5h-0.5v-0.5c0-0.82843-0.6716-1.5-1.5-1.5h-1.5v1h1.5c0.2761 0 0.5 0.22386 0.5 0.5v0.5h-2v1h3.5c0.8284 0 1.5 0.67157 1.5 1.5v5c0 0.27614-0.2239 0.5-0.5 0.5h-1.5v-1.5c0-0.82843-0.6716-1.5-1.5-1.5h-7c-0.82843 0-1.5 0.67157-1.5 1.5v1.5h-1.5c-0.27614 0-0.5-0.22386-0.5-0.5v-5c0-0.82843 0.67157-1.5 1.5-1.5h3.5v-1h-2v-0.5c0-0.27614 0.22386-0.5 0.5-0.5h1.5v-1zm0 8h7c0.2761 0 0.5 0.22386 0.5 0.5v4c0 0.2761-0.2239 0.5-0.5 0.5h-7c-0.27614 0-0.5-0.2239-0.5-0.5v-4c0-0.27614 0.22386-0.5 0.5-0.5z"/>
   <path d="m7 0v5h-1l2 2 2-2h-1v-5z"/>
  </g>
  <path d="m346.15 300.99c-0.14486 0-0.28937 0.0327-0.43537 0.0834a0.53459 0.53459 0 0 0-0.0202 8e-3c-0.60633 0.23893-2.0137 0.70489-2.775 1.0085a0.53459 0.53459 0 0 0-0.0121 6e-3c-0.12283 0.0528-0.2974 0.16527-0.39464 0.3414-0.0972 0.17617-0.10119 0.33062-0.10119 0.45311l-2e-3 2.8554c-6.4e-4 0.79897 0.25361 1.4641 0.78723 1.9826 0.53274 0.51763 1.2804 0.94596 2.3898 1.6224 6.7e-4 4e-4 1e-3 6.5e-4 2e-3 1e-3 8.9e-4 5.2e-4 1e-3 4.9e-4 2e-3 1e-3 0.16809 0.10384 0.36204 0.1893 0.55544 0.19011l1e-3 1e-3h1e-3l1e-3 -1e-3c0.19112-7e-4 0.39385-0.0875 0.56269-0.19213h1e-3c1.0941-0.66149 1.8417-1.0873 2.3773-1.6068 0.53674-0.52056 0.80011-1.1907 0.80076-1.9972l2e-3 -2.8554c1.1e-4 -0.12284-2e-3 -0.27884-0.10244-0.45832-0.10016-0.17941-0.28577-0.29515-0.41864-0.34556a0.53459 0.53459 0 0 0-0.0103-4e-3c-0.72947-0.2596-2.1299-0.7575-2.751-1.0023a0.53459 0.53459 0 0 0-0.0209-8e-3c-0.14606-0.0507-0.29486-0.0834-0.43953-0.0834zm0 0.53454c0.0733 0 0.15171 0.0162 0.26413 0.0543 0.64557 0.25441 2.039 0.7482 2.7677 1.0075 0.14183 0.0537 0.17657 0.12668 0.17637 0.30277l-2e-3 2.8554c-1e-3 1.4335-0.72446 1.82-2.9254 3.1508-0.14121 0.0877-0.20995 0.11254-0.28294 0.11274-0.0681-2.4e-4 -0.1386-0.0251-0.27979-0.11274-2.2303-1.3601-2.9255-1.7272-2.9243-3.1508l2e-3 -2.8554c1.6e-4 -0.17617 0.0344-0.24406 0.17112-0.30277 0.72388-0.28866 2.1284-0.75307 2.774-1.0075 0.11254-0.0392 0.19053-0.0543 0.25893-0.0543z" stroke-width=".53454"/>
  <g transform="matrix(.53454 0 0 .53454 369.58 301.26)">
   <rect x="7" y="1" width="1" height="7" rx=".5" ry=".5" style="paint-order:stroke fill markers"/>
   <path d="m11.297 2.3926a0.5 0.5 0 0 0-0.33984 0.17773 0.5 0.5 0 0 0 0.06445 0.70508c1.254 1.0453 1.9787 2.5921 1.9785 4.2246 0 3.0435-2.4565 5.5-5.5 5.5s-5.5-2.4565-5.5-5.5c0.00231-1.6312 0.72854-3.1753 1.9824-4.2188a0.5 0.5 0 0 0 0.064453-0.70508 0.5 0.5 0 0 0-0.70508-0.064453c-1.4813 1.2327-2.3391 3.0612-2.3418 4.9883 0 3.5839 2.9161 6.5 6.5 6.5s6.5-2.9161 6.5-6.5c2e-4 -1.9286-0.85646-3.7592-2.3379-4.9941a0.5 0.5 0 0 0-0.36523-0.11328z"/>
  </g>
  <g transform="matrix(.53454 0 0 .53454 94.878 301.53)">
   <path d="m6 5v0.5c0 0.40274-0.077 0.80306-0.21875 1.1797-0.13016 0.37203-0.31906 0.72178-0.56641 1.0273-0.24864 0.30716-0.55082 0.57009-0.88867 0.78125l-0.00586 0.00391-0.00391 0.00195c-0.096948 0.059013-0.21401 0.075969-0.3164 0.125v2.3809h3c0.554 0 1-0.446 1-1v-4c0-0.554-0.446-1-1-1z" style="paint-order:stroke fill markers"/>
   <path class="ColorScheme-Text" d="m6 3v1h6c1.108 0 1.9254 0.89452 2 2v4c0 1.108-0.892 2-2 2h-8v1h8c1.662 0 3-1.338 3-3v-1h1v-2h-1v-1c0-1.662-1.338-3-3-3z" color="#333333"/>
   <g transform="translate(-.069557)" stroke-linecap="round" stroke-linejoin="round" stroke-width="4" style="paint-order:stroke fill markers" aria-label="">
    <path d="m5.0696 5.5c0 0.29167-0.052083 0.57292-0.15625 0.84375-0.09375 0.27083-0.22917 0.51562-0.40625 0.73438s-0.39062 0.40625-0.64062 0.5625c-0.23958 0.14583-0.50521 0.25-0.79688 0.3125v5.0469h-1v-5.0469c-0.29167-0.0625-0.5625-0.16667-0.8125-0.3125-0.23958-0.15625-0.44792-0.34375-0.625-0.5625s-0.31771-0.46354-0.42188-0.73438c-0.09375-0.27083-0.14062-0.55208-0.14062-0.84375v-2.5h1v-2h1v2h1v-2h1v2h1zm-4 0c0 0.41667 0.14583 0.77083 0.4375 1.0625s0.64583 0.4375 1.0625 0.4375 0.77083-0.14583 1.0625-0.4375 0.4375-0.64583 0.4375-1.0625v-1.5h-3z" color="#000000" fill="#fff" stroke-linecap="round" stroke-width="2" style="-inkscape-stroke:none"/>
   </g>
  </g>
 </g>
 <g fill="#808080">
  <text x="66.918274" y="279.82144" font-family="Cantarell" font-size="5.6444px" stroke-linecap="square" stroke-width=".52917" xml:space="preserve"><tspan x="66.918274" y="279.82144" fill="#808080" font-size="5.6444px" stroke-width=".52917">Default version</tspan></text>
  <text x="67.683807" y="339.35269" font-family="Cantarell" font-size="5.6444px" stroke-linecap="square" stroke-width=".52917" xml:space="preserve"><tspan x="67.683807" y="339.35269" fill="#808080" font-size="5.6444px" stroke-width=".52917">Black version</tspan></text>
  <text x="62.771534" y="62.807407" font-family="sans-serif" font-size="4.9211px" stroke-width=".12303" style="line-height:1.25" xml:space="preserve"><tspan x="62.771534" y="62.807407" fill="#808080" font-family="sans-serif" stroke-width=".12303">Windows 10 style</tspan></text>
  <text x="62.771534" y="121.81712" font-family="sans-serif" font-size="4.9211px" stroke-width=".12303" style="line-height:1.25" xml:space="preserve"><tspan x="62.771534" y="121.81712" fill="#808080" font-family="sans-serif" stroke-width=".12303">Windows 11 style</tspan></text>
 </g>
</svg>
