<?xml version="1.0" encoding="UTF-8" standalone="no"?>
<!-- Created with Inkscape (http://www.inkscape.org/) -->

<svg
   width="1680"
   height="900"
   version="1.1"
   viewBox="0 0 444.5 238.125"
   id="svg333"
   sodipodi:docname="fluent-view.svg"
   inkscape:version="1.2.2 (b0a8486541, 2022-12-01)"
   xmlns:inkscape="http://www.inkscape.org/namespaces/inkscape"
   xmlns:sodipodi="http://sodipodi.sourceforge.net/DTD/sodipodi-0.dtd"
   xmlns="http://www.w3.org/2000/svg"
   xmlns:svg="http://www.w3.org/2000/svg">
  <sodipodi:namedview
     id="namedview335"
     pagecolor="#ffffff"
     bordercolor="#666666"
     borderopacity="1.0"
     inkscape:showpageshadow="2"
     inkscape:pageopacity="0.0"
     inkscape:pagecheckerboard="0"
     inkscape:deskcolor="#d1d1d1"
     showgrid="false"
     inkscape:zoom="0.28095238"
     inkscape:cx="284.74576"
     inkscape:cy="432.45763"
     inkscape:window-width="1920"
     inkscape:window-height="1004"
     inkscape:window-x="0"
     inkscape:window-y="44"
     inkscape:window-maximized="1"
     inkscape:current-layer="svg333" />
  <defs
     id="defs5">
    <style
       id="current-color-scheme"
       type="text/css">.ColorScheme-Text { color:#363636; }</style>
    <style
       type="text/css"
       id="style3">.ColorScheme-Text { color:#363636; }</style>
  </defs>
  <rect
     x="154.95"
     y="10.319"
     width="134.60001"
     height="20.108"
     rx="10.054"
     ry="10.054"
     fill="#4d4d4d"
     stroke-width="0.77362"
     id="rect7" />
  <rect
     x="26.424999"
     y="41.299999"
     width="391.64999"
     height="173.63"
     rx="11.486"
     ry="11.486"
     fill="#f5f5f5"
     stroke="#000000"
     stroke-linecap="square"
     stroke-opacity="0.2"
     stroke-width="0.46391"
     style="paint-order:normal"
     id="rect9" />
  <text
     x="171.79041"
     y="23.307209"
     fill="#ffffff"
     font-family="sans-serif"
     font-size="10.583px"
     letter-spacing="0px"
     stroke-width="0.26458"
     word-spacing="0px"
     style="line-height:1.25"
     xml:space="preserve"
     id="text13"><tspan
       x="171.79041"
       y="23.307209"
       fill="#ffffff"
       stroke-width="0.26458"
       id="tspan11">Install round version</tspan></text>
  <rect
     x="26.723"
     y="173.67"
     width="391.04999"
     height="0.52916998"
     rx="0"
     ry="0"
     fill-opacity="0.2"
     id="rect15" />
  <rect
     x="50.970001"
     y="72.964996"
     width="342.56"
     height="26.458"
     rx="6.1739001"
     ry="6.1739001"
     fill="#ffffff"
     stroke-linecap="round"
     stroke-linejoin="round"
     stroke-width="0.50546"
     style="paint-order:stroke fill markers"
     id="rect17" />
  <g
     transform="translate(-3.9863,1.8088)"
     id="g73">
    <path
       d="m 78.41,80.604 q 0.37603,0.37603 0.66433,0.81474 0.29247,0.43869 0.49302,0.92337 0.20056,0.48049 0.30082,0.99858 0.10445,0.51391 0.10445,1.0445 0,0.53061 -0.10445,1.0487 -0.10027,0.51391 -0.30082,0.99856 -0.20056,0.48049 -0.49302,0.9192 -0.28829,0.43871 -0.66433,0.81475 l -0.37603,-0.37604 q 0.33843,-0.33842 0.59746,-0.73119 0.26322,-0.39693 0.44288,-0.83142 0.17967,-0.43451 0.27158,-0.89831 0.09611,-0.46794 0.09611,-0.94425 0,-0.47631 -0.09611,-0.94011 Q 79.25396,82.97714 79.07431,82.54263 78.89464,82.1081 78.63143,81.71537 78.37239,81.31845 78.03397,80.98 Z m -1.1323,1.1323 q 0.26322,0.26322 0.46377,0.57239 0.20473,0.30499 0.34261,0.64343 0.14207,0.33842 0.21308,0.7019 0.0752,0.36349 0.0752,0.73119 0,0.37186 -0.0752,0.73537 -0.07104,0.35931 -0.21308,0.69773 -0.13789,0.33842 -0.34261,0.64759 -0.20056,0.30501 -0.46377,0.56823 l -0.38021,-0.38022 q 0.45124,-0.45124 0.69356,-1.0404 0.24651,-0.5891 0.24651,-1.2284 0,-0.63925 -0.24651,-1.2284 -0.24233,-0.58912 -0.69356,-1.0404 z m -1.1364,1.1364 q 0.30082,0.30082 0.46377,0.69357 0.16296,0.39275 0.16296,0.81891 0,0.42616 -0.16296,0.81891 -0.16296,0.39275 -0.46377,0.69357 l -0.37603,-0.37602 q 0.22562,-0.22563 0.34678,-0.51809 0.12116,-0.29666 0.12116,-0.61836 0,-0.32174 -0.12116,-0.61419 -0.12116,-0.29664 -0.34678,-0.52227 z m -1.8927,-1.6963 h 0.38021 v 6.4177 H 74.2486 L 72.6442,85.9897 H 71.42 v -3.2088 h 1.2242 z m -0.15459,0.91503 -1.2242,1.2242 h -0.91503 v 2.1392 h 0.91503 l 1.2242,1.2242 z"
       fill="#363636"
       stroke-linecap="round"
       stroke-linejoin="round"
       stroke-width="1.0696"
       style="paint-order:stroke fill markers"
       id="path19" />
    <g
       transform="matrix(0.53454,0,0,0.53454,98.864,80.643)"
       fill="#363636"
       stroke-linecap="round"
       stroke-linejoin="round"
       id="g29">
      <path
         d="m 6,3 v 1 h 7 c 0.554,0 1,0.446 1,1 v 6 c 0,0.554 -0.446,1 -1,1 H 4 v 1 h 9 c 1.108,0 2,-0.892 2,-2 V 9 h 1 V 7 H 15 V 5 C 15,3.892 14.108,3 13,3 Z"
         stroke-width="1.5"
         style="paint-order:stroke fill markers"
         id="path21" />
      <path
         d="M 6,5 V 5.5 C 6,6.8994 5.18142,8.0934 4,8.6543 V 11 H 7 V 5 Z"
         stroke-width="1.5"
         style="paint-order:stroke fill markers"
         id="path23" />
      <g
         transform="translate(-0.069557)"
         stroke-width="4"
         style="paint-order:stroke fill markers"
         aria-label=""
         id="g27">
        <path
           d="m 5.0696,5.5 c 0,0.29167 -0.052083,0.57292 -0.15625,0.84375 C 4.8196,6.61458 4.68418,6.85937 4.5071,7.07813 4.33002,7.29689 4.11648,7.48438 3.86648,7.64063 3.6269,7.78646 3.36127,7.89063 3.0696,7.95313 v 5.0469 h -1 V 7.95313 C 1.77793,7.89063 1.5071,7.78646 1.2571,7.64063 1.01752,7.48438 0.80918,7.29688 0.6321,7.07813 0.45502,6.85938 0.31439,6.61459 0.21022,6.34375 0.11647,6.07292 0.0696,5.79167 0.0696,5.5 V 3 h 1 V 1 h 1 v 2 h 1 V 1 h 1 v 2 h 1 z m -4,0 c 0,0.41667 0.14583,0.77083 0.4375,1.0625 C 1.79877,6.85417 2.15293,7 2.5696,7 2.98627,7 3.34043,6.85417 3.6321,6.5625 3.92377,6.27083 4.0696,5.91667 4.0696,5.5 V 4 h -3 z"
           fill="#363636"
           stroke-width="4"
           id="path25" />
      </g>
    </g>
    <path
       d="m 158.03,80.376 c -0.59046,0 -1.0691,0.47864 -1.0691,1.0691 h -1.0691 v 0.003 c -0.59494,0.01737 -1.0691,0.49897 -1.0691,1.0983 v 4.7461 c 0,0.61044 0.491,1.1014 1.1014,1.1014 h 4.2116 c 0.61043,0 1.1014,-0.49099 1.1014,-1.1014 v -4.7461 c 0,-0.61044 -0.491,-1.1014 -1.1014,-1.1014 h -1.0367 c 0,-0.07376 -0.002,-0.14766 -0.0161,-0.21716 -0.10486,-0.49732 -0.5441,-0.85291 -1.0524,-0.85195 z m -0.006,0.53454 c 0.002,-1.2e-5 0.004,-1.2e-5 0.006,0 0.22129,0 0.40316,0.14219 0.48442,0.33409 0.0305,0.06263 0.0475,0.1309 0.0501,0.20046 -4e-5,0.47474 -0.57282,0.71372 -0.91037,0.38003 -0.33759,-0.33369 -0.10505,-0.90898 0.36958,-0.91454 z m -2.1319,1.0691 h 1.0691 v 0.53454 c 0,0 -0.53456,0 -0.53456,0.53454 h 3.2072 c 0,-0.4009 -0.3008,-0.50942 -0.45101,-0.53454 h -0.0834 v -0.53454 h 1.0691 c 0.29613,0 0.53453,0.2384 0.53453,0.53454 v 4.8109 c 0,0.29614 -0.2384,0.53454 -0.53453,0.53454 h -4.2763 c -0.29614,0 -0.53453,-0.2384 -0.53453,-0.53454 v -4.8109 c 0,-0.29614 0.23839,-0.53454 0.53453,-0.53454 z"
       fill="#363636"
       stroke-width="0.53454"
       id="path31" />
    <g
       transform="matrix(0.53454,0,0,0.53454,126.31,80.109)"
       fill="#363636"
       stroke-linecap="round"
       stroke-linejoin="round"
       stroke-width="1.5"
       id="g37">
      <path
         d="M 2,3 C 0.892,3 0,3.892 0,5 v 6 c 0,1.108 0.892,2 2,2 h 11 c 1.108,0 2,-0.892 2,-2 V 9 h 1 V 7 H 15 V 5 C 15,3.892 14.108,3 13,3 Z m 0,1 h 11 c 0.554,0 1,0.446 1,1 v 6 c 0,0.554 -0.446,1 -1,1 H 2 C 1.446,12 1,11.554 1,11 V 5 C 1,4.446 1.446,4 2,4 Z"
         style="paint-order:stroke fill markers"
         id="path33" />
      <rect
         x="2"
         y="5"
         width="11"
         height="6"
         rx="0"
         ry="0"
         style="paint-order:stroke fill markers"
         id="rect35" />
    </g>
    <g
       transform="matrix(0.53454,0,0,0.53454,181.46,79.841)"
       id="g45">
      <g
         transform="translate(-613,191)"
         id="g41">
        <path
           d="m 620.25,-190 c -0.13807,0 -0.25,0.11193 -0.25,0.25 v 1.5 c 0,0.139 0.112,0.25 0.25,0.25 h 0.5 c 0.13807,0 0.25,-0.11193 0.25,-0.25 v -1.5 c 0,-0.13807 -0.11193,-0.25 -0.25,-0.25 z m -4.699,1.947 c -0.0667,-3.8e-4 -0.13078,0.0259 -0.178,0.073 l -0.353,0.353 c -0.0979,0.0977 -0.0979,0.25632 0,0.354 l 1.06,1.06 c 0.0977,0.0979 0.25632,0.0979 0.354,0 l 0.353,-0.353 c 0.0979,-0.0977 0.0979,-0.25632 0,-0.354 l -1.06,-1.06 c -0.0465,-0.047 -0.10991,-0.0733 -0.176,-0.073 z m 9.898,0 c -0.0657,-3e-5 -0.12877,0.0263 -0.175,0.073 l -1.06,1.06 c -0.0979,0.0977 -0.0979,0.25632 0,0.354 l 0.353,0.353 c 0.0976,0.0973 0.25543,0.0973 0.353,0 l 1.06,-1.06 c 0.0979,-0.0977 0.0979,-0.25632 0,-0.354 l -0.353,-0.353 c -0.0472,-0.0471 -0.1113,-0.0734 -0.178,-0.073 z M 613.25,-183 c -0.13807,0 -0.25,0.11193 -0.25,0.25 v 0.5 c 0,0.139 0.112,0.25 0.25,0.25 h 1.5 c 0.13807,0 0.25,-0.11193 0.25,-0.25 v -0.5 c 0,-0.13807 -0.11193,-0.25 -0.25,-0.25 z m 13,0 c -0.13807,0 -0.25,0.11193 -0.25,0.25 v 0.5 c 0,0.139 0.112,0.25 0.25,0.25 h 1.5 c 0.13807,0 0.25,-0.11193 0.25,-0.25 v -0.5 c 0,-0.13807 -0.11193,-0.25 -0.25,-0.25 z m -9.992,4.139 c -0.0668,1e-4 -0.13082,0.0267 -0.178,0.074 l -1.06,1.06 c -0.0979,0.0977 -0.0979,0.25632 0,0.354 l 0.353,0.353 c 0.0977,0.0979 0.25632,0.0979 0.354,0 l 1.06,-1.06 c 0.0979,-0.0977 0.0979,-0.25632 0,-0.354 l -0.353,-0.353 c -0.0464,-0.0472 -0.10981,-0.0738 -0.176,-0.074 z m 8.484,0 c -0.0658,4.6e-4 -0.1288,0.0271 -0.175,0.074 l -0.354,0.353 c -0.0979,0.0977 -0.0979,0.25632 0,0.354 l 1.06,1.06 c 0.0977,0.0979 0.25632,0.0979 0.354,0 l 0.354,-0.353 c 0.0979,-0.0977 0.0979,-0.25632 0,-0.354 l -1.06,-1.06 c -0.0474,-0.0475 -0.11186,-0.0742 -0.179,-0.074 z M 620.25,-177 c -0.13807,0 -0.25,0.11193 -0.25,0.25 v 1.5 c 0,0.139 0.112,0.25 0.25,0.25 h 0.5 c 0.13807,0 0.25,-0.11193 0.25,-0.25 v -1.5 c 0,-0.13807 -0.11193,-0.25 -0.25,-0.25 z"
           color="#000000"
           fill="#363636"
           overflow="visible"
           style="isolation:auto;mix-blend-mode:normal"
           id="path39" />
      </g>
      <circle
         cx="7.5"
         cy="8.5"
         r="3.5"
         fill="#363636"
         fill-rule="evenodd"
         style="paint-order:stroke fill markers"
         id="circle43" />
    </g>
    <g
       fill="#363636"
       id="g55">
      <path
         d="m 212.92,88.127 v -3.7418 h -3.7418 l 7.4836,-3.7418 z"
         color="#000000"
         overflow="visible"
         stroke-width="0.53454"
         id="path47" />
      <path
         d="m 236.62,81.178 c -0.29614,0 -0.53455,0.2384 -0.53455,0.53454 v 2.1382 c 0,0.29614 0.23841,0.53454 0.53455,0.53454 h 0.53453 v 3.2072 h 0.53453 v -1.6036 h 2.6727 v 1.0691 h -1.6036 v 0.53454 h 3.7418 v -0.53454 h -1.6036 v -1.0691 h 3.2072 c 0.29613,0 0.53455,-0.2384 0.53455,-0.53454 v -3.7418 c 0,-0.29614 -0.23842,-0.53454 -0.53455,-0.53454 h -6.4145 z m 0,0.53454 h 1.6036 v 0.53454 H 236.62 Z m 2.1382,0 h 5.3454 v 3.7418 h -6.4145 v -1.0691 h 0.53456 c 0.29612,0 0.53453,-0.2384 0.53453,-0.53454 z m -2.1382,1.0691 h 0.53453 v 0.53454 h 0.53453 v -0.53454 h 0.53456 v 1.0691 h -1.6036 z"
         stroke-linecap="round"
         stroke-linejoin="round"
         stroke-width="5.3454"
         style="paint-order:stroke fill markers"
         id="path49" />
      <path
         d="m 267.8,80.376 a 0.53454,0.53454 0 0 0 -0.53132,0.58799 2.6663,2.6663 0 0 0 -2.1414,2.6192 v 2.4054 l -1.0691,1.0691 v 0.26727 h 7.4836 v -0.26727 l -1.0691,-1.0691 v -2.4054 a 2.6658,2.6658 0 0 0 -2.1414,-2.6192 0.53454,0.53454 0 0 0 -0.53134,-0.58799 z m 0,1.0691 a 2.1382,2.1382 0 0 1 2.1382,2.1382 v 2.631 l 0.53454,0.57623 h -5.3454 l 0.53453,-0.57623 v -2.631 a 2.1382,2.1382 0 0 1 2.1382,-2.1382 z m -0.92476,6.4145 a 1.0691,1.0691 0 0 0 0.92476,0.53453 1.0691,1.0691 0 0 0 0.92423,-0.53453 z"
         stroke-linecap="round"
         stroke-width="1.6036"
         id="path51" />
      <path
         d="m 293.11,85.989 v 0.53454 h -1.0691 V 85.989 Z m 6.4145,0.53454 h -3.7418 v 0.53454 h 1.0691 v 0.53454 h -5.8799 v -4.8109 h 0.53453 v -1.6036 h 8.0181 z m -5.88,0.53454 v -3.7418 h -2.1382 v 3.7418 z m 1.6036,0 v -0.53454 h -1.0691 v 0.53454 z m -1.0691,-1.0691 h 4.8109 v -4.2763 h -6.949 v 1.0691 h 2.1382 z"
         stroke-linecap="square"
         stroke-width="1.4254"
         style="paint-order:stroke fill markers"
         id="path53" />
    </g>
    <g
       transform="matrix(0.53454,0,0,0.53454,318.41,80.109)"
       id="g63">
      <path
         d="M 7,2 V 7 H 6 L 8,9 10,7 H 9 V 2 Z"
         fill="#00a6ff"
         id="path57" />
      <g
         fill="#363636"
         stroke-linecap="round"
         stroke-linejoin="round"
         stroke-width="2"
         style="paint-order:stroke fill markers"
         aria-label=""
         id="g61">
        <path
           d="M 4,0 V 6 H 1 C 0.86459,6 0.73438,6.026042 0.60938,6.078125 0.48959,6.130212 0.38281,6.203125 0.28907,6.296875 0.200527,6.385415 0.13022,6.492185 0.07813,6.617185 0.026047,6.736975 5e-6,6.864585 5e-6,6.999995 v 7 h 4 v 2 h 8 v -2 h 4 v -7 c 0,-0.13541 -0.02604,-0.26302 -0.07813,-0.38281 -0.05209,-0.125 -0.125,-0.23177 -0.21875,-0.32031 -0.08854,-0.09375 -0.1953,-0.16667 -0.3203,-0.21875 C 15.263035,6.026042 15.135425,6 15.000015,6 h -3 V 0 h -8 z m 1,1 h 6 v 6 h 4 v 6 H 12 V 10 H 4 v 3 H 1 V 7 H 5 V 5 Z M 2.5,8 C 2.36459,8 2.2474,8.049478 2.14844,8.14844 2.04948,8.247402 2,8.36459 2,8.5 2,8.63541 2.049478,8.7526 2.14844,8.85156 2.247402,8.95052 2.36459,9 2.5,9 2.63541,9 2.7526,8.950522 2.85156,8.85156 2.95052,8.752598 3,8.63541 3,8.5 3,8.36459 2.950522,8.2474 2.85156,8.14844 2.752598,8.04948 2.63541,8 2.5,8 Z M 5,11 h 6 v 4 H 5 Z"
           fill="#363636"
           id="path59" />
      </g>
    </g>
    <path
       d="m 346.93,80.627 v 4.2763 c 0,1.1076 0.8419,1.8827 1.5699,2.3889 a 7.8887,7.8887 0 0 0 1.4368,0.7847 l 0.20042,0.06681 0.20042,-0.06681 c 0,0 0.71095,-0.29079 1.4363,-0.80181 0.72642,-0.51049 1.5705,-1.2792 1.5705,-2.3718 v -4.2763 z m 0.53453,0.53454 h 5.3454 v 3.7418 c 0,1.5844 -2.6727,2.6727 -2.6727,2.6727 0,0 -2.6727,-1.0424 -2.6727,-2.6727 z"
       color="#363636"
       fill="#363636"
       font-family="Sans"
       font-weight="400"
       overflow="visible"
       stroke-width="1.0691"
       style="text-indent:0;text-decoration-line:none;text-transform:none"
       id="path65" />
    <g
       transform="matrix(0.53454,0,0,0.53454,373.57,80.375)"
       fill="#363636"
       id="g71">
      <path
         d="m 1,7.43 c -0.01,0.68 0.088,1.37 0.3,2.043 0.854,2.696 3.366,4.531 6.2,4.531 2.834,0 5.346,-1.835 6.2,-4.531 A 6.47,6.47 0 0 0 11.228,2.217 l -0.572,0.82 c 1.968,1.374 2.812,3.853 2.09,6.135 -0.722,2.282 -2.843,3.832 -5.246,3.832 -2.403,0 -4.524,-1.55 -5.246,-3.832 C 1.532,6.89 2.376,4.411 4.344,3.037 L 3.771,2.217 A 6.477,6.477 0 0 0 1,7.43 Z"
         id="path67" />
      <path
         d="M 7,1 V 8 H 8 V 1 Z"
         id="path69" />
    </g>
  </g>
  <rect
     x="50.970001"
     y="131.92"
     width="342.56"
     height="26.458"
     rx="6.1739001"
     ry="6.1739001"
     fill="#ffffff"
     stroke-linecap="round"
     stroke-linejoin="round"
     stroke-width="0.50546"
     style="paint-order:stroke fill markers"
     id="rect75" />
  <g
     transform="translate(-3.9862,2.2499)"
     id="g135">
    <g
       transform="matrix(0.53454,0,0,0.53454,71.42,138.63)"
       fill="#363636"
       stroke-linecap="round"
       stroke-linejoin="round"
       stroke-width="2.001"
       style="paint-order:stroke fill markers"
       aria-label=""
       id="g85">
      <path
         d="m 12.363,0.92969 a 0.5,0.5 0 0 0 0,0.70703 c 1.688,1.6877 2.6364,3.9763 2.6367,6.3633 -0.0097,2.3829 -0.96468,4.6633 -2.6543,6.3438 a 0.5,0.5 0 0 0 -0.002,0.70898 0.5,0.5 0 0 0 0.70898,0.002 c 1.8776,-1.8674 2.9371,-4.4047 2.9473,-7.0528 a 0.50005,0.50005 0 0 0 0,-0.00195 c -4.01e-4,-2.6518 -1.0544,-5.1954 -2.9297,-7.0703 a 0.5,0.5 0 0 0 -0.70703,0 z"
         color="#000000"
         style="-inkscape-stroke:none;paint-order:normal"
         id="path77" />
      <path
         d="m 10.242,3.0508 a 0.5,0.5 0 0 0 0,0.70703 c 1.1254,1.1252 1.7576,2.6508 1.7578,4.2422 -0.0065,1.5885 -0.64326,3.1082 -1.7695,4.2285 a 0.5,0.5 0 0 0 -0.002,0.70898 0.5,0.5 0 0 0 0.70898,0.002 c 1.3143,-1.3073 2.0556,-3.0839 2.0625,-4.9375 a 0.50005,0.50005 0 0 0 0,-0.00195 c -2.8e-4,-1.8562 -0.7381,-3.6368 -2.0508,-4.9492 a 0.5,0.5 0 0 0 -0.70703,0 z"
         color="#000000"
         style="-inkscape-stroke:none;paint-order:normal"
         id="path79" />
      <path
         d="m 8.4746,5.0254 a 0.5,0.5 0 0 0 -0.35352,0.14648 0.5,0.5 0 0 0 0,0.70703 c 0.56277,0.56265 0.87879,1.3253 0.87891,2.1211 -0.00327,0.7941 -0.32182,1.5551 -0.88477,2.1152 a 0.5,0.5 0 0 0 0,0.70703 0.5,0.5 0 0 0 0.70703,0 c 0.75086,-0.74715 1.174,-1.7611 1.1777,-2.8203 a 0.50005,0.50005 0 0 0 0,-0.00195 C 9.9997898,6.93939 9.57812,5.92179 8.82805,5.17189 A 0.5,0.5 0 0 0 8.47453,5.02541 Z"
         color="#000000"
         style="-inkscape-stroke:none;paint-order:normal"
         id="path81" />
      <path
         d="M 6.0977,2.7129 A 1.0001,1.0001 0 0 0 5.29301,3.00196 l -1.9961,1.998 h -1.2969 c -1.0907,0 -2,0.9093 -2,2 v 2 c 0,1.0907 0.9093,2 2,2 h 1.2969 l 1.9961,1.998 a 1.0001,1.0001 0 0 0 1.707,-0.70703 v -8.582 A 1.0001,1.0001 0 0 0 6.38282,2.7851 1.0001,1.0001 0 0 0 6.09766,2.712834 Z M 6.000044,3.70899 v 8.582 l -2.2891,-2.291 h -1.7109 c -0.554,0 -1,-0.446 -1,-1 v -2 c 0,-0.554 0.446,-1 1,-1 h 1.7109 z"
         color="#000000"
         style="-inkscape-stroke:none"
         id="path83" />
    </g>
    <g
       transform="matrix(0.53454,0,0,0.53454,126.31,138.62)"
       fill="#363636"
       id="g91">
      <rect
         x="2"
         y="5"
         width="11"
         height="6"
         rx="1"
         ry="1"
         stroke-linecap="round"
         stroke-linejoin="round"
         stroke-width="1.5"
         style="paint-order:stroke fill markers"
         id="rect87" />
      <path
         d="M 3,3 C 1.338,3 0,4.338 0,6 v 4 c 0,1.662 1.338,3 3,3 h 9 c 1.662,0 3,-1.338 3,-3 V 9 h 1 V 7 H 15 V 6 C 15,4.338 13.662,3 12,3 Z m 0,1 h 9 c 1.108,0 1.9254,0.89452 2,2 v 4 c 0,1.108 -0.892,2 -2,2 H 3 C 1.892,12 1,11.108 1,10 V 6 C 1,4.892 1.892,4 3,4 Z"
         id="path89" />
    </g>
    <g
       transform="matrix(0.53454,0,0,0.53454,153.75,138.89)"
       fill="#363636"
       stroke-linecap="round"
       stroke-linejoin="round"
       stroke-width="2"
       id="g97">
      <path
         d="M 5.5,0 C 4.84429,0 4.2889,0.41602 4.084,1 H 3 C 1.892,1 1,1.892 1,3 v 10 c 0,1.108 0.892,2 2,2 H 5.5 C 5.777,15 6,14.777 6,14.5 6,14.223 5.777,14 5.5,14 H 3 C 2.446,14 2,13.554 2,13 V 3 C 2,2.446 2.446,2 3,2 H 4.084 C 4.2889,2.58398 4.8443,3 5.5,3 h 3 C 9.15571,3 9.7111,2.58398 9.916,2 H 11 c 0.554,0 1,0.446 1,1 V 3.5 C 12,3.777 12.223,4 12.5,4 12.777,4 13,3.777 13,3.5 V 3 C 13,1.892 12.108,1 11,1 H 9.916 C 9.7111,0.41602 9.1557,0 8.5,0 Z m 0,1 h 3 C 8.777,1 9,1.223 9,1.5 9,1.777 8.777,2 8.5,2 h -3 C 5.223,2 5,1.777 5,1.5 5,1.223 5.223,1 5.5,1 Z M 4.0586,1.080078 C 4.047494,1.118479 4.039323,1.157644 4.031256,1.197268 4.026656,1.219856 4.021162,1.242676 4.017584,1.265627 4.021134,1.242462 4.026664,1.220063 4.031256,1.197268 4.039246,1.157547 4.047533,1.118554 4.0586,1.080078 Z m 5.8828,0 C 9.952467,1.118551 9.960749,1.157544 9.968744,1.197268 9.973334,1.220064 9.978866,1.242462 9.982416,1.265627 9.978836,1.242675 9.973346,1.219856 9.968744,1.197268 9.960674,1.157646 9.952506,1.118481 9.9414,1.080078 Z m -5.9238,0.6543 C 4.02118,1.75733 4.02667,1.780149 4.031272,1.802737 4.039342,1.842359 4.04751,1.881524 4.058616,1.919927 4.047549,1.881454 4.039266,1.842461 4.031272,1.802737 4.026684,1.779941 4.02115,1.757543 4.0176,1.734378 Z m 5.9648,0 C 9.97885,1.757543 9.97332,1.779942 9.968728,1.802737 9.960738,1.842458 9.952451,1.881451 9.941384,1.919927 9.95249,1.881526 9.960661,1.842361 9.968728,1.802737 9.973328,1.780149 9.978822,1.757329 9.9824,1.734378 Z"
         style="paint-order:stroke fill markers"
         id="path93" />
      <path
         d="M 9,5 C 7.892,5 7,5.892 7,7 v 6 c 0,1.108 0.892,2 2,2 h 4 c 1.108,0 2,-0.892 2,-2 V 7 C 15,5.892 14.108,5 13,5 Z m 0,1 h 4 c 0.554,0 1,0.446 1,1 v 6 c 0,0.554 -0.446,1 -1,1 H 9 C 8.446,14 8,13.554 8,13 V 7 C 8,6.446 8.446,6 9,6 Z"
         style="paint-order:stroke fill markers"
         id="path95" />
    </g>
    <g
       fill="#363636"
       stroke-width="0.53454"
       id="g109">
      <path
         d="m 185.74,139.42 c 0,-0.14767 -0.11961,-0.26725 -0.26729,-0.26725 -0.14769,0 -0.26727,0.1196 -0.26727,0.26725 v 0.53454 c 0,0.14768 0.1196,0.26727 0.26727,0.26727 0.14768,0 0.26729,-0.11961 0.26729,-0.26727 z m -2.5351,0.82865 c -0.10445,-0.10445 -0.27359,-0.10445 -0.37798,0 -0.10445,0.10446 -0.10445,0.27359 0,0.37796 l 0.37798,0.37798 c 0.10444,0.10446 0.2736,0.10446 0.37797,0 0.10445,-0.10445 0.10445,-0.27359 0,-0.37798 z m 4.9136,0.37796 c 0.10445,-0.10445 0.10445,-0.27359 0,-0.37796 -0.10425,-0.10445 -0.27357,-0.10445 -0.37796,0 l -0.37798,0.37796 c -0.10425,0.10446 -0.10425,0.27361 0,0.37798 0.10445,0.10446 0.27363,0.10446 0.37798,0 z m -6.1205,2.0006 c -0.14768,0 -0.26727,0.1196 -0.26727,0.26729 0,0.14768 0.1196,0.26726 0.26727,0.26726 h 0.53455 c 0.14769,0 0.26727,-0.1196 0.26727,-0.26726 0,-0.14769 -0.1196,-0.26729 -0.26727,-0.26729 z m 6.4145,0 c -0.14748,0 -0.26726,0.1196 -0.26726,0.26729 0,0.14768 0.1196,0.26726 0.26726,0.26726 h 0.53455 c 0.14769,0 0.26727,-0.1196 0.26727,-0.26726 0,-0.14769 -0.1196,-0.26729 -0.26727,-0.26729 z m -4.8298,2.5351 c 0.10445,-0.10425 0.10445,-0.27359 0,-0.37798 -0.10446,-0.10445 -0.27361,-0.10445 -0.37798,0 l -0.37798,0.37798 c -0.10446,0.10445 -0.10446,0.27363 0,0.37796 0.10445,0.10445 0.27361,0.10445 0.37798,0 z m 4.1577,-0.37798 c -0.10426,-0.10445 -0.27359,-0.10445 -0.37798,0 -0.10425,0.10445 -0.10425,0.27363 0,0.37798 l 0.37798,0.37796 c 0.10444,0.10445 0.27363,0.10445 0.37796,0 0.10444,-0.10425 0.10444,-0.27357 0,-0.37796 z m -2.0006,1.0501 c 0,-0.14748 -0.1196,-0.26727 -0.26729,-0.26727 -0.14768,0 -0.26726,0.1196 -0.26726,0.26727 v 0.53455 c 0,0.14768 0.1196,0.26726 0.26726,0.26726 0.14769,0 0.26729,-0.1196 0.26729,-0.26726 z m -0.26729,-5.0781 c -1.1808,0 -2.1382,0.95731 -2.1382,2.1382 0,1.1808 0.9573,2.1382 2.1382,2.1382 1.1809,0 2.1382,-0.95731 2.1382,-2.1382 0,-1.1809 -0.9573,-2.1382 -2.1382,-2.1382 z m -1.6036,2.1382 c 0,-0.88565 0.718,-1.6036 1.6036,-1.6036 0.88564,0 1.6036,0.71797 1.6036,1.6036 0,0.88562 -0.71798,1.6036 -1.6036,1.6036 -0.88562,0 -1.6036,-0.71795 -1.6036,-1.6036 z"
         id="path99" />
      <path
         d="m 212.92,139.16 c 1.7713,0 3.2072,1.4359 3.2072,3.2072 0,1.5326 -1.0343,2.9431 -3.0638,4.2345 -0.0875,0.0558 -0.1994,0.0558 -0.28698,0 -2.0294,-1.2915 -3.0638,-2.7019 -3.0638,-4.2345 0,-1.7713 1.4359,-3.2072 3.2072,-3.2072 z m 0,0.53453 c -1.4761,0 -2.6727,1.1966 -2.6727,2.6727 0,1.243 0.82302,2.4363 2.502,3.577 l 0.17071,0.11395 0.17072,-0.11395 c 1.6789,-1.1408 2.5019,-2.334 2.5019,-3.577 0,-1.4761 -1.1966,-2.6727 -2.6727,-2.6727 z m 0,1.8709 c 0.44283,0 0.80182,0.35897 0.80182,0.8018 0,0.44283 -0.35899,0.8018 -0.80182,0.8018 -0.44283,0 -0.8018,-0.35897 -0.8018,-0.8018 0,-0.44283 0.35897,-0.8018 0.8018,-0.8018 z"
         id="path101" />
      <path
         d="m 242.5,138.89 c -0.29615,0 -0.53456,0.23842 -0.53456,0.53456 v 2.6727 c 0,0.29613 0.23841,0.53455 0.53456,0.53455 h 0.53453 v 3.9798 c 0,0.16445 0.1192,0.2965 0.26727,0.2965 0.14808,0 0.26726,-0.13193 0.26726,-0.2965 v -3.9798 h 0.53455 c 0.29612,0 0.53454,-0.23842 0.53454,-0.53455 v -2.6727 c 0,-0.29614 -0.23842,-0.53456 -0.53454,-0.53456 z m -5.3454,0.53456 c -0.59227,0 -1.0691,0.47681 -1.0691,1.0691 v 3.7418 c 0,0.59228 0.47902,1.0179 1.0691,1.0691 h 1.6036 v 1.0691 h -0.8018 c -0.0182,0 -0.0368,0.002 -0.0543,0.006 -0.0182,0.004 -0.0342,0.008 -0.0501,0.0162 -0.0161,0.006 -0.0307,0.0161 -0.0448,0.0251 -0.0142,0.0103 -0.0277,0.0202 -0.0397,0.0323 -0.0121,0.0121 -0.0228,0.0254 -0.0323,0.0396 -0.0103,0.0142 -0.0182,0.0289 -0.0251,0.0448 -0.006,0.0162 -0.0121,0.0327 -0.0162,0.0501 -0.004,0.0182 -0.006,0.0357 -0.006,0.0543 0,0.0182 0.002,0.0368 0.006,0.0543 0.004,0.0182 0.008,0.0342 0.0162,0.0501 0.006,0.0161 0.0161,0.0307 0.0251,0.0448 0.0103,0.0141 0.0204,0.0277 0.0323,0.0396 0.0121,0.0121 0.0255,0.0228 0.0397,0.0323 0.0141,0.0103 0.0289,0.0182 0.0448,0.0251 0.0161,0.006 0.0327,0.0121 0.0501,0.0161 0.0182,0.004 0.0357,0.006 0.0543,0.006 h 4.2763 c 0.0182,0 0.0368,-0.002 0.0543,-0.006 0.0182,-0.004 0.0342,-0.008 0.0501,-0.0161 0.0161,-0.006 0.0307,-0.0162 0.0448,-0.0251 0.0142,-0.0103 0.0277,-0.0202 0.0396,-0.0323 0.0121,-0.0121 0.0228,-0.0255 0.0323,-0.0396 0.0103,-0.0142 0.0182,-0.0289 0.0251,-0.0448 0.006,-0.0162 0.0121,-0.0327 0.0161,-0.0501 0.004,-0.0182 0.006,-0.0357 0.006,-0.0543 0,-0.14809 -0.1192,-0.26727 -0.26727,-0.26727 h -0.26726 v -1.0691 h 0.26726 c 0.14809,0 0.26727,-0.1192 0.26727,-0.26727 0,-0.14809 -0.11981,-0.28008 -0.26727,-0.26728 h -5.0781 c -0.29613,0 -0.53453,-0.2384 -0.53453,-0.53454 v -3.7418 c 0,-0.29613 0.2384,-0.53455 0.53453,-0.53455 h 4.0091 c 0.14808,0 0.26725,-0.1192 0.26725,-0.26726 0,-0.14809 -0.11918,-0.26727 -0.26725,-0.26727 h -4.0091 z m 5.3454,0 h 1.6036 v 0.53453 H 242.5 Z m 0,1.0691 h 1.6036 v 1.6036 H 242.5 Z m -3.2072,4.8109 h 2.1382 v 1.0691 h -2.1382 z"
         id="path103" />
      <path
         d="m 267.8,138.89 c -1.7248,0 -3.1385,1.3103 -3.2041,2.9765 l -0.002,0.12 v 1.9283 l -0.49383,1.187 -0.023,0.0678 -0.0121,0.0678 c -0.0268,0.24778 0.10306,0.47132 0.3226,0.56272 l 0.0669,0.023 c 0.0452,0.0121 0.0919,0.0182 0.1388,0.0182 h 1.0711 v -0.002 h 0.62953 a 1.6036,1.6036 0 0 0 1.5086,1.0691 1.6036,1.6036 0 0 0 1.5086,-1.0691 h 1.1641 v 0.002 h 0.53351 l 0.0721,-0.006 0.0616,-0.0142 c 0.24198,-0.0689 0.4009,-0.27525 0.4009,-0.51471 l -0.006,-0.0699 -0.008,-0.0459 c -0.006,-0.0305 -0.0161,-0.0598 -0.0281,-0.0887 l -0.49485,-1.1881 v -1.9223 l -0.002,-0.12 -0.008,-0.119 c -0.12849,-1.6146 -1.5157,-2.8627 -3.1989,-2.8627 z m 0,0.53453 c 1.4416,0 2.6154,1.0873 2.6716,2.4628 l 0.002,0.10971 v 1.9711 l 0.0209,0.10223 0.51469,1.2361 -0.0241,0.001 h -1.5786 a 1.6036,1.6036 0 0 0 0,-0.002 h -0.53454 a 1.0691,1.0691 0 0 1 0,0.002 l -2.1382,-0.001 a 1.0691,1.0691 0 0 1 0,-0.002 h -0.53434 a 1.6036,1.6036 0 0 0 0,0.002 h -1.6057 l 0.5147,-1.2361 0.0202,-0.10223 v -1.9764 l 0.002,-0.1097 0.008,-0.11374 c 0.11233,-1.3157 1.2604,-2.3439 2.6623,-2.3439 z m -0.91877,6.4145 h 1.8437 a 1.0691,1.0691 0 0 1 -0.92187,0.53453 1.0691,1.0691 0 0 1 -0.92186,-0.53453 z"
         id="path105" />
      <path
         d="m 293.11,139.16 h 5.3454 c 0.29523,0 0.53454,0.23933 0.53454,0.53455 v 3.7418 c 0,0.29522 -0.23931,0.53453 -0.53454,0.53453 h -3.7418 v 0.53455 h 1.6036 v 1.0691 h -1.6036 v 0.53455 h 2.94 c 0.14768,0 0.26728,-0.1196 0.26728,-0.26727 0,-0.14768 -0.1196,-0.26728 -0.26728,-0.26728 h -0.8018 v -1.0691 h 1.6036 c 0.59046,0 1.0691,-0.47863 1.0691,-1.0691 v -3.7418 c 0,-0.59045 -0.47863,-1.0691 -1.0691,-1.0691 H 293.11 c -0.59046,0 -1.0691,0.47866 -1.0691,1.0691 v 1.6036 h 0.53454 v -1.6036 c 0,-0.29522 0.23932,-0.53455 0.53455,-0.53455 z m -0.80182,6.4145 c -0.14769,0 -0.26727,0.1196 -0.26727,0.26728 0,0.14748 0.1196,0.26727 0.26727,0.26727 h 0.53453 c 0.14769,0 0.26729,-0.1196 0.26729,-0.26727 0,-0.14768 -0.1196,-0.26728 -0.26729,-0.26728 z m -1.3364,-2.94 c 0,-0.44283 0.35899,-0.80182 0.80182,-0.80182 h 1.6036 c 0.44283,0 0.8018,0.35899 0.8018,0.80182 v 3.7418 c 0,0.44281 -0.35897,0.8018 -0.8018,0.8018 h -1.6036 c -0.44283,0 -0.80182,-0.35899 -0.80182,-0.8018 z m 0.80182,-0.26729 c -0.14769,0 -0.26727,0.1196 -0.26727,0.26729 v 3.7418 c 0,0.14748 0.1196,0.26726 0.26727,0.26726 h 1.6036 c 0.14769,0 0.26727,-0.1196 0.26727,-0.26726 v -3.7418 c 0,-0.14769 -0.1196,-0.26729 -0.26727,-0.26729 z"
         id="path107" />
    </g>
    <g
       transform="matrix(0.53454,0,0,0.53454,318.41,138.89)"
       id="g115">
      <path
         d="m 4.5,1.0039 c -0.82843,1e-7 -1.5,0.67157 -1.5,1.5 v 0.5 H 2.5 c -1.3807,0 -2.5,1.1193 -2.5,2.5 v 5 c 0,0.8284 0.67157,1.5 1.5,1.5 H 3 v 1.5 c 0,0.8284 0.67157,1.5 1.5,1.5 h 7 c 0.8284,0 1.5,-0.6716 1.5,-1.5 v -1.5 h 1.5 c 0.8284,0 1.5,-0.6716 1.5,-1.5 v -5 c 0,-1.3807 -1.1193,-2.5 -2.5,-2.5 H 13 v -0.5 c 0,-0.82843 -0.6716,-1.5 -1.5,-1.5 H 10 v 1 h 1.5 c 0.2761,0 0.5,0.22386 0.5,0.5 v 0.5 h -2 v 1 h 3.5 c 0.8284,0 1.5,0.67157 1.5,1.5 v 5 c 0,0.27614 -0.2239,0.5 -0.5,0.5 H 13 v -1.5 c 0,-0.82843 -0.6716,-1.5 -1.5,-1.5 h -7 c -0.82843,0 -1.5,0.67157 -1.5,1.5 v 1.5 H 1.5 c -0.27614,0 -0.5,-0.22386 -0.5,-0.5 v -5 c 0,-0.82843 0.67157,-1.5 1.5,-1.5 H 6 v -1 H 4 v -0.5 c 0,-0.27614 0.22386,-0.5 0.5,-0.5 H 6 v -1 z m 0,8 h 7 c 0.2761,0 0.5,0.22386 0.5,0.5 v 4 c 0,0.2761 -0.2239,0.5 -0.5,0.5 h -7 c -0.27614,0 -0.5,-0.2239 -0.5,-0.5 v -4 c 0,-0.27614 0.22386,-0.5 0.5,-0.5 z"
         fill="#363636"
         id="path111" />
      <path
         d="M 7,0 V 5 H 6 L 8,7 10,5 H 9 V 0 Z"
         fill="#00a6ff"
         id="path113" />
    </g>
    <path
       d="m 350.13,138.62 c -0.14486,0 -0.28937,0.0327 -0.43537,0.0834 a 0.53459,0.53459 0 0 0 -0.0202,0.008 c -0.60633,0.23893 -2.0137,0.70489 -2.775,1.0085 a 0.53459,0.53459 0 0 0 -0.0121,0.006 c -0.12283,0.0528 -0.2974,0.16527 -0.39464,0.3414 -0.0972,0.17617 -0.10119,0.33062 -0.10119,0.45311 l -0.002,2.8554 c -6.4e-4,0.79897 0.25361,1.4641 0.78723,1.9826 0.53274,0.51763 1.2804,0.94596 2.3898,1.6224 6.7e-4,4e-4 10e-4,6.5e-4 0.002,0.001 8.9e-4,5.2e-4 10e-4,4.9e-4 0.002,0.001 0.16809,0.10384 0.36204,0.1893 0.55544,0.19011 l 10e-4,0.001 h 0.001 l 10e-4,-0.001 c 0.19112,-7e-4 0.39385,-0.0875 0.56269,-0.19213 h 10e-4 c 1.0941,-0.66149 1.8417,-1.0873 2.3773,-1.6068 0.53674,-0.52056 0.80011,-1.1907 0.80076,-1.9972 l 0.002,-2.8554 c 1.1e-4,-0.12284 -0.002,-0.27884 -0.10244,-0.45832 -0.10016,-0.17941 -0.28577,-0.29515 -0.41864,-0.34556 a 0.53459,0.53459 0 0 0 -0.0103,-0.004 c -0.72947,-0.2596 -2.1299,-0.7575 -2.751,-1.0023 a 0.53459,0.53459 0 0 0 -0.0209,-0.008 c -0.14606,-0.0507 -0.29486,-0.0834 -0.43953,-0.0834 z m 0,0.53454 c 0.0733,0 0.15171,0.0162 0.26413,0.0543 0.64557,0.25441 2.039,0.7482 2.7677,1.0075 0.14183,0.0537 0.17657,0.12668 0.17637,0.30277 l -0.002,2.8554 c -0.001,1.4335 -0.72446,1.82 -2.9254,3.1508 -0.14121,0.0877 -0.20995,0.11254 -0.28294,0.11274 -0.0681,-2.4e-4 -0.1386,-0.0251 -0.27979,-0.11274 -2.2303,-1.3601 -2.9255,-1.7272 -2.9243,-3.1508 l 0.002,-2.8554 c 1.6e-4,-0.17617 0.0344,-0.24406 0.17112,-0.30277 0.72388,-0.28866 2.1284,-0.75307 2.774,-1.0075 0.11254,-0.0392 0.19053,-0.0543 0.25893,-0.0543 z"
       fill="#363636"
       stroke-width="0.53454"
       id="path117" />
    <g
       transform="matrix(0.53454,0,0,0.53454,373.57,138.89)"
       fill="#363636"
       id="g123">
      <rect
         x="7"
         y="1"
         width="1"
         height="7"
         rx="0.5"
         ry="0.5"
         style="paint-order:stroke fill markers"
         id="rect119" />
      <path
         d="m 11.297,2.3926 a 0.5,0.5 0 0 0 -0.33984,0.17773 0.5,0.5 0 0 0 0.06445,0.70508 c 1.254,1.0453 1.9787,2.5921 1.9785,4.2246 0,3.0435 -2.4565,5.5 -5.5,5.5 -3.0435,0 -5.5,-2.4565 -5.5,-5.5 0.00231,-1.6312 0.72854,-3.1753 1.9824,-4.2188 A 0.5,0.5 0 0 0 4.046963,2.57613 0.5,0.5 0 0 0 3.341883,2.511677 c -1.4813,1.2327 -2.3391,3.0612 -2.3418,4.9883 0,3.5839 2.9161,6.5 6.5,6.5 3.5839,0 6.5,-2.9161 6.5,-6.5 2e-4,-1.9286 -0.85646,-3.7592 -2.3379,-4.9941 a 0.5,0.5 0 0 0 -0.36523,-0.11328 z"
         id="path121" />
    </g>
    <g
       transform="matrix(0.53454,0,0,0.53454,98.864,139.16)"
       fill="#363636"
       id="g133">
      <path
         d="M 6,5 V 5.5 C 6,5.90274 5.923,6.30306 5.78125,6.6797 5.65109,7.05173 5.46219,7.40148 5.21484,7.707 4.9662,8.01416 4.66402,8.27709 4.32617,8.48825 L 4.32031,8.49216 4.3164,8.49411 C 4.219452,8.553123 4.10239,8.570079 4,8.61911 v 2.3809 h 3 c 0.554,0 1,-0.446 1,-1 v -4 c 0,-0.554 -0.446,-1 -1,-1 z"
         style="paint-order:stroke fill markers"
         id="path125" />
      <path
         class="ColorScheme-Text"
         d="m 6,3 v 1 h 6 c 1.108,0 1.9254,0.89452 2,2 v 4 c 0,1.108 -0.892,2 -2,2 H 4 v 1 h 8 c 1.662,0 3,-1.338 3,-3 V 9 h 1 V 7 H 15 V 6 C 15,4.338 13.662,3 12,3 Z"
         color="#333333"
         id="path127" />
      <g
         transform="translate(-0.069557)"
         stroke-linecap="round"
         stroke-linejoin="round"
         stroke-width="4"
         style="paint-order:stroke fill markers"
         aria-label=""
         id="g131">
        <path
           d="m 5.0696,5.5 c 0,0.29167 -0.052083,0.57292 -0.15625,0.84375 C 4.8196,6.61458 4.68418,6.85937 4.5071,7.07813 4.33002,7.29689 4.11648,7.48438 3.86648,7.64063 3.6269,7.78646 3.36127,7.89063 3.0696,7.95313 v 5.0469 h -1 V 7.95313 C 1.77793,7.89063 1.5071,7.78646 1.2571,7.64063 1.01752,7.48438 0.80918,7.29688 0.6321,7.07813 0.45502,6.85938 0.31439,6.61459 0.21022,6.34375 0.11647,6.07292 0.0696,5.79167 0.0696,5.5 V 3 h 1 V 1 h 1 v 2 h 1 V 1 h 1 v 2 h 1 z m -4,0 c 0,0.41667 0.14583,0.77083 0.4375,1.0625 C 1.79877,6.85417 2.15293,7 2.5696,7 2.98627,7 3.34043,6.85417 3.6321,6.5625 3.92377,6.27083 4.0696,5.91667 4.0696,5.5 V 4 h -3 z"
           color="#000000"
           fill="#363636"
           stroke-linecap="round"
           stroke-width="2"
           style="-inkscape-stroke:none"
           id="path129" />
      </g>
    </g>
  </g>
  <g
     stroke-linecap="square"
     id="g159">
    <g
       transform="translate(0.97065,-169.95)"
       id="g143">
      <rect
         x="190.06"
         y="220.88"
         width="62.442001"
         height="11.112"
         rx="2.5234001"
         ry="2.5234001"
         opacity="0.15"
         stroke-width="0.56776"
         id="rect137" />
      <text
         x="197.16336"
         y="228.5787"
         fill="#4d4d4d"
         font-family="Cantarell"
         font-size="7.0556px"
         stroke-width="0.52917"
         xml:space="preserve"
         id="text141"><tspan
           x="197.16336"
           y="228.5787"
           fill="#4d4d4d"
           font-size="7.0556px"
           stroke-width="0.52917"
           id="tspan139">Normal version</tspan></text>
    </g>
    <g
       transform="translate(0.97065,-110.42)"
       id="g151">
      <rect
         x="190.06"
         y="220.88"
         width="62.442001"
         height="11.112"
         rx="2.5234001"
         ry="2.5234001"
         opacity="0.15"
         stroke-width="0.56776"
         id="rect145" />
      <text
         x="198.88493"
         y="228.5787"
         fill="#4d4d4d"
         font-family="Cantarell"
         font-size="7.0556px"
         stroke-width="0.52917"
         xml:space="preserve"
         id="text149"><tspan
           x="198.88493"
           y="228.5787"
           fill="#4d4d4d"
           font-size="7.0556px"
           stroke-width="0.52917"
           id="tspan147">Round version</tspan></text>
    </g>
    <rect
       x="191.03"
       y="187.99001"
       width="62.442001"
       height="12.7"
       rx="6.3499999"
       ry="6.3499999"
       opacity="0.5"
       stroke-width="0.60697"
       id="rect153" />
    <text
       x="202.26506"
       y="196.53656"
       fill="#ffffff"
       font-family="Cantarell"
       font-size="7.0556px"
       stroke-width="0.52917"
       xml:space="preserve"
       id="text157"><tspan
         x="202.26506"
         y="196.53656"
         fill="#ffffff"
         font-size="7.0556px"
         stroke-width="0.52917"
         id="tspan155">./install.sh -r</tspan></text>
  </g>
  <text
     x="62.771534"
     y="62.807407"
     font-family="sans-serif"
     font-size="4.9211px"
     stroke-width="0.12303"
     style="line-height:1.25;fill:#808080"
     xml:space="preserve"
     id="text325"><tspan
       x="62.771534"
       y="62.807407"
       fill="#808080"
       font-family="sans-serif"
       stroke-width="0.12303"
       id="tspan323">Windows 10 style</tspan></text>
  <text
     x="62.771534"
     y="121.81712"
     font-family="sans-serif"
     font-size="4.9211px"
     stroke-width="0.12303"
     style="line-height:1.25;fill:#808080"
     xml:space="preserve"
     id="text329"><tspan
       x="62.771534"
       y="121.81712"
       fill="#808080"
       font-family="sans-serif"
       stroke-width="0.12303"
       id="tspan327">Windows 11 style</tspan></text>
</svg>
