<svg version="1.1" viewBox="0 0 256 256" xmlns="http://www.w3.org/2000/svg">
 <defs>
  <style id="current-color-scheme" type="text/css">.ColorScheme-Text { color:#363636; }</style>
 </defs>
 <rect x="12" y="12" width="232" height="232" rx="8" ry="8" fill="#ffb852" stroke-width="1.4827"/>
 <path d="m22.24 26.736v11.584h6.711l0.033-1.063h-5.348v-10.521zm103.61 0.881-1.055 0.078-0.215 2.223-1.293 0.088-0.031 0.746h1.293v5.05c0 0.513 0.045 0.929 0.135 1.246 0.09 0.318 0.252 0.579 0.484 0.785 0.238 0.206 0.545 0.35 0.92 0.43 0.376 0.079 0.869 0.119 1.477 0.119h0.547l0.064-0.906-0.666-0.031c-0.703-0.026-1.156-0.138-1.357-0.334-0.201-0.199-0.303-0.635-0.303-1.309v-5.05h2.223v-0.834h-2.223zm-15.91 2.133c-1.265 0-2.215 0.443-2.85 1.332l-0.143-1.156h-1.143v8.395h1.316v-4.682c0-1.92 0.863-2.879 2.588-2.879 0.64 0 1.088 0.192 1.342 0.578 0.254 0.381 0.381 0.95 0.381 1.707v5.275h1.316v-5.135c0-1.153-0.229-2.01-0.689-2.578-0.455-0.571-1.162-0.857-2.119-0.857m-67.924 2e-3c-1.121 0-2.132 0.209-3.03 0.627l0.357 0.967c0.386-0.185 0.824-0.327 1.316-0.428 0.492-0.106 0.952-0.158 1.381-0.158 0.635 0 1.1 0.15 1.391 0.451 0.296 0.302 0.443 0.76 0.443 1.373v0.824h-1.344c-1.349 0-2.333 0.214-2.951 0.643-0.613 0.423-0.92 1.09-0.92 2 0 0.761 0.232 1.356 0.697 1.785 0.471 0.429 1.093 0.643 1.865 0.643 1.153 0 2.089-0.441 2.809-1.324l0.145 1.158h1v-5.539c0-1.069-0.276-1.838-0.826-2.309-0.545-0.476-1.321-0.713-2.332-0.713m29.83 0c-1.074 0-1.937 0.469-2.588 1.41l-0.15-1.236h-1.064v8.395l2e-3 -2e-3h1.316v-5.119c0.111-0.735 0.355-1.323 0.73-1.768 0.381-0.449 0.894-0.674 1.539-0.674 0.587 0 0.988 0.219 1.205 0.658 0.217 0.434 0.326 1.163 0.326 2.189v4.713h1.316v-4.307c0.016-0.73 0.046-1.168 0.088-1.311 0.143-0.629 0.412-1.11 0.809-1.443s0.849-0.5 1.357-0.5c0.227 0 0.424 0.035 0.594 0.104 0.175 0.064 0.313 0.163 0.414 0.301 0.106 0.138 0.191 0.279 0.254 0.422 0.063 0.137 0.108 0.32 0.135 0.547s0.043 0.421 0.049 0.58c0.011 0.153 0.016 0.355 0.016 0.609v5h1.316v-5.412c0-2.105-0.856-3.156-2.57-3.156-1.217 0-2.14 0.568-2.77 1.705-0.195-0.535-0.474-0.953-0.834-1.254s-0.856-0.451-1.49-0.451m24.979 0c-1.121 0-2.13 0.209-3.03 0.627l0.357 0.967c0.386-0.185 0.824-0.327 1.316-0.428 0.492-0.106 0.952-0.158 1.381-0.158 0.635 0 1.098 0.15 1.389 0.451 0.296 0.302 0.445 0.76 0.445 1.373v0.824h-1.344c-1.349 0-2.333 0.214-2.951 0.643-0.613 0.423-0.92 1.09-0.92 2 0 0.761 0.232 1.356 0.697 1.785 0.471 0.429 1.093 0.643 1.865 0.643 1.153 0 2.089-0.441 2.809-1.324l0.143 1.158h1v-5.539c0-1.069-0.274-1.838-0.824-2.309-0.545-0.476-1.323-0.713-2.334-0.713m21.539 0c-1.233 0-2.201 0.401-2.904 1.205-0.698 0.799-1.047 1.858-1.047 3.176 0 1.285 0.356 2.331 1.064 3.141 0.709 0.804 1.67 1.207 2.887 1.207 1.19 0 2.148-0.406 2.873-1.215 0.725-0.815 1.086-1.858 1.086-3.133 0-1.317-0.349-2.377-1.047-3.176-0.698-0.804-1.669-1.205-2.912-1.205m-84.46 2e-3c-1.111 0-2.025 0.399-2.744 1.197-0.719 0.795-1.08 1.866-1.08 3.213 0 1.328 0.368 2.381 1.104 3.158 0.735 0.772 1.695 1.158 2.873 1.158 1.057 0 2-0.247 2.832-0.738l-0.279-0.928c-0.444 0.222-0.845 0.389-1.205 0.5-0.359 0.111-0.76 0.166-1.199 0.166-0.809 0-1.464-0.256-1.967-0.77-0.503-0.518-0.776-1.312-0.818-2.381h5.674l0.049-0.666c0-1.227-0.279-2.183-0.834-2.871-0.55-0.693-1.352-1.039-2.404-1.039m25.391 0c-1.111 0-2.025 0.399-2.744 1.197-0.719 0.795-1.08 1.866-1.08 3.213 0 1.328 0.368 2.381 1.104 3.158 0.735 0.772 1.692 1.158 2.871 1.158 1.058 0 2-0.246 2.832-0.738l-0.277-0.928c-0.444 0.222-0.847 0.389-1.207 0.5-0.359 0.111-0.758 0.166-1.197 0.166-0.809 0-1.466-0.256-1.969-0.77-0.503-0.518-0.774-1.312-0.816-2.381h5.674l0.047-0.666c0-1.227-0.277-2.183-0.832-2.871-0.55-0.693-1.352-1.039-2.404-1.039m25.709 0c-1.111 0-2.025 0.399-2.744 1.197-0.719 0.795-1.078 1.866-1.078 3.213 0 1.328 0.366 2.381 1.102 3.158 0.735 0.772 1.695 1.158 2.873 1.158 1.057 0 2-0.247 2.832-0.738l-0.279-0.928c-0.444 0.222-0.845 0.389-1.205 0.5-0.359 0.111-0.758 0.166-1.197 0.166-0.809 0-1.466-0.256-1.969-0.77-0.503-0.518-0.774-1.312-0.816-2.381h5.672l0.049-0.666c0-1.227-0.279-2.183-0.834-2.871-0.55-0.693-1.352-1.039-2.404-1.039m48.21 0c-1.111 0-2.025 0.399-2.744 1.197-0.719 0.795-1.08 1.866-1.08 3.213 0 1.328 0.368 2.381 1.104 3.158 0.735 0.772 1.692 1.158 2.871 1.158 1.058 0 2-0.246 2.832-0.738l-0.277-0.928c-0.444 0.222-0.847 0.389-1.207 0.5-0.359 0.111-0.758 0.166-1.197 0.166-0.809 0-1.464-0.256-1.967-0.77-0.502-0.518-0.776-1.312-0.818-2.381h5.674l0.047-0.666c0-1.227-0.277-2.183-0.832-2.871-0.55-0.693-1.352-1.039-2.404-1.039m-80.15 0.168c-0.275 0.772-0.693 1.927-1.254 3.467-0.555 1.539-0.971 2.695-1.246 3.467-0.344-0.907-0.842-2.243-1.492-4.01-0.645-1.767-1-2.74-1.07-2.92h-1.35l3.246 8.395v-4e-3h1.326l3.182-8.395zm-19.13 0.834c1.333 0 2.032 0.906 2.096 2.715h-4.572c0.074-0.836 0.335-1.498 0.779-1.984 0.449-0.487 1.015-0.73 1.697-0.73m25.391 0c1.333 0 2.03 0.906 2.094 2.715h-4.57c0.074-0.836 0.333-1.498 0.777-1.984 0.449-0.487 1.017-0.73 1.699-0.73m25.709 0c1.333 0 2.032 0.906 2.096 2.715h-4.57c0.074-0.836 0.333-1.498 0.777-1.984 0.449-0.487 1.015-0.73 1.697-0.73m48.21 0c1.333 0 2.032 0.906 2.096 2.715h-4.572c0.074-0.836 0.335-1.498 0.779-1.984 0.449-0.487 1.015-0.73 1.697-0.73m-14.881 4e-3c0.862 0 1.514 0.309 1.953 0.928 0.439 0.614 0.658 1.435 0.658 2.461 0 0.656-0.09 1.229-0.27 1.721-0.18 0.487-0.471 0.88-0.873 1.176-0.397 0.291-0.887 0.436-1.469 0.436-0.847 0-1.492-0.307-1.936-0.92-0.445-0.613-0.666-1.42-0.666-2.42 0-1.021 0.221-1.84 0.666-2.453 0.444-0.619 1.089-0.928 1.936-0.928m-75.5 3.521h1.01v1.85c-0.629 0.926-1.486 1.389-2.57 1.389h-2e-3c-0.397 0-0.728-0.127-0.992-0.381-0.265-0.254-0.398-0.615-0.398-1.08 0-0.259 0.025-0.476 0.072-0.65 0.048-0.18 0.135-0.344 0.262-0.492 0.127-0.153 0.301-0.273 0.523-0.357 0.222-0.09 0.506-0.158 0.85-0.205s0.759-0.072 1.246-0.072m54.811 0h1.01v1.85c-0.629 0.926-1.488 1.389-2.572 1.389h-2e-3c-0.397 0-0.728-0.127-0.992-0.381-0.265-0.254-0.396-0.615-0.396-1.08 0-0.259 0.023-0.476 0.07-0.65 0.048-0.18 0.137-0.344 0.264-0.492 0.127-0.153 0.301-0.273 0.523-0.357 0.222-0.09 0.506-0.158 0.85-0.205s0.759-0.072 1.246-0.072m-77.67 15.719v1h216v-1zm3 168v14h-1v1h1v1h1v-1h12v1h1v-1h1v-1h-1v-14h-1v14h-12v-14zm2 1v2h4v10h2v-10h4v-2z" fill="#ffffff"/>
 <path d="m223.51 219c-0.52809-1e-5 -1.0357 0.20965-1.4082 0.58398-0.37025 0.37201-0.57804 0.87775-0.57812 1.4023-8e-3 0.54777-0.44262 0.97755-0.99023 0.97852-0.16287-2e-3 -0.32085-0.0477-0.46094-0.13086a0.50005 0.50005 0 0 0-8e-3 -4e-3c-0.94825-0.54336-2.1712-0.2126-2.7168 0.73438l-0.51562 0.84766a0.50005 0.50005 0 0 0-6e-3 0.01c-0.54496 0.94581-0.21898 2.168 0.72461 2.7168a0.50005 0.50005 0 0 0 2e-3 2e-3c0.30786 0.17772 0.49609 0.50395 0.49609 0.85938 0 0.35554-0.18818 0.68159-0.49609 0.85938-0.94343 0.54576-1.2713 1.7669-0.72656 2.7109a0.50005 0.50005 0 0 0 0 2e-3l0.48828 0.8418 2e-3 2e-3c0.25709 0.46235 0.68834 0.80462 1.1973 0.94922 0.50986 0.14497 1.0572 0.0795 1.5195-0.17969a0.50005 0.50005 0 0 0 6e-3 -4e-3c0.22559-0.13165 0.49383-0.16716 0.74609-0.0996a0.50005 0.50005 0 0 0 2e-3 0c0.25231 0.0675 0.46602 0.23231 0.5957 0.45898a0.50005 0.50005 0 0 0 4e-3 8e-3c0.0835 0.14076 0.12916 0.29929 0.13086 0.46289 3e-3 1.0925 0.89902 1.9883 1.9922 1.9883h0.97852c1.0911 0 1.987-0.89332 1.9922-1.9844a0.50005 0.50005 0 0 0 0-4e-3c-1e-3 -0.26322 0.10291-0.51496 0.28906-0.70117 0.18507-0.18507 0.43568-0.2872 0.69727-0.28711 0.16548 5e-3 0.32874 0.051 0.47266 0.13281 0.9455 0.54308 2.1684 0.21626 2.7168-0.72656l0.50977-0.85156a0.50005 0.50005 0 0 0 4e-3 -6e-3c0.26597-0.45645 0.3393-0.99921 0.20312-1.5098-0.13616-0.51046-0.46983-0.94747-0.92774-1.2109-0.22759-0.13092-0.39325-0.34587-0.46094-0.59961-0.0677-0.25363-0.0326-0.52315 0.0996-0.75a0.50005 0.50005 0 0 0 2e-3 -4e-3c0.0852-0.1488 0.20851-0.27212 0.35742-0.35742a0.50005 0.50005 0 0 0 4e-3 -2e-3c0.89916-0.52597 1.2257-1.6612 0.77734-2.5859a0.50005 0.50005 0 0 0-0.0527-0.13086l-0.48633-0.84375c-0.54562-0.94691-1.7685-1.2777-2.7168-0.73438a0.50005 0.50005 0 0 0-6e-3 4e-3c-0.22567 0.13295-0.49439 0.17132-0.74805 0.10547-0.25358-0.0658-0.47094-0.23099-0.60352-0.45703a0.50005 0.50005 0 0 0 0-2e-3c-0.0834-0.14063-0.12913-0.29929-0.13086-0.46289v0.0195c0.0155-0.53821-0.1872-1.0612-0.5625-1.4473-0.37528-0.38603-0.89133-0.60374-1.4297-0.60352h-0.97852zm0 1h0.97852c0.26844-1.1e-4 0.52569 0.10822 0.71289 0.30078 0.18718 0.19253 0.28703 0.45232 0.2793 0.7207a0.50005 0.50005 0 0 0 0 0.0195c4e-3 0.33821 0.0975 0.6697 0.26953 0.96094 0.26667 0.45468 0.70265 0.78549 1.2129 0.91797 0.50797 0.13186 1.049 0.0577 1.502-0.20703 0.48013-0.2751 1.0773-0.11421 1.3535 0.36523l0.46875 0.8125a0.50005 0.50005 0 0 0 0.0176 0.0351c0.27261 0.47764 0.11336 1.0719-0.36133 1.3496-0.30024 0.17284-0.54975 0.42233-0.72266 0.72266v2e-3c-0.26515 0.45616-0.33913 0.99992-0.20312 1.5098 0.13615 0.51038 0.4697 0.9455 0.92773 1.209 0.22756 0.13093 0.39328 0.3479 0.46094 0.60156 0.0673 0.25234 0.0309 0.51999-0.0996 0.74609-6.7e-4 1e-3 6.8e-4 3e-3 0 4e-3l-0.51172 0.85156a0.50005 0.50005 0 0 0-4e-3 6e-3c-0.27779 0.47762-0.87471 0.63719-1.3535 0.36133a0.50005 0.50005 0 0 0-2e-3 -2e-3c-0.2896-0.1656-0.61582-0.25672-0.94922-0.26562a0.50005 0.50005 0 0 0-0.01 0c-0.52982-3e-3 -1.0394 0.20741-1.4141 0.58203-0.37447 0.37457-0.58457 0.88233-0.58203 1.4121-5e-3 0.55042-0.44117 0.98438-0.99219 0.98438h-0.97852c-0.55436 0-0.99414-0.43796-0.99414-0.99219a0.50005 0.50005 0 0 0 0-6e-3c-4e-3 -0.33749-0.0964-0.66827-0.26758-0.95898-0.26208-0.45657-0.69447-0.79164-1.2031-0.92774-0.50677-0.13569-1.0479-0.063-1.502 0.19922-0.23061 0.12928-0.5016 0.16018-0.75586 0.0879-0.25426-0.0722-0.46952-0.24144-0.59766-0.47266a0.50005 0.50005 0 0 0-4e-3 -0.01l-0.49219-0.84766c-0.27481-0.47621-0.11658-1.0704 0.35938-1.3457 0.61589-0.35561 0.99609-1.0154 0.99609-1.7266 0-0.71066-0.38088-1.3689-0.99609-1.7246v-2e-3c-0.47648-0.27816-0.63497-0.87326-0.35938-1.3516l0.51562-0.84766a0.50005 0.50005 0 0 0 6e-3 -0.01c0.27621-0.47941 0.87345-0.64227 1.3535-0.36719 0.29021 0.17048 0.62039 0.26408 0.95703 0.26758a0.50005 0.50005 0 0 0 6e-3 0c1.0839 1.3e-4 1.9766-0.88107 1.9922-1.9648a0.50005 0.50005 0 0 0 0-0.01c-1e-3 -0.26248 0.10196-0.51319 0.28711-0.69922 0.18511-0.186 0.43681-0.29102 0.69922-0.29102zm0.49023 4c-1.6509 0-3 1.3491-3 3s1.3491 3 3 3 3-1.3491 3-3-1.3491-3-3-3zm0 1c1.1105 0 2 0.88951 2 2s-0.88951 2-2 2-2-0.88951-2-2 0.88951-2 2-2z" clip-rule="evenodd" color="#000000" color-rendering="auto" dominant-baseline="auto" fill="#ffffff" fill-rule="evenodd" image-rendering="auto" shape-rendering="auto" solid-color="#000000" stop-color="#000000" style="font-feature-settings:normal;font-variant-alternates:normal;font-variant-caps:normal;font-variant-east-asian:normal;font-variant-ligatures:normal;font-variant-numeric:normal;font-variant-position:normal;font-variation-settings:normal;inline-size:0;isolation:auto;mix-blend-mode:normal;shape-margin:0;shape-padding:0;text-decoration-color:#000000;text-decoration-line:none;text-decoration-style:solid;text-indent:0;text-orientation:mixed;text-transform:none;white-space:normal"/>
</svg>
