<svg version="1.1" viewBox="0 0 256 256" xmlns="http://www.w3.org/2000/svg" xmlns:xlink="http://www.w3.org/1999/xlink">
 <defs>
  <radialGradient id="4" cx="1007" cy="855.36" r="104" gradientTransform="matrix(1.0834 0 0 1.0834 -963.02 -796.56)" gradientUnits="userSpaceOnUse">
   <stop stop-color="#232629" offset="0"/>
   <stop stop-color="#232629" stop-opacity=".523" offset=".9"/>
   <stop stop-color="#232629" stop-opacity=".107" offset=".96"/>
   <stop stop-color="#232629" stop-opacity="0" offset="1"/>
  </radialGradient>
 </defs>
 <path d="m12.072 12.072h231.86v231.86h-231.86z" fill="#717171" opacity=".005" stroke-width="1.0834"/>
 <circle cx="128" cy="130.17" r="112.68" fill="url(#4)" opacity=".35" stroke-width="1.0834"/>
 <circle cx="128" cy="128" r="104.67" fill="#f2f2f2" stroke-width="1.0834"/>
 <path d="m80.751 44.738-0.91442 0.54172 2.2687 3.8939c0.3012-0.1766 0.61106-0.3337 0.91442-0.50813zm95.202 0-2.2005 3.8256c0.31745 0.18094 0.63381 0.35754 0.94801 0.54172l2.2005-3.8256zm-103.67 5.4497-0.88084 0.60998 2.675 3.6902c0.29145-0.2156 0.58614-0.43121 0.88084-0.64356zm112.14 0-2.5732 3.5548c0.28928 0.20802 0.59373 0.39871 0.88084 0.60998l2.5732-3.5548zm-119.99 6.298-0.77899 0.71074 3.013 3.3522c0.26003-0.23727 0.55039-0.44204 0.81258-0.67715zm127.85 0-2.9459 3.2503c0.26869 0.23944 0.54713 0.46805 0.81258 0.71074l2.9459-3.2503zm-134.99 7.0759-0.71074 0.81258 3.3858 3.0477c0.23727-0.26761 0.47021-0.54714 0.71074-0.81258zm142.14 0-3.2503 2.9123c0.25245 0.27628 0.49622 0.56664 0.74433 0.84617l3.2503-2.9459zm-148.5 7.7878-0.64356 0.84617 3.7249 2.7086c0.20802-0.29036 0.39762-0.59264 0.60998-0.88084zm154.87 0-3.5212 2.5732c0.20586 0.28061 0.40629 0.56339 0.6089 0.84617l3.5548-2.5732zm-160.41 8.3967-0.54172 0.94801 3.9957 2.3023c0.17985-0.31636 0.35862-0.63381 0.54172-0.94801zm165.97 0-3.792 2.2005c0.18418 0.3142 0.36078 0.63056 0.54172 0.94801l3.792-2.2005zm-170.58 8.9384-0.43988 0.9816 4.1983 1.8624c0.1441-0.33045 0.29144-0.65332 0.43988-0.9816zm175.18 0-3.9957 1.7606c0.14735 0.32612 0.29687 0.65331 0.43988 0.9816l3.9957-1.7606zm-178.83 9.3783-0.33803 1.0163 4.4009 1.4226c0.10618-0.3337 0.19502-0.68365 0.30445-1.0163zm182.49 0-4.1648 1.3543c0.11051 0.33587 0.23186 0.67824 0.33912 1.0163l4.1647-1.3543zm-185.17 9.7174-0.20369 1.0498 4.5028 0.94801c0.07151-0.35103 0.16143-0.6999 0.23727-1.0498zm187.8 0-4.2655 0.91442c0.0748 0.34779 0.13218 0.70099 0.20261 1.0498l4.3002-0.91442zm-189.4 9.92-0.13543 1.0499 4.6382 0.47454c0.03359-0.34886 0.06392-0.70206 0.10184-1.0498l-4.6046-0.47455m191.05 0-4.402 0.47455c0.0379 0.34779 0.0683 0.70099 0.10185 1.0498l4.4009-0.47454-0.10184-1.0499m-186.53 19.599-4.6718 0.47455 0.13543 1.0834 4.6382-0.47455c-0.04009-0.36078-0.06609-0.72157-0.10184-1.0834m182.19 0c-0.0358 0.36187-0.0618 0.72266-0.10185 1.0834l4.4356 0.47455 0.10184-1.0834zm-180.76 9.4465-4.571 0.98159 0.20369 1.0499 4.6046-0.9816c-0.07692-0.34887-0.16468-0.69882-0.23727-1.0498m179.34 0.0683c-0.0726 0.35104-0.16035 0.69991-0.23727 1.0499l4.3338 0.91442 0.23727-1.0498zm-176.9 9.1757-4.4692 1.4561 0.33803 1.0498 4.4692-1.4561c-0.11593-0.34995-0.22644-0.69773-0.33803-1.0498m174.43 0.0683c-0.11268 0.35212-0.22211 0.69991-0.33912 1.0499l4.2666 1.3879 0.33803-1.0498zm-171.04 8.9048-4.3002 1.9296 0.43988 0.9816 4.3002-1.9296c-0.14952-0.32828-0.2947-0.65114-0.43988-0.98159m167.66 0.10184c-0.14518 0.32828-0.29144 0.65548-0.43987 0.9816l4.0965 1.8288 0.43988-0.98159zm-163.33 8.4302-4.1312 2.3706 0.54172 0.94801 4.1312-2.3706c-0.18418-0.31312-0.36079-0.63273-0.54172-0.94801m158.99 0.10184c-0.18201 0.31637-0.35645 0.63381-0.54172 0.94801l3.9275 2.2687 0.54172-0.94801zm-153.85 7.9568-3.8256 2.7769 0.64356 0.88084 3.8256-2.7769c-0.2156-0.29253-0.43012-0.58506-0.64356-0.88084m148.64 0.10185c-0.20911 0.29036-0.39654 0.59264-0.6089 0.88083l3.6566 2.675 0.64357-0.88084zm-142.6 7.3468-3.5548 3.1832 0.71074 0.81258 3.5548-3.1832c-0.24269-0.26652-0.4713-0.54388-0.71074-0.81258m136.61 0.10185c-0.24485 0.27411-0.49621 0.54063-0.7454 0.81258l3.4193 3.0813 0.74433-0.81258zm-129.95 6.7043-3.1485 3.5212 0.77899 0.74541 3.1831-3.5548c-0.26869-0.23944-0.54605-0.46804-0.81258-0.71073m123.21 0.10184c-0.27194 0.24703-0.53739 0.50055-0.81258 0.74541l3.0813 3.4193 0.81258-0.7454zm-115.83 5.9589-2.7769 3.8256 0.88084 0.64356 2.7769-3.8256c-0.2947-0.21127-0.58831-0.42795-0.88084-0.64356m108.41 0.10184c-0.29253 0.21453-0.58506 0.4323-0.88084 0.64357l2.7086 3.7249 0.88084-0.64356zm-100.39 5.1799-2.3695 4.0965 0.91442 0.54172 2.3706-4.1312c-0.30336-0.17335-0.61323-0.33153-0.91442-0.50813m92.363 0.0683c-0.30661 0.17877-0.60564 0.36621-0.91442 0.54172l2.3023 4.0293 0.94801-0.54172zm-83.902 4.3338-1.896 4.3002 0.9816 0.43987 1.9296-4.3002c-0.33912-0.14951-0.67823-0.28711-1.0152-0.43988m75.429 0.10185c-0.3337 0.1506-0.6804 0.29361-1.0163 0.43987l1.8624 4.1983 1.0163-0.43987zm-66.491 3.3858-1.4561 4.5028 1.0163 0.33912 1.4561-4.5028c-0.3402-0.10834-0.67715-0.22643-1.0152-0.33911m57.52 0.0682c-0.34887 0.11485-0.69882 0.22753-1.0498 0.33912l1.4561 4.4356 1.0498-0.33911zm-48.315 2.4377-0.9816 4.6046 1.0834 0.23728 0.9816-4.6046c-0.36187-0.0748-0.72374-0.15818-1.0834-0.23728m39.069 0.0683c-0.3532 0.0769-0.69448 0.16468-1.0498 0.23727l0.98159 4.5374 1.0499-0.23727zm-29.591 1.4897-0.50814 4.7065 1.0834 0.10185 0.47455-4.6729c-0.35212-0.0347-0.69882-0.0964-1.0498-0.13543m20.145 0.0336c-0.34995 0.0379-0.69882 0.0672-1.0498 0.10184l0.47346 4.6729 1.0498-0.10185z" color="#000000" fill="#31363b" opacity=".6" stroke-width="1.0834"/>
 <path d="m134.16 33.047c2.9762 0 5.3609 0.78333 7.1518 2.3489 1.8061 1.5515 2.7086 3.675 2.7086 6.3695 0 1.8343-0.47238 3.5624-1.4182 5.1843-0.94476 1.6078-2.3976 3.4638-4.3554 5.5656l-8.9514 9.544h14.117v3.2612h-17.817v-3.999l10.178-11.575c1.3825-1.5797 2.4193-2.9556 3.1106-4.1268 0.70532-1.1853 1.0585-2.3554 1.0585-3.5125 0-1.8061-0.51463-3.181-1.545-4.1268-1.0304-0.94476-2.4757-1.4182-4.3338-1.4182-2.7649 0-5.0293 0.88842-6.7921 2.6663l-1.2275-3.3218c2.0737-1.9047 4.7823-2.857 8.1258-2.857m-16.122 1.3326h3.7877v30.938h-3.7877v-27.403c-1.7346 1.1571-3.4638 2.1235-5.1843 2.8993v-3.3218c1.3543-0.59264 3.0824-1.6295 5.1843-3.1106" fill="#3d95e9" stroke-width="1.0834"/>
 <path d="m30.393 126.85h21.669v2.935h-21.669z" fill="#3d95e9" stroke-width="1.0834"/>
 <path d="m205.04 126.85h21.669v2.935h-21.669z" fill="#3d95e9" stroke-width="1.0834"/>
 <path d="m129.91 205.56v21.669h-2.9361v-21.669z" fill="#3d95e9" stroke-width="1.0834"/>
 <g transform="matrix(1.0834 0 0 1.0834 -963.02 -796.56)" fill="#666667">
  <path d="m1079.3 810.5 4.03-2.325 1.354 2.346-4.03 2.325zm-149.43 86.28 4.03-2.325 1.355 2.346-4.03 2.325z"/>
  <path d="m1048.1 780.27 2.325-4.03 2.346 1.355-2.325 4.03zm-86.28 149.43 2.325-4.03 2.346 1.355-2.325 4.03z"/>
  <path d="m933.93 812.85-4.03-2.325 1.355-2.346 4.03 2.325zm149.43 86.28-4.03-2.325 1.354-2.346 4.03 2.325z"/>
  <path d="m964.16 781.63-2.325-4.03 2.346-1.355 2.325 4.03zm86.28 149.43-2.325-4.03 2.346-1.355 2.325 4.03z"/>
 </g>
 <g transform="matrix(-.54172 .93829 -.93829 -.54172 1476.3 -351)" fill="#232629">
  <path d="m1004.2 904.03 2.98 5.209 2.894-5.322h-0.062l0.034-43.13-5.812 0.082-0.035 43.13z"/>
  <circle transform="matrix(-.60001 -.79999 .79999 -.60001 0 0)" cx="-1288.8" cy="292.23" r="6.499"/>
 </g>
 <g transform="matrix(1.0834 0 0 1.0834 -963.02 -796.56)" fill="#717171">
  <path d="m1045.9 790.13-37.89 65.58-2.598-1.501 37.89-65.58z"/>
  <circle transform="matrix(-.5033 .86411 -.86411 -.5033 0 0)" cx="232.3" cy="-1300.7" r="3.671"/>
 </g>
</svg>
