<svg xmlns="http://www.w3.org/2000/svg" width="64" height="64"><defs><filter id="a" width="1.078" height="1.067" x="-.039" y="-.033" color-interpolation-filters="sRGB"><feGaussianBlur stdDeviation=".206"/></filter></defs><path fill-rule="evenodd" d="M3.44 1.354a1.32 1.32 0 0 0-1.323 1.323v12.171c0 .733.59 1.323 1.323 1.323h10.054a1.32 1.32 0 0 0 1.322-1.323V4.53l-3.175-3.175z" filter="url(#a)" opacity=".15" style="paint-order:stroke fill markers" transform="scale(3.7796)"/><g fill-rule="evenodd"><path fill="#9fda1e" d="M13 4c-2.77 0-5 2.23-5 5v46c0 2.77 2.23 5 5 5h38c2.77 0 5-2.23 5-5V16L44 4z" style="paint-order:stroke fill markers"/><path fill="#fff" d="m14.816 4.233-3.175-3.175V2.91c0 .733.59 1.323 1.323 1.323z" opacity=".35" style="paint-order:stroke fill markers" transform="scale(3.7796)"/></g><g fill="#fff" color="#000" opacity=".75"><path d="M19.003 31v6.5c0 .277.223.5.5.5h3c.277 0 .5-.223.5-.5V31zm1 4h2v2h-2zM21.002 4v2h2V4zm0 2h-2v2h2zm0 2v2h2V8zm0 2h-2v2h2zm0 2v2h2v-2zm0 2h-2v2h2zm0 2v2h2v-2zm0 2h-2v2h2zm0 2v2h2v-2zm0 2h-2v2h2zm0 2v2h2v-2zm0 2h-2v2h2zm0 2v2h2v-2z"/></g><path fill-rule="evenodd" d="M43.998 11v.584c0 3 2.23 5.416 5 5.416h7v-1h-7c-2.77 0-5-2.23-5-5z" opacity=".1" style="paint-order:stroke fill markers"/><path fill="#fff" d="m45.883 44.933 2.167-2.167a.825.825 0 0 0 0-1.183.825.825 0 0 0-1.184 0L44.4 44.05A9.7 9.7 0 0 0 40 43c-1.6 0-3.1.383-4.434 1.05l-2.483-2.467a.825.825 0 0 0-1.183 0 .825.825 0 0 0 0 1.183l2.183 2.184C31.616 46.766 30 49.683 30 53h20a9.94 9.94 0 0 0-4.117-8.067m-9.455 4.495H35V48h1.428zm8.572 0H43.57V48H45z" enable-background="new" opacity=".75"/></svg>