<svg xmlns="http://www.w3.org/2000/svg" width="64" height="64" viewBox="0 0 16.933 16.933"><defs><filter id="a" width="1.078" height="1.067" x="-.039" y="-.033" color-interpolation-filters="sRGB"><feGaussianBlur stdDeviation=".206"/></filter></defs><g fill-rule="evenodd"><path d="M3.44 1.354a1.32 1.32 0 0 0-1.323 1.323v12.171c0 .733.59 1.323 1.323 1.323h10.054a1.32 1.32 0 0 0 1.322-1.323V4.53l-3.175-3.175z" filter="url(#a)" opacity=".15" style="paint-order:stroke fill markers"/><path fill="#84c835" d="M3.44 1.059a1.32 1.32 0 0 0-1.323 1.323v12.17c0 .734.59 1.324 1.323 1.324h10.054a1.32 1.32 0 0 0 1.322-1.323V4.233L11.641 1.06z" style="paint-order:stroke fill markers"/><path fill="#fff" d="m14.816 4.233-3.175-3.175V2.91c0 .733.59 1.323 1.323 1.323z" opacity=".35" style="paint-order:stroke fill markers"/></g><ellipse cx="8.466" cy="10.848" opacity=".1" rx="2.381" ry="1.058" style="paint-order:stroke fill markers"/><ellipse cx="8.466" cy="10.848" opacity=".1" rx="1.587" ry=".529" style="paint-order:stroke fill markers"/><path fill="#fff" fill-rule="evenodd" d="M8.467 4.498c-1.316 0-2.382 1.066-2.382 2.381s1.588 3.969 2.382 3.969c.793 0 2.38-2.654 2.38-3.969s-1.065-2.381-2.38-2.381m0 1.058a1.323 1.323 0 1 1 0 2.646 1.323 1.323 0 0 1 0-2.646"/><path fill-rule="evenodd" d="M11.641 2.91v.155c0 .794.59 1.433 1.323 1.433h1.852v-.265h-1.852A1.32 1.32 0 0 1 11.64 2.91" opacity=".1" style="paint-order:stroke fill markers"/></svg>