<svg width="16" height="16" version="1.1" viewBox="0 0 16 16" xmlns="http://www.w3.org/2000/svg">
 <path d="m8.147 0.022115c-0.15165-0.046663-0.31646-0.018573-0.44409 0.075695-0.12764 0.094268-0.20295 0.24352-0.20295 0.40219v9.9048c-0.58395-0.5604-1.3768-0.9048-2.25-0.9048-1.7949 0-3.25 1.4551-3.25 3.25s1.4551 3.25 3.25 3.25 3.25-1.4551 3.25-3.25c0-0.0603-0.00164-0.1203-0.00489-0.1798 0.00322-0.0229 0.00489-0.0464 0.00489-0.0702v-7.323l5.853 1.8009c0.1516 0.04667 0.3164 0.01858 0.4441-0.07569 0.1276-0.09427 0.2029-0.24352 0.2029-0.4022v-2.5228c0-1.0975-0.7158-2.0667-1.7648-2.3894zm5.853 5.8009-5.5-1.6923v-2.9537l4.4411 1.3665c0.6294 0.19366 1.0589 0.77517 1.0589 1.4337zm-11 6.927c0-1.2426 1.0074-2.25 2.25-2.25s2.25 1.0074 2.25 2.25-1.0074 2.25-2.25 2.25-2.25-1.0074-2.25-2.25z" fill="#363636"/>
</svg>
