<svg width="16" height="16" version="1.1" viewBox="0 0 16 16" xmlns="http://www.w3.org/2000/svg">
 <defs>
  <style id="current-color-scheme" type="text/css">.ColorScheme-Text { color:#363636; }</style>
 </defs>
 <path d="m13.5 2c1.3807 0 2.5 1.1193 2.5 2.5v8c0 1.3807-1.1193 2.5-2.5 2.5h-11c-1.3807 0-2.5-1.1193-2.5-2.5v-8c0-1.3807 1.1193-2.5 2.5-2.5zm1.5 3.961-6.7465 3.97c-0.1304 0.0767-0.28689 0.0895-0.42599 0.0383l-0.08102-0.0383-6.7465-3.968v6.537c0 0.8284 0.67157 1.5 1.5 1.5h11c0.8284 0 1.5-0.6716 1.5-1.5zm-1.5-2.961h-11c-0.82843 0-1.5 0.67157-1.5 1.5v0.302l7 4.1179 7-4.1189v-0.301c0-0.82843-0.6716-1.5-1.5-1.5z" fill="#363636"/>
</svg>
