<svg width="16" height="16" version="1.1" viewBox="0 0 16 16" xmlns="http://www.w3.org/2000/svg">
 <defs>
  <style id="current-color-scheme" type="text/css">.ColorScheme-Text { color:#363636; }</style>
 </defs>
 <g transform="translate(0 -.043209)" fill="#363636" stroke-linecap="round" stroke-linejoin="round" stroke-width="2" style="paint-order:stroke fill markers" aria-label="">
  <path d="m12.781 6.4573q0.50781 0.25781 0.91406 0.64062 0.41406 0.375 0.70312 0.84375 0.28906 0.46094 0.44531 1 0.15625 0.53125 0.15625 1.1016h-1q0-0.61719-0.24219-1.1641-0.23438-0.54688-0.64062-0.95312t-0.95312-0.64062q-0.54688-0.24219-1.1641-0.24219-0.61719 0-1.1641 0.24219-0.54688 0.23438-0.95312 0.64062t-0.64844 0.95312q-0.23438 0.54688-0.23438 1.1641 0 0.71094-0.32812 1.3516-0.32031 0.64062-0.89062 1.0625 0.50781 0.25781 0.91406 0.64062 0.41406 0.375 0.70312 0.84375 0.28906 0.46094 0.44531 1 0.15625 0.53125 0.15625 1.1016h-1q0-0.61719-0.24219-1.1641-0.23438-0.54688-0.64062-0.95312t-0.95312-0.64062q-0.54688-0.24219-1.1641-0.24219t-1.1641 0.24219q-0.54688 0.23438-0.95312 0.64062t-0.64844 0.95312q-0.23438 0.54688-0.23438 1.1641h-1q0-0.57031 0.15625-1.1016 0.15625-0.53906 0.44531-1 0.28906-0.46875 0.69531-0.84375 0.41406-0.38281 0.92188-0.64062-0.57031-0.42188-0.89844-1.0625-0.32031-0.64062-0.32031-1.3516 0-0.61719 0.23438-1.1641 0.24219-0.54688 0.64844-0.95312t0.95312-0.64062q0.54688-0.24219 1.1641-0.24219 0.71094 0 1.3516 0.32812 0.64062 0.32031 1.0625 0.89062 0.29688-0.58594 0.75781-1.0469t1.0469-0.75781q-0.57031-0.42188-0.89844-1.0625-0.32031-0.64062-0.32031-1.3516 0-0.61719 0.23438-1.1641 0.24219-0.54688 0.64844-0.95312t0.95312-0.64062q0.54688-0.24219 1.1641-0.24219 0.61719 0 1.1641 0.24219 0.54688 0.23438 0.95312 0.64062t0.64062 0.95312q0.24219 0.54688 0.24219 1.1641 0 0.71094-0.32812 1.3516-0.32031 0.64062-0.89062 1.0625zm-7.7812 5.5859q0.40625 0 0.77344-0.15625 0.36719-0.16406 0.63281-0.42969 0.27344-0.27344 0.42969-0.63281 0.16406-0.36719 0.16406-0.78125 0-0.40625-0.16406-0.77344-0.15625-0.36719-0.42969-0.63281-0.26562-0.27344-0.63281-0.42969-0.36719-0.16406-0.77344-0.16406-0.41406 0-0.78125 0.16406-0.35938 0.15625-0.63281 0.42969-0.26562 0.26562-0.42969 0.63281-0.15625 0.36719-0.15625 0.77344 0 0.41406 0.15625 0.78125 0.16406 0.35938 0.42969 0.63281 0.27344 0.26562 0.63281 0.42969 0.36719 0.15625 0.78125 0.15625zm4-8q0 0.41406 0.15625 0.78125 0.16406 0.35938 0.42969 0.63281 0.27344 0.26562 0.63281 0.42969 0.36719 0.15625 0.78125 0.15625 0.40625 0 0.77344-0.15625 0.36719-0.16406 0.63281-0.42969 0.27344-0.27344 0.42969-0.63281 0.16406-0.36719 0.16406-0.78125 0-0.40625-0.16406-0.77344-0.15625-0.36719-0.42969-0.63281-0.26562-0.27344-0.63281-0.42969-0.36719-0.16406-0.77344-0.16406-0.41406 0-0.78125 0.16406-0.35938 0.15625-0.63281 0.42969-0.26562 0.26562-0.42969 0.63281-0.15625 0.36719-0.15625 0.77344z" stroke-width="2"/>
 </g>
</svg>
