<svg width="16" height="16" version="1.1" viewBox="0 0 16 16" xmlns="http://www.w3.org/2000/svg">
 <defs>
  <style id="current-color-scheme" type="text/css">.ColorScheme-Text { color:#363636; } .ColorScheme-Text { color:#363636; }</style>
 </defs>
 <rect x="2" y="14" width="11" height="1" rx=".5" ry=".5" fill="#363636" stroke-linecap="round" stroke-linejoin="round" stroke-width="1.2845" style="paint-order:stroke fill markers"/>
 <path d="m7.5 1c-0.277 0-0.5 0.223-0.5 0.5v9.793l-3.3887-3.3887c-0.19587-0.19587-0.51116-0.19587-0.70703 0s-0.19587 0.51116 0 0.70703l4.2422 4.2422c0.012242 0.012241 0.023992 0.022491 0.037109 0.033203 3.8e-4 3.12e-4 0.0015723-3.11e-4 0.0019531 0 0.033384 0.027091 0.069746 0.051142 0.10742 0.068359 0.0064321 0.002916 0.012955 0.005164 0.019531 0.007813 0.0043668 0.001758 0.0092442 0.002268 0.013672 0.003906 0.016301 0.006084 0.032101 0.011306 0.048828 0.015625 0.0019848 5.12e-4 0.0038697 0.001465 0.0058594 0.001953 0.0079024 0.001921 0.015391 0.004317 0.023438 0.005859 0.0025554 4.9e-4 0.0052431 0.001502 0.0078125 0.001954 0.013115 0.002328 0.025834 0.004587 0.039062 0.005859 0.016534 0.001652 0.032229 0.001953 0.048828 0.001953 0.02231 0 0.044255-9.22e-4 0.066406-0.003906 0.0099702-0.001319 0.019404-0.003937 0.029297-0.00586 0.0080469-0.001542 0.015535-0.003938 0.023438-0.005859 0.018804-0.004571 0.036796-0.010958 0.054688-0.017578 0.00453-0.001691 0.009182-0.002079 0.013672-0.003906 0.0065758-0.002649 0.013099-0.004897 0.019531-0.007813 0.0084651-0.003868 0.017105-0.007352 0.025391-0.011719 0.016111-0.00849 0.031562-0.018921 0.046875-0.029297 0.012362-0.008337 0.02362-0.017961 0.035156-0.027343 0.013117-0.010712 0.026821-0.020962 0.039062-0.033203l4.2422-4.2422c0.19587-0.19587 0.19587-0.51116 0-0.70703-0.19587-0.19587-0.51116-0.19587-0.70703 0l-3.3887 3.3887v-9.793c0-0.277-0.223-0.5-0.5-0.5z" fill="#363636"/>
</svg>
