<svg width="16" height="16" version="1.1" xmlns="http://www.w3.org/2000/svg">
 <defs>
  <style id="current-color-scheme" type="text/css">.ColorScheme-Text { color:#363636; }</style>
 </defs>
 <path d="m2 0c-1.108 0-2 0.892-2 2v10c0 1.108 0.892 2 2 2h5.5v1h-7.5v1h16v-1h-7.5v-1h5.5c1.108 0 2-0.892 2-2v-8c0-1.108-0.892-2-2-2h-6l-2-2h-4zm0 1h3.5859l1.4961 1.5039-1.4961 1.4961h-4.5859v-2c0-0.554 0.446-1 1-1zm6 2h6c0.554 0 1 0.446 1 1v8c0 0.554-0.446 1-1 1h-12c-0.554 0-1-0.446-1-1v-7h5l2-2z" fill="#363636"/>
</svg>
