<svg width="16" height="16" version="1.1" xmlns="http://www.w3.org/2000/svg">
 <defs>
  <style id="current-color-scheme" type="text/css">.ColorScheme-Text { color:#363636; }</style>
 </defs>
 <path d="m4 1.25e-7c-1.1046 0-2 0.89543-2 2v12c0 1.1046 0.89543 2 2 2h8c1.1046 0 2-0.8954 2-2v-8.5858c0-0.39782-0.158-0.77935-0.4393-1.0607l-3.9143-3.9142c-0.2813-0.2813-0.6628-0.43934-1.0606-0.43934zm-1 2c0-0.55228 0.44772-1 1-1h4v3.5c0 0.82843 0.6716 1.5 1.5 1.5h3.5v8c0 0.5523-0.4477 1-1 1h-8c-0.55228 0-1-0.4477-1-1zm9.7929 3h-3.2929c-0.2761 0-0.5-0.22386-0.5-0.5v-3.2929z" fill="#363636"/>
</svg>
