<svg width="16" height="16" version="1.1" xmlns="http://www.w3.org/2000/svg">
 <defs>
  <style id="current-color-scheme" type="text/css">.ColorScheme-Text { color:#363636; }</style>
 </defs>
 <path d="m6.9975 0.3885c0.57017-0.51227 1.4348-0.51227 2.005 0l5.5 4.9415c0.3166 0.28449 0.4975 0.69012 0.4975 1.1158v7.0542c0 0.8284-0.6716 1.5-1.5 1.5h-3c-0.8284 0-1.5-0.6716-1.5-1.5v-3c0-0.2762-0.2239-0.5-0.5-0.5h-1c-0.27614 0-0.5 0.2238-0.5 0.5v3c0 0.8284-0.67157 1.5-1.5 1.5h-3c-0.82843 0-1.5-0.6716-1.5-1.5v-7.0542c0-0.42567 0.18086-0.8313 0.4975-1.1158zm1.3367 0.74386c-0.1901-0.17076-0.47831-0.17075-0.66837 0l-5.5 4.9415c-0.10554 0.09483-0.16583 0.23004-0.16583 0.37193v7.0542c0 0.2761 0.22386 0.5 0.5 0.5h3c0.27614 0 0.5-0.2239 0.5-0.5v-3c0-0.8285 0.67157-1.5 1.5-1.5h1c0.8284 0 1.5 0.6715 1.5 1.5v3c0 0.2761 0.2239 0.5 0.5 0.5h3c0.2761 0 0.5-0.2239 0.5-0.5v-7.0542c0-0.14189-0.0603-0.2771-0.1658-0.37193z" fill="#363636"/>
</svg>
