<svg width="64" height="64" version="1.1" xmlns="http://www.w3.org/2000/svg">
 <defs>
  <filter id="filter3" x="-.108" y="-.108" width="1.216" height="1.216" color-interpolation-filters="sRGB">
   <feGaussianBlur stdDeviation="2.16"/>
  </filter>
 </defs>
 <rect x="4" y="4" width="56" height="56" rx="10" ry="10" fill="#f8f1ff" opacity=".35" stroke-linecap="round" stroke-linejoin="round" stroke-width="1.098"/>
 <rect x="8" y="8" width="48" height="48" rx="6" ry="6" fill="#f8f1ff" filter="url(#filter3)" stroke-linecap="round" stroke-linejoin="round" stroke-width=".94117"/>
 <g transform="matrix(.65746 0 0 .65746 11.078 10.167)">
  <g fill="#ea5e5d">
   <path class="cls-1" d="m16.72 51.21c-4.45 0-8.64-1.78-11.81-5.01s-4.91-7.51-4.91-12.04 1.74-8.81 4.91-12.04 7.36-5.01 11.81-5.01 8.71 1.82 11.82 4.99c2.32 2.36 2.32 6.2 0 8.56s-6.08 2.36-8.4 0c-0.9-0.92-2.15-1.45-3.43-1.45-2.63 0-4.85 2.26-4.85 4.94s2.22 4.94 4.85 4.94c1.28 0 2.52-0.53 3.43-1.45 2.32-2.36 6.08-2.36 8.4 0s2.32 6.2 0 8.56c-3.11 3.17-7.42 4.99-11.82 4.99z"/>
   <path class="cls-1" d="m32.05 66.73c-4.45 0-8.64-1.78-11.81-5.01s-4.91-7.51-4.91-12.04 1.79-8.88 4.9-12.06c2.32-2.36 6.08-2.36 8.4 0s2.32 6.2 0 8.56c-0.9 0.92-1.42 2.19-1.42 3.49 0 2.68 2.22 4.94 4.85 4.94s4.85-2.26 4.85-4.94c0-0.95-0.23-2.31-1.32-3.43-3.13-3.19-4.92-7.6-4.92-12.09s1.74-8.81 4.91-12.04 7.36-5.01 11.81-5.01 8.64 1.78 11.81 5.01 4.91 7.51 4.91 12.04-1.79 8.88-4.9 12.06c-2.32 2.36-6.08 2.36-8.4 0s-2.32-6.2 0-8.56c0.9-0.92 1.42-2.19 1.42-3.49 0-2.68-2.22-4.94-4.85-4.94s-4.85 2.26-4.85 4.94c0 1.31 0.53 2.6 1.45 3.53 3.1 3.16 4.8 7.42 4.8 11.99s-1.74 8.81-4.91 12.04-7.36 5.01-11.81 5.01z"/>
  </g>
  <path class="cls-2" d="m32.05 19.09-9.72-9.12c-1.5-1.4-1.57-3.75-0.17-5.25 1.4-1.49 3.75-1.57 5.25-0.17l3.89 3.65 5.53-6.83c1.29-1.59 3.63-1.84 5.22-0.55s1.84 3.63 0.55 5.22l-10.56 13.05z" fill="#23af69"/>
 </g>
</svg>
