<svg width="64" height="64" viewBox="0 0 16.933 16.933" xmlns="http://www.w3.org/2000/svg"><g stroke-width=".927"><path d="m8.835 5.88-4.762 8.25h9.524z" fill="#fff"/><path d="M8.467 11.687c-.489 1.059-.755 2.11 0 3.13h7.143c-1.911-.967-2.501-2.911-6.064-2.658z" fill="#4caf50"/><path d="M6.656 10.893c-2.522.563-3.915 2.255-5.333 3.924h7.144v-3.13z" fill="#4caf50"/><path d="M8.467 2.444 1.323 14.817l7.875-5.795c1.002-2.531-.033-4.51-.73-6.578z" fill="#2196f3"/><path d="m8.467 2.444 1.08 9.715 6.063 2.658z" fill="#f44336"/><path d="m15.604 14.817-6.058-2.658-.174-1.568zM8.467 2.444l.728 6.575-1.271.935zM1.323 14.817l5.33-3.92 1.445.634z" opacity=".1"/></g></svg>