<svg width="64" height="64" xmlns="http://www.w3.org/2000/svg"><style>.st0{fill:#f08705}.st1{fill:#df6c0c}.st2{fill:#fff}.st3{fill:#333}</style><rect x="6" y="6" width="52" height="52" rx="6.974" ry="6.974" fill="#f08705" style="paint-order:stroke fill markers"/><rect x="10" y="10" width="44" height="44" rx="3" ry="3" fill="#fff" opacity=".1" stroke-width=".846" style="paint-order:stroke fill markers"/><path d="m26.357 26-5.863 10h3.375l5.826-9.951h4.644L40.2 36h3.361l-5.883-10z" fill="#fff" opacity=".35" stroke-width=".334"/><path d="M26 12c-1.108 0-2 .892-2 2v10c0 1.108.892 2 2 2h12c1.108 0 2-.892 2-2V14c0-1.108-.892-2-2-2zm0 2h12v10H26z" fill="#fff" style="paint-order:stroke fill markers"/><rect x="26" y="14" width="12" height="10" ry="0" fill="#fff" opacity=".5" style="paint-order:stroke fill markers"/><path d="M14 36c-1.108 0-2 .892-2 2v10c0 1.108.892 2 2 2h12c1.108 0 2-.892 2-2V38c0-1.108-.892-2-2-2zm0 2h12v10H14zM38 36c-1.108 0-2 .892-2 2v10c0 1.108.892 2 2 2h12c1.108 0 2-.892 2-2V38c0-1.108-.892-2-2-2zm0 2h12v10H38z" fill="#fff" style="paint-order:stroke fill markers"/><rect x="14" y="38" width="12" height="10" ry="0" fill="#fff" opacity=".5" style="paint-order:stroke fill markers"/><rect x="38" y="38" width="12" height="10" ry="0" fill="#fff" opacity=".5" style="paint-order:stroke fill markers"/></svg>