<svg width="64" height="64" xmlns="http://www.w3.org/2000/svg"><g transform="translate(270.4 69.763)"><path d="M-244.5-25.929c-.52 0-.9.378-.9.834v10.955l-4.078.377h-.022c-.52 0-.9.378-.9.834v1.166h24v-1.166c0-.456-.381-.834-.9-.834h-.024l-4.076-.377v-10.955c0-.456-.38-.834-.9-.834z" fill="#c4c7cc"/><rect x="-268.4" y="-63.763" width="60" height="40" rx="2" ry="2" fill="#2f3337"/><path d="M-265.4-60.763h54v34h-54z" fill="#5294e2" fill-rule="evenodd"/></g><path d="M5 9h27v34H5z" fill-rule="evenodd" opacity=".15"/><path d="M45.75 18a.25.25 0 0 0-.25.25v1.5c0 .139.112.25.25.25h.5a.25.25 0 0 0 .25-.25v-1.5a.25.25 0 0 0-.25-.25zm-4.699 1.947a.25.25 0 0 0-.178.073l-.353.353a.25.25 0 0 0 0 .354l1.06 1.06a.25.25 0 0 0 .354 0l.353-.353a.25.25 0 0 0 0-.354l-1.06-1.06a.246.246 0 0 0-.176-.073zm9.898 0a.246.246 0 0 0-.175.073l-1.06 1.06a.25.25 0 0 0 0 .354l.353.353a.25.25 0 0 0 .353 0l1.06-1.06a.25.25 0 0 0 0-.354l-.353-.353a.25.25 0 0 0-.178-.073zM46 22a3.5 3.5 0 1 0 0 7 3.5 3.5 0 0 0 0-7zm-7.25 3a.25.25 0 0 0-.25.25v.5c0 .139.112.25.25.25h1.5a.25.25 0 0 0 .25-.25v-.5a.25.25 0 0 0-.25-.25zm13 0a.25.25 0 0 0-.25.25v.5c0 .139.112.25.25.25h1.5a.25.25 0 0 0 .25-.25v-.5a.25.25 0 0 0-.25-.25zm-9.992 4.139a.252.252 0 0 0-.178.074l-1.06 1.06a.25.25 0 0 0 0 .354l.353.353a.25.25 0 0 0 .354 0l1.06-1.06a.25.25 0 0 0 0-.354l-.353-.353a.248.248 0 0 0-.176-.074zm8.484 0a.248.248 0 0 0-.175.074l-.354.353a.25.25 0 0 0 0 .354l1.06 1.06a.25.25 0 0 0 .354 0l.354-.353a.25.25 0 0 0 0-.354l-1.06-1.06a.252.252 0 0 0-.179-.074zM45.75 31a.25.25 0 0 0-.25.25v1.5c0 .139.112.25.25.25h.5a.25.25 0 0 0 .25-.25v-1.5a.25.25 0 0 0-.25-.25z" color="#000" fill="#fff" overflow="visible" style="isolation:auto;mix-blend-mode:normal"/><path d="M18.463 18A7.5 7.5 0 0 0 11 25.5a7.5 7.5 0 0 0 7.5 7.5 7.5 7.5 0 0 0 3.834-1.055A6.5 6.5 0 0 1 21.5 32a6.5 6.5 0 0 1-6.5-6.5 6.5 6.5 0 0 1 6.5-6.5 6.5 6.5 0 0 1 .832.055A7.5 7.5 0 0 0 18.5 18a7.5 7.5 0 0 0-.037 0z" fill="#fff"/></svg>