<svg width="64" height="64" xmlns="http://www.w3.org/2000/svg"><defs><linearGradient id="a" x1="50" x2="50" y1="63" y2="37" gradientUnits="userSpaceOnUse"><stop offset="0"/><stop stop-opacity="0" offset="1"/></linearGradient></defs><rect x="8" y="4" width="48" height="56" ry="3.231" fill="#eee"/><rect x="8" y="12" width="48" height="9" ry="0" fill="#e0e0e0"/><rect x="8" y="4" width="48" height="56" rx="3" ry="3" fill="#eee"/><path d="M11 4C9.338 4 8 5.338 8 7v5h48V7c0-1.662-1.338-3-3-3H11z" fill="#b3b3b3"/><path d="M56 31.697A55 55 0 0 1 37.068 60H53c1.662 0 3-1.338 3-3V31.697z" fill="url(#a)" opacity=".15"/><g fill="#bdbdbd"><rect x="18" y="25.999" width="20" height="2" ry="0"/><path d="M18 30h23v2H18z"/><rect x="18" y="35" width="7" height="1.999" ry="0"/><path d="M18 39h9v2h-9zm0 4h5v2h-5z"/></g><g fill="#757575"><circle cx="15" cy="36" r="1"/><circle cx="15" cy="40" r="1"/><circle cx="15" cy="44" r="1"/></g><path d="M33 44c-1.108 0-2 .892-2 2v7c0 1.108.892 2 2 2h15c1.108 0 2-.892 2-2v-7c0-1.108-.892-2-2-2zm0 1h15c.554 0 1 .446 1 1v7c0 .554-.446 1-1 1H33c-.554 0-1-.446-1-1v-7c0-.554.446-1 1-1zm0 1v7h2v-4.172l2 2 2-2V53h2v-7h-2l-2 2-2-2zm11 0v4h-2l3 3 3-3h-2v-4z" fill="#616161"/><circle cx="49.5" cy="8.5" r="1.5" fill="#ef5350"/><circle cx="49.5" cy="8.5" r=".5" fill="#ef9a9a"/><path d="M14 27h3v1h-3zm28 4h3v1h-3z" fill="#757575"/><g fill="#616161" fill-rule="evenodd"><path d="M14 14h4v4h-4z" opacity=".9" style="paint-order:stroke fill markers"/><path d="M20 14h4v4h-4z" opacity=".5" style="paint-order:stroke fill markers"/><path d="M26 16h4v2h-4zm6 0h4v2h-4zm6 0h4v2h-4zm6 0h4v2h-4z" opacity=".9" style="paint-order:stroke fill markers"/></g><rect x="8" y="12" width="48" height="9" ry="0" fill="#e0e0e0"/></svg>