<svg width="64" height="64" viewBox="0 0 16.933 16.933" xmlns="http://www.w3.org/2000/svg"><defs><linearGradient id="a" x1="13.229" x2="2.117" y1="297" y2="280.07" gradientTransform="matrix(1.0714 0 0 1 -.605 -280.07)" gradientUnits="userSpaceOnUse"><stop stop-color="#66bcff" offset="0"/><stop stop-color="#b29aff" offset="1"/></linearGradient></defs><path d="M.794 2.381H16.14c.146 0 .264.118.264.264v11.642a.264.264 0 0 1-.264.265H.794a.264.264 0 0 1-.265-.265V2.645c0-.146.118-.264.265-.264z" fill="url(#a)" style="paint-order:stroke markers fill"/><path d="M3.97 13.504a.528.528 0 0 0-.53.53v.53h10.054v-.53a.528.528 0 0 0-.53-.53z" fill="#fff" opacity=".35" style="paint-order:stroke markers fill"/><rect x="1.587" y="2.645" width="1.058" height=".529" ry=".265" opacity=".35" style="paint-order:stroke markers fill"/><rect x="7.144" y="2.645" width="2.646" height=".529" ry=".265" opacity=".35" style="paint-order:stroke markers fill"/><rect x="15.081" y="2.645" width=".529" height=".529" ry=".265" opacity=".35" style="paint-order:stroke markers fill"/><rect x="14.023" y="2.645" width=".794" height=".529" ry=".265" opacity=".35" style="paint-order:stroke markers fill"/><rect x="13.229" y="2.645" width=".529" height=".529" ry=".265" opacity=".35" style="paint-order:stroke markers fill"/><g fill="#ccdfff"><rect x="4.498" y="12.7" width="1.323" height="1.323" ry=".132" style="paint-order:stroke markers fill"/><rect x="6.703" y="12.7" width="1.323" height="1.323" ry=".132" style="paint-order:stroke markers fill"/><rect x="8.908" y="12.7" width="1.323" height="1.323" ry=".132" style="paint-order:stroke markers fill"/><rect x="11.113" y="12.7" width="1.323" height="1.323" ry=".132" style="paint-order:stroke markers fill"/></g><path d="M.794 2.381a.264.264 0 0 0-.265.265v.793h15.875v-.793a.264.264 0 0 0-.264-.265z" opacity=".35" style="paint-order:stroke markers fill"/></svg>