<svg width="64" height="64" xmlns="http://www.w3.org/2000/svg"><defs><linearGradient id="a" x1="13.229" x2="2.117" y1="297" y2="280.07" gradientTransform="matrix(4.0495 0 0 3.7796 -2.287 -1058.6)" gradientUnits="userSpaceOnUse"><stop stop-color="#66bcff" offset="0"/><stop stop-color="#b29aff" offset="1"/></linearGradient></defs><path d="M3.001 9h58.002c.552 0 .998.445.998.997v44.002a.998.998 0 0 1-.998 1.002H3.001a.998.998 0 0 1-1.002-1.002V9.997a.998.998 0 0 1 1.002-.998z" fill="url(#a)" style="paint-order:stroke markers fill"/><path d="M15.002 51.04c-1.108 0-2 .892-2 2v2.01h38v-2.01c0-1.108-.892-2-2-2z" fill="#fff" opacity=".35" style="paint-order:stroke markers fill"/><rect x="5.998" y="9.997" width="3.999" height="1.999" ry="1.002" opacity=".35" style="paint-order:stroke markers fill"/><rect x="27.001" y="9.997" width="10.001" height="1.999" ry="1.002" opacity=".35" style="paint-order:stroke markers fill"/><rect x="57" y="9.997" width="1.999" height="1.999" ry="1.002" opacity=".35" style="paint-order:stroke markers fill"/><rect x="53.001" y="9.997" width="3.001" height="1.999" ry="1.002" opacity=".35" style="paint-order:stroke markers fill"/><rect x="50" y="9.997" width="1.999" height="1.999" ry="1.002" opacity=".35" style="paint-order:stroke markers fill"/><g transform="scale(3.7796)" fill="#ccdfff"><rect x="4.498" y="12.7" width="1.323" height="1.323" ry=".132" style="paint-order:stroke markers fill"/><rect x="6.703" y="12.7" width="1.323" height="1.323" ry=".132" style="paint-order:stroke markers fill"/><rect x="8.908" y="12.7" width="1.323" height="1.323" ry=".132" style="paint-order:stroke markers fill"/><rect x="11.113" y="12.7" width="1.323" height="1.323" ry=".132" style="paint-order:stroke markers fill"/></g><path d="M3.001 9a.998.998 0 0 0-1.002 1v2.998H62v-2.997a.998.998 0 0 0-.997-1.002z" opacity=".35" style="paint-order:stroke markers fill"/><circle cx="52" cy="48" r="12" fill="#999"/><path d="m50.201 40.8-.159 1.897a5.658 5.658 0 0 0-1.655.957l-1.724-.813-1.799 3.118 1.565 1.085a5.658 5.658 0 0 0-.087.956 5.658 5.658 0 0 0 .083.96l-1.56 1.081 1.798 3.118 1.72-.808a5.658 5.658 0 0 0 1.66.948L50.2 55.2h3.598l.159-1.897a5.658 5.658 0 0 0 1.655-.956l1.724.812 1.799-3.118-1.565-1.088a5.658 5.658 0 0 0 .087-.953 5.658 5.658 0 0 0-.083-.96l1.56-1.08-1.798-3.12-1.72.81a5.658 5.658 0 0 0-1.66-.949L53.8 40.8zm1.8 4.8a2.4 2.4 0 0 1 2.4 2.4 2.4 2.4 0 0 1-2.4 2.4 2.4 2.4 0 0 1-2.4-2.4 2.4 2.4 0 0 1 2.4-2.4z" fill="#fff"/></svg>