<svg width="64" height="64" version="1" xmlns="http://www.w3.org/2000/svg">
 <defs>
  <filter id="filter1675" x="-.147" y="-.147" width="1.294" height="1.294" color-interpolation-filters="sRGB">
   <feGaussianBlur stdDeviation="2.5725"/>
  </filter>
 </defs>
 <rect x="5" y="5" width="54" height="54" rx="9" ry="9" fill="#b3b3b3" opacity=".35"/>
 <rect x="11" y="11" width="42" height="42" rx="3" ry="3" fill="#4d4d4d" filter="url(#filter1675)" stroke-width=".72414"/>
 <path d="m53 23.036-18-11.336v6.3381l11.547 7.2073-1.3585 3.7546h-10.189v6h10.189l1.3585 3.7546-11.547 7.2074v6.338l18-11.3-2.9434-8.982z" fill="#3d7fff"/>
 <path d="m18.833 35h10.13v-6h-10.167l-1.318-3.7546 11.485-7.2073v-6.3381l-17.962 11.336 2.9372 8.9821-2.9372 8.982 18 11.3v-6.338l-11.523-7.2074z" fill="#7d40ff"/>
</svg>
