<svg width="64" height="64" version="1.1" viewBox="0 0 16.933 16.933" xmlns="http://www.w3.org/2000/svg">
 <defs>
  <clipPath id="clipPath860">
   <rect x="3.4391" y="1.3229" width="12.171" height="12.171" rx="1.5875" ry="1.5875" fill="#f9f9f9" fill-rule="evenodd" stroke-width=".88462" style="paint-order:fill markers stroke"/>
  </clipPath>
  <filter id="filter854" x="-.108" y="-.108" width="1.216" height="1.216" color-interpolation-filters="sRGB">
   <feGaussianBlur stdDeviation="0.54769498"/>
  </filter>
 </defs>
 <rect x="1.3229" y="3.4391" width="12.171" height="12.171" rx="1.5875" ry="1.5875" fill="#ff7643" fill-rule="evenodd" stroke-width=".88462" style="paint-order:fill markers stroke"/>
 <rect x="3.4391" y="1.3229" width="12.171" height="12.171" rx="1.5875" ry="1.5875" fill="#f9f9f9" fill-rule="evenodd" stroke-width=".88462" style="paint-order:fill markers stroke"/>
 <rect x="1.3229" y="3.4391" width="12.171" height="12.171" rx="1.5875" ry="1.5875" clip-path="url(#clipPath860)" fill="#ff7643" fill-rule="evenodd" filter="url(#filter854)" opacity=".35" stroke-width=".88462" style="paint-order:fill markers stroke"/>
 <path d="m9.2921 3.7063c-0.27676 0.00538-0.5492 0.016153-0.72904 0.043075-0.80442 0.12276-1.4495 0.4049-1.8641 0.81627a1.6584 1.6584 0 0 0-0.45229 0.77535c-0.048459 0.18738-0.064612 0.6192-0.013999 0.78396 0.16907 0.58151 0.57074 1.0273 1.3246 1.4753 0.32091 0.18953 0.56859 0.31445 1.2815 0.63643 0.85611 0.38444 1.1167 0.53951 1.2384 0.73227 0.04738 0.077535 0.06461 0.11846 0.05815 0.21214-0.01292 0.14861-0.08723 0.22291-0.26168 0.28645-0.1163 0.04092-0.1583 0.05384-0.37906 0.05384-0.40383-0.0043-0.75919-0.07969-1.2524-0.25522a4.5573 4.5573 0 0 1-0.97457-0.47813c-0.28645-0.18738-0.30906-0.19384-0.39413-0.14861-0.063535 0.035537-0.52874 0.45013-0.87226 0.78612-0.22507 0.2186-0.2283 0.26276-0.073227 0.41352 0.15184 0.15076 0.58043 0.46844 0.81519 0.60412 0.25522 0.15076 0.42536 0.23368 0.71289 0.34029 0.48244 0.17876 0.88734 0.25306 1.6455 0.31768 0.1723 0.014 0.78827 0.01615 1.0047 0 1.1867-0.09476 2.1548-0.48244 2.6642-1.0499 0.18307-0.20138 0.29291-0.37475 0.37906-0.61597 0.084-0.23476 0.10553-0.69566 0.04307-0.97564-0.10122-0.45336-0.37475-0.86365-0.81519-1.2093-0.44152-0.34675-0.8895-0.5772-1.9653-1.008-0.75166-0.29937-1.0338-0.45875-1.107-0.62566-0.03984-0.08938-0.01615-0.24768 0.04307-0.30798 0.11846-0.11953 0.34675-0.16261 0.64182-0.12707 0.5492 0.067843 1.2556 0.31983 1.8781 0.66766 0.12061 0.066766 0.23691 0.12276 0.26276 0.12815 0.10015 0.025845 0.16153-0.013999 0.56751-0.47813 0.4986-0.57074 0.49321-0.54813 0.21861-0.74304-0.81842-0.58582-1.7661-0.92611-2.8537-1.0284a7.6049 7.6049 0 0 0-0.77212-0.021537z" fill="#ffffff" stroke-width="1.0769"/>
</svg>
