<svg width="64" height="64" xmlns="http://www.w3.org/2000/svg"><circle cx="32" cy="32" r="28" fill="#313642"/><path d="M25.251 38.752a6.75 6.75 0 0 0-6.75 6.75 6.75 6.75 0 0 0 6.75 6.75 6.75 6.75 0 0 0 6.75-6.75v-6.75z" fill="#09c37b"/><path d="M25.251 25.25h6.75v13.5h-6.75c-3.74 0-6.75-3.01-6.75-6.75s3.01-6.75 6.75-6.75z" fill="#9154dd"/><circle cx="38.752" cy="31.999" r="6.75" fill="#01b1f8"/><path d="M25.251 11.75c-3.74 0-6.75 3.01-6.75 6.75s3.01 6.75 6.75 6.75h6.75v-13.5z" fill="#f24e1e"/><path d="M32.001 11.75h6.75c3.74 0 6.75 3.01 6.75 6.75s-3.01 6.75-6.75 6.75h-6.75z" fill="#ff7262"/></svg>