<svg width="64" height="64" version="1.1" viewBox="0 0 16.933 16.933" xmlns="http://www.w3.org/2000/svg">
 <defs>
  <filter id="filter918" x="-.043041" y="-.05425" width="1.0861" height="1.1085" color-interpolation-filters="sRGB">
   <feGaussianBlur stdDeviation="0.74462109"/>
  </filter>
  <clipPath id="clipPath924">
   <path d="m5.2472 32.628c2.0863 12.328 13.259 21.741 25.944 22.1 11.739 0.332 19.239-6.4828 22.337-13.131 2.6236-5.7458 2.925-12.283 0.84123-18.246v-0.02634c0-0.01977-0.0042-0.03296 0-0.02634l0.0049 0.04546c0.95907 6.2617-2.2258 12.328-7.2047 16.43-5.3136 3.8298-14.659 7.3755-20.88 3.5225-0.1311-0.0627-0.26222-0.12802-0.39334-0.19586-5.6562-2.7036-7.9931-7.857-7.4923-12.277-2.743 0.04041-5.2526-1.5382-6.4038-4.0283 3.019-1.8495 6.7813-2.0006 9.9388-0.39901 3.2015 1.4533 6.8445 1.5966 10.15 0.39901-0.01048-0.21971-4.7154-2.0925-6.5497-3.899-0.98001-0.96607-1.4452-1.4313-1.8575-1.7808-0.22279-0.18871-0.45564-0.36521-0.69753-0.52873-0.16043-0.10936-0.34109-0.22795-0.55802-0.37038-1.9719-1.282-5.8932-1.2116-6.0232-1.2081h-0.01255c-1.0713-1.3571-0.99596-5.8353-0.93462-6.7704-0.31696 0.12737-0.61952 0.288-0.90261 0.47918-0.9458 0.67503-1.83 1.4325-2.6422 2.2635-0.92886 0.93575-1.7777 1.9477-2.5376 3.0252v0.0033-0.0033c-1.738 2.464-2.9708 5.2478-3.6271 8.1908-0.013266 0.05501-0.97374 4.2543-0.50012 6.4318z" fill="#ff6333" opacity=".8" stroke-width=".69753"/>
  </clipPath>
  <filter id="filter945" x="-.048781" y="-.047244" width="1.0976" height="1.0945" color-interpolation-filters="sRGB">
   <feGaussianBlur stdDeviation="0.29038385"/>
  </filter>
  <clipPath id="clipPath959">
   <path d="m10.695 0.85471c-1.7966 1.0519-2.4058 2.9992-2.4618 3.9733 0.083416-0.0061 0.16588-0.012919 0.25114-0.012919a3.6098 3.6098 0 0 1 2.4613 0.97512 3.6098 3.6098 0 0 1 1e-3 0.00103c0.0022 0.0022 4e-3 0.00451 0.0062 0.00672 0.29333 0.298 0.5184 0.59045 0.66506 0.84799 0.0393 0.029719 0.12074 0.098545 0.15192 0.12712 1.1228 1.0684 1.2131 2.5169 0.65421 3.7888 0.01832-0.01293 0.03835-0.0258 0.05633-0.03876 1.3104-1.0798 2.15-2.6736 1.9089-4.3211-0.0016-0.00489-0.0031-0.013298-0.0047-0.018086-0.80898-2.0171-2.1804-2.8298-3.3004-4.6001-0.056659-0.089506-0.11329-0.1792-0.16846-0.27388-0.03156-0.054034-0.05659-0.10295-0.07855-0.14779-0.04645-0.089957-0.08255-0.18493-0.10697-0.28318 7.9e-5 -0.009395-0.0067-0.016959-0.01602-0.018086-0.0044-0.001209-0.0091-0.001209-0.01343 0-9.53e-4 0-0.0025 0.00155-0.0036 0.00155-0.0011 3.6512e-4 -0.0036 0.001712-0.0052 0.002585-0.0424 0.020112-0.1193 0.10392-0.20877 0.22892 0.08907-0.12859 0.16636-0.21464 0.20928-0.23512z" fill="#000000" opacity=".8" stroke-width=".18455"/>
  </clipPath>
  <filter id="filter1004" x="-.08112" y="-.08112" width="1.1622" height="1.1622" color-interpolation-filters="sRGB">
   <feGaussianBlur stdDeviation="0.25039673"/>
  </filter>
  <clipPath id="clipPath1010">
   <path d="m4.0896 3.238c-0.083861 0.0337-0.16384 0.076023-0.23874 0.1266-0.25024 0.1786-0.48427 0.37906-0.69917 0.59892-0.24576 0.24758-0.47021 0.51537-0.67126 0.80045-0.45984 0.65191-0.78597 1.3886-0.95961 2.1673-0.0035098 0.014554-0.25812 1.1256-0.13281 1.7017h5.16e-4c0.55199 3.2617 3.508 5.7521 6.864 5.8471 3.1059 0.08784 5.0898-1.7151 5.9096-3.4741 0.69293-1.5176 0.77348-3.2438 0.2253-4.8192 0.24867 1.653-0.59278 3.2535-1.9073 4.3366-0.02483 0.0179-0.05255 0.03539-0.07803 0.05323-0.08693 0.06085-0.17728 0.12121-0.2713 0.18086 0.09386-0.05956 0.18448-0.12009 0.2713-0.18086 0.23378-0.55673 0.34627-1.1184 0.33589-1.6149-0.03358-1.6063-1.0906-2.6812-2.3853-2.7496-0.14138-0.00748-0.35505 0.00274-0.46094 0.016536 2.5727 1.2863 1.8822 5.7156-1.6831 5.5484-0.31744-0.01296-0.63115-0.0734-0.93067-0.17931-0.070006-0.0262-0.1398-0.05515-0.2098-0.0863-0.022825-0.01043-0.045506-0.02153-0.068212-0.03256 1.3133 0.77987 3.1314 0.34606 4.5206-0.37155 0.10686-0.0552 0.21076-0.11188 0.31212-0.17001 0.09857-0.05654 0.19422-0.11459 0.2868-0.17311-0.09274 0.05862-0.18802 0.11648-0.2868 0.17311-0.10137 0.05812-0.20524 0.11481-0.31212 0.17001-1.39 0.71793-3.2075 1.1513-4.5206 0.37155-0.014335-0.0085-0.029711-0.01445-0.043924-0.02325-0.00721-0.0035-0.014491-0.0073-0.021703-0.01085-0.86681-0.45318-1.5807-1.3024-1.6701-2.3326h-5.291e-4s0.33021-1.2304 2.3642-1.2304c0.2198 0 0.84914-0.61324 0.8604-0.79115l0.00206-0.00103c-0.0027664-0.058133-1.2479-0.55348-1.7332-1.0314-0.25929-0.2556-0.38236-0.37882-0.49143-0.47128-0.058945-0.049929-0.12048-0.096261-0.18448-0.13952-0.042447-0.028935-0.089881-0.0605-0.14728-0.098183-0.09913-0.06445-0.21976-0.1128-0.34571-0.15399-0.021441-0.0070114-0.042212-0.014761-0.064078-0.021187-0.032817-0.0096439-0.064701-0.019513-0.098183-0.027905-0.065798-0.017634-0.13226-0.0319-0.19947-0.043924-6.879e-4 -1.241e-4 -0.0013758-3.969e-4 -0.0020637-5.292e-4 -0.061327-0.011176-0.12073-0.018854-0.18035-0.026871-0.00582-7.937e-4 -0.011776-0.00183-0.017571-0.00259-0.046827-0.00611-0.085744-0.010012-0.13022-0.01447-0.01248-0.00124-0.020957-0.00146-0.033072-0.00259-0.27996-0.025926-0.5076-0.02626-0.52295-0.025844h-0.00362c-0.28345-0.35907-0.26324-1.5437-0.24701-1.7911zm10.298 2.9486c-5.29e-4 -0.00345-5.03e-4 -0.00689-1e-3 -0.010334l-0.0016-0.011885c-0.0011-0.00175 0 0.00148 0 0.00672v0.00723c9.52e-4 0.00274 0.0016 0.00553 0.0026 0.00827zm-9.9113 0.50797c-0.22656 0.0091-0.45201 0.046811-0.67075 0.11265 0.2187-0.06594 0.44418-0.10356 0.67075-0.11265zm-1.0097 0.84076c0.11643 0.13166 0.25049 0.24521 0.3979 0.33796-0.14739-0.092717-0.28148-0.20632-0.3979-0.33796zm2.4256 3.223c0.066585 0.06166 0.13657 0.12179 0.2098 0.17983 0.21968 0.17413 0.46922 0.33096 0.74981 0.46508-0.28059-0.13412-0.53013-0.29094-0.74981-0.46508-0.073328-0.058127-0.14314-0.11807-0.2098-0.17983z" fill="#000000" opacity=".8" stroke-width=".18455"/>
  </clipPath>
  <filter id="filter1018" x="-.048599" y="-.047415" width="1.0972" height="1.0948" color-interpolation-filters="sRGB">
   <feGaussianBlur stdDeviation="1.0934515"/>
  </filter>
  <clipPath id="clipPath1024">
   <path d="m32.062 18.219a14 14 0 0 0-8.4531 2.8418c0.02331 0.01927 0.04917 0.03513 0.07227 0.05469 0.41224 0.34946 0.87741 0.81518 1.8574 1.7812 1.8342 1.8065 6.5403 3.6787 6.5508 3.8984l-0.0078 0.0039c-0.04256 0.67243-2.4212 2.9902-3.252 2.9902-7.6875 1e-6 -8.9355 4.6504-8.9355 4.6504h2e-3c0.33825 3.894 3.0363 7.1036 6.3125 8.8164 0.02726 0.01326 0.05477 0.02798 0.08203 0.04102 0.05372 0.03327 0.11183 0.05571 0.16602 0.08789 0.08582 0.04165 0.17154 0.0836 0.25781 0.12305 0.2646 0.11771 0.52838 0.22713 0.79297 0.32617 1.1321 0.40032 2.3178 0.62876 3.5176 0.67774 13.475 0.63195 16.085-16.109 6.3613-20.971 0.40023-0.05216 1.2078-0.09076 1.7422-0.0625 1.9373 0.10246 3.7278 0.80875 5.1992 1.9922a14 14 0 0 0-12.266-7.252zm8.6094 25.039c-0.70907 0.2776-1.4248 0.5428-2.1582 0.76172 0.73277-0.21874 1.4477-0.4824 2.1562-0.75976a14 14 0 0 0 2e-3 -2e-3z" fill="#9a46eb" opacity=".8" stroke-linecap="round" stroke-linejoin="round" stroke-width="1.6154" style="paint-order:stroke fill markers"/>
  </clipPath>
 </defs>
 <path transform="scale(.26458)" d="m32.062 18.219a14 14 0 0 0-8.4531 2.8418c0.023305 0.019273 0.049171 0.035125 0.072266 0.054687 0.41224 0.34946 0.87741 0.81518 1.8574 1.7812 1.8342 1.8065 6.5403 3.6787 6.5508 3.8984l-0.007813 0.003906c-0.042558 0.67243-2.4212 2.9902-3.252 2.9902-7.6875 1e-6 -8.9355 4.6504-8.9355 4.6504h0.001953c0.33825 3.894 3.0363 7.1036 6.3125 8.8164 0.02726 0.013263 0.054773 0.027979 0.082032 0.041016 0.05372 0.033274 0.11183 0.055715 0.16602 0.087891 0.085817 0.041652 0.17154 0.083604 0.25781 0.12305 0.2646 0.11771 0.52838 0.22713 0.79297 0.32617 1.1321 0.40032 2.3178 0.62876 3.5176 0.67774 13.475 0.63195 16.085-16.109 6.3613-20.971 0.40023-0.05216 1.2078-0.09076 1.7422-0.0625 1.9373 0.10246 3.7278 0.80875 5.1992 1.9922a14 14 0 0 0-12.266-7.252zm8.6094 25.039c-0.70907 0.2776-1.4248 0.5428-2.1582 0.76172 0.73277-0.21874 1.4477-0.4824 2.1562-0.75976a14 14 0 0 0 0.001953-0.001954z" fill="#9a46eb" opacity=".8" stroke-linecap="round" stroke-linejoin="round" stroke-width="1.6154" style="paint-order:stroke fill markers"/>
 <path transform="scale(.26458)" d="m39.996 3.6621c-0.008935 0.007423-0.018422 0.014037-0.027344 0.021484-0.10976 0.13293-0.22064 0.26778-0.34766 0.45117 0.1374-0.19197 0.25885-0.3378 0.375-0.47266zm-24.551 8.5918c-0.31696 0.12737-0.61926 0.28734-0.90234 0.47852-0.94581 0.67504-1.8304 1.4327-2.6426 2.2637-0.92554 0.93838-1.7711 1.9537-2.5273 3.0332v0.001953c-1.7375 2.4636-2.9708 5.2451-3.627 8.1875l-0.037109 0.17969c-0.050919 0.23783-0.23424 1.4287-0.26562 1.6875 0 0.019767-0.0037806 0.038497-0.0058594 0.058593-0.23664 1.23-0.38399 2.4753-0.43945 3.7266v0.14062c0.02041 14.027 10.766 25.708 24.742 26.898 13.976 1.1903 26.541-8.507 28.934-22.328 0.045318-0.34877 0.080652-0.6927 0.12109-1.0449 0.55676-4.602-0.044442-9.2705-1.752-13.58l0.001953-0.001953c-1.1746-2.8263-3.5557-5.8769-5.4219-6.8418 1.1511 2.2294 2.3851 5.6339 2.7324 8.2324 0.003789 0.009418 0.007935 0.017912 0.011719 0.027344 0.005998 0.0181 0.011578 0.049879 0.017578 0.068359 0.91126 6.227-2.2619 12.251-7.2148 16.332-0.067932 0.048962-0.14366 0.097624-0.21289 0.14648 2.1124-4.8074 1.7709-10.282-2.4727-14.32-0.11789-0.10801-0.42568-0.36814-0.57422-0.48047-0.55435-0.9734-1.405-2.0787-2.5137-3.2051-0.008345-0.008344-0.015121-0.017042-0.023437-0.02539a13.644 13.644 0 0 0-0.003906-0.003906 13.644 13.644 0 0 0-8.084-3.6289c0.001534 0.26041 0.001239 0.52122 0.015625 0.7793-2.7118 0.18641-6.3431 1.4295-8.4785 3.1113-0.22279-0.18871-1.6038-1.3814-1.8457-1.5449-0.61603-2.1562-0.64243-4.4396-0.076171-6.6094-2.4937 1.208-4.7101 2.9207-6.5078 5.0293h-0.011719c-1.0717-1.3549-0.99693-5.8325-0.93555-6.7676zm10.441 30.863c0.12625 0.060624 0.24527 0.12561 0.375 0.18359l0.019531 0.013672c-0.13115-0.062855-0.2634-0.12747-0.39453-0.19531v-0.001953z" clip-path="url(#clipPath1024)" fill="#ff3944" filter="url(#filter1018)" stroke-width=".69753"/>
 <path d="m11.618 6.6457c0.0155 0.010894 0.02989 0.021788 0.04447 0.032682a3.894 3.894 0 0 0-0.66438-0.86645c-2.2231-2.2234-0.58262-4.821-0.30598-4.953l0.0028-0.004358c-1.7966 1.0519-2.4062 2.9993-2.4622 3.9734 0.083416-0.0061 0.1661-0.012724 0.25136-0.012724a3.6098 3.6098 0 0 1 3.134 1.8302z" fill="#ffcd34" opacity=".8" stroke-width=".18455"/>
 <path d="m11.617 6.6462c0.0393 0.029719 0.12098 0.098174 0.15217 0.12675 1.65 1.5701 1.0741 3.9624-0.52275 5.4063-1.5968 1.444-4.2145 1.9396-7.2764 0.64233 3.2672 2.6116 7.1329 1.8977 9.3315-0.49169 1.8864-2.0501 1.4075-5.1644 1.0825-6.1457-0.80906-2.0171-2.1805-2.83-3.3005-4.6003-0.05666-0.089506-0.11332-0.17919-0.16849-0.27387-0.03156-0.054034-0.05684-0.1028-0.0788-0.14764-0.04645-0.089957-0.08225-0.18503-0.10667-0.28328 7.9e-5 -0.009395-0.0069-0.017349-0.01624-0.018476-0.0044-0.001209-0.0091-0.001209-0.01347 0-9.59e-4 0-0.0024 0.001743-0.0035 0.001743-0.0011 3.6604e-4 -0.0035 0.001743-0.0051 0.002615-0.27664 0.13121-1.9624 2.7097 0.26104 4.9332 0.29333 0.298 0.51802 0.59042 0.66469 0.84796z" fill="#ff8619" opacity=".8" stroke-width=".18455"/>
 <path transform="scale(.26458)" d="m39.996 3.6621c-0.008935 0.007423-0.018422 0.014037-0.027344 0.021484-0.10976 0.13293-0.22064 0.26778-0.34766 0.45117 0.1374-0.19197 0.25885-0.3378 0.375-0.47266zm-24.551 8.5918c-0.31696 0.12737-0.61926 0.28734-0.90234 0.47852-0.94581 0.67504-1.8304 1.4327-2.6426 2.2637-0.92554 0.93838-1.7711 1.9537-2.5273 3.0332v0.001953c-1.7375 2.4636-2.9708 5.2451-3.627 8.1875l-0.037109 0.17969c-0.050919 0.23783-0.23424 1.4287-0.26562 1.6875 0 0.019766-0.0037806 0.038497-0.0058594 0.058593-0.23664 1.23-0.38399 2.4753-0.43945 3.7266v0.14062c0.02041 14.027 10.766 25.708 24.742 26.898 13.976 1.1903 26.541-8.507 28.934-22.328 0.045318-0.34877 0.080652-0.6927 0.12109-1.0449 0.55676-4.602-0.044442-9.2705-1.752-13.58l0.001953-0.001953c-1.1746-2.8263-3.5557-5.8769-5.4219-6.8418 1.1511 2.2294 2.3851 5.6339 2.7324 8.2324 0.003789 0.009418 0.007935 0.017912 0.011719 0.027344 0.005997 0.0181 0.011578 0.049879 0.017578 0.068359 0.91126 6.227-2.2619 12.251-7.2148 16.332-0.067932 0.048961-0.14366 0.097624-0.21289 0.14648 2.1124-4.8074 1.7709-10.282-2.4727-14.32-0.032523-0.029798-0.1041-0.086155-0.1582-0.13281a14 14 0 0 1 0.001953 0.003906c-1.4714-1.1834-3.2619-1.8897-5.1992-1.9922-0.53435-0.02826-1.342 0.01034-1.7422 0.0625 9.7238 4.8617 7.1141 21.603-6.3613 20.971-1.1998-0.04897-2.3855-0.27742-3.5176-0.67774-0.26459-0.09904-0.52837-0.20846-0.79297-0.32617-0.086268-0.039441-0.172-0.081394-0.25781-0.12305-0.054181-0.032176-0.1123-0.054617-0.16602-0.087891-0.027259-0.013037-0.054772-0.027753-0.082032-0.041016-3.2762-1.7128-5.9742-4.9224-6.3125-8.8164h-0.001953s1.2481-4.6504 8.9355-4.6504c0.83076 0 3.2094-2.3178 3.252-2.9902l0.007813-0.003906c-0.010475-0.21971-4.7165-2.0919-6.5508-3.8984-0.64913-0.6399-0.89886-0.86721-1.2305-1.1797-0.49763-0.42584-1.1574-0.99722-1.332-1.1152-0.61603-2.1562-0.64243-4.4396-0.076171-6.6094-2.4937 1.208-4.7101 2.9207-6.5078 5.0293h-0.011719c-1.0717-1.3549-0.99693-5.8325-0.93555-6.7676zm17.84 6.002c3.5e-5 0.005872-3.3e-5 0.011707 0 0.017579a14 14 0 0 1 2.3594 0.41211 13.644 13.644 0 0 0-2.3594-0.42969zm2.3594 0.42969a14 14 0 0 1 0.19922 0.054687 13.644 13.644 0 0 0-0.19922-0.054687zm-9.7578 24.432c0.12625 0.060623 0.24527 0.12561 0.375 0.18359l0.019531 0.013672c-0.13115-0.062855-0.2634-0.12747-0.39453-0.19531v-0.001953zm14.783 0.14258c-0.70856 0.27736-1.4235 0.54103-2.1562 0.75976 0.73264-0.21868 1.4479-0.48249 2.1562-0.75976z" fill="#ff3944" stroke-width=".69753"/>
 <path d="m15.093 5.809c-0.31078-0.74779-0.94116-1.5551-1.4349-1.8104 0.35212 0.68195 0.73492 1.7808 0.7488 2.4835-1.3123-2.791-3.0979-3.2039-3.6931-5.6214-1.195 0.90711-1.9892 2.6314-1.9031 4.1757-0.71747 0.04932-1.6782 0.37802-2.2432 0.82299-0.058945-0.049929-0.42456-0.36556-0.48856-0.40882-0.16299-0.57047-0.16993-1.1742-0.020116-1.7483-0.65979 0.31962-1.2461 0.77271-1.7217 1.3306h-0.00332c-0.28355-0.35847-0.26362-1.5433-0.24738-1.7907-0.083861 0.0337-0.16391 0.076198-0.23881 0.12678-0.25024 0.1786-0.48418 0.37901-0.69907 0.59887-0.24488 0.24828-0.46853 0.51662-0.66862 0.80223v8.715e-4 -8.715e-4c-0.45984 0.65191-0.786 1.3885-0.95964 2.1671l-0.0096 0.047237c-0.013472 0.062924-0.062008 0.37814-0.070313 0.4466 0 0.00523-0.00111 0.010371-0.00166 0.015688-0.06261 0.32542-0.10141 0.65498-0.11608 0.98604v0.036865c0.0054 3.7111 2.8481 6.8018 6.5459 7.1167 3.6978 0.31494 7.0222-2.2504 7.6551-5.9072 0.01199-0.092277 0.02178-0.18363 0.03248-0.27682 0.14731-1.2176-0.01218-2.4527-0.46395-3.5929zm-8.2438 5.5988c0.033403 0.01604 0.064777 0.03338 0.099101 0.04872l0.00499 0.0035c-0.034699-0.01663-0.069395-0.03392-0.10409-0.05187z" clip-path="url(#clipPath959)" fill="#ff3944" filter="url(#filter945)" stroke-width=".18455"/>
 <circle cx="8.483" cy="8.5244" r="3.7041" clip-path="url(#clipPath1010)" fill="#9a46eb" filter="url(#filter1004)" stroke-linecap="round" stroke-linejoin="round" stroke-width=".4274" style="paint-order:stroke fill markers"/>
 <path transform="scale(.26458)" d="m17.434 19.037c0.31498 0.013889 0.66777 0.03759 1.0723 0.078125-0.35835-0.034085-0.71356-0.064341-1.0723-0.078125zm1.5527 0.13086c0.4962 0.064342 1.0126 0.1537 1.5215 0.28125-0.49738-0.13331-1.008-0.21562-1.5215-0.28125zm1.8926 0.38672c0.082645 0.024284 0.16115 0.053575 0.24219 0.080078-0.080492-0.027764-0.16095-0.054668-0.24219-0.080078zm18.25 3.9238c-0.53435-0.02826-1.342 0.01034-1.7422 0.0625 9.7238 4.8617 7.1141 21.603-6.3613 20.971-1.1998-0.04897-2.3855-0.27742-3.5176-0.67774-0.2646-0.09904-0.52837-0.20846-0.79297-0.32617-0.086268-0.039444-0.172-0.081394-0.25781-0.12305 6.1091 3.6278 15.108 0.30699 20.418-3.4102 0.88361-2.1042 1.3088-4.2271 1.2695-6.1035-0.12692-6.0712-4.1221-10.134-9.0156-10.393zm-22.211 1.8242c-1.7126 0.068758-3.4085 0.56742-4.918 1.4922 1.1512 2.4901 3.6613 4.0697 6.4043 4.0293-0.5008 4.4195 1.836 9.5718 7.4922 12.275 0.10386 0.053738 0.20865 0.10573 0.3125 0.15625-3.2762-1.7128-5.9742-4.9224-6.3125-8.8164h-0.001953s1.2481-4.6504 8.9355-4.6504c0.83076 0 3.2094-2.3178 3.252-2.9902l0.007813-0.003906c-3.3057 1.1975-6.9489 1.0549-10.15-0.39844-1.5788-0.80079-3.3088-1.1625-5.0215-1.0938z" fill="#ffbf5c" opacity=".8" stroke-width=".69753"/>
 <circle cx="296.65" cy="5.7567" r="0" enable-background="new" fill="#d5d3cf" opacity=".8" stroke-width=".87152"/>
 <path transform="scale(.26458)" d="m32.062 18.219a14 14 0 0 0-8.4531 2.8418c0.023305 0.019273 0.049171 0.035125 0.072266 0.054687 0.41224 0.34946 0.87741 0.81518 1.8574 1.7812 1.8342 1.8065 6.5403 3.6787 6.5508 3.8984l-0.007813 0.003906c-0.042558 0.67243-2.4212 2.9902-3.252 2.9902-7.6875 1e-6 -8.9355 4.6504-8.9355 4.6504h0.001953c0.33825 3.894 3.0363 7.1036 6.3125 8.8164 0.02726 0.013263 0.054773 0.027979 0.082032 0.041016 0.05372 0.033274 0.11183 0.055715 0.16602 0.087891 0.085817 0.041652 0.17154 0.083604 0.25781 0.12305 0.2646 0.11771 0.52838 0.22713 0.79297 0.32617 1.1321 0.40032 2.3178 0.62876 3.5176 0.67774 13.475 0.63195 16.085-16.109 6.3613-20.971 0.40023-0.05216 1.2078-0.09076 1.7422-0.0625 1.9373 0.10246 3.7278 0.80875 5.1992 1.9922a14 14 0 0 0-12.266-7.252zm8.6094 25.039c-0.70907 0.2776-1.4248 0.5428-2.1582 0.76172 0.73277-0.21874 1.4477-0.4824 2.1562-0.75976a14 14 0 0 0 0.001953-0.001954z" fill="#9a46eb" opacity=".8" stroke-linecap="round" stroke-linejoin="round" stroke-width="1.6154" style="paint-order:stroke fill markers"/>
 <path transform="scale(.26458)" d="m7.3059 26.656c-1.456 4.3686-0.34882 11.133 1.2567 14.105 4.7259 8.7468 12.886 13.983 26.842 9.6224 8.7201-2.7245 12.861-10.775 12.741-16.512-0.12692-6.0712-4.1224-10.133-9.0159-10.392-0.53435-0.02826-1.3427 0.0094-1.7429 0.06156 9.7238 4.8617 7.1141 21.603-6.3613 20.971-1.1998-0.04897-2.3855-0.27742-3.5176-0.67774-0.2646-0.09904-0.52837-0.20846-0.79297-0.32617-0.1137-0.05199-0.22676-0.10696-0.33984-0.16211-0.02466-0.01586-0.06144-0.03348-0.08398-0.04883-0.02388-0.01143-0.04838-0.02356-0.07227-0.03516-3.2807-1.7115-5.9837-4.9243-6.3223-8.8223h-2e-3s1.2481-4.6504 8.9355-4.6504c0.83076 0 3.2094-2.3178 3.252-2.9902l0.0078-0.0039c-0.01047-0.21971-4.7165-2.0919-6.5508-3.8984-0.98001-0.96607-1.4452-1.4318-1.8574-1.7812-0.22274-0.18823-0.4555-0.36427-0.69727-0.52734-0.16043-0.10937-0.33971-0.22867-0.55664-0.3711-1.8289-1.0383-3.9848-1.2023-6.0371-1.209-5.4396 0.44194-7.885 4.0484-9.0847 7.648z" clip-path="url(#clipPath924)" fill="#ffa316" filter="url(#filter918)" stroke-width=".69753"/>
 <path d="m11.618 6.6457c0.0155 0.010894 0.02989 0.021788 0.04447 0.032682a3.894 3.894 0 0 0-0.66438-0.86645c-2.2231-2.2234-0.58262-4.821-0.30598-4.953l0.0028-0.004358c-1.7966 1.0519-2.4062 2.9993-2.4622 3.9734 0.083416-0.0061 0.1661-0.012724 0.25136-0.012724a3.6098 3.6098 0 0 1 3.134 1.8302z" fill="#ffcd34" opacity=".6" stroke-width=".18455"/>
 <path d="m5.9303 5.3471c0.057949 0.036865 0.10575 0.069025 0.14764 0.097994a3.316 3.316 0 0 1-0.020116-1.7483 5.2975 5.2975 0 0 0-1.7217 1.3306c0.03488-8.715e-4 1.0724-0.019522 1.5941 0.31964z" fill="#ff9633" opacity=".8" stroke-width=".18455"/>
 <path d="m11.617 6.6462c0.0393 0.029719 0.12098 0.098174 0.15217 0.12675 1.65 1.5701 1.0741 3.9624-0.52275 5.4063-1.5968 1.444-4.2145 1.9396-7.2764 0.64233 3.2672 2.6116 7.1329 1.8977 9.3315-0.49169 1.8864-2.0501 1.4075-5.1644 1.0825-6.1457-0.80906-2.0171-2.1805-2.83-3.3005-4.6003-0.05666-0.089506-0.11332-0.17919-0.16849-0.27387-0.03156-0.054034-0.05684-0.1028-0.0788-0.14764-0.04645-0.089957-0.08225-0.18503-0.10667-0.28328 7.9e-5 -0.009395-0.0069-0.017349-0.01624-0.018476-0.0044-0.001209-0.0091-0.001209-0.01347 0-9.59e-4 0-0.0024 0.001743-0.0035 0.001743-0.0011 3.6604e-4 -0.0035 0.001743-0.0051 0.002615-0.27664 0.13121-1.9624 2.7097 0.26104 4.9332 0.29333 0.298 0.51802 0.59042 0.66469 0.84796z" fill="#ff8619" opacity=".6" stroke-width=".18455"/>
 <path d="m1.3883 8.6327c0.55199 3.2617 3.5081 5.7521 6.8641 5.8471 3.1059 0.08784 5.0902-1.7152 5.91-3.4742 0.69414-1.5202 0.77388-3.2499 0.22257-4.8275v-0.00697c0-0.00523-0.0011-0.00872 0-0.00697l0.0013 0.012027c0.25375 1.6567-0.5889 3.2617-1.9062 4.3471-1.4059 1.0133-3.8785 1.9514-5.5243 0.93197-0.034687-0.01659-0.069377-0.03387-0.10407-0.05182-1.4965-0.71531-2.1148-2.0788-1.9823-3.2481-0.72574 0.010692-1.3897-0.40698-1.6943-1.0658 0.79876-0.48935 1.7942-0.52931 2.6296-0.10557 0.84704 0.38452 1.8109 0.42241 2.6855 0.10557-0.0027715-0.058131-1.2476-0.55364-1.7329-1.0316-0.25929-0.2556-0.38238-0.37869-0.49145-0.47115-0.058945-0.049929-0.12055-0.096628-0.18455-0.13989-0.042447-0.028935-0.090246-0.06031-0.14764-0.097994-0.52172-0.3392-1.5592-0.32056-1.5936-0.31963h-0.00332c-0.28345-0.35907-0.26351-1.5439-0.24728-1.7913-0.083861 0.0337-0.16391 0.076198-0.23881 0.12678-0.25024 0.1786-0.48418 0.379-0.69907 0.59886-0.24576 0.24758-0.47034 0.51531-0.67139 0.80039v8.715e-4 -8.715e-4c-0.45984 0.65191-0.786 1.3885-0.95964 2.1671-0.00351 0.014554-0.25763 1.1256-0.13232 1.7017z" fill="#ff7a52" opacity=".6" stroke-width=".18455"/>
 <circle cx="-15.774" cy="13.461" r="0" enable-background="new" fill="#d5d3cf" opacity=".8" stroke-width=".87152"/>
</svg>
