<svg width="64" height="64" xmlns="http://www.w3.org/2000/svg"><g stroke-linecap="round" stroke-linejoin="round"><path d="m8 43.998 11.999-5.333 12-9.333v-28L7.999 20z" fill="#b8a98b"/><path d="m8 19.999 23.999 18.666v24l-24-18.667z" fill="#dfcca8"/><path d="m55.998 43.998-12-5.333-12-9.333v-28l24 18.667z" fill="#ddc79b"/><path d="m55.998 19.999-24 18.666v24l24-18.667z" fill="#bbac8e"/><path d="m31.999 1.333-24 18.666 24 18.666L55.998 20zm0 4 20 14.666-20 14.666-20-14.666z" fill="#ece1cd"/><path d="M8 42.282v1.716l23.999 18.667v-1.716z" opacity=".1"/><path d="m55.998 42.282-24 18.667v1.716l24-18.667z" opacity=".1"/></g></svg>