<svg width="64" height="64" version="1.1" viewBox="0 0 16.933 16.933" xmlns="http://www.w3.org/2000/svg">
 <defs>
  <clipPath id="clipPath1143">
   <path d="m4.2327 15.875c-1.1724 0-2.1161-0.94368-2.1161-2.1161v-9.5258c0-1.1724 0.94368-2.1161 2.1161-2.1161h9.5258c1.1724 0 2.1161 0.94368 2.1161 2.1161v6.8795l-4.7624 4.7624z" fill="#f9f9f9" stroke-width="1.0005" style="paint-order:markers stroke fill"/>
  </clipPath>
  <filter id="filter1137" x="-.108" y="-.108" width="1.216" height="1.216" color-interpolation-filters="sRGB">
   <feGaussianBlur stdDeviation="0.61911718"/>
  </filter>
 </defs>
 <rect x="1.0583" y="1.0583" width="13.758" height="13.758" rx="2.1163" ry="2.1163" fill="#f68855" stroke-width="1.0005" style="paint-order:markers stroke fill"/>
 <path d="m4.2327 15.875c-1.1724 0-2.1161-0.94368-2.1161-2.1161v-9.5258c0-1.1724 0.94368-2.1161 2.1161-2.1161h9.5258c1.1724 0 2.1161 0.94368 2.1161 2.1161v6.8795l-4.7624 4.7624z" fill="#f9f9f9" stroke-width="1.0005" style="paint-order:markers stroke fill"/>
 <rect x="1.0583" y="1.0583" width="13.758" height="13.758" rx="2.1163" ry="2.1163" clip-path="url(#clipPath1143)" fill="#f68855" filter="url(#filter1137)" opacity=".35" stroke-width="1.0005" style="paint-order:markers stroke fill"/>
 <path d="m15.875 11.112-4.7624 4.7624v-2.6463c0-1.1724 0.94368-2.1161 2.1161-2.1161z" fill="#ffffff" stroke-width="1.0005" style="paint-order:markers stroke fill"/>
 <path d="m4.2332 2.9104c-0.73288 0-1.3229 0.59001-1.3229 1.3229v9.5248c0 0.73288 0.59001 1.3229 1.3229 1.3229h6.879v-0.26458h-6.879c-0.58631 0-1.0583-0.47201-1.0583-1.0583v-9.5248c0-0.58631 0.47201-1.0583 1.0583-1.0583h9.5248c0.5863 0 1.0583 0.47201 1.0583 1.0583v6.879h0.26458v-6.879c0-0.73288-0.59001-1.3229-1.3229-1.3229z" fill="#ffffff" stroke-linecap="square" stroke-width=".62413"/>
 <g transform="translate(.34812 .52402)" fill="#ffffff" aria-label="S">
  <path d="m10.898 4.8621v1.018q-0.59427-0.28421-1.1214-0.42374-0.52709-0.13952-1.018-0.13952-0.85264 0-1.3177 0.33072-0.45991 0.33072-0.45991 0.94049 0 0.51159 0.30488 0.77513 0.31005 0.25838 1.1679 0.41857l0.63044 0.12919q1.1679 0.2222 1.7208 0.78547 0.55809 0.55809 0.55809 1.4986 0 1.1214-0.75446 1.7001-0.74929 0.57876-2.2014 0.57876-0.54776 0-1.1679-0.12402-0.61494-0.12402-1.2764-0.3669v-1.0748q0.63561 0.35656 1.2454 0.53742t1.1989 0.18086q0.89398 0 1.3797-0.35139 0.48575-0.35139 0.48575-1.0025 0-0.56843-0.35139-0.88882-0.34623-0.32039-1.142-0.48058l-0.63561-0.12402q-1.1679-0.23254-1.6898-0.72862t-0.52192-1.3797q0-1.0232 0.71829-1.6123 0.72346-0.5891 1.9895-0.5891 0.54259 0 1.1059 0.098183 0.56326 0.098183 1.1524 0.29455z" fill="#ffffff" stroke-width=".26458"/>
 </g>
</svg>
