<svg width="64" height="64" version="1.1" viewBox="0 0 16.933 16.933" xmlns="http://www.w3.org/2000/svg">
 <defs>
  <filter id="filter865" x="-.108" y="-.108" width="1.216" height="1.216" color-interpolation-filters="sRGB">
   <feGaussianBlur stdDeviation="0.50005264"/>
  </filter>
 </defs>
 <path transform="scale(.26458)" d="m31.973 4.9746a27 27 0 0 0-26.973 27 27 27 0 0 0 27 27 27 27 0 0 0 27-27 27 27 0 0 0-27-27 27 27 0 0 0-0.027344 0zm-0.0625 9.0254a18 18 0 0 1 0.089844 0 18 18 0 0 1 18 18 18 18 0 0 1-12.303 17.074c-0.56401-0.08623-1-0.54613-1-1.1348v-5.1582c0-1.1199-0.51151-1.9791-1.3027-2.5332 4.535-0.70301 7.877-2.9956 7.877-7.7383 0-2.3198-0.6703-4.1772-1.8008-5.6152 0.45548-1.6284 0.40395-3.2807-0.076172-4.9512-1.6447 0-3.4902 0.89249-4.6641 1.8516-1.4475-0.45077-3.0479-0.67774-4.7324-0.67773-1.6882 0-3.2831 0.22928-4.7188 0.68359-1.1761-0.96146-3.0229-1.8574-4.6699-1.8574-0.48832 1.6997-0.54184 3.38-0.060547 5.0352-1.0718 1.4264-1.7012 3.2554-1.7012 5.5293 0 4.7426 3.2602 7.032 7.7598 7.7363-0.79239 0.55409-1.3027 1.416-1.3027 2.5371-1e-6 0-0.46473 0.29297-1.6504 0.29297-1.249 0-1.8898-0.3037-3.0449-1.7617-0.64684-0.81586-1.6757-1.7958-2.6523-1.918-0.13969-0.017685-0.27788-0.019212-0.41406 0.001953-0.15614 0.023472-0.3091 0.074082-0.45703 0.15625-0.7055 0.39092 1.736 1.0058 2.5918 3.5215 0.64216 1.8865 2.7138 2.3477 4.4512 2.3477h1.1738v2.5176c0 0.58762-0.43546 1.0472-0.99805 1.1348a18 18 0 0 1-12.305-17.074 18 18 0 0 1 17.91-18zm-5.2676 35.184a18 18 0 0 0 0.25195 0.076172 18 18 0 0 1-0.25195-0.076172zm10.516 0.060547a18 18 0 0 1-0.22656 0.066406 18 18 0 0 0 0.22656-0.066406zm-0.625 0.17578a18 18 0 0 1-0.29297 0.072266 18 18 0 0 0 0.29297-0.072266zm-8.1641 0.20898a18 18 0 0 0 0.34961 0.06836 18 18 0 0 0 0.26367 0.046875 18 18 0 0 1-0.26367-0.046875 18 18 0 0 1-0.34961-0.06836zm6.6797 0.10938a18 18 0 0 1-0.20703 0.035157 18 18 0 0 1-0.34766 0.052734 18 18 0 0 0 0.34766-0.052734 18 18 0 0 0 0.20703-0.035157zm-5.2656 0.12305a18 18 0 0 0 0.34766 0.041016 18 18 0 0 0 0.35547 0.033203 18 18 0 0 1-0.35547-0.033203 18 18 0 0 1-0.34766-0.041016z" fill="#e6e6e6" opacity=".8" stroke-width="3.7796" style="paint-order:stroke markers fill"/>
 <circle cx="8.4665" cy="8.4665" r="5.5561" fill="#333333" filter="url(#filter865)" stroke-linecap="round" stroke-linejoin="round" stroke-width=".3935" style="paint-order:stroke fill markers"/>
 <path d="m8.4591 1.0583a7.4082 7.4082 0 0 0-7.4008 7.4082 7.4082 7.4082 0 0 0 7.4082 7.4082 7.4082 7.4082 0 0 0 7.4082-7.4082 7.4082 7.4082 0 0 0-7.4082-7.4082 7.4082 7.4082 0 0 0-0.0075 0zm-0.017149 2.4764a4.9388 4.9388 0 0 1 0.024651 0 4.9388 4.9388 0 0 1 4.9388 4.9388 4.9388 4.9388 0 0 1-3.3757 4.6847c-0.15475-0.02366-0.27438-0.14985-0.27438-0.31136v-1.4153c0-0.30728-0.14035-0.54302-0.35743-0.69505 1.2443-0.19289 2.1613-0.82192 2.1613-2.1232 0-0.6365-0.18392-1.1461-0.4941-1.5407 0.12497-0.4468 0.11084-0.90015-0.0209-1.3585-0.45127 0-0.95763 0.24488-1.2797 0.50804-0.39716-0.12368-0.83627-0.18596-1.2985-0.18595-0.4632 0-0.90081 0.062909-1.2947 0.18756-0.3227-0.2638-0.82942-0.50963-1.2813-0.50963-0.13398 0.46636-0.14867 0.9274-0.016613 1.3815-0.29408 0.39137-0.46677 0.89321-0.46677 1.5171 0 1.3013 0.89452 1.9294 2.1291 2.1227-0.21741 0.15203-0.35743 0.38852-0.35743 0.69612-3e-7 0-0.12751 0.08038-0.45283 0.08038-0.3427 0-0.51852-0.08333-0.83545-0.48337-0.17748-0.22385-0.45977-0.49273-0.72773-0.52626-0.038328-0.0049-0.076244-0.0053-0.11361 5.36e-4 -0.042841 0.0064-0.08481 0.02033-0.1254 0.04287-0.19357 0.10726 0.47632 0.27597 0.71113 0.96622 0.17619 0.51761 0.74461 0.64416 1.2213 0.64416h0.32206v0.69077c0 0.16123-0.11948 0.28733-0.27384 0.31136a4.9388 4.9388 0 0 1-3.3762-4.6847 4.9388 4.9388 0 0 1 4.9141-4.9388zm-1.4453 9.6537a4.9388 4.9388 0 0 0 0.069129 0.0209 4.9388 4.9388 0 0 1-0.069129-0.0209zm2.8854 0.01661a4.9388 4.9388 0 0 1-0.06216 0.01822 4.9388 4.9388 0 0 0 0.06216-0.01822zm-0.17149 0.04823a4.9388 4.9388 0 0 1-0.080384 0.01983 4.9388 4.9388 0 0 0 0.080384-0.01983zm-2.24 0.05734a4.9388 4.9388 0 0 0 0.095925 0.01876 4.9388 4.9388 0 0 0 0.072345 0.01286 4.9388 4.9388 0 0 1-0.072345-0.01286 4.9388 4.9388 0 0 1-0.095925-0.01876zm1.8328 0.03001a4.9388 4.9388 0 0 1-0.056804 0.0096 4.9388 4.9388 0 0 1-0.09539 0.01447 4.9388 4.9388 0 0 0 0.09539-0.01447 4.9388 4.9388 0 0 0 0.056804-0.0096zm-1.4448 0.03376a4.9388 4.9388 0 0 0 0.09539 0.01125 4.9388 4.9388 0 0 0 0.097533 0.0091 4.9388 4.9388 0 0 1-0.097533-0.0091 4.9388 4.9388 0 0 1-0.09539-0.01125z" fill="#ffffff" opacity=".8" stroke-width="1.037" style="paint-order:stroke markers fill"/>
</svg>
