<svg width="64" height="64" viewBox="0 0 16.933 16.933" xmlns="http://www.w3.org/2000/svg"><rect x="1.587" y="1.587" width="13.758" height="13.758" ry=".529" fill="#fff" stroke="#000" stroke-opacity=".039" stroke-width=".496" style="paint-order:stroke markers fill"/><rect x="1.587" y="1.587" width="13.758" height="13.758" ry=".529" fill="#fff" style="paint-order:stroke markers fill"/><path d="M2.117 1.587a.528.528 0 0 0-.53.53v6.35h13.759v-6.35a.528.528 0 0 0-.53-.53h-12.7z" opacity=".06" style="paint-order:stroke markers fill"/><path d="M7.447 12.719 9.515 8H6.748v-.611h3.437v.524l-2.039 4.806z" fill="#333" font-size="7.457" font-weight="400" letter-spacing="0" word-spacing="0" aria-label="7"/><g fill="#5f8fd3" stroke-width=".069" aria-label="FRIDAY"><path d="M3.704 3.183h1.16v.23h-.887v.595h.801v.23h-.8v.964h-.274zM6.255 4.255q.088.03.17.128.084.097.168.267l.277.552h-.293l-.258-.518q-.1-.203-.195-.269-.094-.066-.256-.066h-.297v.853h-.274v-2.02h.617q.346 0 .517.146.17.144.17.436 0 .191-.089.317-.088.126-.257.174zm-.684-.848v.717h.343q.198 0 .298-.09.101-.092.101-.27 0-.177-.101-.266-.1-.09-.298-.09zM7.222 3.183h.273v2.02h-.273zM8.312 3.407v1.57h.33q.418 0 .612-.189.194-.19.194-.598 0-.405-.194-.593-.194-.19-.612-.19zm-.273-.224H8.6q.587 0 .862.245.275.243.275.762 0 .523-.276.767-.276.245-.86.245h-.562zM10.798 3.452l-.37 1.005h.742zm-.154-.27h.31l.77 2.02h-.285l-.184-.518h-.91l-.184.518h-.288zM11.526 3.183h.294l.56.83.555-.83h.294l-.714 1.058v.961h-.275v-.961z"/></g></svg>