<svg width="64" height="64" version="1.1" xmlns="http://www.w3.org/2000/svg">
 <defs>
  <filter id="filter3855" x="-.147" y="-.147" width="1.294" height="1.294" color-interpolation-filters="sRGB">
   <feGaussianBlur stdDeviation="0.6806272"/>
  </filter>
 </defs>
 <rect x="5.0004" y="5.0004" width="53.999" height="53.999" rx="12" ry="12" fill="#62a0ea" opacity=".25" stroke-width="3.7796" style="paint-order:markers stroke fill"/>
 <rect transform="scale(3.7796)" x="2.9105" y="2.9105" width="11.112" height="11.112" rx="1.5875" ry="1.5875" fill="#62a0ea" filter="url(#filter3855)" stroke-width=".77779" style="paint-order:markers stroke fill"/>
 <g stroke-width="1.4">
  <rect x="11" y="10" width="42" height="21" rx="6" ry="6" fill="#3368aa"/>
  <rect x="11" y="33" width="42" height="12.6" fill="#3368aa"/>
  <path transform="translate(0,-2)" x="27.799999" y="39.200001" width="25.200001" height="16.799999" d="m27.8 39.2h25.2v9.8a7 7 135 0 1-7 7h-18.2z" fill="#d4a782"/>
 </g>
 <rect x="11" y="15" width="25.2" height="16" fill="#d4a782" stroke-width="1.3663"/>
 <g stroke-width="1.4">
  <rect x="13.8" y="17" width="8.4" height="2.8" fill="#ead3c1"/>
  <rect x="36.2" y="19.8" width="16.8" height="11.2" fill="#b5835a"/>
  <rect x="13.8" y="21.2" width="4.2" height="1.4" fill="#ead3c1"/>
  <rect x="39" y="22.6" width="8.4" height="2.8" fill="#dac1ad"/>
  <rect x="39" y="26.8" width="4.2" height="1.4" fill="#dac1ad"/>
  <rect x="30.6" y="40" width="8.4" height="2.8" fill="#ead3c1"/>
  <path transform="translate(0,-2)" x="11" y="44.799999" width="16.799999" height="11.2" d="m11 44.8h16.8v11.2h-10.8a6 6 45 0 1-6-6z" fill="#b5835a"/>
  <rect x="30.6" y="44.2" width="4.2" height="1.4" fill="#ead3c1"/>
  <rect x="13.8" y="45.6" width="8.4" height="2.8" fill="#dac1ad"/>
  <rect x="13.8" y="49.8" width="4.2" height="1.4" fill="#dac1ad"/>
 </g>
</svg>
