<svg width="64" height="64" xmlns="http://www.w3.org/2000/svg"><defs><linearGradient id="a" x2="0" y1="543.8" y2="503.8" gradientTransform="matrix(1.3125 0 0 1.2 -504.25 -596.56)" gradientUnits="userSpaceOnUse"><stop stop-color="#e3dfd6" offset="0"/><stop stop-color="#f4f1e8" offset="1"/></linearGradient><linearGradient id="c" x1="413.57" x2="418.57" y1="528.8" y2="533.8" gradientUnits="userSpaceOnUse"><stop stop-color="#bdb49e" stop-opacity=".259" offset="0"/><stop stop-color="#bdb49e" stop-opacity="0" offset="1"/></linearGradient><linearGradient id="b" x1="414.57" x2="426.57" y1="531.8" y2="543.8" gradientUnits="userSpaceOnUse"><stop stop-color="#383e51" offset="0"/><stop stop-color="#655c6f" stop-opacity="0" offset="1"/></linearGradient></defs><rect x="8" y="5" width="48" height="54" rx="3" ry="3" fill="#5f6569"/><rect x="9" y="6" width="46" height="52" rx="2" ry="2" fill="#2a2c2f" opacity=".5"/><rect x="11" y="8" width="42" height="48" rx="1" ry="1" fill="url(#a)"/><path fill="#da4453" opacity=".4" d="M14.45 7.952h1.35v48.043h-1.35z"/><path fill="#007ad9" opacity=".4" d="M11.011 11.75H52.99v1.35H11.011z"/><path d="M21.2 18.5v2.7h.01l6.2 10.731-6.21 10.753V45.5h21.6v-5.4h-2.7v2.7H24.254l6.272-10.867v-.003L24.33 21.2H37.4v1.35h2.7V18.5H22.773z" fill="#bdb49e"/><g fill-rule="evenodd" stroke-width=".741"><path d="M52.94 41.81 40.79 53.96V41.81z" fill="#ebebeb"/><path d="m415.57 539.8 4 4h7v-11l-2-2z" fill="url(#b)" opacity=".2" transform="matrix(1.35 0 0 1.35 -520.23 -674.77)"/><path d="M416.57 531.8v7l7-7z" fill="url(#c)" transform="matrix(1.35 0 0 1.35 -520.23 -674.77)"/></g></svg>