<svg width="64" height="64" xmlns="http://www.w3.org/2000/svg"><g transform="matrix(1.3 0 0 1.3 .8 .8)" stroke-width=".769"><rect x="4.769" y="4.769" width="38.462" height="38.462" rx="1.241" ry="1.166" fill="#33393e"/><g stroke-width="0" transform="rotate(-90)"><rect x="-16" y="18" width="12" height="12" rx="1" ry="1" fill="#d64239"/><rect x="-16" y="32" width="12" height="12" rx="1" ry="1" fill="#ffb345"/><rect x="-16" y="4" width="12" height="12" rx="1" ry="1" fill="#467fab"/><rect x="-30" y="32" width="12" height="12" rx="1" ry="1" fill="#d64239"/><rect x="-30" y="4" width="12" height="12" rx="1" ry="1" fill="#467fab"/><rect x="-44" y="4" width="12" height="12" rx="1" ry="1" fill="#d64239"/><rect x="-44" y="32" width="12" height="12" rx="1" ry="1" fill="#ffb345"/><rect x="-44" y="18" width="12" height="12" rx="1" ry="1" fill="#467fab"/><rect x="-30" y="18" width="12" height="12" rx="1" ry="1" fill="#ffb345"/></g></g></svg>