<svg width="64" height="64" version="1.1" viewBox="0 0 16.933 16.933" xmlns="http://www.w3.org/2000/svg">
 <defs>
  <filter id="filter849" x="-.077143" y="-.18" width="1.1543" height="1.36" color-interpolation-filters="sRGB">
   <feGaussianBlur stdDeviation="0.47624063"/>
  </filter>
  <clipPath id="clipPath855">
   <path d="m9.273 4.233-1.613 0.244v5.834l1.613-0.433v-2.254l1.612 2.657 1.613-0.605-2.016-2.419 2.017-2.62-1.565-0.404-1.661 2.644zm-3.284 1.582a0.15 0.15 0 0 0-0.106 0.044l-0.633 0.634c-0.059 0.059-0.045 0.142 0 0.212l0.655 1.03c-0.048 0.1-0.09 0.205-0.125 0.311l-6e-3 0.012999-1.19 0.265c-0.08 0.017999-0.15 0.067-0.15 0.15v0.792c0 0.082 0.07 0.131 0.15 0.15l1.19 0.264 0.010001 0.023c0.034 0.103 0.075 0.204 0.122 0.302l-0.656 1.03c-0.045 0.07-0.059 0.153 0 0.211l0.633 0.634a0.149 0.149 0 0 0 0.212 0l1.028-0.655c0.101 0.05 0.205 0.092 0.312 0.128 7e-3 2e-3 0.012999 6e-3 0.019999 9e-3l0.264 1.189c0 0.082 0.067 0.15 0.15 0.15h0.895c0.083 0 0.132-0.07 0.15-0.15l0.263-1.226c0.122-0.045 0.24-0.1 0.352-0.163l1.004 0.718a0.149 0.149 0 0 0 0.211 0l0.634-0.633c0.059-0.059 0.045-0.142 0-0.212l-0.382-0.58-0.04 0.015a0.202 0.202 0 0 1-0.243-0.084l-0.402-0.662a2.218 2.218 0 0 1-4.264-0.854c0-0.94 0.586-1.741 1.411-2.064v-0.442l-3e-3 0.014999c-9e-3 3e-3 -0.016999 8e-3 -0.026 0.010001a2.622 2.622 0 0 0-0.308 0.125l-1.026-0.654a0.149 0.149 0 0 0-0.106-0.045z" fill="#ffffff"/>
  </clipPath>
  <radialGradient id="radialGradient879" cx="8.4665" cy="12.171" r="7.4082" gradientTransform="matrix(1 0 0 .42857 0 6.0705)" gradientUnits="userSpaceOnUse">
   <stop stop-color="#0066c2" offset="0"/>
   <stop stop-color="#2c9bff" stop-opacity=".99738" offset="1"/>
  </radialGradient>
 </defs>
 <g transform="translate(0 .090377)">
  <path d="m8.3772 8.1118a7.4082 3.1749 0 1 1 0 6.3494 7.4082 3.1749 0 0 1 0-6.3494z" fill="url(#radialGradient879)" stroke-width=".65375"/>
  <path d="m9.273 3.3489-1.613 0.244v5.834l1.613-0.433v-2.254l1.612 2.657 1.613-0.605-2.016-2.419 2.017-2.62-1.565-0.404-1.661 2.644zm-3.284 1.582a0.15 0.15 0 0 0-0.106 0.044l-0.633 0.634c-0.059 0.059-0.045 0.142 0 0.212l0.655 1.03c-0.048 0.1-0.09 0.205-0.125 0.311l-6e-3 0.013-1.19 0.265c-0.08 0.018-0.15 0.067-0.15 0.15v0.792c0 0.082 0.07 0.131 0.15 0.15l1.19 0.264 0.01 0.023c0.034 0.103 0.075 0.204 0.122 0.302l-0.656 1.03c-0.045 0.07-0.059 0.153 0 0.211l0.633 0.634a0.149 0.149 0 0 0 0.212 0l1.028-0.655c0.101 0.05 0.205 0.092 0.312 0.128 7e-3 2e-3 0.013 6e-3 0.02 9e-3l0.264 1.189c0 0.082 0.067 0.15 0.15 0.15h0.895c0.083 0 0.132-0.07 0.15-0.15l0.263-1.226c0.122-0.045 0.24-0.1 0.352-0.163l1.004 0.718a0.149 0.149 0 0 0 0.211 0l0.634-0.633c0.059-0.059 0.045-0.142 0-0.212l-0.382-0.58-0.04 0.015a0.202 0.202 0 0 1-0.243-0.084l-0.402-0.662a2.218 2.218 0 0 1-4.264-0.854c0-0.94 0.586-1.741 1.411-2.064v-0.442l-3e-3 0.015c-9e-3 3e-3 -0.017 8e-3 -0.026 0.01a2.622 2.622 0 0 0-0.308 0.125l-1.026-0.654a0.149 0.149 0 0 0-0.106-0.045z" fill="#f9f9f9"/>
  <path transform="translate(0 -.88408)" d="m8.3772 8.9959a7.4082 3.1749 0 1 1 0 6.3494 7.4082 3.1749 0 0 1 0-6.3494z" clip-path="url(#clipPath855)" fill="#2c9bff" filter="url(#filter849)" opacity=".35" stroke-width=".65375"/>
 </g>
</svg>
