<svg width="64" height="64" viewBox="0 0 16.933 16.933" xmlns="http://www.w3.org/2000/svg"><defs><radialGradient id="a" cx="8.466" cy="12.171" r="7.408" gradientTransform="matrix(1 0 0 .42857 0 6.07)" gradientUnits="userSpaceOnUse"><stop stop-color="#0066c2" offset="0"/><stop stop-color="#2c9bff" stop-opacity=".997" offset="1"/></radialGradient><clipPath id="b"><path d="m9.273 4.233-1.613.244v5.834l1.613-.433V7.624l1.612 2.657 1.613-.605-2.016-2.419 2.017-2.62-1.565-.404-1.661 2.644zM5.989 5.815a.15.15 0 0 0-.106.044l-.633.634c-.059.059-.045.142 0 .212l.655 1.03c-.048.1-.09.205-.125.311l-.006.013-1.19.265c-.08.018-.15.067-.15.15v.792c0 .082.07.131.15.15l1.19.264.01.023c.034.103.075.204.122.302l-.656 1.03c-.045.07-.059.153 0 .211l.633.634a.149.149 0 0 0 .212 0l1.028-.655c.101.05.205.092.312.128.007.002.013.006.02.009l.264 1.189c0 .082.067.15.15.15h.895c.083 0 .132-.07.15-.15l.263-1.226c.122-.045.24-.1.352-.163l1.004.718a.149.149 0 0 0 .211 0l.634-.633c.059-.059.045-.142 0-.212l-.382-.58-.04.015a.202.202 0 0 1-.243-.084l-.402-.662a2.218 2.218 0 0 1-4.264-.854c0-.94.586-1.741 1.411-2.064v-.442l-.003.015c-.009.003-.017.008-.026.01a2.622 2.622 0 0 0-.308.125L6.095 5.86a.149.149 0 0 0-.106-.045z" fill="#fff"/></clipPath><filter id="c" x="-.077" y="-.18" width="1.154" height="1.36" color-interpolation-filters="sRGB"><feGaussianBlur stdDeviation=".476"/></filter></defs><path d="M8.377 8.112a7.408 3.175 0 1 1 0 6.35 7.408 3.175 0 0 1 0-6.35z" fill="url(#a)" transform="translate(0 .09)"/><path d="m9.273 3.44-1.613.243v5.834l1.613-.433V6.83l1.612 2.657 1.613-.605-2.016-2.419 2.017-2.62-1.565-.404-1.661 2.644zM5.989 5.02a.15.15 0 0 0-.106.044L5.25 5.7c-.059.06-.045.142 0 .212l.655 1.03c-.048.1-.09.205-.125.311l-.006.013-1.19.265c-.08.018-.15.067-.15.15v.792c0 .082.07.131.15.15l1.19.264.01.023c.034.103.075.204.122.302l-.656 1.03c-.045.07-.059.153 0 .211l.633.634a.149.149 0 0 0 .212 0l1.028-.655c.101.05.205.092.312.128.007.002.013.006.02.01l.264 1.188c0 .082.067.15.15.15h.895c.083 0 .132-.07.15-.15l.263-1.226c.122-.045.24-.1.352-.163l1.004.718a.149.149 0 0 0 .211 0l.634-.633c.059-.059.045-.142 0-.212l-.382-.58-.04.015a.202.202 0 0 1-.243-.084l-.402-.662a2.218 2.218 0 0 1-4.264-.854c0-.94.586-1.74 1.411-2.064V5.57l-.003.015c-.009.003-.017.008-.026.01a2.622 2.622 0 0 0-.308.125l-1.026-.654a.149.149 0 0 0-.106-.045z" fill="#f9f9f9"/><path transform="translate(0 -.794)" d="M8.377 8.996a7.408 3.175 0 1 1 0 6.35 7.408 3.175 0 0 1 0-6.35z" clip-path="url(#b)" fill="#2c9bff" filter="url(#c)" opacity=".35"/></svg>