<svg width="64" height="64" xmlns="http://www.w3.org/2000/svg"><g transform="translate(-.413 -.413) scale(1.3505)" color="#000" stroke-linejoin="round" stroke-width="2.221"><circle transform="rotate(15)" cx="29.394" cy="16.971" r="15" fill="#c0c7c7"/><path d="M21.952 43.884a20 20 0 0 0 4.097.006l.475-3.1a17 17 0 0 0 3.687-.986l1.956 2.441a20 20 0 0 0 3.55-2.053L34.58 37.28a17 17 0 0 0 2.71-2.696l2.893 1.127a20 20 0 0 0 2.05-3.553l-2.422-1.941a17 17 0 0 0 .609-1.818 17 17 0 0 0 .37-1.877l3.093-.475a20 20 0 0 0 .006-4.097l-3.1-.475a17 17 0 0 0-.985-3.687l2.44-1.956a20 20 0 0 0-2.053-3.55L37.28 13.42a17 17 0 0 0-2.695-2.71l1.127-2.893a20 20 0 0 0-3.553-2.05l-1.94 2.422a17 17 0 0 0-1.82-.609 17 17 0 0 0-1.877-.369l-.473-3.094a20 20 0 0 0-4.097-.006l-.477 3.1a17 17 0 0 0-3.687.986l-1.956-2.44a20 20 0 0 0-3.549 2.053l1.135 2.911a17 17 0 0 0-2.71 2.695l-2.893-1.128a20 20 0 0 0-2.05 3.554l2.422 1.94a17 17 0 0 0-.609 1.82 17 17 0 0 0-.369 1.876l-3.094.475a20 20 0 0 0-.006 4.097l3.1.475a17 17 0 0 0 .986 3.687l-2.441 1.956a20 20 0 0 0 2.053 3.55l2.911-1.136a17 17 0 0 0 2.696 2.71l-1.127 2.893a20 20 0 0 0 3.553 2.05l1.941-2.422a17 17 0 0 0 1.818.609 17 17 0 0 0 1.877.369zm-1.575-6.36a14 14 0 0 1-9.9-17.147 14 14 0 0 1 17.146-9.9 14 14 0 0 1 9.9 17.147 14 14 0 0 1-17.146 9.9" fill="#d9dddd"/></g><g stroke-linecap="round" transform="scale(-1.3505) rotate(15 -1.009 1.313)" color="#000" stroke-linejoin="round" stroke-width="2.221"><circle cx="-29.394" cy="-16.971" r="13" fill="#377b52"/><circle cx="-29.394" cy="-16.971" r="12" fill="#4abd7e"/></g><path d="m19.845 37.401 5.402 5.402 2.7-8.103z" fill="#fff" fill-rule="evenodd"/></svg>