<svg width="64" height="64" xmlns="http://www.w3.org/2000/svg"><defs><linearGradient id="a" x1="48" x2="48" y1="60" y2="31" gradientUnits="userSpaceOnUse"><stop offset="0"/><stop stop-opacity="0" offset="1"/></linearGradient></defs><g transform="translate(0 -1058.5)"><rect x="8" y="1062.5" width="48" height="56" rx="3" ry="3" fill="#eceff1"/><path d="M16 1070.5v2h9v-2h-9zm0 4v2h22v-2H16zm0 6v2h31v-2H16zm0 4v2h31v-2H16zm0 4v2h31v-2H16zm0 6v2h31v-2H16zm0 4v2h31v-2H16zm0 4v2h15v-2H16zm24 7v2h7v-2h-7z" fill="#90a4ae"/><path transform="translate(0 1058.5)" d="M56 30.578A50.669 50.669 0 0 1 31.807 60H53c1.662 0 3-1.338 3-3V30.578z" fill="url(#a)" opacity=".15"/><path d="M47 1087.5a10 10 0 0 0-10 10 10 10 0 0 0 10 10h7c1.662 0 3-1.338 3-3v-7a10 10 0 0 0-10-10z" fill="#546e7a"/><circle cx="55" cy="1105.5" fill="#37474f"/><circle transform="scale(-1 1)" cx="-47" cy="1097.5" fill="#eceff1"/><circle transform="scale(-1 1)" cx="-47" cy="1097.5" fill="#d0eaf6"/><path d="M42.111 1092.5a7 7 0 0 0-2.033 4H49v-4H42.11zM40.08 1098.5a7 7 0 0 0 2.023 4H49v-4h-8.92z" fill="#8ab1c3"/></g></svg>