<svg width="64" height="64" viewBox="0 0 16.933 16.933" xmlns="http://www.w3.org/2000/svg"><defs><linearGradient id="a" x2="0" y1="542.8" y2="504.8" gradientTransform="matrix(.35796 0 0 .38099 -138.05 -190.74)" gradientUnits="userSpaceOnUse"><stop stop-color="#95a5a6" offset="0"/><stop stop-color="#8b9e9a" offset="1"/></linearGradient></defs><path d="M2.117 1.587v9.525h12.17V1.588z" fill="url(#a)" opacity=".5"/><path d="M2.646 2.117v8.73h11.112v-8.73z" fill="#edeeef"/><path fill="#aeaeae" d="M3.201 5.159h.714v.357h-.714zM4.273 5.159h1.071v.357H4.273zM5.702 5.159h1.786v.357H5.702zM3.201 5.874H4.63v.357H3.201zM4.987 5.874h.714v.357h-.714zM3.201 7.302h.714v.357h-.714zM4.273 7.302h1.071v.357H4.273zM3.201 8.017h.714v.357h-.714zM4.273 8.017h1.786v.357H4.273zM6.416 8.017h1.071v.357H6.416zM3.201 9.445h2.143v.357H3.201zM5.702 9.445h1.071v.357H5.702zM3.201 10.16h1.786v.357H3.201zM5.345 10.16h1.786v.357H5.345zM8.559 5.159h.714v.357h-.714zM9.631 5.159h1.071v.357H9.631zM11.059 5.159h1.786v.357h-1.786zM8.559 5.874h1.429v.357H8.559zM10.345 5.874h.714v.357h-.714zM8.559 7.302h.714v.357h-.714zM8.559 8.017h.714v.357h-.714zM9.631 8.017h1.786v.357H9.631zM11.774 8.017h1.071v.357h-1.071zM8.559 9.445h2.143v.357H8.559zM8.559 10.16h1.786v.357H8.559zM10.702 10.16h1.786v.357h-1.786z"/><path d="M1.058 10.583v5.292h14.287v-5.292z" fill="#d6dadc"/><path d="M3.175 3.704v.53h4.498v-.53zm7.5 7.858-2.5 1.429 2.5 1.443v-.73h3.572v-1.428h-3.571z" fill="#286da8"/><path d="M8.586 3.704v.53h4.643v-.53zm-2.858 8.572v.715H2.156v1.428h3.572v.73l2.5-1.444z" fill="#12b78c"/></svg>