<svg width="64" height="64" viewBox="0 0 16.933 16.933" xmlns="http://www.w3.org/2000/svg"><defs><linearGradient id="a" x1="388.57" x2="428.57" y1="528.79" y2="528.79" gradientTransform="matrix(1.3 0 0 1.3 -499.14 -648.92)" gradientUnits="userSpaceOnUse"><stop stop-color="#9c6d42" offset="0"/><stop stop-color="#9c6d42" stop-opacity="0" offset="1"/></linearGradient><clipPath id="b"><rect x="1.587" y="1.587" width="13.758" height="13.758" ry=".794" fill="#71c947"/></clipPath></defs><g><path d="M13.626 1.588v1.72h1.72V2.38a.792.792 0 0 0-.794-.793h-.926z" fill="#45a943"/><path d="M2.381 1.588a.792.792 0 0 0-.793.793v12.17c0 .44.354.795.793.795h12.17c.44 0 .795-.354.795-.794V2.382a.792.792 0 0 0-.794-.794H2.382z" fill="#76bd74"/><path d="M1.588 8.467v6.085c0 .44.354.794.793.794h6.086v-6.88h-6.88z" fill="#5bb059"/><path d="M1.588 13.626v.926c0 .44.354.794.793.794h.926v-1.72h-1.72z" fill="#8f6335"/><rect x="3.307" y="13.626" width="1.72" height="1.72" ry="0" fill="#a2703c"/><rect x="5.027" y="13.626" width="1.72" height="1.72" ry="0" fill="#875d32"/><rect x="6.747" y="13.626" width="1.72" height="1.72" ry="0" fill="#b77939"/><rect x="8.466" y="13.626" width="1.72" height="1.72" ry="0" fill="#956837"/><rect x="10.186" y="13.626" width="1.72" height="1.72" ry="0" fill="#a2703c"/><rect x="11.906" y="13.626" width="1.72" height="1.72" ry="0" fill="#956837"/><path d="M13.626 13.626v1.72h.926c.44 0 .794-.354.794-.794v-.926h-1.72z" fill="#a2703c"/><rect x="1.587" y="11.906" width="1.72" height="1.72" ry="0" fill="#a2703c"/><rect x="3.307" y="11.906" width="1.72" height="1.72" ry="0" fill="#946f2d"/><rect x="5.027" y="11.906" width="1.72" height="1.72" ry="0" fill="#8f6335"/><rect x="6.747" y="11.906" width="1.72" height="1.72" ry="0" fill="#aa7034"/><rect x="8.466" y="11.906" width="1.72" height="1.72" ry="0" fill="#956837"/><rect x="10.186" y="11.906" width="1.72" height="1.72" ry="0" fill="#8f6335"/><rect x="11.906" y="11.906" width="1.72" height="1.72" ry="0" fill="#8f6335"/><rect x="13.626" y="11.906" width="1.72" height="1.72" ry="0" fill="#ac7740"/><rect x="1.587" y="10.186" width="1.72" height="1.72" ry="0" fill="#a36b30"/><rect x="3.307" y="10.186" width="1.72" height="1.72" ry="0" fill="#a2703c"/><rect x="5.027" y="10.186" width="1.72" height="1.72" ry="0" fill="#7c502e"/><rect x="6.747" y="10.186" width="1.72" height="1.72" ry="0" fill="#a2703c"/><rect x="8.466" y="10.186" width="1.72" height="1.72" ry="0" fill="#bc844a"/><rect x="10.186" y="10.186" width="1.72" height="1.72" ry="0" fill="#a2703c"/><rect x="11.906" y="10.186" width="1.72" height="1.72" ry="0" fill="#866b3b"/><rect x="13.626" y="10.186" width="1.72" height="1.72" ry="0" fill="#a2703c"/><rect x="1.587" y="8.466" width="1.72" height="1.72" ry="0" fill="#a2703c"/><rect x="3.307" y="8.466" width="1.72" height="1.72" ry="0" fill="#956837"/><rect x="5.027" y="8.466" width="1.72" height="1.72" ry="0" fill="#a36b30"/><rect x="6.747" y="8.466" width="1.72" height="1.72" ry="0" fill="#ab7033"/><rect x="8.466" y="8.466" width="1.72" height="1.72" ry="0" fill="#8f6335"/><rect x="10.186" y="8.466" width="1.72" height="1.72" ry="0" fill="#845531"/><rect x="11.906" y="8.466" width="1.72" height="1.72" ry="0" fill="#a2703c"/><rect x="13.626" y="8.466" width="1.72" height="1.72" ry="0" fill="#ac7740"/><path d="M2.381 1.588a.792.792 0 0 0-.793.793v6.086h6.879v-6.88H2.38z" fill="#5bb059"/><rect x="1.587" y="6.747" width="1.72" height="1.72" ry="0" fill="#3fa13d"/><rect x="3.307" y="6.747" width="1.72" height="1.72" ry="0" fill="#674726"/><rect x="5.027" y="6.747" width="1.72" height="1.72" ry="0" fill="#a36b30"/><rect x="6.747" y="6.747" width="1.72" height="1.72" ry="0" fill="#977047"/><rect x="8.466" y="6.747" width="1.72" height="1.72" ry="0" fill="#a36b30"/><rect x="10.186" y="6.747" width="1.72" height="1.72" ry="0" fill="#3b843a"/><rect x="11.906" y="6.747" width="1.72" height="1.72" ry="0" fill="#b17a41"/><rect x="13.626" y="6.747" width="1.72" height="1.72" ry="0" fill="#a2703c"/><rect x="1.587" y="5.027" width="1.72" height="1.72" ry="0" fill="#4eb84b"/><rect x="3.307" y="5.027" width="1.72" height="1.72" ry="0" fill="#956837"/><rect x="5.027" y="5.027" width="1.72" height="1.72" ry="0" fill="#7c502e"/><rect x="6.747" y="5.027" width="1.72" height="1.72" ry="0" fill="#50a85f"/><rect x="8.466" y="5.027" width="1.72" height="1.72" ry="0" fill="#43c340"/><rect x="10.186" y="5.027" width="1.72" height="1.72" ry="0" fill="#3b843a"/><rect x="11.906" y="5.027" width="1.72" height="1.72" ry="0" fill="#9b783a"/><rect x="13.626" y="5.027" width="1.72" height="1.72" ry="0" fill="#377c36"/><rect x="1.587" y="3.307" width="1.72" height="1.72" ry="0" fill="#499648"/><rect x="3.307" y="3.307" width="1.72" height="1.72" ry="0" fill="#45a943"/><rect x="5.027" y="3.307" width="1.72" height="1.72" ry="0" fill="#3b843a"/><rect x="6.747" y="3.307" width="1.72" height="1.72" ry="0" fill="#4eb84b"/><rect x="8.466" y="3.307" width="1.72" height="1.72" ry="0" fill="#499648"/><rect x="10.186" y="3.307" width="1.72" height="1.72" ry="0" fill="#45a943"/><rect x="11.906" y="3.307" width="1.72" height="1.72" ry="0" fill="#3ca33b"/><rect x="13.626" y="3.307" width="1.72" height="1.72" ry="0" fill="#499648"/><path d="M2.381 1.588a.792.792 0 0 0-.793.793v.926h1.72v-1.72H2.38z" fill="#3eb13b"/><rect x="3.307" y="1.587" width="1.72" height="1.72" ry="0" fill="#499648"/><rect x="5.027" y="1.587" width="1.72" height="1.72" ry="0" fill="#548b53"/><rect x="6.747" y="1.587" width="1.72" height="1.72" ry="0" fill="#3b843a"/><rect x="8.466" y="1.587" width="1.72" height="1.72" ry="0" fill="#3b843a"/><rect x="10.186" y="1.587" width="1.72" height="1.72" ry="0" fill="#499648"/><rect x="11.906" y="1.587" width="1.72" height="1.72" ry="0" fill="#46b044"/><path transform="scale(.26458)" d="m25.508 18.98-12.998.014-.012 13.004L6 32.002V55c0 1.661 1.338 3 3 3h46c1.662 0 3-1.339 3-3V25.5l-6.504-.006v-6.496H45V32h-6.506l.002-6.514-12.996.012.008-6.518z" fill="url(#a)"/><path d="M2.37 1.589a.791.791 0 0 0-.782.792v6.087l1.719-.002V5.028l1.719.01 1.721-.012-.002 1.72h3.438l.001 1.721 1.722-.001V5.029l1.72-.003-.002 1.72h1.721v-4.37a.791.791 0 0 0-.783-.787H2.371z" fill="#51c164" fill-opacity=".87"/></g><path clip-path="url(#b)" fill="none" d="M1.587 1.587h13.758v13.758H1.587z"/><path fill="none" d="M1.587 1.587h13.758v13.758H1.587z"/></svg>