<svg width="64" height="64" xmlns="http://www.w3.org/2000/svg"><defs><linearGradient id="a" x1="13.229" x2="2.117" y1="297" y2="280.07" gradientTransform="matrix(4.0495 0 0 3.7796 -2.287 -1058.6)" gradientUnits="userSpaceOnUse"><stop stop-color="#66bcff" offset="0"/><stop stop-color="#b29aff" offset="1"/></linearGradient></defs><path d="M3.001 9h58.002c.552 0 .998.445.998.997v44.002a.998.998 0 0 1-.998 1.002H3.001a.998.998 0 0 1-1.002-1.002V9.997a.998.998 0 0 1 1.002-.998z" fill="url(#a)" style="paint-order:stroke markers fill"/><path d="M15.002 51.04c-1.108 0-2 .892-2 2v2.01h38v-2.01c0-1.108-.892-2-2-2z" fill="#fff" opacity=".35" style="paint-order:stroke markers fill"/><rect x="5.998" y="9.997" width="3.999" height="1.999" ry="1.002" opacity=".35" style="paint-order:stroke markers fill"/><rect x="27.001" y="9.997" width="10.001" height="1.999" ry="1.002" opacity=".35" style="paint-order:stroke markers fill"/><rect x="57" y="9.997" width="1.999" height="1.999" ry="1.002" opacity=".35" style="paint-order:stroke markers fill"/><rect x="53.001" y="9.997" width="3.001" height="1.999" ry="1.002" opacity=".35" style="paint-order:stroke markers fill"/><rect x="50" y="9.997" width="1.999" height="1.999" ry="1.002" opacity=".35" style="paint-order:stroke markers fill"/><g transform="scale(3.7796)" fill="#ccdfff"><rect x="4.498" y="12.7" width="1.323" height="1.323" ry=".132" style="paint-order:stroke markers fill"/><rect x="6.703" y="12.7" width="1.323" height="1.323" ry=".132" style="paint-order:stroke markers fill"/><rect x="8.908" y="12.7" width="1.323" height="1.323" ry=".132" style="paint-order:stroke markers fill"/><rect x="11.113" y="12.7" width="1.323" height="1.323" ry=".132" style="paint-order:stroke markers fill"/></g><path d="M3.001 9a.998.998 0 0 0-1.002 1v2.998H62v-2.997a.998.998 0 0 0-.997-1.002z" opacity=".35" style="paint-order:stroke markers fill"/><g transform="translate(3.977 .981)"><ellipse transform="rotate(4.856) skewX(-.017)" cx="51.929" cy="43.781" rx="12" ry="12.001" fill="#666"/><rect x="40.023" y="46.019" width="5" height="4" ry="1" fill="#fff" fill-rule="evenodd"/><path d="m46.023 43.019-3 3v4l3 3z" fill="#fff"/><path d="M53.162 41.447c-.545-.428-1.139.224-.684.732a8 8 0 0 1 2.545 5.84 8 8 0 0 1-2.554 5.852c-.446.471.18 1.148.677.728a9 9 0 0 0 2.877-6.58 9 9 0 0 0-2.861-6.572z" fill="#fff" fill-rule="evenodd"/><path d="M50.798 42.908c-.587-.535-1.199.225-.684.732a6 6 0 0 1 1.909 4.379 6 6 0 0 1-1.916 4.389c-.469.446.173 1.146.68.728a7 7 0 0 0 2.236-5.117 7 7 0 0 0-2.225-5.111z" fill="#fff" fill-rule="evenodd"/><path d="M48.433 44.369c-.52-.494-1.155.22-.683.73a4 4 0 0 1 1.273 2.92 4 4 0 0 1-1.277 2.926c-.473.43.14 1.152.68.73a5 5 0 0 0 1.597-3.656 5 5 0 0 0-1.59-3.65z" fill="#fff" fill-rule="evenodd"/></g></svg>