<svg width="64" height="64" image-rendering="optimizeSpeed" xmlns="http://www.w3.org/2000/svg"><rect x="6" y="6" width="52" height="52" rx="8" ry="8" fill="#f2f2f2"/><g transform="translate(0 -1)"><rect x="19" y="15.001" width="8" height="36" rx="2" ry="2" fill="#eb6447" style="paint-order:stroke fill markers"/><rect x="37" y="15.001" width="8" height="36" rx="2" ry="2" fill="#68d65c" style="paint-order:stroke fill markers"/><rect x="19" y="25.001" width="8" height="18" rx="0" ry="0" opacity=".35" style="paint-order:stroke fill markers"/><rect x="37" y="25.001" width="8" height="18" rx="0" ry="0" opacity=".15" style="paint-order:stroke fill markers"/><rect x="37" y="25.001" width="8" height="18" rx="0" ry="0" opacity=".35" style="paint-order:stroke fill markers"/><rect x="13" y="15.001" width="2" height="36" rx="1" ry="1" opacity=".15" style="paint-order:stroke fill markers"/><rect x="31" y="15.001" width="2" height="36" rx="1" ry="1" opacity=".15" style="paint-order:stroke fill markers"/><rect x="49" y="15.001" width="2" height="36" rx="1" ry="1" opacity=".15" style="paint-order:stroke fill markers"/><rect x="12" y="34.001" width="4" height="8" rx="1" ry=".889" fill="gray" style="paint-order:stroke fill markers"/><rect x="30" y="23.001" width="4" height="8" rx="1" ry=".889" fill="gray" style="paint-order:stroke fill markers"/><rect x="48" y="30.001" width="4" height="8" rx="1" ry=".889" fill="gray" style="paint-order:stroke fill markers"/></g></svg>