<svg width="64" height="64" viewBox="0 0 16.933 16.933" xmlns="http://www.w3.org/2000/svg"><g transform="translate(0 -280.07)"><rect x="2.117" y="282.71" width="8.996" height="8.996" rx=".529" ry=".529" fill="none" opacity=".15" stroke="#000" stroke-width=".265" paint-order="stroke markers fill"/><rect x="2.117" y="282.71" width="8.996" height="8.996" rx=".529" ry=".529" fill="#fff" paint-order="stroke markers fill"/><path d="M6.615 290.39c1.537 0 2.615-1.228 2.615-3.192 0-1.963-1.078-3.158-2.615-3.158-1.538 0-2.615 1.195-2.615 3.158 0 1.964 1.077 3.192 2.615 3.192zm0-.677c-1.103 0-1.822-.986-1.822-2.515 0-1.537.719-2.481 1.822-2.481 1.094 0 1.821.944 1.821 2.481 0 1.53-.727 2.515-1.821 2.515z" fill="#ccc" stroke-width=".265" aria-label="O"/><rect x="6.35" y="286.42" width="8.996" height="8.996" rx=".529" ry=".529" fill="#5596ff" paint-order="stroke markers fill"/><path d="M8.709 293.98h1.955c1.37 0 2.322-.593 2.322-1.796 0-.836-.518-1.32-1.253-1.462v-.042c.577-.184.902-.719.902-1.329 0-1.077-.86-1.495-2.105-1.495H8.709zm.777-3.518v-1.996h.944c.952 0 1.445.267 1.445.986 0 .618-.426 1.01-1.479 1.01zm0 2.9v-2.306h1.069c1.07 0 1.67.342 1.67 1.103 0 .827-.617 1.203-1.67 1.203z" fill="#fff" stroke-width=".265" aria-label="B"/></g></svg>