<svg width="64" height="64" version="1.1" viewBox="0 0 64 64" xmlns="http://www.w3.org/2000/svg" xmlns:xlink="http://www.w3.org/1999/xlink">
 <defs>
  <radialGradient id="radial0" cx="134.2" cy="222.99" r="2" gradientTransform="matrix(6 0 0 6 -773.2 -1327.9)" gradientUnits="userSpaceOnUse">
   <stop stop-color="rgb(100%,100%,100%)" offset="0"/>
   <stop stop-color="rgb(100%,100%,100%)" offset=".4"/>
   <stop stop-color="rgb(96.470588%,96.078432%,95.686275%)" offset="1"/>
  </radialGradient>
  <radialGradient id="radial1" cx="134.2" cy="222.99" r="2" gradientTransform="matrix(6 0 0 6 -790.2 -1295.9)" gradientUnits="userSpaceOnUse">
   <stop stop-color="rgb(100%,100%,100%)" offset="0"/>
   <stop stop-color="rgb(100%,100%,100%)" offset=".4"/>
   <stop stop-color="rgb(96.470588%,96.078432%,95.686275%)" offset="1"/>
  </radialGradient>
  <radialGradient id="radial2" cx="134.2" cy="222.99" r="2" gradientTransform="matrix(6 0 0 6 -756.2 -1295.9)" gradientUnits="userSpaceOnUse">
   <stop stop-color="rgb(100%,100%,100%)" offset="0"/>
   <stop stop-color="rgb(100%,100%,100%)" offset=".4"/>
   <stop stop-color="rgb(96.470588%,96.078432%,95.686275%)" offset="1"/>
  </radialGradient>
  <filter id="filter5720" x="-.10592" y="-.11016" width="1.2118" height="1.2203" color-interpolation-filters="sRGB">
   <feGaussianBlur stdDeviation="2.295"/>
  </filter>
  <clipPath id="clipPath5751">
   <path d="m32 4c-6.627 0-12 5.373-12 12 0 6.627 5.373 12 12 12s12-5.373 12-12c0-6.627-5.373-12-12-12zm-17 32c-6.627 0-12 5.373-12 12 0 6.627 5.373 12 12 12 6.6289 0 12-5.373 12-12 0-6.627-5.3711-12-12-12zm34 0c-6.627 0-12 5.373-12 12 0 6.627 5.373 12 12 12 6.6289 0 12-5.373 12-12 0-6.627-5.3711-12-12-12z" fill="url(#radialGradient5755)"/>
  </clipPath>
  <radialGradient id="radialGradient5755" cx="134.2" cy="222.99" r="2" gradientTransform="matrix(6 0 0 6 -773.2 -1327.9)" gradientUnits="userSpaceOnUse" xlink:href="#radial0"/>
 </defs>
 <path d="m32 7c-5.5225 0-10 4.4775-10 10 0 1.0986 0.18043 2.1537 0.50781 3.1426 0.39906 5.7856-1.5843 12.725-6.4961 16.857-0.00392-5e-6 -0.007798 0-0.011719 0-5.5225 0-10 4.4775-10 10 0 5.5225 4.4775 10 10 10 3.7432 0 7.0026-2.0578 8.7168-5.1016 5.2039-2.432 10.234-1.7403 15.15 0.94336v-0.025391c1.8144 2.5321 4.7804 4.1836 8.1328 4.1836 5.5241 0 10-4.4775 10-10 0-5.5225-4.4759-10-10-10-0.003934 0-0.007785-5e-6 -0.011719 0-4.9118-4.1329-6.8952-11.072-6.4961-16.857 0.32729-0.9889 0.50781-2.0439 0.50781-3.1426 0-5.5225-4.4759-10-10-10zm0 6c2.2096 0 4 1.791 4 4 0 2.209-1.7904 4-4 4-2.209 0-4-1.791-4-4 0-2.209 1.791-4 4-4zm-1.2383 13.922c0.40609 0.050209 0.81861 0.078125 1.2383 0.078125 0.41942 0 0.83245-0.028005 1.2383-0.078125 4.7801 3.7697 7.5437 7.5658 6.7383 14.111-0.67768 0.90962-1.2044 1.9381-1.543 3.0488-4.0962 1.8311-8.3117 2.259-12.707 0.5957-0.31863-1.3399-0.90576-2.5741-1.7031-3.6445-0.80544-6.5455 1.9582-10.342 6.7383-14.111zm-14.762 16.078c2.2096 0 4 1.791 4 4 0 2.209-1.7904 4-4 4-2.209 0-4-1.791-4-4 0-2.209 1.791-4 4-4zm32 0c2.2096 0 4 1.791 4 4 0 2.209-1.7904 4-4 4-2.209 0-4-1.791-4-4 0-2.209 1.791-4 4-4z" fill="#999994"/>
 <path d="m44 16c0 6.627-5.373 12-12 12s-12-5.373-12-12c0-6.627 5.373-12 12-12s12 5.373 12 12z" fill="url(#radial0)"/>
 <path d="m27 48c0 6.627-5.3711 12-12 12-6.627 0-12-5.373-12-12 0-6.627 5.373-12 12-12 6.6289 0 12 5.373 12 12z" fill="url(#radial1)"/>
 <path d="m61 48c0 6.627-5.3711 12-12 12-6.627 0-12-5.373-12-12 0-6.627 5.373-12 12-12 6.6289 0 12 5.373 12 12z" fill="url(#radial2)"/>
 <path d="m32 7c-5.5225 0-10 4.4775-10 10 0 1.0986 0.18043 2.1537 0.50781 3.1426 0.39906 5.7856-1.5843 12.725-6.4961 16.857-0.00392-5e-6 -0.007798 0-0.011719 0-5.5225 0-10 4.4775-10 10 0 5.5225 4.4775 10 10 10 3.7432 0 7.0026-2.0578 8.7168-5.1016 5.2039-2.432 10.234-1.7403 15.15 0.94336v-0.025391c1.8144 2.5321 4.7804 4.1836 8.1328 4.1836 5.5241 0 10-4.4775 10-10 0-5.5225-4.4759-10-10-10-0.003934 0-0.007785-5e-6 -0.011719 0-4.9118-4.1329-6.8952-11.072-6.4961-16.857 0.32729-0.9889 0.50781-2.0439 0.50781-3.1426 0-5.5225-4.4759-10-10-10zm0 6c2.2096 0 4 1.791 4 4 0 2.209-1.7904 4-4 4-2.209 0-4-1.791-4-4 0-2.209 1.791-4 4-4zm-1.2383 13.922c0.40609 0.050209 0.81861 0.078125 1.2383 0.078125 0.41942 0 0.83245-0.028005 1.2383-0.078125 4.7801 3.7697 7.5437 7.5658 6.7383 14.111-0.67768 0.90962-1.2044 1.9381-1.543 3.0488-4.0962 1.8311-8.3117 2.259-12.707 0.5957-0.31863-1.3399-0.90576-2.5741-1.7031-3.6445-0.80544-6.5455 1.9582-10.342 6.7383-14.111zm-14.762 16.078c2.2096 0 4 1.791 4 4 0 2.209-1.7904 4-4 4-2.209 0-4-1.791-4-4 0-2.209 1.791-4 4-4zm32 0c2.2096 0 4 1.791 4 4 0 2.209-1.7904 4-4 4-2.209 0-4-1.791-4-4 0-2.209 1.791-4 4-4z" clip-path="url(#clipPath5751)" fill="#999994" filter="url(#filter5720)" opacity=".35"/>
</svg>
