<svg width="64" height="64" xmlns="http://www.w3.org/2000/svg"><rect x="4" y="10" width="48" height="36" rx="3" ry="3" fill="#f35a23" style="paint-order:stroke fill markers"/><rect x="6" y="12" width="44" height="32" rx="1.048" ry="1.067" opacity=".15" style="paint-order:stroke fill markers"/><rect x="8" y="14" width="48" height="36" rx="3" ry="3" fill="#8bc34a" style="paint-order:stroke fill markers"/><rect x="10" y="16" width="44" height="32" rx="1.048" ry="1.067" opacity=".15" style="paint-order:stroke fill markers"/><rect x="12" y="18" width="48" height="36" rx="3" ry="3" fill="#29b6f6" style="paint-order:stroke fill markers"/><path d="M15 20c-.58 0-1.047.475-1.047 1.066v29.867c0 .591.467 1.067 1.047 1.067h31.953l11-11V21.066c0-.591-.466-1.067-1.047-1.067z" opacity=".15" style="paint-order:stroke fill markers"/><path d="m47 52 11-11h-9.953c-.58 0-1.047.475-1.047 1.066z" fill="#6fcdf9" style="paint-order:stroke fill markers"/><path d="M58 41 47 52h9.953c.58 0 1.047-.475 1.047-1.066z" opacity=".05" style="paint-order:stroke fill markers"/></svg>