<svg width="64" height="64" xmlns="http://www.w3.org/2000/svg"><g stroke-width="3.78"><path d="M2.003 45.998V10.001a.995.995 0 0 1 .998-1.002h58.002a.998.998 0 0 1 .998 1.002v36.001H2.004z" fill="#fff" style="paint-order:markers stroke fill"/><path d="M3.001 56a.998.998 0 0 1-1.002-1.002v-8.997H62v8.997A.998.998 0 0 1 61.003 56z" fill="#666" style="paint-order:stroke markers fill"/><path d="M2.003 45.996V9.001a.995.995 0 0 1 .998-1.002h58.002c.553 0 1 .45.998 1.002v36.998h-.998V9.957a.962.962 0 0 0-.968-.956H3.968a.96.96 0 0 0-.967.956v36.042H1.999z" opacity=".1" style="paint-order:markers stroke fill"/><path d="M62.001 42.294a36.303 36.303 0 0 1-12.828 12.707h11.83a.998.998 0 0 0 .998-1.002z" opacity=".05" style="paint-order:markers stroke fill"/></g><path d="M10 48a3 3 0 0 0-3 3 3 3 0 0 0 3 3 3 3 0 0 0 3-3 3 3 0 0 0-3-3zm0 1a2 2 0 0 1 2 2 2 2 0 0 1-2 2 2 2 0 0 1-2-2 2 2 0 0 1 2-2z" opacity=".35" style="paint-order:fill markers stroke"/><rect x="40" y="49" width="16" height="4" rx="1" ry="1" opacity=".35" style="paint-order:fill markers stroke"/><rect x="18" y="49" width="4" height="4" rx="1" ry="1" opacity=".35" style="paint-order:fill markers stroke"/><rect x="24" y="49" width="4" height="4" rx="1" ry="1" opacity=".35" style="paint-order:fill markers stroke"/><rect x="30" y="49" width="4" height="4" rx="1" ry="1" opacity=".35" style="paint-order:fill markers stroke"/><path d="M32.002 14.502A13.002 13.002 0 0 0 19 27.504a13.002 13.002 0 0 0 13.002 12.998A13.002 13.002 0 0 0 45.004 27.5a13.002 13.002 0 0 0-13.002-13.002zm0 5.265a7.733 7.733 0 0 1 7.733 7.733 7.733 7.733 0 0 1-7.733 7.73 7.733 7.733 0 0 1-7.733-7.73 7.733 7.733 0 0 1 7.733-7.733z" fill="#ccc" opacity=".15" style="paint-order:stroke markers fill"/><g fill="#ccc" style="paint-order:stroke markers fill"><path d="M32.002 16.503A10.999 10.999 0 0 0 21.003 27.5a10.999 10.999 0 0 0 10.999 11.003A10.999 10.999 0 0 0 43 27.505a10.999 10.999 0 0 0-11-10.999zm0 5A5.998 5.998 0 0 1 38 27.505a5.998 5.998 0 0 1-5.998 5.998A5.998 5.998 0 0 1 26 27.505a5.998 5.998 0 0 1 6.002-6.002z"/><path d="M30.002 12.005h4v7h-4zm0 24h4v7h-4zm17.5-10.5v4h-7v-4zm-24 0v4h-7v-4zm20.87 11.547L41.55 39.88l-4.951-4.95 2.827-2.828zm-16.97-16.97-2.823 2.827-4.952-4.951 2.828-2.827zm-4.947 19.797-2.828-2.827 4.952-4.95 2.827 2.826zm16.97-16.97-2.827-2.827 4.951-4.951 2.827 2.827z"/></g></svg>