<svg width="64" height="64" viewBox="0 0 16.933 16.933" xmlns="http://www.w3.org/2000/svg"><defs><filter id="a" x="-.115" y="-.102" width="1.23" height="1.204" color-interpolation-filters="sRGB"><feGaussianBlur stdDeviation="1.53"/></filter></defs><path d="M7.144 2.116a5.556 5.556 0 0 0-5.557 5.557v5.556h5.557A5.556 5.556 0 0 0 12.7 7.673a5.556 5.556 0 0 0-5.556-5.557z" fill="#fff" opacity=".6" style="paint-order:stroke markers fill"/><path d="M7.144 2.116a5.556 5.556 0 0 0-5.557 5.557v5.556h5.557A5.556 5.556 0 0 0 12.7 7.673a5.556 5.556 0 0 0-5.556-5.557z" fill="#f2f2f2" opacity=".8" style="paint-order:stroke markers fill"/><path transform="scale(.26458)" d="M42.379 14.697A20.999 20.999 0 0 1 48 29a20.999 20.999 0 0 1-20.998 21h-4.697a20.999 20.999 0 0 0 14.697 5.998h21V35a20.999 20.999 0 0 0-15.623-20.303z" fill="#69e17c" style="paint-order:stroke markers fill"/><path transform="scale(.26458)" d="M37 14a21 21 0 0 0-21 21 21 21 0 0 0 6.332 15H27a21 21 0 0 0 21-21 21 21 0 0 0-5.635-14.277A21 21 0 0 0 37 14z" fill="#69e17c" filter="url(#a)" style="paint-order:stroke markers fill"/><rect x="7.673" y="8.466" width="4.762" height=".529" ry=".265" fill="#fff" style="paint-order:stroke markers fill"/><rect x="7.673" y="10.054" width="3.969" height=".529" ry=".265" fill="#fff" style="paint-order:stroke markers fill"/><path d="M7.144 2.116a5.556 5.556 0 0 0-5.557 5.557v5.556h5.557A5.556 5.556 0 0 0 12.7 7.673a5.556 5.556 0 0 0-5.556-5.557z" fill="#fff" opacity=".6" style="paint-order:stroke markers fill"/></svg>