<svg width="64" height="64" xmlns="http://www.w3.org/2000/svg"><defs><linearGradient id="a" x1="13.229" x2="2.117" y1="297" y2="280.07" gradientTransform="matrix(4.0496 0 0 3.7796 382.28 -574.74)" gradientUnits="userSpaceOnUse"><stop stop-color="#66bcff" offset="0"/><stop stop-color="#b29aff" offset="1"/></linearGradient></defs><g transform="translate(-384.57 -483.8)" stroke-width="3.78"><path d="M387.57 492.8h58.002c.552 0 .998.446.998.998V537.8a.998.998 0 0 1-.998 1.001H387.57a.998.998 0 0 1-1.002-1.001v-44.002a.998.998 0 0 1 1.002-.998z" fill="url(#a)" style="paint-order:stroke markers fill"/><rect x="390.57" y="493.8" width="3.999" height="1.999" ry="1.002" opacity=".35" style="paint-order:stroke markers fill"/><rect x="411.57" y="493.8" width="10.001" height="1.999" ry="1.002" opacity=".35" style="paint-order:stroke markers fill"/><rect x="441.57" y="493.8" width="1.999" height="1.999" ry="1.002" opacity=".35" style="paint-order:stroke markers fill"/><rect x="437.57" y="493.8" width="3.001" height="1.999" ry="1.002" opacity=".35" style="paint-order:stroke markers fill"/><rect x="434.57" y="493.8" width="1.999" height="1.999" ry="1.002" opacity=".35" style="paint-order:stroke markers fill"/><path d="M387.57 492.8a.998.998 0 0 0-1.002 1.002v2.997h60.001v-2.997a.998.998 0 0 0-.997-1.002z" opacity=".35" style="paint-order:stroke markers fill"/></g><path d="M6 15h18v2H6zm0 34h8v2H6zm12 0h24v2H18zM6 45h8v2H6zm12 0h28v2H18zM6 41h8v2H6zm12 0h24v2H18zM6 37h8v2H6zm12 0h28v2H18zM6 33h8v2H6zm12 0h20v2H18zM6 29h8v2H6zm12 0h32v2H18zM6 25h8v2H6zm12 0h36v2H18zM6 21h8v2H6zm12 0h24v2H18z" fill="#fff" opacity=".5"/></svg>