<svg width="64" height="64" xmlns="http://www.w3.org/2000/svg"><defs><linearGradient id="a" x1="31.637" x2="56" y1="43.058" y2="43.058" gradientUnits="userSpaceOnUse"><stop offset="0"/><stop stop-opacity="0" offset="1"/></linearGradient></defs><g fill="#8e8e8e"><path d="M58 40v2H6v-2zm0 6v2H6v-2zm0 6v2H6v-2zm0-30v2H6v-2zm0 6v2H6v-2zm0 6v2H6v-2zm0-18v2H6v-2zm0-6v2H6v-2z"/><path d="M24 58h-2V6h2zm-6 0h-2V6h2zm-6 0h-2V6h2zm30 0h-2V6h2zm-6 0h-2V6h2zm-6 0h-2V6h2zm18 0h-2V6h2zm6 0h-2V6h2z"/></g><rect transform="matrix(0 -1 -1 0 0 0)" x="-56" y="-56" width="48" height="48" rx="2.5" ry="2.5" fill="#4d4d4d"/><path d="M14 23h12v2H14zm14 0h6v2h-6zm8 0h14v2H36zm-22 8h16v2H14zm18 0h16v2H32zm-18 8h6v2h-6zm8 0h6v2h-6zm8 0h12v2H30z" opacity=".5" fill="#0ff"/><path d="M56 30.115A41.492 41.492 0 0 1 31.637 56H53.5c1.385 0 2.5-1.115 2.5-2.5z" fill="url(#a)" opacity=".25"/><path d="M28.709 36.833a3.077 3.077 0 0 0-3.084 3.084A3.077 3.077 0 0 0 28.71 43a3.077 3.077 0 0 0 3.084-3.083 3.077 3.077 0 0 0-3.084-3.084zm-5.396-7.71A2.307 2.307 0 0 0 21 31.438a2.313 2.313 0 1 0 4.625 0 2.307 2.307 0 0 0-2.313-2.313zm11.564-7.708-3.084 3.083 4.625 4.626-4.625 4.625 3.084 3.084 7.709-7.71-3.084-3.083zm-7.71 0a1.542 1.542 0 1 0 0 3.083 1.542 1.542 0 1 0 0-3.083z" fill="#fff" stroke="#4d4d4d" stroke-width="2"/><path d="M28.916 36.626a3.077 3.077 0 0 0-3.084 3.084 3.077 3.077 0 0 0 3.084 3.083A3.077 3.077 0 0 0 32 39.71a3.077 3.077 0 0 0-3.084-3.084zm-5.396-7.71a2.307 2.307 0 0 0-2.313 2.314 2.313 2.313 0 1 0 4.625 0 2.307 2.307 0 0 0-2.313-2.313zm11.564-7.708L32 24.29l4.625 4.626L32 33.542l3.084 3.084 7.709-7.71-3.084-3.083zm-7.71 0a1.542 1.542 0 1 0 0 3.083 1.542 1.542 0 1 0 0-3.083z" fill="#fff"/></svg>