<svg width="64" height="64" xmlns="http://www.w3.org/2000/svg" xmlns:xlink="http://www.w3.org/1999/xlink"><linearGradient id="a" x1="386.57" x2="386.57" y1="549.8" y2="497.8" gradientTransform="matrix(.54545 0 0 .53846 177.71 249.75)" gradientUnits="userSpaceOnUse"><stop stop-color="#7f8c8d" offset="0"/><stop stop-color="#afb0b3" offset="1"/></linearGradient><linearGradient id="b" x1="400.57" x2="400.57" y1="522.8" y2="535.8" gradientUnits="userSpaceOnUse"><stop stop-color="#da4453" offset="0"/><stop stop-color="#c72737" offset="1"/></linearGradient><path d="M54 53c0 2.991-2.121 5-5 5H15c-2.878 0-5-2.009-5-5V11c0-2.991 2.122-5 5-5h34c2.878 0 5 2.009 5 5z" fill="#cacbcf"/><path d="M51 11a2 2 0 1 1-4 0 2 2 0 0 1 4 0z" fill="#85858a"/><path d="M50 11a1 1 0 1 0-2 0 1 1 0 0 0 2 0z" fill="#fff"/><path d="M17 11a2 2 0 1 1-4 0 2 2 0 0 1 4 0z" fill="#85858a"/><path d="M16 11a1 1 0 1 0-2 0 1 1 0 0 0 2 0z" fill="#fff"/><path d="M14 39h-4v14c0 2.873 2.169 5 5 5h18v-9c-7.752-.5-14.611-4.25-19-10z" fill="#949496"/><g fill-rule="evenodd"><path d="M48 27.122C48 35.837 40.837 43 32 43s-16-7.163-16-15.878C16 18.164 23.163 11 32 11s16 7.164 16 16.122" fill="#fff"/><use transform="translate(27 22)" width="100%" height="100%" fill="#1a1a1a" xlink:href="#a"/><use transform="translate(27.003 22.007)" width="100%" height="100%" fill="#fff" opacity=".1" xlink:href="#b"/></g><path d="M32 10c-9.388 0-17 7.61-17 17 0 9.388 7.612 17 17 17s17-7.612 17-17c0-9.39-7.612-17-17-17zm10.417 27.418a14.714 14.714 0 0 1-4.683 3.159A14.646 14.646 0 0 1 32 41.732c-1.99 0-3.92-.388-5.734-1.155a14.714 14.714 0 0 1-4.683-3.16A14.67 14.67 0 0 1 17.266 27a14.676 14.676 0 0 1 4.316-10.417 14.658 14.658 0 0 1 4.684-3.16A14.632 14.632 0 0 1 32 12.268c1.99 0 3.92.39 5.734 1.157a14.655 14.655 0 0 1 4.683 3.158A14.676 14.676 0 0 1 46.734 27a14.673 14.673 0 0 1-4.316 10.418z" fill="gray"/><g transform="matrix(-1 0 0 1 44.75 49.25)" fill="#949496" fill-rule="evenodd"><rect width="1" height="7" rx=".5"/><rect x="2" width="1" height="7" rx=".5"/><rect x="4" width="1" height="7" rx=".5"/><rect x="6" width="1" height="7" rx=".5"/><rect x="8" width="1" height="7" rx=".5"/></g><path d="M51 53a2 2 0 1 1-4 0 2 2 0 0 1 4 0z" fill="#85858a"/><path d="M50 53a1 1 0 1 0-2 0 1 1 0 0 0 2 0z" fill="#fff"/><path d="M17 53a2 2 0 1 1-4 0 2 2 0 0 1 4 0z" fill="#6a6a6a"/><path d="M16 53a1 1 0 1 0-2 0 1 1 0 0 0 2 0z" fill="#fff"/><path d="M32 14a5.985 5.985 0 0 0-6 6v6h-4v9.322C24.384 38.173 27.978 40 32 40s7.615-1.827 10-4.678V26h-4v-6a5.985 5.985 0 0 0-6-6zm0 2c2.493 0 4 1.092 4 4v6h-8v-6c0-2.908 1.507-4 4-4z" fill="#f55"/></svg>