<svg width="64" height="64" xmlns="http://www.w3.org/2000/svg"><defs><linearGradient id="a" x1="13.229" x2="2.117" y1="297" y2="280.07" gradientTransform="matrix(4.0496 0 0 3.7796 382.28 -574.74)" gradientUnits="userSpaceOnUse"><stop stop-color="#66bcff" offset="0"/><stop stop-color="#b29aff" offset="1"/></linearGradient></defs><g stroke-width="3.78"><g transform="translate(-384.57 -483.8)"><path d="M387.57 492.8h58.002c.552 0 .998.446.998.998V537.8a.998.998 0 0 1-.998 1.001H387.57a.998.998 0 0 1-1.002-1.001v-44.002a.998.998 0 0 1 1.002-.998z" fill="url(#a)" style="paint-order:stroke markers fill"/><rect x="390.57" y="493.8" width="3.999" height="1.999" ry="1.002" opacity=".35" style="paint-order:stroke markers fill"/><rect x="411.57" y="493.8" width="10.001" height="1.999" ry="1.002" opacity=".35" style="paint-order:stroke markers fill"/><rect x="441.57" y="493.8" width="1.999" height="1.999" ry="1.002" opacity=".35" style="paint-order:stroke markers fill"/><rect x="437.57" y="493.8" width="3.001" height="1.999" ry="1.002" opacity=".35" style="paint-order:stroke markers fill"/><rect x="434.57" y="493.8" width="1.999" height="1.999" ry="1.002" opacity=".35" style="paint-order:stroke markers fill"/></g><path d="M15.002 51c-1.108 0-2 .89-2 1.998v2.012h38v-2.012a1.994 1.994 0 0 0-2-1.998h-34z" fill="#fff" opacity=".35" style="paint-order:stroke markers fill"/><g transform="translate(-384.57 -483.8)" fill="#ccdfff"><rect x="401.57" y="531.8" width="5" height="5" ry=".499" style="paint-order:stroke markers fill"/><rect x="409.91" y="531.8" width="5" height="5" ry=".499" style="paint-order:stroke markers fill"/><rect x="418.24" y="531.8" width="5" height="5" ry=".499" style="paint-order:stroke markers fill"/><rect x="426.57" y="531.8" width="5" height="5" ry=".499" style="paint-order:stroke markers fill"/></g><path d="M3 9a.998.998 0 0 0-1.002 1.002v2.997H62v-2.997A.998.998 0 0 0 61.002 9z" opacity=".35" style="paint-order:stroke markers fill"/></g><g transform="matrix(1.5 0 0 1.5 -569.54 -769.77)" stroke-width=".667"><path d="M388.57 526.8v6h7v-5h-3l-1-1z" fill="#fff"/><path d="M388.57 534.8v6h7v-5h-3l-1-1z" fill="#fff" opacity=".75"/><path d="M398.57 526.8v6h5v-4l-2-2z" fill="#ffa86d"/><path d="m401.57 526.8 2 2h-2z" fill="#ff7214" fill-rule="evenodd"/><path d="M398.57 534.8v6h5v-4l-2-2z" fill="#94d669"/><path d="m401.57 534.8 2 2h-2z" fill="#67b632" fill-rule="evenodd"/><rect x="406.57" y="526.8" width="6" height="6" rx="0" fill="#fff"/><rect x="407.57" y="528.8" width="4" height="2" rx="1" opacity=".15"/><rect x="409.57" y="528.8" width="2" height="2" rx="1" fill="#3daee9"/></g></svg>