<svg width="64" height="64" xmlns="http://www.w3.org/2000/svg"><defs><linearGradient id="a" x1="13.229" x2="2.117" y1="297" y2="280.07" gradientTransform="matrix(4.0496 0 0 3.7796 382.28 -574.74)" gradientUnits="userSpaceOnUse"><stop stop-color="#66bcff" offset="0"/><stop stop-color="#b29aff" offset="1"/></linearGradient></defs><g stroke-width="3.78" transform="translate(-384.57 -483.8)"><path d="M387.57 492.8h58.002c.552 0 .998.446.998.998V537.8a.998.998 0 0 1-.998 1.001H387.57a.998.998 0 0 1-1.002-1.001v-44.002a.998.998 0 0 1 1.002-.998z" fill="url(#a)" style="paint-order:stroke markers fill"/><rect x="390.57" y="493.8" width="3.999" height="1.999" ry="1.002" opacity=".35" style="paint-order:stroke markers fill"/><rect x="411.57" y="493.8" width="10.001" height="1.999" ry="1.002" opacity=".35" style="paint-order:stroke markers fill"/><rect x="441.57" y="493.8" width="1.999" height="1.999" ry="1.002" opacity=".35" style="paint-order:stroke markers fill"/><rect x="437.57" y="493.8" width="3.001" height="1.999" ry="1.002" opacity=".35" style="paint-order:stroke markers fill"/><rect x="434.57" y="493.8" width="1.999" height="1.999" ry="1.002" opacity=".35" style="paint-order:stroke markers fill"/><path d="M387.57 492.8a.998.998 0 0 0-1.002 1.002v2.997h60.001v-2.997a.998.998 0 0 0-.997-1.002z" opacity=".35" style="paint-order:stroke markers fill"/></g><path d="M26 22.43c-.831 0-1.5.669-1.5 1.5s.669 1.5 1.5 1.5 1.5-.669 1.5-1.5-.669-1.5-1.5-1.5zm9.429 0L32 25.859l5.143 5.143L32 36.144l3.429 3.429L44 31.002l-3.429-3.43zm-13.18 9A2.245 2.245 0 0 0 20 33.68a2.245 2.245 0 0 0 2.25 2.25 2.245 2.245 0 0 0 2.25-2.25 2.245 2.245 0 0 0-2.25-2.25zm6.75 9c-1.661 0-3 1.338-3 3s1.339 3 3 3 3-1.338 3-3-1.337-3-3-3z" fill="#fff"/></svg>