<svg width="64" height="64" xmlns="http://www.w3.org/2000/svg"><path d="M19 4c-1.662 0-3 1.338-3 3v50c0 1.662 1.338 3 3 3h38c1.662 0 3-1.338 3-3V18L46 4z" fill="#59bc04"/><path d="M60 18 46 4v14z" fill="#313437" fill-rule="evenodd" opacity=".35"/><path d="M7 4C5.338 4 4 5.338 4 7v50c0 1.662 1.338 3 3 3h38c1.662 0 3-1.338 3-3V18L34 4z" fill="#1da7f7"/><path d="M48 18 34 4v14z" fill="#313437" fill-rule="evenodd" opacity=".35"/><path d="M20 20c-1.108 0-2 .892-2 2s.892 2 2 2 2-.892 2-2-.892-2-2-2zm10 0-4 4 4 4-4 4 4 4 8-8-4-4zM16 32c-1.108 0-2 .892-2 2s.892 2 2 2 2-.892 2-2-.892-2-2-2zm8 8c-1.108 0-2 .892-2 2s.892 2 2 2 2-.892 2-2-.892-2-2-2z" fill="#fff"/></svg>