<svg width="64" height="64" xmlns="http://www.w3.org/2000/svg"><g transform="translate(-376.57 -485.8)"><rect x="392.57" y="489.8" width="32" height="56" rx="2" ry="2" fill="#35373a"/><rect x="394.57" y="495.8" width="28" height="44" rx="1" ry="1" fill="#fff" opacity=".2"/><rect x="402.57" y="491.8" width="12" height="2" rx="1" ry="1" fill="#212324"/><g fill="#fff"><path d="M405.57 509.8a1 1 0 1 0 0 2 1 1 0 0 0 0-2zM412.57 509.8l-2 2 4 4-4 4 2 2 6-6-2-2zM402.57 515.8a2 2 0 1 0 0 4 2 2 0 0 0 0-4zM407.57 521.8a3 3 0 1 0 0 6 3 3 0 0 0 0-6z"/></g></g></svg>