<svg width="64" height="64" viewBox="0 0 16.933 16.933" xmlns="http://www.w3.org/2000/svg" xmlns:xlink="http://www.w3.org/1999/xlink"><defs><clipPath id="h"><rect x=".529" y="282.45" width="15.875" height="12.171" ry=".265" fill="url(#b)" stroke-opacity=".039" stroke-width=".554" paint-order="stroke markers fill"/></clipPath><clipPath id="g"><rect x=".529" y="282.45" width="15.875" height="12.171" ry=".265" fill="url(#b)" stroke-opacity=".039" stroke-width=".554" paint-order="stroke markers fill"/></clipPath><clipPath id="f"><rect x=".529" y="282.45" width="15.875" height="12.171" ry=".265" fill="url(#b)" stroke-opacity=".039" stroke-width=".554" paint-order="stroke markers fill"/></clipPath><clipPath id="e"><rect x=".529" y="282.45" width="15.875" height="12.171" ry=".265" fill="url(#b)" stroke-opacity=".039" stroke-width=".554" paint-order="stroke markers fill"/></clipPath><clipPath id="d"><rect x=".529" y="282.45" width="15.875" height="12.171" ry=".265" fill="url(#b)" stroke-opacity=".039" stroke-width=".554" paint-order="stroke markers fill"/></clipPath><linearGradient id="a"><stop stop-color="#66bcff" offset="0"/><stop stop-color="#b29aff" offset="1"/></linearGradient><linearGradient id="c" x1="13.229" x2="2.117" y1="297" y2="280.07" gradientTransform="matrix(1.0714 0 0 1 -.605 -280.07)" gradientUnits="userSpaceOnUse" xlink:href="#a"/><linearGradient id="b" x1="13.229" x2="2.117" y1="297" y2="280.07" gradientTransform="matrix(1.0714 0 0 1 -.605 0)" gradientUnits="userSpaceOnUse" xlink:href="#a"/></defs><rect x=".529" y="2.381" width="15.875" height="12.171" ry=".265" fill="url(#c)" style="paint-order:stroke markers fill"/><path transform="translate(0 -280.07)" d="M.553 283.51H3.44v11.113H.553" clip-path="url(#d)" fill="#9ab9dd"/><path transform="translate(0 -280.07)" d="M3.44 283.51h2.886v11.113H3.44" clip-path="url(#e)" fill="#9add9c"/><path transform="translate(0 -280.07)" d="M6.326 283.51h4.33v11.113h-4.33" clip-path="url(#f)" fill="#f3f284"/><path transform="translate(0 -280.07)" d="M10.655 283.51h2.887v11.113h-2.887" clip-path="url(#g)" fill="#edb968"/><path transform="translate(0 -280.07)" d="M13.542 283.51h2.886v11.113h-2.886" clip-path="url(#h)" fill="#ed8e68"/><rect x="1.587" y="2.645" width="1.058" height=".529" ry=".265" opacity=".35" style="paint-order:stroke markers fill"/><rect x="7.144" y="2.645" width="2.646" height=".529" ry=".265" opacity=".35" style="paint-order:stroke markers fill"/><rect x="15.081" y="2.645" width=".529" height=".529" ry=".265" opacity=".35" style="paint-order:stroke markers fill"/><rect x="14.023" y="2.645" width=".794" height=".529" ry=".265" opacity=".35" style="paint-order:stroke markers fill"/><rect x="13.229" y="2.645" width=".529" height=".529" ry=".265" opacity=".35" style="paint-order:stroke markers fill"/><g fill="#fff"><path transform="scale(.26458)" d="M15.002 50.998c-1.108 0-2 .892-2 2V55h38v-2.002c0-1.108-.892-2-2-2h-34z" opacity=".35" style="paint-order:stroke markers fill"/><rect x="4.498" y="12.7" width="1.323" height="1.323" ry=".132" style="paint-order:stroke markers fill"/><rect x="6.703" y="12.7" width="1.323" height="1.323" ry=".132" style="paint-order:stroke markers fill"/><rect x="8.908" y="12.7" width="1.323" height="1.323" ry=".132" style="paint-order:stroke markers fill"/><rect x="11.113" y="12.7" width="1.323" height="1.323" ry=".132" style="paint-order:stroke markers fill"/></g><path d="M.794 2.381a.264.264 0 0 0-.265.265v.793h15.875v-.793a.264.264 0 0 0-.264-.265z" opacity=".35" style="paint-order:stroke markers fill"/></svg>