<svg width="64" height="64" xmlns="http://www.w3.org/2000/svg"><defs><linearGradient id="a" x1="13.229" x2="2.117" y1="297" y2="280.07" gradientTransform="matrix(1.0714 0 0 1 -.605 -280.07)" gradientUnits="userSpaceOnUse"><stop stop-color="#66bcff" offset="0"/><stop stop-color="#b29aff" offset="1"/></linearGradient></defs><linearGradient id="b" x1="15" x2="9" y1="9" y2="9" gradientTransform="matrix(2.6667 0 0 6 -6.694 -25)" gradientUnits="userSpaceOnUse"><stop stop-color="#a1daff" offset="0"/><stop stop-color="#abebf9" stop-opacity="0" offset="1"/></linearGradient><g transform="scale(3.7796)"><path d="M.794 2.381H16.14c.146 0 .264.118.264.264v11.642a.264.264 0 0 1-.264.265H.794a.264.264 0 0 1-.265-.265V2.645c0-.146.118-.264.265-.264z" fill="url(#a)" style="paint-order:stroke markers fill"/><path d="M3.97 13.504a.528.528 0 0 0-.53.53v.53h10.054v-.53a.528.528 0 0 0-.53-.53z" fill="#fff" opacity=".35" style="paint-order:stroke markers fill"/><rect x="1.587" y="2.645" width="1.058" height=".529" ry=".265" opacity=".35" style="paint-order:stroke markers fill"/><rect x="7.144" y="2.645" width="2.646" height=".529" ry=".265" opacity=".35" style="paint-order:stroke markers fill"/><rect x="15.081" y="2.645" width=".529" height=".529" ry=".265" opacity=".35" style="paint-order:stroke markers fill"/><rect x="14.023" y="2.645" width=".794" height=".529" ry=".265" opacity=".35" style="paint-order:stroke markers fill"/><rect x="13.229" y="2.645" width=".529" height=".529" ry=".265" opacity=".35" style="paint-order:stroke markers fill"/><g fill="#ccdfff"><rect x="4.498" y="12.7" width="1.323" height="1.323" ry=".132" style="paint-order:stroke markers fill"/><rect x="6.703" y="12.7" width="1.323" height="1.323" ry=".132" style="paint-order:stroke markers fill"/><rect x="8.908" y="12.7" width="1.323" height="1.323" ry=".132" style="paint-order:stroke markers fill"/><rect x="11.113" y="12.7" width="1.323" height="1.323" ry=".132" style="paint-order:stroke markers fill"/></g><path d="M.794 2.381a.264.264 0 0 0-.265.265v.793h15.875v-.793a.264.264 0 0 0-.264-.265z" opacity=".35" style="paint-order:stroke markers fill"/></g><path d="M17.306 23h16v6h-16z" fill="url(#b)" fill-rule="evenodd"/><path d="m33.628 41 8.237-.053.932-9.323c.195-1.89-2.147-2.677-2.797-.932.008-2.096-2.147-2.358-2.798-.934.083-1.73-2.117-2.4-2.796-.932v-3.729c0-2.796-2.797-2.796-2.797 0v8.391c-4.662-4.662-5.805-1.311-5.805-1.311 3.168 2.138 5.104 8.84 7.824 8.823z" fill="#fff"/></svg>