<svg width="64" height="64" xmlns="http://www.w3.org/2000/svg" xmlns:xlink="http://www.w3.org/1999/xlink"><defs><clipPath id="g"><rect x=".529" y="282.45" width="15.875" height="12.171" ry=".265" fill="url(#a)" stroke-opacity=".039" stroke-width=".554" style="paint-order:stroke markers fill"/></clipPath><clipPath id="h"><rect x=".529" y="282.45" width="15.875" height="12.171" ry=".265" fill="url(#b)" stroke-opacity=".039" stroke-width=".554" style="paint-order:stroke markers fill"/></clipPath><clipPath id="i"><rect x=".529" y="282.45" width="15.875" height="12.171" ry=".265" fill="url(#c)" stroke-opacity=".039" stroke-width=".554" style="paint-order:stroke markers fill"/></clipPath><clipPath id="j"><rect x=".529" y="282.45" width="15.875" height="12.171" ry=".265" fill="url(#d)" stroke-opacity=".039" stroke-width=".554" style="paint-order:stroke markers fill"/></clipPath><clipPath id="k"><rect x=".529" y="282.45" width="15.875" height="12.171" ry=".265" fill="url(#e)" stroke-opacity=".039" stroke-width=".554" style="paint-order:stroke markers fill"/></clipPath><linearGradient id="f" x1="13.229" x2="2.117" y1="297" y2="280.07" gradientTransform="matrix(4.0495 0 0 3.7796 -2.287 -1058.5)" gradientUnits="userSpaceOnUse"><stop stop-color="#66bcff" offset="0"/><stop stop-color="#b29aff" offset="1"/></linearGradient></defs><linearGradient id="e"><stop stop-color="#bec900" offset="0"/><stop stop-color="#9ec80a" offset=".313"/><stop stop-color="#71b93d" offset=".563"/><stop stop-color="#35a48f" offset=".75"/><stop stop-color="#018fca" offset="1"/></linearGradient><linearGradient id="d"><stop stop-color="#c1cc00" offset="0"/><stop stop-color="#dfcd00" offset=".313"/><stop stop-color="#f0cc00" offset=".563"/><stop stop-color="#fd8c08" offset=".75"/><stop stop-color="#f25c13" offset="1"/></linearGradient><linearGradient id="c" x1="8" x2="24" y1="24" y2="8" gradientTransform="scale(-1.5611) rotate(75 14.78 -34.225)" gradientUnits="userSpaceOnUse" xlink:href="#d"/><linearGradient id="b" x1="394.57" x2="408.57" y1="523.8" y2="537.8" gradientTransform="translate(-442.1 -483.22)" gradientUnits="userSpaceOnUse"><stop stop-color="#292c2f" offset="0"/><stop stop-color="#292c2f" stop-opacity=".036" offset="1"/></linearGradient><linearGradient id="a" x1="400.57" x2="400.57" y1="536.8" y2="522.8" gradientTransform="matrix(.99946 0 0 .99953 -366.33 -499.08)" gradientUnits="userSpaceOnUse"><stop stop-color="#eff0f1" offset="0"/><stop stop-color="#fcfcfc" offset="1"/></linearGradient><rect x="1.999" y="9.048" width="60.001" height="46.002" ry="1.002" fill="url(#f)" style="paint-order:stroke markers fill"/><path transform="translate(0 -1058.5) scale(3.7796)" d="M.553 283.51H3.44v11.113H.553" clip-path="url(#g)" fill="#9ab9dd"/><path transform="translate(0 -1058.5) scale(3.7796)" d="M3.44 283.51h2.886v11.113H3.44" clip-path="url(#h)" fill="#9add9c"/><path transform="translate(0 -1058.5) scale(3.7796)" d="M6.326 283.51h4.33v11.113h-4.33" clip-path="url(#i)" fill="#f3f284"/><path transform="translate(0 -1058.5) scale(3.7796)" d="M10.655 283.51h2.887v11.113h-2.887" clip-path="url(#j)" fill="#edb968"/><path transform="translate(0 -1058.5) scale(3.7796)" d="M13.542 283.51h2.886v11.113h-2.886" clip-path="url(#k)" fill="#ed8e68"/><g stroke-width="3.78"><rect x="5.998" y="10.031" width="3.999" height="1.999" ry="1.002" opacity=".35" style="paint-order:stroke markers fill"/><rect x="27.001" y="10.031" width="10.001" height="1.999" ry="1.002" opacity=".35" style="paint-order:stroke markers fill"/><rect x="57" y="10.031" width="1.999" height="1.999" ry="1.002" opacity=".35" style="paint-order:stroke markers fill"/><rect x="53.001" y="10.031" width="3.001" height="1.999" ry="1.002" opacity=".35" style="paint-order:stroke markers fill"/><rect x="50" y="10.031" width="1.999" height="1.999" ry="1.002" opacity=".35" style="paint-order:stroke markers fill"/></g><g fill="#fff" stroke-width="3.78"><path d="M15.002 51.039c-1.108 0-2 .892-2 2v2.01h38v-2.01c0-1.108-.892-2-2-2h-34z" opacity=".35" style="paint-order:stroke markers fill"/><rect x="17.001" y="48.053" width="5" height="5" ry=".499" style="paint-order:stroke markers fill"/><rect x="25.335" y="48.053" width="5" height="5" ry=".499" style="paint-order:stroke markers fill"/><rect x="33.669" y="48.053" width="5" height="5" ry=".499" style="paint-order:stroke markers fill"/><rect x="42.003" y="48.053" width="5" height="5" ry=".499" style="paint-order:stroke markers fill"/></g><path d="M3.001 9.048a.998.998 0 0 0-1.002 1.002v2.997H62V10.05a.998.998 0 0 0-.997-1.002z" opacity=".35" style="paint-order:stroke markers fill"/><path d="M40.452 23.008a2.25 10.125 44.998 0 0-8.376 5.735 2.25 10.125 44.998 0 0-3.985 4.628 3.905 3.905 0 0 1 2.54 2.54 2.25 10.125 44.998 0 0 4.627-3.986 2.25 10.125 44.998 0 0 5.567-8.75 2.25 10.125 44.998 0 0-.373-.167M27.5 34.997C23 36.203 26.375 39.05 23 41c4.504 0 6.75-2.251 6.75-3.753 0-.748.076-2.126-2.25-2.25z" fill="#fff"/></svg>