<svg width="64" height="64" xmlns="http://www.w3.org/2000/svg"><defs><linearGradient id="a" x1="13.229" x2="2.117" y1="297" y2="280.07" gradientTransform="matrix(4.0496 0 0 3.7796 -2.287 -1058.5)" gradientUnits="userSpaceOnUse"><stop stop-color="#66bcff" offset="0"/><stop stop-color="#b29aff" offset="1"/></linearGradient></defs><g stroke-width="3.78"><path d="M3.001 9h58.002c.552 0 .998.445.998.997v44.002a.998.998 0 0 1-.998 1.002H3.001a.998.998 0 0 1-1.002-1.002V9.997a.998.998 0 0 1 1.002-.998z" fill="url(#a)" style="paint-order:stroke markers fill"/><rect x="5.998" y="9.997" width="3.999" height="1.999" ry="1.002" opacity=".35" style="paint-order:stroke markers fill"/><rect x="27.001" y="9.997" width="10.001" height="1.999" ry="1.002" opacity=".35" style="paint-order:stroke markers fill"/><rect x="57" y="9.997" width="1.999" height="1.999" ry="1.002" opacity=".35" style="paint-order:stroke markers fill"/><rect x="53.001" y="9.997" width="3.001" height="1.999" ry="1.002" opacity=".35" style="paint-order:stroke markers fill"/><rect x="50" y="9.997" width="1.999" height="1.999" ry="1.002" opacity=".35" style="paint-order:stroke markers fill"/><path d="M15.002 51.039c-1.108 0-2 .892-2 2v2.01h38v-2.01c0-1.108-.892-2-2-2z" fill="#fff" opacity=".35" style="paint-order:stroke markers fill"/><g fill="#ccdfff"><rect x="17.001" y="48.001" width="5" height="5" ry=".499" style="paint-order:stroke markers fill"/><rect x="25.335" y="48.001" width="5" height="5" ry=".499" style="paint-order:stroke markers fill"/><rect x="33.669" y="48.001" width="5" height="5" ry=".499" style="paint-order:stroke markers fill"/><rect x="42.003" y="48.001" width="5" height="5" ry=".499" style="paint-order:stroke markers fill"/></g><path d="M3.001 9a.998.998 0 0 0-1.002 1v2.998H62v-2.997a.998.998 0 0 0-.997-1.002z" opacity=".35" style="paint-order:stroke markers fill"/></g><g fill="#fff" stroke-width=".5"><path d="M32 20a18 18 0 0 0-15.754 9.336 3.96 3.96 0 0 0 1.312 1.816A16 16 0 0 1 32 22a8 8 0 0 0-8 8 8 8 0 0 0 8 8 8 8 0 0 0 8-8 8 8 0 0 0-7.3-7.964 16 16 0 0 1 13.74 9.116 3.95 3.95 0 0 0 1.32-1.836A18 18 0 0 0 32 20zm0 4a6 6 0 0 1 6 6 6 6 0 0 1-6 6 6 6 0 0 1-6-6 6 6 0 0 1 6-6zm0 2a4 4 0 0 0-4 4 4 4 0 0 0 4 4 4 4 0 0 0 4-4 4 4 0 0 0-.18-1.176A2 2 0 0 1 34 30a2 2 0 0 1-2-2 2 2 0 0 1 1.18-1.82A4 4 0 0 0 32 26z"/><path d="M16 18v22h14v4h-6v2h16v-2h-6v-4h14V18H18zm2 2h28v18H18z"/></g></svg>