<svg width="64" height="64" xmlns="http://www.w3.org/2000/svg"><path d="M10 5h44c1.108 0 2 .926 2 2.08v49.844c0 1.15-.892 2.076-2.003 2.076H10.003A1.996 2.072 0 0 1 8 56.92V7.076C8 5.926 8.895 5 10.003 5z" fill="#ececec" style="paint-order:fill markers stroke"/><path d="M12 10v10h10V10zm1.996 2h2v2h2v-2h2v2h-2v2h2v2h-2v-2h-2v2h-2zm12-2.001v2h26v-2zm0 6v2h26v-2zm-13.996 6v2h16v-2zm20 0v20h20v-20zm1.998 2h16v16h-16zm-21.998 4v2h16v-2zm0 6v2h16v-2zm0 6v2h16v-2zM12 46v2h40v-2zm0 6v2h40v-2z" fill="#b3b3b3" fill-rule="evenodd"/><path d="M35.996 25.998H48v12.004H35.996z" fill="#7cd1cc" fill-rule="evenodd"/></svg>