<svg width="64" height="64" viewBox="0 0 16.933 16.933" xmlns="http://www.w3.org/2000/svg"><path d="m7.144 2.377-3.704.001c-.294 0-.395.268-.53.529v.003h-.264c-.586 0-1.058.472-1.058 1.059v7.408c0 .586.472 1.058 1.058 1.058h11.642c.586 0 1.058-.472 1.058-1.058V3.969c0-.587-.472-1.059-1.058-1.059h-4.46c-.013 0-.025-.003-.038-.003H7.674c-.155-.25-.235-.53-.53-.53z" fill="#5294e2" style="paint-order:stroke fill markers"/><path d="m7.144 2.377-3.704.001c-.294 0-.395.268-.53.529v.003h-.264c-.586 0-1.058.472-1.058 1.059v7.408c0 .586.472 1.058 1.058 1.058h11.642c.586 0 1.058-.472 1.058-1.058V3.969c0-.587-.472-1.059-1.058-1.059l-6.614-.003c-.155-.25-.235-.53-.53-.53z" opacity=".18" style="paint-order:stroke fill markers"/><rect x="2.381" y="3.7" width="12.171" height="5.027" ry=".533" fill="#fff" paint-order="markers stroke fill"/><rect x="3.704" y="2.64" width="3.175" height=".529" ry=".265" opacity=".25" paint-order="stroke markers fill"/><path d="m8.996 4.233-.794 1.059H1.587C1.001 5.292.53 5.764.53 6.35v7.408c0 .586.472 1.058 1.058 1.058h13.758c.587 0 1.059-.472 1.059-1.058V5.292c0-.587-.472-1.059-1.059-1.059z" fill="#5294e2" style="paint-order:stroke fill markers"/><path d="M6.35 6.35v1.058a4.233 4.233 0 0 1 4.233 4.233h1.058A5.29 5.29 0 0 0 6.35 6.35m0 2.117v1.058c1.169 0 2.117.948 2.117 2.116h1.058A3.175 3.175 0 0 0 6.35 8.467m0 2.116a1.058 1.058 0 1 0 0 2.117 1.058 1.058 0 0 0 0-2.117" opacity=".15"/><rect x="10.318" y="4.762" width="4.233" height=".529" ry=".265" opacity=".25" style="paint-order:stroke markers fill"/><circle cx="13.493" cy="12.435" r="3.439" fill="#4d4d4d" style="paint-order:stroke fill markers"/><path d="M13.493 10.451a1.323 1.323 0 0 0-1.323 1.323h-.22a.309.309 0 0 0-.31.309v2.028c0 .171.139.309.31.309h3.087a.308.308 0 0 0 .308-.309v-2.028a.308.308 0 0 0-.308-.31h-.221a1.323 1.323 0 0 0-1.323-1.322zm0 .265a.926.926 0 0 1 .926.926.926.926 0 0 1-.01.132h-1.832a.926.926 0 0 1-.01-.132.926.926 0 0 1 .926-.926z" fill="#fff"/><circle cx="13.493" cy="13.097" r="1.058" fill="gray"/><path fill="#1a1a1a" d="M13.229 13.097h.529v.794h-.529z"/><circle cx="13.493" cy="12.832" r=".529" fill="#1a1a1a"/></svg>