<svg width="64" height="64" viewBox="0 0 16.933 16.933" xmlns="http://www.w3.org/2000/svg"><defs><filter id="c" x="-.081" y="-.162" width="1.162" height="1.324" color-interpolation-filters="sRGB"><feGaussianBlur stdDeviation=".214"/></filter><filter id="b" x="-.113" y="-.103" width="1.226" height="1.207" color-interpolation-filters="sRGB"><feGaussianBlur stdDeviation=".548"/></filter><clipPath id="a"><rect x="1.587" y="2.646" width="13.758" height="12.7" rx=".794" ry=".794" fill="#ececec" opacity=".8" stroke-linecap="round" stroke-linejoin="round" stroke-width=".37" style="paint-order:stroke fill markers"/></clipPath></defs><rect x="1.587" y="2.646" width="13.758" height="12.7" rx=".794" ry=".794" fill="#ececec" opacity=".5" style="paint-order:stroke fill markers"/><path d="M3.175 1.587a.528.528 0 0 0-.53.53v.529h11.643v-.53a.528.528 0 0 0-.53-.529z" fill="#6694ff" style="paint-order:stroke markers fill"/><rect x="2.646" y="1.587" width="11.641" height="12.7" rx=".529" ry=".529" clip-path="url(#a)" fill="#38f" filter="url(#b)" style="paint-order:stroke markers fill"/><rect x="1.587" y="2.646" width="13.758" height="12.7" rx=".794" ry=".794" fill="#fff" opacity=".65" style="paint-order:stroke fill markers"/><path d="M5.292 4.233a3.175 3.175 0 0 0 3.175 3.175 3.175 3.175 0 0 0 3.175-3.175h-.794a2.381 2.381 0 0 1-2.381 2.381 2.381 2.381 0 0 1-2.382-2.38z" fill="#1754d3" filter="url(#c)" opacity=".35" style="paint-order:stroke markers fill"/><path d="M5.292 3.969a3.175 3.175 0 0 0 3.175 3.175 3.175 3.175 0 0 0 3.175-3.175h-.794a2.381 2.381 0 0 1-2.381 2.38 2.381 2.381 0 0 1-2.382-2.38z" fill="#6694ff" style="paint-order:stroke markers fill"/><path d="M7.673 13.493v-2.646H6.35l2.117-2.116 2.116 2.116H9.26v2.646z" fill="#fff" style="paint-order:stroke markers fill"/></svg>