<svg width="64" height="64" xmlns="http://www.w3.org/2000/svg"><defs><style id="current-color-scheme" type="text/css">.ColorScheme-Text{color:#4d4d4d}</style></defs><g transform="matrix(1.3 0 0 1.3 .8 -20)" stroke-width=".769"><rect x="4" y="20" width="40" height="40" rx="6.154" ry="6.154" fill="#404448"/><g fill-rule="evenodd"><rect x="9" y="34" width="30" height="2" rx="1" ry=".956" color="#000" fill="#fff" opacity=".194" style="isolation:auto;mix-blend-mode:normal"/><path d="M9.961 33.988c-.557 0-1.005.449-1.005 1.006s.448 1.005 1.005 1.005h21.056v-2.011z" color="#000" fill="#3daee9" style="isolation:auto;mix-blend-mode:normal"/><circle cx="31.972" cy="34.939" r="2.912" color="#000" fill="#fafafa" style="isolation:auto;mix-blend-mode:normal"/><rect x="9" y="44" width="30" height="2" rx="1" ry=".823" color="#000" fill="#fff" opacity=".194" style="isolation:auto;mix-blend-mode:normal"/><path d="M9.961 43.988c-.557 0-1.005.449-1.005 1.006s.448 1.005 1.005 1.005h11.056v-2.011z" color="#000" fill="#3daee9" style="isolation:auto;mix-blend-mode:normal"/><circle cx="19.972" cy="44.939" r="2.912" color="#000" fill="#fafafa" style="isolation:auto;mix-blend-mode:normal"/></g></g></svg>