<svg width="64" height="64" version="1.1" viewBox="0 0 16.933 16.933" xmlns="http://www.w3.org/2000/svg">
 <circle cx="8.4665" cy="8.4665" r="7.1436" fill="#198ee6" stroke-width=".99996" style="paint-order:markers stroke fill"/>
 <path d="m10.054 4.2333c0.72965 0 1.3229 0.59324 1.3229 1.3229 0 0.72965-0.59324 1.3229-1.3229 1.3229-0.72965 0-1.3229-0.59324-1.3229-1.3229 0-0.72965 0.59324-1.3229 1.3229-1.3229zm1.0583 3.1749c0.87845 0 1.5875 0.70902 1.5875 1.5875v1.5875h-2.685c0-0.38623-0.1079-0.74764-0.29352-1.0583h1.9203v-0.52916c0-0.29315-0.236-0.52916-0.52916-0.52916h-2.9445c0.28444-0.27606 0.47591-0.63853 0.53847-1.0314 0.09302-0.01654 0.19017-0.02687 0.28938-0.02687h2.1166z" fill="#ffffff" opacity=".5" stroke-width=".52916"/>
 <path d="m6.879 5.8207c0.72965 0 1.3229 0.59324 1.3229 1.3229 0 0.72965-0.59324 1.3229-1.3229 1.3229-0.72965 0-1.3229-0.59324-1.3229-1.3229 0-0.72965 0.59324-1.3229 1.3229-1.3229zm1.0583 3.1749c0.87845 0 1.5875 0.70902 1.5875 1.5875v1.5875h-5.2916v-1.5875c0-0.87845 0.70902-1.5875 1.5875-1.5875zm0 1.0583h-2.1166c-0.29315 0-0.52916 0.236-0.52916 0.52916v0.52916h3.1749v-0.52916c0-0.29315-0.236-0.52916-0.52916-0.52916z" fill="#ffffff" stroke-width=".52916"/>
</svg>
