<svg width="64" height="64" xmlns="http://www.w3.org/2000/svg"><path d="M63.016 49H52.677v-5.884l5.17-2.61z" fill="#2bac8f"/><path d="M57.846 40.506H47.508l1.034 4.57L52.677 49z" fill="#2e997c"/><path d="M52.679 49H42.34l2.068-5.884 3.101-2.61z" fill="#278768"/><path d="m42.338 32.007-4.135-2.629-6.204 2.629 5.17 8.494z" fill="#21674f"/><path d="m47.51 40.506-5.168-1.315-5.17 1.315L42.343 49z" fill="#2a8d70"/><path d="M47.51 40.498H37.174l2.54-4.175 2.628-4.319z" fill="#2f9f81"/><path d="M63.016 15H52.678v4.553l5.169 3.942z" fill="#96cfba"/><path d="M57.846 23.495h-10.34l1.035-5.904 4.134-2.59z" fill="#85c8b1"/><path d="M52.679 15H42.34v4.553l5.168 3.942z" fill="#6bbfa4"/><path d="m47.51 23.496-5.168 1.943-5.17-1.943 5.17-8.494z" fill="#52b99b"/><path d="M47.51 23.503H37.174l1.034 3.905 4.135 4.59z" fill="#44b799"/><path d="M42.338 32H32l5.17-8.495z" fill="#33b394"/><path d="M37.168 40.5 32 43.11l-5.17-2.61L32 32.005z" fill="#2da4ad"/><path d="M37.17 40.506H26.83l.165 5.526L32 49.001z" fill="#2f98af"/><path d="M31.997 49H21.658v-5.884l5.17-2.61 2.548 4.187z" fill="#0d657a"/><path d="M26.83 40.506 21.66 39.19l-5.17 1.315L21.661 49" fill="#2a69b1"/><path d="M26.83 40.498H16.492l1.034-5.237 4.135-3.257z" fill="#2077bc"/><path d="m21.66 32.007-6.202-2.629-4.136 2.629 5.17 8.494" fill="#2886c7"/><path d="M21.662 32H11.323v-6.553l5.17-1.943z" fill="#238dcd"/><path d="m16.522 23.478-5.2-1.98-5.17 1.98 5.185 8.52" fill="#1a9cd1"/><path d="M16.491 23.495H6.153l1.035-3.942L11.323 15z" fill="#0ea6d3"/><path d="M11.323 15H.985l5.17 8.495z" fill="#08abd8"/></svg>