<svg width="64" height="64" version="1" xmlns="http://www.w3.org/2000/svg"><defs><linearGradient id="a" x1="22.856" x2="16.436" y1="38.187" y2="30.314" gradientTransform="matrix(1.4 0 0 1.4 -1.6 -1.6)" gradientUnits="userSpaceOnUse"><stop offset="0"/><stop stop-opacity="0" offset="1"/></linearGradient></defs><rect x="5" y="5" width="54" height="54" rx="27" ry="27" fill="#e4e4e4"/><rect x="9" y="9" width="46" height="46" rx="23" ry="23" fill="#f2f2f2"/><path d="M32 14c-2.994-.012-5.982.912-8.404 2.72-5.812 4.219-8.65 11.438-9.379 18.392-.056 1.967-.629 4.135.355 5.96 1.55 2.447 4.73 2.543 7.25 3.253 3.898.658 6.444 4.048 9.904 5.644l.274.032.275-.032c3.46-1.596 6.006-4.986 9.905-5.644 2.519-.71 5.7-.806 7.249-3.254.984-1.824.41-3.992.355-5.959-.73-6.954-3.567-14.173-9.38-18.392-2.42-1.808-5.41-2.732-8.404-2.72zm0 9.643c3.06-.016 6.116 1.526 7.909 4.08 1.642 2.257 2.611 5.266 2.791 8.048-4.055 1.197-7.204 4.09-10.532 6.538 0 0-.112.082-.167.098a.836.836 0 0 1-.167-.098c-3.328-2.449-6.478-5.341-10.533-6.538.18-2.782 1.15-5.792 2.791-8.048 1.793-2.554 4.849-4.096 7.909-4.08z" fill="#80d955"/><path d="M21.107 40.419c-4.363 1.944-8.717 4.344-13.087 6.264-1.149.184-1.554.675-1.534 1.21 2.63 2.112 6.495 2.38 9.68 3.278 1.52.256 2.905.78 4.216 1.46 4.052.23 8.63-1.913 11.618-4.444a1.3 1.3 0 0 1-.26-.153c-.335-.247-.667-.508-1-.76l-.12-.093c-3.1-2.344-6.158-4.82-9.514-6.762z" fill="url(#a)" opacity=".1" transform="translate(11.429 11.429) scale(.64286)"/></svg>