<svg width="64" height="64" xmlns="http://www.w3.org/2000/svg"><g transform="translate(-384.57 -483.8)" stroke-width="3.78"><g transform="translate(384.57 483.8)"><path d="M2.003 18.002v35.997a.995.995 0 0 0 .998 1.002h58.002a.998.998 0 0 0 .998-1.002V17.998H2.004z" fill="#fff" style="paint-order:markers stroke fill"/><path d="M2.003 18.002v35.997a.995.995 0 0 0 .998 1.002h58.002a.998.998 0 0 0 .998-1.002V17.998h-.998v35.044c0 .53-.435.956-.968.956H3.968a.96.96 0 0 1-.967-.956V17.998H1.999z" opacity=".1" style="paint-order:markers stroke fill"/><path d="M3.001 9a.998.998 0 0 0-1.002 1v7.998H62v-7.997a.998.998 0 0 0-.997-1.002z" fill="#666" style="paint-order:stroke markers fill"/><rect x="56.002" y="12" width="3.001" height="3.001" ry="1.5" opacity=".35" style="paint-order:stroke markers fill"/><rect x="50" y="12" width="3.001" height="3.001" ry="1.5" opacity=".35" style="paint-order:stroke markers fill"/><rect x="44.002" y="12" width="3.001" height="3.001" ry="1.5" opacity=".35" style="paint-order:stroke markers fill"/><path d="M62.001 42.294a36.303 36.303 0 0 1-12.828 12.707h11.83a.998.998 0 0 0 .998-1.002z" opacity=".05" style="paint-order:markers stroke fill"/></g><path d="M404.57 514.8v17.511c0 .27.221.487.499.487h29c.276 0 .5-.218.499-.487l.002-17.512h-1v17h-28v-17h-1.002z" opacity=".1" style="paint-order:markers stroke fill"/><path d="M405.57 505.8c-.54 0-1.003.448-1.002 1.002v7.997h30v-7.997c.001-.553-.554-1.002-.998-1.002z" fill="#666" style="paint-order:stroke markers fill"/><rect x="428.57" y="508.8" width="3.001" height="3.001" ry="1.5" opacity=".35" style="paint-order:stroke markers fill"/><rect x="422.57" y="508.8" width="3.001" height="3.001" ry="1.5" opacity=".35" style="paint-order:stroke markers fill"/><rect x="416.57" y="508.8" width="3.001" height="3.001" ry="1.5" opacity=".35" style="paint-order:stroke markers fill"/></g></svg>