<svg width="64" height="64" xmlns="http://www.w3.org/2000/svg"><path d="M2.003 45.998V10.001a.995.995 0 0 1 .998-1.002h58.002a.998.998 0 0 1 .998 1.002v36.001H2.004z" fill="#fff" style="paint-order:markers stroke fill"/><path d="M3.001 56a.998.998 0 0 1-1.002-1.002v-8.997H62v8.997A.998.998 0 0 1 61.003 56z" fill="#666" style="paint-order:stroke markers fill"/><path d="M2.003 45.996V9.001a.995.995 0 0 1 .998-1.002h58.002c.553 0 1 .45.998 1.002v36.998h-.998V9.957a.962.962 0 0 0-.968-.956H3.968a.96.96 0 0 0-.967.956v36.042H1.999z" opacity=".1" style="paint-order:markers stroke fill"/><path d="M10 48a3 3 0 0 0-3 3 3 3 0 0 0 3 3 3 3 0 0 0 3-3 3 3 0 0 0-3-3zm0 1a2 2 0 0 1 2 2 2 2 0 0 1-2 2 2 2 0 0 1-2-2 2 2 0 0 1 2-2z" opacity=".35" style="paint-order:fill markers stroke"/><rect x="40" y="49" width="16" height="4" rx="1" ry="1" opacity=".35" style="paint-order:fill markers stroke"/><rect x="19" y="49" width="16" height="4" rx="1" ry="1" opacity=".35" style="paint-order:fill markers stroke"/></svg>