<svg width="64" height="64" xmlns="http://www.w3.org/2000/svg" xmlns:xlink="http://www.w3.org/1999/xlink"><linearGradient id="a" gradientUnits="userSpaceOnUse"><stop stop-color="#292c2f" offset="0"/><stop stop-opacity="0" offset="1"/></linearGradient><linearGradient id="b" x1="388.42" x2="388.42" y1="557.8" y2="505.8" gradientTransform="matrix(.58696 0 0 .53846 -274.36 -220.73)" gradientUnits="userSpaceOnUse"><stop stop-color="#7f8c8d" offset="0"/><stop stop-color="#afb0b3" offset="1"/></linearGradient><path d="M54 53c0 2.991-2.121 5-5 5H15c-2.878 0-5-2.009-5-5V11c0-2.991 2.122-5 5-5h34c2.878 0 5 2.009 5 5z" fill="#cacbcf"/><path d="M51 11a2 2 0 1 1-4 0 2 2 0 0 1 4 0z" fill="#85858a"/><path d="M50 11a1 1 0 1 0-2 0 1 1 0 0 0 2 0z" fill="#fff"/><path d="M17 11a2 2 0 1 1-4 0 2 2 0 0 1 4 0z" fill="#85858a"/><path d="M16 11a1 1 0 1 0-2 0 1 1 0 0 0 2 0z" fill="#fff"/><path d="M14 39h-4v14c0 2.873 2.169 5 5 5h18v-9c-7.752-.5-14.611-4.25-19-10z" fill="#949496"/><g fill-rule="evenodd"><path d="M48 27.122C48 35.837 40.837 43 32 43s-16-7.163-16-15.878C16 18.164 23.163 11 32 11s16 7.164 16 16.122" fill="#fff"/><use transform="translate(27 22)" width="100%" height="100%" fill="#1a1a1a" xlink:href="#a"/><use transform="translate(27.003 22.007)" width="100%" height="100%" fill="#fff" opacity=".1" xlink:href="#b"/></g><path d="M32 10c-9.388 0-17 7.61-17 17 0 9.388 7.612 17 17 17s17-7.612 17-17c0-9.39-7.612-17-17-17zm10.417 27.418a14.714 14.714 0 0 1-4.683 3.159A14.646 14.646 0 0 1 32 41.732c-1.99 0-3.92-.388-5.734-1.155a14.714 14.714 0 0 1-4.683-3.16A14.67 14.67 0 0 1 17.266 27a14.676 14.676 0 0 1 4.316-10.417 14.658 14.658 0 0 1 4.684-3.16A14.632 14.632 0 0 1 32 12.268c1.99 0 3.92.39 5.734 1.157a14.655 14.655 0 0 1 4.683 3.158A14.676 14.676 0 0 1 46.734 27a14.673 14.673 0 0 1-4.316 10.418z" fill="#fff"/><g transform="matrix(-1 0 0 1 44.75 49.25)" fill="#949496" fill-rule="evenodd"><rect width="1" height="7" rx=".5"/><rect x="2" width="1" height="7" rx=".5"/><rect x="4" width="1" height="7" rx=".5"/><rect x="6" width="1" height="7" rx=".5"/><rect x="8" width="1" height="7" rx=".5"/></g><path d="M51 53a2 2 0 1 1-4 0 2 2 0 0 1 4 0z" fill="#85858a"/><path d="M50 53a1 1 0 1 0-2 0 1 1 0 0 0 2 0z" fill="#fff"/><path d="M17 53a2 2 0 1 1-4 0 2 2 0 0 1 4 0z" fill="#6a6a6a"/><path d="M16 53a1 1 0 1 0-2 0 1 1 0 0 0 2 0z" fill="#fff"/><g stroke-width=".5"><path d="M32 11.001a16 16 0 0 0-13.824 7.972L32 25.883l13.816-6.91A16 16 0 0 0 32 11.001z" fill="#8cd839"/><path d="M17.27 20.755A16 16 0 0 0 16 27.001a16 16 0 0 0 15 15.95V27.619z" fill="#419bc8"/><path d="M46.714 20.759 33 27.619v15.346a16 16 0 0 0 15-15.964 16 16 0 0 0-1.286-6.242z" fill="#57cfc2"/></g></svg>