<svg width="64" height="64" version="1" xmlns="http://www.w3.org/2000/svg" xmlns:xlink="http://www.w3.org/1999/xlink">
 <defs>
  <linearGradient id="linearGradient1166" x1="29.049" x2="29.049" y1="3.4568" y2="40.296" gradientTransform="matrix(1.1333,0,0,1.0345,-4.2667,-1.1034)" gradientUnits="userSpaceOnUse">
   <stop stop-color="#4285db" offset="0"/>
   <stop stop-color="#42b9db" offset="1"/>
  </linearGradient>
  <linearGradient id="linearGradient895" x1="31.815" x2="31.815" y1="56.586" y2="-1.5864" gradientUnits="userSpaceOnUse">
   <stop stop-color="#ffffff" offset="0"/>
   <stop stop-color="#ffffff" stop-opacity="0" offset="1"/>
  </linearGradient>
 </defs>
 <rect x="13" width="38" height="64" rx="5" ry="5" fill="#4d4d4d" stroke-linecap="round" stroke-linejoin="round" stroke-width="10.902" style="paint-order:stroke fill markers"/>
 <rect x="15" y="2" width="34" height="60" rx="3" ry="3" fill="url(#linearGradient1166)" stroke-linecap="round" stroke-linejoin="round" stroke-width="9.9852" style="paint-order:stroke fill markers"/>
 <rect x="39" y="44" width="8" height="8" rx="1" ry="1" fill="#ffffff" opacity=".35"/>
 <rect x="17" y="44" width="8" height="8" rx="1" ry="1" fill="#ffffff" opacity=".35"/>
 <g fill="url(#linearGradient895)">
  <rect x="28" y="22" width="8" height="8" rx="1" ry="1"/>
  <rect x="39" y="22" width="8" height="8" rx="1" ry="1"/>
  <rect x="17" y="22" width="8" height="8" rx="1" ry="1"/>
  <rect x="28" y="33" width="8" height="8" rx="1" ry="1"/>
  <rect x="39" y="33" width="8" height="8" rx="1" ry="1"/>
  <rect x="17" y="33" width="8" height="8" rx="1" ry="1"/>
  <rect x="28" y="11" width="8" height="8" rx="1" ry="1"/>
  <rect x="39" y="11" width="8" height="8" rx="1" ry="1"/>
  <rect x="17" y="11" width="8" height="8" rx="1" ry="1"/>
  <rect x="28" y="44" width="8" height="8" rx="1" ry="1"/>
 </g>
</svg>
