<svg width="64" height="64" version="1" xmlns="http://www.w3.org/2000/svg">
 <defs>
  <filter id="filter875" x="-.12343" y="-.096" width="1.2469" height="1.192" color-interpolation-filters="sRGB">
   <feGaussianBlur stdDeviation="2.16"/>
  </filter>
  <clipPath id="clipPath879">
   <path d="m43.001 31c-8.8649 0-16.001 7.1355-16.001 15.999s7.1363 16 16.001 16c8.8632 0 15.999-7.1366 15.999-16 0-8.8635-7.1357-16-15.999-16z" fill="#f9f9f9" stroke-width=".57144"/>
  </clipPath>
 </defs>
 <rect x="11" y="3" width="42" height="54" rx="10" ry="10" fill="#68ca68" stroke-linecap="round" stroke-linejoin="round" stroke-width="9.5235" style="paint-order:stroke fill markers"/>
 <rect x="20" y="13" width="24" height="2" rx="1" ry="1" fill="#ffffff" opacity=".35" stroke-linecap="round" stroke-linejoin="round" stroke-width="1.633" style="paint-order:stroke fill markers"/>
 <rect x="23" y="17" width="18" height="2" rx="1" ry="1" fill="#ffffff" opacity=".35" stroke-linecap="round" stroke-linejoin="round" stroke-width="1.4142" style="paint-order:stroke fill markers"/>
 <rect x="26" y="21" width="12" height="2" rx="1" ry="1" fill="#ffffff" opacity=".35" stroke-linecap="round" stroke-linejoin="round" stroke-width="1.1547" style="paint-order:stroke fill markers"/>
 <path d="m43.001 31c-8.8649 0-16.001 7.1355-16.001 15.999s7.1363 16 16.001 16c8.8632 0 15.999-7.1366 15.999-16 0-8.8635-7.1357-16-15.999-16z" fill="#f9f9f9" stroke-width=".57144"/>
 <rect x="11" y="3" width="42" height="54" rx="10" ry="10" clip-path="url(#clipPath879)" fill="#68ca68" filter="url(#filter875)" opacity=".35" stroke-linecap="round" stroke-linejoin="round" stroke-width="9.5235" style="paint-order:stroke fill markers"/>
 <g transform="matrix(.6875 0 0 .6875 21 24.999)" fill="#ffffff">
  <path d="m32.062 20.5c-6.068 0-11.531 2.156-16.062 5.5l16.062 17.5 15.938-17.563c-4.513-3.307-9.915-5.437-15.938-5.437z" fill="#f9f9f9" opacity=".5"/>
  <path d="m32 25.1a21.632 21.632 0 0 0-12.925 4.262l12.993 14.138 12.857-14.138a21.632 21.632 0 0 0-12.925-4.262z" opacity=".5"/>
  <path d="m32 29.7c-3.626 0-6.99 1.189-9.693 3.196l9.744 10.605 9.643-10.604a16.222 16.222 0 0 0-9.694-3.196z"/>
  <path d="m32.002 29.695c-3.626 0-6.992 1.19-9.695 3.199l0.325 0.353a16.213 16.213 0 0 1 9.37-2.977 16.2 16.2 0 0 1 9.369 2.979l0.322-0.355a16.213 16.213 0 0 0-9.691-3.199z" opacity=".1"/>
 </g>
</svg>
