<svg width="64" height="64" version="1" xmlns="http://www.w3.org/2000/svg"><defs><clipPath id="a"><path d="M29.231 34c-.681 0-1.23.566-1.23 1.272v22.455c0 .705.549 1.27 1.23 1.273h4.77l2.615 3h14.77L54 59h4.77c.68 0 1.23-.569 1.23-1.273V35.272c0-.705-.55-1.272-1.23-1.272z" fill="#f9f9f9"/></clipPath><filter id="b" x="-.123" y="-.096" width="1.247" height="1.192" color-interpolation-filters="sRGB"><feGaussianBlur stdDeviation="2.16"/></filter></defs><rect x="11" y="3" width="42" height="54" rx="10" ry="10" fill="#5494de" style="paint-order:stroke fill markers"/><path d="M29.231 34c-.681 0-1.23.566-1.23 1.272v22.455c0 .705.549 1.27 1.23 1.273h4.77l2.615 3h14.77L54 59h4.77c.68 0 1.23-.569 1.23-1.273V35.272c0-.705-.55-1.272-1.23-1.272z" fill="#f9f9f9"/><rect x="11" y="3" width="42" height="54" rx="10" ry="10" clip-path="url(#a)" fill="#5494de" filter="url(#b)" opacity=".35" style="paint-order:stroke fill markers"/><path d="m39 57.999-2-3h-5v-17h24v17h-4l-3 3z" fill="#fff"/><path d="M35 40.999h3v-3h-3zm5 0h3v-3h-3zm5 0h3v-3h-3zm5 0h3v-3h-3z" fill="#fd5"/><rect x="20" y="13" width="24" height="2" rx="1" ry="1" fill="#fff" opacity=".35" style="paint-order:stroke fill markers"/><rect x="23" y="17" width="18" height="2" rx="1" ry="1" fill="#fff" opacity=".35" style="paint-order:stroke fill markers"/><rect x="26" y="21" width="12" height="2" rx="1" ry="1" fill="#fff" opacity=".35" style="paint-order:stroke fill markers"/></svg>