<svg width="64" height="64" version="1" xmlns="http://www.w3.org/2000/svg"><defs><clipPath id="a"><path d="M43.001 31C34.136 31 27 38.136 27 46.999s7.136 16 16.001 16a15.965 15.965 0 0 0 15.999-16c0-8.864-7.136-16-15.999-16z" fill="#f9f9f9" stroke-width=".571"/></clipPath><filter id="b" x="-.123" y="-.096" width="1.247" height="1.192" color-interpolation-filters="sRGB"><feGaussianBlur stdDeviation="2.16"/></filter></defs><rect x="11" y="3" width="42" height="54" rx="10" ry="10" fill="#68ca68" style="paint-order:stroke fill markers"/><rect x="20" y="13" width="24" height="2" rx="1" ry="1" fill="#fff" opacity=".35" style="paint-order:stroke fill markers"/><rect x="23" y="17" width="18" height="2" rx="1" ry="1" fill="#fff" opacity=".35" style="paint-order:stroke fill markers"/><rect x="26" y="21" width="12" height="2" rx="1" ry="1" fill="#fff" opacity=".35" style="paint-order:stroke fill markers"/><path d="M43.001 31C34.136 31 27 38.136 27 46.999s7.136 16 16.001 16a15.965 15.965 0 0 0 15.999-16c0-8.864-7.136-16-15.999-16z" fill="#f9f9f9"/><rect x="11" y="3" width="42" height="54" rx="10" ry="10" clip-path="url(#a)" fill="#68ca68" filter="url(#b)" opacity=".35" style="paint-order:stroke fill markers"/><g fill="#fff"><path d="M43.043 39.093c-4.172 0-7.928 1.482-11.043 3.781l11.043 12.031L54 42.831c-3.103-2.274-6.817-3.738-10.957-3.738z" fill="#f9f9f9" opacity=".5"/><path d="M43 42.255a14.872 14.872 0 0 0-8.886 2.93l8.933 9.72 8.839-9.72A14.872 14.872 0 0 0 43 42.255z" opacity=".5"/><path d="M43 45.418c-2.493 0-4.806.817-6.664 2.197l6.7 7.29 6.629-7.29A11.153 11.153 0 0 0 43 45.419z"/><path d="M43.001 45.414c-2.492 0-4.807.818-6.665 2.2l.224.242A11.146 11.146 0 0 1 43 45.81a11.137 11.137 0 0 1 6.442 2.048l.22-.244a11.146 11.146 0 0 0-6.662-2.2z" opacity=".1"/></g></svg>