<svg width="64" height="64" version="1" xmlns="http://www.w3.org/2000/svg">
 <defs>
  <filter id="filter883" x="-.12343" y="-.096" width="1.2469" height="1.192" color-interpolation-filters="sRGB">
   <feGaussianBlur stdDeviation="2.16"/>
  </filter>
  <clipPath id="clipPath889">
   <path d="m46 25.597-15.998 5.6c0 21.553-0.62131 23.207 15.998 32.803 16.482-9.5268 15.998-11.243 15.998-32.803z" color="#000000" fill="#f9f9f9" overflow="visible" solid-color="#000000" stroke-width="1.1754" style="isolation:auto;mix-blend-mode:normal"/>
  </clipPath>
 </defs>
 <rect x="11" y="3" width="42" height="54" rx="10" ry="10" fill="#f7c42a" stroke-linecap="round" stroke-linejoin="round" stroke-width="9.5235" style="paint-order:stroke fill markers"/>
 <path d="m46 25.597-15.998 5.6c0 21.553-0.62131 23.207 15.998 32.803 16.482-9.5268 15.998-11.243 15.998-32.803z" color="#000000" fill="#f9f9f9" overflow="visible" solid-color="#000000" stroke-width="1.1754" style="isolation:auto;mix-blend-mode:normal"/>
 <rect x="11" y="3" width="42" height="54" rx="10" ry="10" clip-path="url(#clipPath889)" fill="#f7c42a" filter="url(#filter883)" opacity=".35" stroke-linecap="round" stroke-linejoin="round" stroke-width="9.5235" style="paint-order:stroke fill markers"/>
 <path d="m46 35c2.3474 0 4.2501 1.9033 4.2493 4.2507 0.0058 1.7035-1.0114 3.244-2.5803 3.9076l2.5803 8.8417h-8.5l2.5817-8.8404c-1.5702-0.66305-2.5882-2.2045-2.5817-3.9089-7.33e-4 -2.3479 1.9028-4.2514 4.2507-4.2507z" color="#000000" fill="#ffffff" overflow="visible" solid-color="#000000" stroke-width="1.1352" style="isolation:auto;mix-blend-mode:normal"/>
 <rect x="20" y="13" width="24" height="2" rx="1" ry="1" fill="#ffffff" opacity=".35" stroke-linecap="round" stroke-linejoin="round" stroke-width="1.633" style="paint-order:stroke fill markers"/>
 <rect x="23" y="17" width="18" height="2" rx="1" ry="1" fill="#ffffff" opacity=".35" stroke-linecap="round" stroke-linejoin="round" stroke-width="1.4142" style="paint-order:stroke fill markers"/>
 <rect x="26" y="21" width="12" height="2" rx="1" ry="1" fill="#ffffff" opacity=".35" stroke-linecap="round" stroke-linejoin="round" stroke-width="1.1547" style="paint-order:stroke fill markers"/>
</svg>
