<svg width="64" height="64" version="1" xmlns="http://www.w3.org/2000/svg"><defs><clipPath id="a"><path d="m46 25.597-15.998 5.6C30.002 52.75 29.381 54.404 46 64c16.482-9.527 15.998-11.243 15.998-32.803z" color="#000" fill="#f9f9f9" overflow="visible" stroke-width="1.175" style="isolation:auto;mix-blend-mode:normal"/></clipPath><filter id="b" x="-.123" y="-.096" width="1.247" height="1.192" color-interpolation-filters="sRGB"><feGaussianBlur stdDeviation="2.16"/></filter></defs><rect x="11" y="3" width="42" height="54" rx="10" ry="10" fill="#f7c42a" style="paint-order:stroke fill markers"/><path d="m46 25.597-15.998 5.6C30.002 52.75 29.381 54.404 46 64c16.482-9.527 15.998-11.243 15.998-32.803z" color="#000" fill="#f9f9f9" overflow="visible" style="isolation:auto;mix-blend-mode:normal"/><rect x="11" y="3" width="42" height="54" rx="10" ry="10" clip-path="url(#a)" fill="#f7c42a" filter="url(#b)" opacity=".35" style="paint-order:stroke fill markers"/><path d="M46 35a4.25 4.25 0 0 1 4.25 4.25 4.227 4.227 0 0 1-2.581 3.908L50.249 52h-8.5l2.582-8.84a4.226 4.226 0 0 1-2.582-3.91A4.25 4.25 0 0 1 46 35z" color="#000" fill="#fff" overflow="visible" style="isolation:auto;mix-blend-mode:normal"/><rect x="20" y="13" width="24" height="2" rx="1" ry="1" fill="#fff" opacity=".35" style="paint-order:stroke fill markers"/><rect x="23" y="17" width="18" height="2" rx="1" ry="1" fill="#fff" opacity=".35" style="paint-order:stroke fill markers"/><rect x="26" y="21" width="12" height="2" rx="1" ry="1" fill="#fff" opacity=".35" style="paint-order:stroke fill markers"/></svg>