<svg width="64" height="64" version="1" xmlns="http://www.w3.org/2000/svg">
 <defs>
  <linearGradient id="linearGradient1166" x1="29.049" x2="29.049" y1="3.4568" y2="40.296" gradientTransform="matrix(1.1333 0 0 1.0345 -4.2667 -1.1034)" gradientUnits="userSpaceOnUse">
   <stop stop-color="#4285db" offset="0"/>
   <stop stop-color="#42b9db" offset="1"/>
  </linearGradient>
 </defs>
 <rect x="13" width="38" height="64" rx="5" ry="5" fill="#4d4d4d" stroke-linecap="round" stroke-linejoin="round" stroke-width="10.902" style="paint-order:stroke fill markers"/>
 <rect x="15" y="2" width="34" height="60" rx="3" ry="3" fill="url(#linearGradient1166)" stroke-linecap="round" stroke-linejoin="round" stroke-width="9.9852" style="paint-order:stroke fill markers"/>
 <circle cx="32" cy="6" r="1" fill="#333333" stroke-linecap="round" stroke-linejoin="round" stroke-width="10" style="paint-order:stroke fill markers"/>
 <path d="m28.236 18.717-1.2363 0.71484 1.7109 2.9629c-3.1255 1.5082-3.1387 5.0332-3.1387 5.0332h12.855s-0.01413-3.5232-3.1387-5.0332l1.7109-2.9648-1.2363-0.71289-1.8496 3.2031c-0.62768-0.13997-1.269-0.20941-1.9121-0.20703-0.72 0-1.3489 0.08067-1.918 0.20703zm0.9082 5.8555c0.39383-0.0021 0.71392 0.31711 0.71289 0.71094-7.49e-4 0.39404-0.31886 0.7139-0.71289 0.7168-0.91122-0.03974-0.91122-1.388 0-1.4277zm5.7148 0c0.39383-0.0021 0.71392 0.31711 0.71289 0.71094-7.49e-4 0.39404-0.31886 0.7139-0.71289 0.7168-0.91122-0.03974-0.91122-1.388 0-1.4277zm-11.367 3.5664c-0.82182 0-1.4922 0.75777-1.4922 1.6914v6.6152c0 0.93273 0.66932 1.6934 1.4902 1.6934 0.82273 0 1.3672-0.76063 1.3672-1.6934v-6.6152c0-0.93364-0.54251-1.6914-1.3652-1.6914zm2.0781 0v12.145c0 0.33636 0.37848 0.71289 0.71484 0.71289h2.1426v2.6797c0 0.88909 0.56696 1.6074 1.4297 1.6074 0.85727 0 1.4568-0.72015 1.4277-1.6074v-2.6777h1.4297v2.6777c0 0.88909 0.56501 1.6074 1.4277 1.6074 0.85727 0 1.4297-0.73015 1.4297-1.6074v-2.6777h2.1426c0.33636 0 0.71289-0.37757 0.71289-0.71484v-12.143zm15.064 0c-0.82182 0-1.4902 0.75777-1.4902 1.6914v6.6152c0 0.93273 0.66842 1.6934 1.4902 1.6934 0.82091 0 1.3652-0.76063 1.3652-1.6934v-6.6152c0-0.93364-0.54251-1.6914-1.3652-1.6914z" fill="#ffffff" opacity=".5" stroke-linecap="round" stroke-linejoin="round" stroke-width="9.7333" style="paint-order:stroke fill markers"/>
 <rect x="23" y="58" width="18" height="1" rx=".5" ry=".5" fill="#ffffff" opacity=".5" stroke-linecap="round" stroke-linejoin="round" stroke-width="10.29" style="paint-order:stroke fill markers"/>
</svg>
