<svg width="64" height="64" version="1" xmlns="http://www.w3.org/2000/svg"><defs><linearGradient id="a" x1="29.049" x2="29.049" y1="3.457" y2="40.296" gradientTransform="matrix(1.1333 0 0 1.0345 -4.267 -1.103)" gradientUnits="userSpaceOnUse"><stop stop-color="#4285db" offset="0"/><stop stop-color="#42b9db" offset="1"/></linearGradient></defs><rect x="13" width="38" height="64" rx="5" ry="5" fill="#4d4d4d" style="paint-order:stroke fill markers"/><rect x="15" y="2" width="34" height="60" rx="3" ry="3" fill="url(#a)" style="paint-order:stroke fill markers"/><circle cx="32" cy="6" r="1" fill="#333" style="paint-order:stroke fill markers"/><path d="M28.236 18.717 27 19.432l1.71 2.963c-3.125 1.508-3.138 5.033-3.138 5.033h12.855s-.014-3.523-3.139-5.033L37 19.43l-1.236-.713-1.85 3.203a8.638 8.638 0 0 0-1.912-.207c-.72 0-1.349.08-1.918.207zm.908 5.856a.71.71 0 0 1 .713.71.718.718 0 0 1-.713.717c-.911-.04-.911-1.388 0-1.427zm5.715 0a.71.71 0 0 1 .713.71.718.718 0 0 1-.713.717c-.911-.04-.911-1.388 0-1.427zm-11.367 3.566c-.822 0-1.492.758-1.492 1.691v6.616c0 .932.67 1.693 1.49 1.693.823 0 1.367-.76 1.367-1.694V29.83c0-.933-.542-1.691-1.365-1.691zm2.078 0v12.145c0 .336.379.713.715.713h2.143v2.68c0 .889.566 1.607 1.43 1.607.857 0 1.456-.72 1.427-1.608V41h1.43v2.677c0 .89.565 1.608 1.427 1.608.858 0 1.43-.73 1.43-1.608V41h2.143c.336 0 .713-.378.713-.715V28.14zm15.064 0c-.822 0-1.49.758-1.49 1.691v6.616c0 .932.668 1.693 1.49 1.693.821 0 1.365-.76 1.365-1.694V29.83c0-.933-.542-1.691-1.365-1.691z" fill="#fff" opacity=".5" style="paint-order:stroke fill markers"/><rect x="23" y="58" width="18" height="1" rx=".5" ry=".5" fill="#fff" opacity=".5" style="paint-order:stroke fill markers"/></svg>