<svg width="64" height="64" version="1" xmlns="http://www.w3.org/2000/svg">
 <defs>
  <linearGradient id="linearGradient1166" x1="29.049" x2="29.049" y1="3.4568" y2="40.296" gradientTransform="matrix(1.4 0 0 .89655 -12.8 3.3103)" gradientUnits="userSpaceOnUse">
   <stop stop-color="#4285db" offset="0"/>
   <stop stop-color="#42b9db" offset="1"/>
  </linearGradient>
  <linearGradient id="linearGradient873" x1="10.583" x2="225.69" y1="-184.68" y2="-184.68" gradientTransform="matrix(.14787 0 0 .18423 14.654 81.397)" gradientUnits="userSpaceOnUse">
   <stop stop-color="#fafbfb" offset="0"/>
   <stop stop-color="#fafbfb" stop-opacity="0" offset="1"/>
  </linearGradient>
  <linearGradient id="linearGradient893" x1="520" x2="410" y1="-620" y2="-620" gradientTransform="matrix(.039126 0 0 .048744 14.654 81.397)" gradientUnits="userSpaceOnUse">
   <stop stop-color="#000000" offset="0"/>
   <stop stop-color="#000000" stop-opacity="0" offset="1"/>
  </linearGradient>
 </defs>
 <rect x="9" y="4" width="46" height="56" rx="4" ry="4" fill="#4d4d4d" stroke-linecap="round" stroke-linejoin="round" stroke-width="11.221" style="paint-order:stroke fill markers"/>
 <rect x="11" y="6" width="42" height="52" rx="2" ry="2" fill="url(#linearGradient1166)" stroke-linecap="round" stroke-linejoin="round" stroke-width="10.332" style="paint-order:stroke fill markers"/>
 <path d="m41.26 26.803-18.779 25.348h30.52v-6.332l-11.74-19.016z" fill="#1a1a1a"/>
 <path d="m21.072 36.744-10.072 8.0586v11.197c0 1.108 0.892 2 2 2h35.029l-26.957-21.256z" fill="#ffffff" opacity=".75"/>
 <path d="m16.22 58 4.8516-21.253 26.959 21.253z" fill="#fafbfb" stroke-width=".16505"/>
 <path d="m41.262 24.854-6.2617 8.2871v24.859h16c1.108 0 2-0.892 2-2v-17.43l-11.738-13.717z" fill="#cccccc"/>
 <path d="m41.26 24.852 7.8262 33.148h1.9141c1.108 0 2-0.892 2-2v-17.43l-11.74-13.719z" fill="#ffffff"/>
 <path d="m16.22 58 4.8516-21.253 26.959 21.253z" fill="url(#linearGradient873)" stroke-width=".16505"/>
 <path d="m33.435 46.494v11.506h1.565v-10.271z" fill="url(#linearGradient893)" opacity=".35" stroke-width=".043671"/>
 <circle cx="14" cy="9" r="1" fill="#333333" stroke-linecap="round" stroke-linejoin="round" stroke-width="10" style="paint-order:stroke fill markers"/>
 <rect x="23" y="55" width="18" height="1" rx=".5" ry=".5" fill="#ffffff" stroke-linecap="round" stroke-linejoin="round" stroke-width="10.29" style="paint-order:stroke fill markers"/>
</svg>
