<svg width="64" height="64" version="1.1" xmlns="http://www.w3.org/2000/svg" xmlns:xlink="http://www.w3.org/1999/xlink">
 <defs>
  <linearGradient id="b">
   <stop stop-color="#fff" offset="0"/>
   <stop stop-color="#fff" stop-opacity="0" offset=".125"/>
   <stop stop-color="#fff" stop-opacity="0" offset="1"/>
  </linearGradient>
  <linearGradient id="d" x1="14" x2="6" y1="8" y2="16" gradientUnits="userSpaceOnUse" xlink:href="#b"/>
  <clipPath id="c">
   <path d="M8 2.686v14l3.133-3.82 2.066 4.986a1 1 0 1 0 1.848-.766l-2.111-5.096 4.378.01z" fill="#333" fill-rule="evenodd" stroke-width="2"/>
  </clipPath>
  <filter id="filter857" x="-.108" y="-.108" width="1.216" height="1.216" color-interpolation-filters="sRGB">
   <feGaussianBlur stdDeviation="2.34"/>
  </filter>
  <clipPath id="clipPath863">
   <path transform="matrix(2.645 -.70874 .69113 2.5793 9.9101 16.984)" d="m8 2.686v14l3.133-3.82 2.066 4.986a1.0002 1.0002 0 1 0 1.848-0.766l-2.111-5.096 4.378 0.01z" clip-path="url(#c)" fill="#ffffff" fill-rule="evenodd" stroke="url(#d)" stroke-width="1.3"/>
  </clipPath>
 </defs>
 <circle cx="28" cy="32" r="26" fill="#4d4d4d" paint-order="markers stroke fill"/>
 <path transform="matrix(2.645 -.70874 .69113 2.5793 9.9101 16.984)" d="m8 2.686v14l3.133-3.82 2.066 4.986a1.0002 1.0002 0 1 0 1.848-0.766l-2.111-5.096 4.378 0.01z" clip-path="url(#c)" fill="#f9f9f9" fill-rule="evenodd" stroke="url(#d)" stroke-width="1.3"/>
 <circle cx="28" cy="32" r="26" clip-path="url(#clipPath863)" fill="#4d4d4d" filter="url(#filter857)" opacity=".35" paint-order="markers stroke fill"/>
</svg>
