<svg width="16" height="16" version="1.1" viewBox="0 0 16 16" xmlns="http://www.w3.org/2000/svg">
 <defs>
  <style id="current-color-scheme" type="text/css">.ColorScheme-Text { color:#363636; }</style>
 </defs>
 <g style="fill:currentColor" class="ColorScheme-Text">
  <path d="m16 2v12h-16v-12zm-15 1v5.2891l3.5-3.4922 5 5 2-2 3.5 3.4922v-8.2891zm0 10h10.289l-6.7891-6.7969-3.5 3.5078zm14 0v-0.28906l-3.5-3.5078-1.2969 1.2969 2.5078 2.5zm-2.5-7q-0.20312 0-0.35156-0.14844-0.14844-0.14844-0.14844-0.35156t0.14844-0.35156q0.14844-0.14844 0.35156-0.14844t0.35156 0.14844q0.14844 0.14844 0.14844 0.35156t-0.14844 0.35156q-0.14844 0.14844-0.35156 0.14844z"/>
 </g>
</svg>
