<svg version="1.1" viewBox="0 0 16 16" xmlns="http://www.w3.org/2000/svg">
 <defs>
  <style id="current-color-scheme" type="text/css">.ColorScheme-Text {
        color:#363636;
      }</style>
 </defs>
 <path class="ColorScheme-Text" d="m4 1c-1.108 0-2 0.892-2 2v10c0 1.108 0.892 2 2 2h9c1.108 0 2-0.892 2-2v-10c0-1.108-0.892-2-2-2zm0 1h1v12h-1c-0.554 0-1-0.446-1-1v-10c0-0.554 0.446-1 1-1zm2 0h7c0.554 0 1 0.446 1 1v10c0 0.554-0.446 1-1 1h-7zm-5 1v3h1v-3zm0 7v3h1v-3z" color="#363636" fill="currentColor"/>
</svg>
