<svg width="16" height="16" version="1.1" xmlns="http://www.w3.org/2000/svg">
 <path d="m12.717 0.7832a0.5 0.5 0 0 0-0.35352 0.14648 0.5 0.5 0 0 0 0 0.70703c1.688 1.6877 2.6364 3.9763 2.6367 6.3633-0.005627 1.3823-0.3329 2.7291-0.93359 3.9453l0.74609 0.74609c0.76651-1.4297 1.1811-3.038 1.1875-4.6895a0.50005 0.50005 0 0 0 0-0.0019531c-4.01e-4 -2.6518-1.0544-5.1954-2.9297-7.0703a0.5 0.5 0 0 0-0.35352-0.14648zm-6.6191 1.9297a1.0001 1.0001 0 0 0-0.80469 0.28906l-0.083984 0.085938 0.70703 0.70703 0.083984-0.085938v0.16992l1 1v-1.1699a1.0001 1.0001 0 0 0-0.61719-0.92383 1.0001 1.0001 0 0 0-0.28516-0.072266zm4.498 0.19141a0.5 0.5 0 0 0-0.35352 0.14648 0.5 0.5 0 0 0 0 0.70703c1.1254 1.1252 1.7576 2.6508 1.7578 4.2422-0.002294 0.56062-0.085169 1.1117-0.23828 1.6406l0.79102 0.79102c0.28843-0.7703 0.44412-1.5916 0.44727-2.4297a0.50005 0.50005 0 0 0 0-0.0019531c-2.8e-4 -1.8562-0.7381-3.6368-2.0508-4.9492a0.5 0.5 0 0 0-0.35352-0.14648zm-6.0937 0.89062-1.2051 1.2051h-0.29688-0.0019531-0.99805c-1.0907 0-2 0.9093-2 2v2c0 1.0907 0.9093 2 2 2h0.99805 0.0019531 0.29688l1.9961 1.998a1.0001 1.0001 0 0 0 1.707-0.70703v-5.998l-1-1v6.998l-2.2891-2.291h-0.71094-0.0019531-0.99805c-0.554 0-1-0.446-1-1v-2c0-0.554 0.446-1 1-1h0.99805 0.0019531 0.71094l1.498-1.498-0.70703-0.70703zm3.9727 1.2305a0.5 0.5 0 0 0-0.35352 0.14648 0.5 0.5 0 0 0 0 0.70703c0.168 0.16796 0.31141 0.35552 0.43359 0.55469l1.4395 1.4395c-0.032549-1.0143-0.44613-1.9814-1.166-2.7012a0.5 0.5 0 0 0-0.35352-0.14648zm0.50977 3.252c-0.067084 0.69249-0.37195 1.3432-0.86914 1.8379a0.5 0.5 0 0 0 0 0.70703 0.5 0.5 0 0 0 0.70703 0c0.47809-0.47573 0.82302-1.0604 1.0117-1.6953l-0.84961-0.84961zm2.3809 2.3809c-0.28829 0.57593-0.66942 1.1074-1.1348 1.5703a0.5 0.5 0 0 0-0.001953 0.70898 0.5 0.5 0 0 0 0.70898 0.001953c0.46324-0.46078 0.85417-0.98081 1.168-1.541l-0.74024-0.74024zm2.1895 2.1895c-0.34658 0.53571-0.74951 1.0391-1.209 1.4961a0.5 0.5 0 0 0-0.001953 0.70898 0.5 0.5 0 0 0 0.70898 0.001954c0.45903-0.45653 0.86871-0.95399 1.2266-1.4824l-0.72461-0.72461z" color="#000000" fill="#363636" stroke-linecap="round" stroke-linejoin="round" style="-inkscape-stroke:none;paint-order:normal"/>
 <path d="m1.636 0.92893 13.435 13.435c0.19587 0.19587 0.19587 0.51124 0 0.70711-0.19587 0.19587-0.51124 0.19587-0.70711 0l-13.435-13.435c-0.19587-0.19587-0.19587-0.51124 0-0.70711 0.19587-0.19587 0.51124-0.19587 0.70711 0z" color="#000000" fill="#363636" stroke-linecap="round" stroke-linejoin="round" stroke-width="2" style="-inkscape-stroke:none;paint-order:stroke fill markers"/>
</svg>
