<svg width="16" height="16" version="1.1" xmlns="http://www.w3.org/2000/svg">
 <rect x="2" y="5" width="8" height="6" rx="1" ry="1" fill="#363636" stroke-linecap="round" stroke-linejoin="round" stroke-width="1.2792" style="paint-order:stroke fill markers"/>
 <path class="ColorScheme-Text" d="m3 3c-1.662 0-3 1.338-3 3v4c0 1.662 1.338 3 3 3h9c1.662 0 3-1.338 3-3v-1h1v-2h-1v-1c0-1.662-1.338-3-3-3zm0 1h9c1.108 0 1.9254 0.89452 2 2v4c0 1.108-0.892 2-2 2h-9c-1.108 0-2-0.892-2-2v-4c0-1.108 0.892-2 2-2z" color="#333333" fill="#363636"/>
</svg>
