<svg width="16" height="16" version="1.1" xmlns="http://www.w3.org/2000/svg">
 <path d="m8.5 1.5c0-0.27614-0.22386-0.5-0.5-0.5s-0.5 0.22386-0.5 0.5v1c0 0.27614 0.22386 0.5 0.5 0.5s0.5-0.22386 0.5-0.5zm-4.7426 1.5502c-0.19526-0.19526-0.51185-0.19526-0.70711 0s-0.19526 0.51185 0 0.70711l0.70711 0.70711c0.19526 0.19526 0.51184 0.19526 0.70711 0 0.19526-0.19527 0.19526-0.51185 0-0.70711zm9.1923 0.70711c0.1953-0.19526 0.1953-0.51185 0-0.70711-0.1952-0.19526-0.5118-0.19526-0.7071 0l-0.7071 0.70711c-0.1952 0.19526-0.1952 0.51184 0 0.70711 0.1953 0.19526 0.5119 0.19526 0.7071 0zm-11.45 3.7426c-0.27614 0-0.5 0.22386-0.5 0.5s0.22386 0.5 0.5 0.5h1c0.27614 0 0.5-0.22386 0.5-0.5s-0.22386-0.5-0.5-0.5zm12 0c-0.2761 0-0.5 0.22386-0.5 0.5s0.2239 0.5 0.5 0.5h1c0.2761 0 0.5-0.22386 0.5-0.5s-0.2239-0.5-0.5-0.5zm-9.0355 4.7426c0.19526-0.1952 0.19526-0.5118 0-0.7071-0.19527-0.1952-0.51185-0.1952-0.70711 0l-0.70711 0.7071c-0.19526 0.1953-0.19526 0.5119 0 0.7071 0.19526 0.1953 0.51185 0.1953 0.70711 0zm7.7781-0.7071c-0.1952-0.1952-0.5118-0.1952-0.7071 0-0.1952 0.1953-0.1952 0.5119 0 0.7071l0.7071 0.7071c0.1953 0.1953 0.5119 0.1953 0.7071 0 0.1953-0.1952 0.1953-0.5118 0-0.7071zm-3.7426 1.9645c0-0.2761-0.22386-0.5-0.5-0.5s-0.5 0.2239-0.5 0.5v1c0 0.2761 0.22386 0.5 0.5 0.5s0.5-0.2239 0.5-0.5zm-0.5-9.5c-2.2091 0-4 1.7909-4 4 0 2.2091 1.7909 4 4 4 2.2091 0 4-1.7909 4-4 0-2.2091-1.7909-4-4-4zm-3 4c0-1.6568 1.3432-3 3-3s3 1.3432 3 3-1.3432 3-3 3-3-1.3431-3-3z" fill="#363636"/>
 <path d="m8 6a2 2 0 0 0-2 2 2 2 0 0 0 2 2v-4z" fill="#363636" style="paint-order:stroke fill markers"/>
</svg>
