<svg width="16" height="16" version="1.1" xmlns="http://www.w3.org/2000/svg">
 <path d="m8 1c-0.27614 0-0.5 0.22386-0.5 0.5v1c0 0.27614 0.22386 0.5 0.5 0.5s0.5-0.22386 0.5-0.5v-1c0-0.27614-0.22386-0.5-0.5-0.5zm-4.5957 1.9043c-0.12796 0-0.25589 0.048854-0.35352 0.14648-0.19526 0.19526-0.19526 0.51177 0 0.70703l0.70703 0.70703c0.19526 0.19526 0.51176 0.19526 0.70703 0 0.19526-0.19527 0.19526-0.51177 0-0.70703l-0.70703-0.70703c-0.09763-0.09763-0.22555-0.14648-0.35352-0.14648zm9.1914 0c-0.12796 0-0.25587 0.048854-0.35352 0.14648l-0.70703 0.70703c-0.1952 0.19526-0.1952 0.51176 0 0.70703 0.1953 0.19526 0.51183 0.19526 0.70703 0l0.70703-0.70703c0.1953-0.19526 0.1953-0.51177 0-0.70703-0.0976-0.09763-0.22555-0.14648-0.35352-0.14648zm-4.5957 1.0957c-0.55447 0-1.0824 0.11248-1.5625 0.31641l0.78711 0.78711c0.24748-0.066075 0.50708-0.10352 0.77539-0.10352 1.6568 0 3 1.3432 3 3 0 0.26831-0.037441 0.52791-0.10352 0.77539l0.78711 0.78711c0.20393-0.48006 0.31641-1.008 0.31641-1.5625 0-2.2091-1.7909-4-4-4zm-2.4492 0.84375c-0.94199 0.73181-1.5508 1.871-1.5508 3.1562 0 2.2091 1.7909 4 4 4 1.2852 0 2.4244-0.60879 3.1562-1.5508l-0.71289-0.71289c-0.54381 0.76381-1.4343 1.2637-2.4434 1.2637-1.6568 0-3-1.3432-3-3 0-1.009 0.49986-1.8996 1.2637-2.4434l-0.71289-0.71289zm-4.0508 2.6562c-0.27614 0-0.5 0.22386-0.5 0.5s0.22386 0.5 0.5 0.5h1c0.27614 0 0.5-0.22386 0.5-0.5s-0.22386-0.5-0.5-0.5h-1zm12 0c-0.2761 0-0.5 0.22386-0.5 0.5s0.2239 0.5 0.5 0.5h1c0.2761 0 0.5-0.22386 0.5-0.5s-0.2239-0.5-0.5-0.5h-1zm-9.3887 3.8887c-0.12796 0-0.25589 0.048884-0.35352 0.14648l-0.70703 0.70703c-0.19526 0.1953-0.19526 0.51183 0 0.70703 0.19526 0.1953 0.51177 0.1953 0.70703 0l0.70703-0.70703c0.19526-0.1952 0.19526-0.51173 0-0.70703-0.097635-0.0976-0.22555-0.14648-0.35352-0.14648zm7.7773 0c-0.12796 0-0.25587 0.048884-0.35352 0.14648-0.1952 0.1953-0.1952 0.51183 0 0.70703l0.70703 0.70703c0.1953 0.1953 0.51183 0.1953 0.70703 0 0.1953-0.1952 0.1953-0.51173 0-0.70703l-0.70703-0.70703c-0.0976-0.0976-0.22555-0.14648-0.35352-0.14648zm-3.8887 1.6113c-0.27614 0-0.5 0.2239-0.5 0.5v1c0 0.2761 0.22386 0.5 0.5 0.5s0.5-0.2239 0.5-0.5v-1c0-0.2761-0.22386-0.5-0.5-0.5z" fill="#363636"/>
 <path d="m1.636 0.92893 13.435 13.435c0.19587 0.19587 0.19587 0.51124 0 0.70711s-0.51124 0.19587-0.70711 0l-13.435-13.435c-0.19587-0.19587-0.19587-0.51124 0-0.70711s0.51124-0.19587 0.70711 0z" color="#000000" fill="#363636" stroke-linecap="round" stroke-linejoin="round" stroke-width="2" style="-inkscape-stroke:none;paint-order:stroke fill markers"/>
</svg>
