<svg width="15.974" height="16" version="1.1" xmlns="http://www.w3.org/2000/svg">
 <path d="m7.987 0.99999c3.3137 0 6 2.6863 6 6 0 2.8672-1.935 5.5058-5.7316 7.9218-0.16379 0.1043-0.37309 0.1043-0.53688 0-3.7966-2.416-5.7316-5.0546-5.7316-7.9218 0-3.3137 2.6863-6 6-6zm0 1c-2.7614 0-5 2.2386-5 5 0 2.3254 1.5397 4.5577 4.6806 6.6918l0.31943 0.2131 0.31943-0.2131c3.1409-2.1341 4.6806-4.3664 4.6806-6.6918 0-2.7614-2.2386-5-5-5zm0 3.5c0.82843 0 1.5 0.67157 1.5 1.5s-0.67157 1.5-1.5 1.5-1.5-0.67157-1.5-1.5 0.67157-1.5 1.5-1.5z" fill="#363636"/>
</svg>
