<svg width="16" height="16" version="1.1" xmlns="http://www.w3.org/2000/svg">
 <rect x="3" y="6" width="1" height="1" rx=".5" ry=".5" fill="#363636" stroke-linecap="square" stroke-width="2" style="paint-order:stroke fill markers"/>
 <rect x="6" y="6" width="1" height="1" rx=".5" ry=".5" fill="#363636" stroke-linecap="square" stroke-width="2" style="paint-order:stroke fill markers"/>
 <rect x="9" y="6" width="1" height="1" rx=".5" ry=".5" fill="#363636" stroke-linecap="square" stroke-width="2" style="paint-order:stroke fill markers"/>
 <path d="m12-9.4e-5c-0.554 0-1 0.446-1 1v5c0 0.554 0.446 1 1 1h1v7.4453c0 0.30778 0.223 0.55469 0.5 0.55469s0.5-0.24691 0.5-0.55469v-7.4453h1c0.554 0 1-0.446 1-1v-5c0-0.554-0.446-1-1-1zm-10 1c-1.108 0-2 0.892-2 2v7c0 1.108 0.89614 1.9043 2 2h3v2h-1.5c-0.034625 0-0.068955 0.0031-0.10156 0.0098-0.032607 0.0066-0.06382 0.01668-0.09375 0.0293s-0.057393 0.02894-0.083984 0.04688c-0.026592 0.01793-0.051625 0.03795-0.074219 0.06055-0.022594 0.02259-0.042611 0.04763-0.060547 0.07422s-0.034258 0.05405-0.046875 0.08399c-0.012617 0.02993-0.022658 0.06114-0.029297 0.09375-0.00664 0.03261-0.00977 0.06694-0.00977 0.10156s0.00313 0.06896 0.00977 0.10156c0.00664 0.03261 0.01668 0.06382 0.029297 0.09375s0.02894 0.05739 0.046875 0.08398 0.037953 0.05163 0.060547 0.07422 0.047627 0.04261 0.074219 0.06055 0.054055 0.03426 0.083984 0.04688c0.02993 0.01262 0.061143 0.02266 0.09375 0.0293 0.032607 0.0066 0.066938 0.0098 0.10156 0.0098h8c0.03463 0 0.06896-0.0031 0.10156-0.0098 0.03261-0.0066 0.06382-0.01668 0.09375-0.0293s0.05739-0.02894 0.08399-0.04688c0.02659-0.01794 0.05163-0.03795 0.07422-0.06055 0.02259-0.02259 0.04261-0.04763 0.06055-0.07422s0.03426-0.05405 0.04688-0.08398 0.02266-0.06114 0.0293-0.09375c0.0066-0.03261 0.0098-0.06694 0.0098-0.10156 0-0.277-0.223-0.5-0.5-0.5h-0.5v-2h0.5c0.277 0 0.5-0.223 0.5-0.5s-0.22404-0.52392-0.5-0.5h-9.5c-0.554 0-1-0.446-1-1v-7c0-0.554 0.446-1 1-1h7.5c0.277 0 0.5-0.223 0.5-0.5s-0.223-0.5-0.5-0.5h-7.5zm10 0h3v1h-3zm0 2h3v3h-3zm-6 9h4v2h-4z" fill="#363636"/>
</svg>
