<svg width="16" height="16" version="1.1" xmlns="http://www.w3.org/2000/svg">
 <path d="m12 0c-0.554 0-1 0.446-1 1v5c0 0.554 0.446 1 1 1h1v7.4453c0 0.30778 0.223 0.55469 0.5 0.55469s0.5-0.24691 0.5-0.55469v-7.4453h1c0.554 0 1-0.446 1-1v-5c0-0.554-0.446-1-1-1h-3zm-10 1c-1.108 0-2 0.892-2 2v7c0 1.108 0.89614 1.9043 2 2h3v2h-1.5c-0.034625 0-0.068955 0.003127-0.10156 0.009766-0.032607 0.006638-0.06382 0.016679-0.09375 0.029296-0.02993 0.012618-0.057393 0.02894-0.083984 0.046876-0.026592 0.017935-0.051625 0.037953-0.074219 0.060546-0.022594 0.022594-0.042611 0.047627-0.060547 0.074219s-0.034258 0.054055-0.046875 0.083985c-0.012617 0.029929-0.022658 0.061142-0.029297 0.09375-0.0066386 0.032607-0.0097656 0.066937-0.0097656 0.10156s0.003127 0.068955 0.0097656 0.10156c0.0066387 0.032608 0.01668 0.063821 0.029297 0.09375 0.012617 0.02993 0.02894 0.057393 0.046875 0.083985s0.037953 0.051625 0.060547 0.074219c0.022594 0.022593 0.047627 0.042611 0.074219 0.060546 0.026592 0.017936 0.054055 0.034258 0.083984 0.046876 0.02993 0.012617 0.061143 0.022658 0.09375 0.029296 0.032607 0.006639 0.066938 0.009766 0.10156 0.009766h8c0.034625 0 0.068955-0.003127 0.10156-0.009766 0.032608-0.006638 0.063821-0.016679 0.09375-0.029296 0.02993-0.012618 0.057393-0.02894 0.083985-0.046876 0.026592-0.017935 0.051625-0.037953 0.074219-0.060546 0.022593-0.022594 0.042611-0.047627 0.060546-0.074219 0.017936-0.026592 0.034258-0.054055 0.046876-0.083985 0.012617-0.029929 0.022658-0.061142 0.029296-0.09375 0.006639-0.032607 0.009766-0.066937 0.009766-0.10156 0-0.277-0.223-0.5-0.5-0.5h-0.5v-2h0.5c0.277 0 0.5-0.223 0.5-0.5s-0.22404-0.52392-0.5-0.5h-9.5c-0.554 0-1-0.446-1-1v-7c0-0.554 0.446-1 1-1h7.5c0.277 0 0.5-0.223 0.5-0.5s-0.223-0.5-0.5-0.5h-3-4.5zm10 0h3v1h-3v-1zm0 2h3v3h-3v-3zm-6 9h4v2h-4v-2z" fill="#363636"/>
</svg>
