<svg width="16" height="16" version="1.1" xmlns="http://www.w3.org/2000/svg">
 <defs>
  <style id="current-color-scheme" type="text/css">.ColorScheme-Text{color:#363636}</style>
 </defs>
 <path d="m12 0c-0.554 0-1 0.446-1 1v5c0 0.2283 0.0792 0.43555 0.20703 0.60352 0.18781-0.13988 0.39098-0.25748 0.60547-0.35156 0.37212-0.16596 0.78001-0.25195 1.1875-0.25195h-1v-3h3v3h-2c0.40211 0 0.80416 0.087277 1.1719 0.25 0.35036 0.15043 0.67241 0.36655 0.93945 0.63867 0.03009 0.029528 0.05918 0.060959 0.08789 0.091797 3.06e-4 3.286e-4 0.0016-3.288e-4 2e-3 0 0.45646-0.092942 0.79878-0.49572 0.79878-0.98047v-5c0-0.554-0.446-1-1-1zm-10 1c-1.108 0-2 0.892-2 2v7c0 1.108 0.89614 1.9043 2 2h3v2h-1.5c-0.277 0-0.5 0.223-0.5 0.5s0.223 0.5 0.5 0.5h5.7773c-0.17448-0.2959-0.27734-0.63714-0.27734-1h-3v-2h3v-1h-7c-0.554 0-1-0.446-1-1v-7c0-0.554 0.446-1 1-1h7.5c0.277 0 0.5-0.223 0.5-0.5s-0.223-0.5-0.5-0.5h-3zm10 0h3v1h-3z" fill="#363636"/>
 <path d="m13 7c-0.27604 0-0.53646 0.054692-0.78125 0.16406-0.23958 0.10417-0.45052 0.2474-0.63281 0.42969-0.17709 0.17708-0.32032 0.38802-0.42969 0.63281-0.10417 0.24479-0.15625 0.50261-0.15625 0.77344v1c-0.554 0-1 0.446-1 1v3c0 0.554 0.446 1 1 1h4c0.554 0 1-0.446 1-1v-3c0-0.554-0.446-1-1-1v-1c0-0.27084-0.054693-0.52865-0.16406-0.77344-0.10417-0.24479-0.2474-0.45573-0.42969-0.63281-0.17708-0.1823-0.38802-0.32552-0.63281-0.42969-0.2448-0.10937-0.50261-0.16406-0.77344-0.16406zm0 1c0.13541 0 0.26302 0.026045 0.38281 0.078125 0.125 0.05208 0.23176 0.125 0.32031 0.21875 0.09375 0.08854 0.16667 0.19531 0.21875 0.32031 0.05208 0.11979 0.078125 0.24739 0.078125 0.38281v1h-2v-1c0-0.14062 0.02604-0.27084 0.07813-0.39062 0.05208-0.11979 0.12239-0.22395 0.21094-0.3125 0.09375-0.09375 0.20052-0.16667 0.32031-0.21875 0.11978-0.05208 0.25-0.078125 0.39062-0.078125zm-2 3h4v3h-4z" color="#000000" fill="#363636" stroke-linecap="round" stroke-width="2" style="-inkscape-stroke:none;paint-order:stroke fill markers"/>
</svg>
