<svg width="16" height="16" version="1.1" xmlns="http://www.w3.org/2000/svg">
 <path d="m11.5 7a4.5 4.5 0 0 0-4.5 4.5 4.5 4.5 0 0 0 4.5 4.5 4.5 4.5 0 0 0 4.5-4.5 4.5 4.5 0 0 0-4.5-4.5zm0 1a3.5 3.5 0 0 1 3.5 3.5 3.5 3.5 0 0 1-3.5 3.5 3.5 3.5 0 0 1-3.5-3.5 3.5 3.5 0 0 1 3.5-3.5z" fill="#d35f5f" stroke-linecap="square" stroke-width="2" style="paint-order:stroke fill markers"/>
 <rect x="11" y="9" width="1" height="3" rx="0" ry="0" fill="#d35f5f" stroke-linecap="square" stroke-width="2" style="paint-order:stroke fill markers"/>
 <rect x="11" y="13" width="1" height="1" fill="#d35f5f" stroke-linecap="square" stroke-width="2" style="paint-order:stroke fill markers"/>
 <path d="m12 0c-0.554 0-1 0.446-1 1v5c0 0.012118 0.0035 0.023145 0.0039 0.035156a5.5 5.5 0 0 1 0.4961-0.035156 5.5 5.5 0 0 1 3.1582 1h0.3418c0.554 0 1-0.446 1-1v-5c0-0.554-0.446-1-1-1h-3zm-10 1c-1.108 0-2 0.892-2 2v7c0 1.108 0.89614 1.9043 2 2h3v2h-1.5c-0.277 0-0.5 0.223-0.5 0.5s0.223 0.5 0.5 0.5h3.7676a5.5 5.5 0 0 1-0.6543-1h-0.61328v-2h0.037109a5.5 5.5 0 0 1-0.037109-0.5 5.5 5.5 0 0 1 0.037109-0.5h-4.0371c-0.554 0-1-0.446-1-1v-7c0-0.554 0.446-1 1-1h7.5c0.277 0 0.5-0.223 0.5-0.5s-0.223-0.5-0.5-0.5h-7.5zm10 0h3v1h-3zm0 2h3v3h-3z" fill="#363636"/>
</svg>
