<svg width="16" height="16" version="1.0" xmlns="http://www.w3.org/2000/svg">
 <path d="m7.9941 1c-1.3798 0-2.6527 0.4482-3.668 1.2051l0.71875 0.71875c0.82688-0.57899 1.8446-0.92383 2.9492-0.92383 2.697 0 4.8929 2.034 4.998 4.6074l0.003906 0.20508v3.6875l0.039062 0.19141 0.1582 0.38086 1.793 1.793-0.011719-0.078125c-0.0127-0.0569-0.030134-0.11192-0.052734-0.16602l-0.92578-2.2227v-3.5957l-0.003906-0.22461-0.013672-0.22266c-0.2405-3.0205-2.8354-5.3555-5.9844-5.3555zm-4.416 1.8711c-0.932 0.97766-1.5218 2.266-1.5781 3.6973l-0.0039062 0.22461v3.6074l-0.92383 2.2207-0.042969 0.12695-0.021484 0.12695c-0.0504 0.4635 0.19274 0.88173 0.60352 1.0527l0.125 0.042969c0.08456 0.0228 0.17182 0.033203 0.25977 0.033203h2.0039v-0.003906h1.1777a3 3 0 0 0 2.8223 2 3 3 0 0 0 2.8223-2h2.1777v0.003906h0.99805l0.13476-0.009765 0.11524-0.027344c0.10697-0.030482 0.20522-0.076213 0.29297-0.13281l-0.82812-0.82812h-2.7129a3 3 0 0 0 0-0.001953 3 3 0 0 0 0-0.001953 3 3 0 0 0 0-0.001953h-1a2 2 0 0 1 0 0.001953 2 2 0 0 1 0 0.001953 2 2 0 0 1 0 0.001953l-4-0.001953a2 2 0 0 1 0-0.003906h-1a3 3 0 0 0 0 0.003906h-3.0039l0.96289-2.3125 0.037109-0.19141v-3.6973l0.0039062-0.20508 0.013672-0.21289c0.092046-1.0787 0.5562-2.0531 1.2695-2.8086l-0.70508-0.70508zm2.6973 11.129h3.4492a2 2 0 0 1-1.7246 1 2 2 0 0 1-1.7246-1z" fill="#363636"/>
 <path d="m1.636 0.92893 13.435 13.435c0.19587 0.19587 0.19587 0.51124 0 0.70711s-0.51124 0.19587-0.70711 0l-13.435-13.435c-0.19587-0.19587-0.19587-0.51124 0-0.70711s0.51124-0.19587 0.70711 0z" color="#000000" fill="#363636" stroke-linecap="round" stroke-linejoin="round" stroke-width="2" style="-inkscape-stroke:none;paint-order:stroke fill markers"/>
</svg>
