<svg width="16" height="16.01" version="1.1" xmlns="http://www.w3.org/2000/svg">
 <path d="m4.5 1.0039c-0.82843 1e-7 -1.5 0.67157-1.5 1.5v0.5h-0.5c-1.3807 0-2.5 1.1193-2.5 2.5v5c-1.4803e-16 0.8284 0.67157 1.5 1.5 1.5h1.5v1.5c0 0.8284 0.67157 1.5 1.5 1.5h5.1914a4.5 4.5 0 0 1-0.92383-1h-4.2676c-0.27614 0-0.5-0.2239-0.5-0.5v-4c0-0.27614 0.22386-0.5 0.5-0.5h4.2617a4.5 4.5 0 0 1 0.91797-1h-5.1797c-0.82843 0-1.5 0.67157-1.5 1.5v1.5h-1.5c-0.27614 0-0.5-0.22386-0.5-0.5v-5c0-0.82843 0.67157-1.5 1.5-1.5h11c0.8284 0 1.5 0.67157 1.5 1.5v2.2539a4.5 4.5 0 0 1 1 0.91406v-3.168c0-1.3807-1.1193-2.5-2.5-2.5h-0.5v-0.5c0-0.82843-0.6716-1.5-1.5-1.5h-7zm0 1h7c0.2761 0 0.5 0.22386 0.5 0.5v0.5h-8v-0.5c0-0.27614 0.22386-0.5 0.5-0.5z" fill="#363636"/>
 <path class="error" d="m12.5 8a3.5 3.5 0 1 0 0 7 3.5 3.5 0 0 0 0-7zm-0.5 1h1v3h-1zm0 4h1v1h-1z" fill="#ef2929"/>
</svg>
