<svg width="16" height="16" version="1.2" xmlns="http://www.w3.org/2000/svg">
 <path d="m4.5 1.9378a7 7 0 0 0-3.3085 7.6836 7 7 0 0 0 0.30717 0.97735l3.8362-2.2148c0.23989-0.1385 0.32151-0.44312 0.18301-0.68301-0.1385-0.23989-0.44312-0.32151-0.68301-0.18301l-2.7249 1.5732a6 6 0 0 1 2.89-6.2873 6 6 0 0 1 6.8968 0.63695l0.91169-0.52637a7 7 0 0 0-8.3085-0.97661zm6.1651 5.6782c-0.23989 0.1385-0.32151 0.44312-0.18301 0.68301 0.1385 0.23989 0.44312 0.32151 0.68301 0.18301l2.7249-1.5732a6 6 0 0 1-2.89 6.2873 6 6 0 0 1-6.89-0.64086l-0.91846 0.53027a7 7 0 0 0 8.3085 0.97661 7 7 0 0 0 3.3085-7.6836 7 7 0 0 0-0.30717-0.97735z" fill="#363636"/>
</svg>
