<svg width="64" height="64" version="1.1" xmlns="http://www.w3.org/2000/svg">
 <defs>
  <filter id="filter1451" x="-.07583" y="-.087204" width="1.1517" height="1.1744" color-interpolation-filters="sRGB">
   <feGaussianBlur stdDeviation="1.4534"/>
  </filter>
 </defs>
 <rect x="5" y="8" width="54" height="48" ry="2.087" fill="#198ee6" opacity=".6" stroke-linecap="round" stroke-linejoin="round" stroke-width="1.5183" style="paint-order:stroke fill markers"/>
 <rect x="9" y="12" width="46" height="40" ry="1.7391" fill="#ffffff" filter="url(#filter1451)" stroke-linecap="round" stroke-linejoin="round" stroke-width="1.2792" style="paint-order:stroke fill markers"/>
 <rect x="5" y="8" width="54" height="48" ry="2.087" fill="#198ee6" opacity=".8" stroke-linecap="round" stroke-linejoin="round" stroke-width="1.5183" style="paint-order:stroke fill markers"/>
 <path d="m12 16h24v2h-24z" fill="#ffffff"/>
 <circle cx="43" cy="17" r="2" fill="#ffffff"/>
 <circle cx="51" cy="17" r="2" fill="#ffffff"/>
 <path d="M12 31h24v2H12z" fill="#fff"/>
 <ellipse cx="43" cy="32" rx="2" ry="2" fill="#fff"/>
 <ellipse cx="51" cy="32" rx="2" ry="2" fill="#fff"/>
 <path d="m12 46h24v2h-24z" fill="#ffffff"/>
 <circle cx="43" cy="47" r="2" fill="#ffffff"/>
 <circle cx="51" cy="47" r="2" fill="#ffffff"/>
 <rect x="5" y="24" width="54" height="1" rx="0" ry="0" fill="#000000" opacity=".15" stroke-linecap="round" stroke-linejoin="round" stroke-width="1.5" style="paint-order:stroke fill markers"/>
 <rect x="5" y="39" width="54" height="1" rx="0" ry="0" fill="#000000" opacity=".15" stroke-linecap="round" stroke-linejoin="round" stroke-width="1.5" style="paint-order:stroke fill markers"/>
</svg>
