<svg width="64" height="64" version="1.1" viewBox="0 0 16.933 16.933" xmlns="http://www.w3.org/2000/svg">
 <defs>
  <filter id="filter878" x="-.10318" y="-.11329" width="1.2064" height="1.2266" color-interpolation-filters="sRGB">
   <feGaussianBlur stdDeviation="0.3412566"/>
  </filter>
  <clipPath id="clipPath882">
   <path d="m8.459 1.3226a7.1438 7.1438 0 0 0-7.1364 7.1436 7.1438 7.1438 0 0 0 7.1436 7.1441 7.1438 7.1438 0 0 0 7.1441-7.1441 7.1438 7.1438 0 0 0-7.1441-7.1436 7.1438 7.1438 0 0 0-0.0072 0zm0.0072 2.1166a3.7041 3.7041 0 0 1 3.7041 3.7041 3.7041 3.7041 0 0 1-3.7041 3.7041 3.7041 3.7041 0 0 1-3.7041-3.7041 3.7041 3.7041 0 0 1 3.7041-3.7041z" fill="#198ee6" fill-rule="evenodd" opacity=".6" style="paint-order:normal"/>
  </clipPath>
 </defs>
 <circle cx="8.4667" cy="8.4667" r="7.1438" fill="#198ee6" fill-rule="evenodd" opacity=".8" style="paint-order:normal"/>
 <path d="m12.436 11.906c0-1.2998-2.2056-1.9629-3.0854-2.1986 0 0 0.036457-0.72877 0.12149-0.99604 0.085036-0.26726 0.097155-0.57093 0.13361-0.65595 0.036464-0.085 0.46592-0.47375 0.49025-0.83813-0.005887-0.2175-0.048846-0.26894-0.15616-0.26894v-1.1295c0-0.60979-0.88904-1.1423-1.4725-1.1423-0.58358 0-1.4725 0.5325-1.4725 1.1423v1.1295c-0.10741 0-0.15038 0.0515-0.15616 0.26894 0.024335 0.36436 0.4537 0.7531 0.49025 0.83813 0.036367 0.085 0.048491 0.38864 0.13353 0.65595 0.085037 0.26723 0.12149 0.99604 0.12149 0.99604-0.87978 0.23576-3.0854 0.89887-3.0854 2.1986z" clip-path="url(#clipPath882)" fill="#f9f9f9" fill-rule="evenodd" filter="url(#filter878)" opacity=".6" stroke-width=".26458"/>
 <path d="m8.467 4.6766c-0.58358 0-1.4727 0.53274-1.4727 1.1425v1.1296c-0.10741 0-0.15028 0.051272-0.15606 0.26871 0.02434 0.36436 0.45385 0.75315 0.4904 0.83818 0.03637 0.085 0.04828 0.38845 0.13332 0.65576 0.08504 0.26723 0.12144 0.9963 0.12144 0.9963-0.31565 0.084588-0.80264 0.2267-1.2965 0.43097a3.7041 3.7041 0 0 0 2.1797 0.70899 3.7041 3.7041 0 0 0 2.1797-0.7095c-0.49352-0.20402-0.98059-0.34595-1.296-0.43046 0 0 0.0364-0.72903 0.12144-0.9963 0.08504-0.26726 0.09738-0.57074 0.13384-0.65576 0.03646-0.085 0.46607-0.4738 0.4904-0.83818-0.005887-0.2175-0.048745-0.26871-0.15606-0.26871v-1.1296c0-0.60979-0.88929-1.1425-1.4727-1.1425z" fill="#ffffff" fill-rule="evenodd" stroke-width=".26458"/>
</svg>
