<svg width="16" height="16" version="1.1" viewBox="0 0 16 16" xmlns="http://www.w3.org/2000/svg">
 <defs>
  <style id="current-color-scheme" type="text/css">.ColorScheme-Text { color:#363636; } .ColorScheme-Text { color:#363636; }</style>
 </defs>
 <path d="m12 5.5c0 0.82843-0.6716 1.5-1.5 1.5-0.8284 0-1.5-0.67157-1.5-1.5s0.6716-1.5 1.5-1.5c0.8284 0 1.5 0.67157 1.5 1.5zm-1 0c0-0.27614-0.2239-0.5-0.5-0.5s-0.5 0.22386-0.5 0.5 0.2239 0.5 0.5 0.5 0.5-0.22386 0.5-0.5zm-10-1.5c0-1.6568 1.3432-3 3-3h8c1.6569 0 3 1.3431 3 3v8c0 1.6569-1.3431 3-3 3h-8c-1.6568 0-3-1.3431-3-3zm3-2c-1.1046 0-2 0.89543-2 2v8c0 0.3726 0.10191 0.7215 0.27937 1.0201l4.6693-4.5881c0.58359-0.57341 1.519-0.57341 2.1026 0l4.6693 4.5881c0.1775-0.2986 0.2794-0.6475 0.2794-1.0201v-8c0-1.1046-0.8954-2-2-2zm0 12h8c0.3692 0 0.7149-0.1 1.0118-0.2744l-4.6614-4.5803c-0.1945-0.1911-0.50631-0.1911-0.70084 0l-4.6613 4.5803c0.29681 0.1744 0.64261 0.2744 1.0118 0.2744z" fill="#363636"/>
</svg>
