<svg width="16" height="16" version="1.1" viewBox="0 0 16 16" xmlns="http://www.w3.org/2000/svg">
 <defs>
  <style id="current-color-scheme" type="text/css">.ColorScheme-Text { color:#363636; }</style>
 </defs>
 <path d="m9 8c1.1046 0 2 0.8954 2 2v1.5c0 2.0544-2.088 3.5-5.5 3.5-3.412 0-5.5-1.4456-5.5-3.5v-1.5c0-1.1046 0.89543-2 2-2zm0 1h-7c-0.55228 0-1 0.4477-1 1v1.5c0 1.4071 1.5786 2.5 4.5 2.5 2.9214 0 4.5-1.0929 4.5-2.5v-1.5c0-0.5523-0.4477-1-1-1zm5-1c1.1046 0 2 0.8954 2 2v0.5c0 2.0886-1.5683 3.5-4.5 3.5-0.1413 0-0.2794-0.0033-0.4144-0.0098 0.2082-0.242 0.3828-0.5027 0.522-0.7812l0.0974-0.213 0.0388 5e-4c2.2322-0.0653 3.2562-1.0372 3.2562-2.4965v-0.5c0-0.5523-0.4477-1-1-1l-2.171-9e-4c-0.1319-0.3726-0.3353-0.7115-0.5937-0.99998zm-8.5-8c1.933 0 3.5 1.567 3.5 3.5s-1.567 3.5-3.5 3.5-3.5-1.567-3.5-3.5 1.567-3.5 3.5-3.5zm7 2c1.3807 0 2.5 1.1193 2.5 2.5s-1.1193 2.5-2.5 2.5-2.5-1.1193-2.5-2.5 1.1193-2.5 2.5-2.5zm-7-1c-1.3807 0-2.5 1.1193-2.5 2.5s1.1193 2.5 2.5 2.5 2.5-1.1193 2.5-2.5-1.1193-2.5-2.5-2.5zm7 2c-0.8284 0-1.5 0.67157-1.5 1.5s0.6716 1.5 1.5 1.5 1.5-0.67157 1.5-1.5-0.6716-1.5-1.5-1.5z" fill="#363636"/>
</svg>
