<svg width="16" height="16" version="1.1" viewBox="0 0 16 16" xmlns="http://www.w3.org/2000/svg">
 <defs>
  <style id="current-color-scheme" type="text/css">.ColorScheme-Text { color:#363636; }</style>
 </defs>
 <path d="m7.5312 0.0019531c-0.1163-0.0073655-0.2324 0.025001-0.32812 0.095703-0.12764 0.09427-0.20312 0.24367-0.20312 0.40234v9.5527c-0.65794-0.6727-1.559-1.0521-2.5-1.0527-1.933 0-3.5 1.567-3.5 3.5s1.567 3.5 3.5 3.5c1.9284 1.1e-5 3.4935-1.5599 3.5-3.4883 6.5e-6 -0.0039 6.5e-6 -0.0078 0-0.01172v-7.3223l5.3535 1.6464c0.1516 0.04667 0.31566 0.018098 0.44336-0.076172 0.1276-0.09427 0.20312-0.24366 0.20312-0.40234v-2.5234c0-1.0975-0.71662-2.0659-1.7656-2.3887l-4.5879-1.412c-0.037902-0.011665-0.076469-0.017076-0.11523-0.019531zm0.46875 1.1758 3.9414 1.2109c0.6294 0.19366 1.0586 0.77509 1.0586 1.4336v1.8457l-5-1.537zm-3.5 8.8223c1.3807 0 2.5 1.1193 2.5 2.5v0.01172c-0.0064508 1.3761-1.1239 2.4883-2.5 2.4883-1.3807 0-2.5-1.1193-2.5-2.5s1.1193-2.5 2.5-2.5z" fill="#363636"/>
</svg>
