<svg width="16" height="16" version="1.1" viewBox="0 0 16 16" xmlns="http://www.w3.org/2000/svg">
 <defs>
  <style id="current-color-scheme" type="text/css">.ColorScheme-Text { color:#363636; }</style>
 </defs>
 <path d="m6 0c-1.108 0-2 0.892-2 2v7c0 1.108 0.892 2 2 2h1v1c-0.554 0-1 0.446-1 1h-1c-0.554 0-1 0.446-1 1h-3.5c-0.277 0-0.5 0.223-0.5 0.5s0.223 0.5 0.5 0.5h3.5v1h7v-1h4.5c0.277 0 0.5-0.223 0.5-0.5s-0.223-0.5-0.5-0.5h-4.5c0-0.554-0.446-1-1-1h-1c0-0.554-0.446-1-1-1v-1h1c1.108 0 2-0.892 2-2v-7c0-1.108-0.892-2-2-2h-3zm0 1h3c0.554 0 1 0.446 1 1v7c0 0.554-0.446 1-1 1h-3c-0.554 0-1-0.446-1-1v-7c0-0.554 0.446-1 1-1zm0.5 1c-0.277 0-0.5 0.223-0.5 0.5s0.223 0.5 0.5 0.5h2c0.277 0 0.5-0.223 0.5-0.5s-0.223-0.5-0.5-0.5h-2zm0 4c-0.277 0-0.5 0.223-0.5 0.5s0.223 0.5 0.5 0.5h2c0.277 0 0.5-0.223 0.5-0.5s-0.223-0.5-0.5-0.5h-2zm0 2c-0.277 0-0.5 0.223-0.5 0.5s0.223 0.5 0.5 0.5h2c0.277 0 0.5-0.223 0.5-0.5s-0.223-0.5-0.5-0.5h-2zm0.5 5h1v1h2v1h-2-1-2v-1h2v-1z" fill="#363636"/>
</svg>
