<svg width="16" height="16" version="1.1" xmlns="http://www.w3.org/2000/svg">
 <path d="m9.6464 5.6465c0.1953-0.19526 0.5119-0.19526 0.7071 0l1.6465 1.6464 1.6464-1.6464c0.1953-0.19526 0.5119-0.19526 0.7071 0 0.1953 0.19526 0.1953 0.51184 0 0.70711l-1.6464 1.6464 1.6464 1.6464c0.1953 0.1953 0.1953 0.5119 0 0.7071-0.1952 0.1953-0.5118 0.1953-0.7071 0l-1.6464-1.6464-1.6465 1.6464c-0.1952 0.1953-0.5118 0.1953-0.7071 0-0.1952-0.1952-0.1952-0.5118 0-0.7071l1.6465-1.6464-1.6465-1.6464c-0.1952-0.19527-0.1952-0.51185 0-0.70711z" fill="#363636"/>
 <path d="m6.0977 2.7129a1.0001 1.0001 0 0 0-0.80469 0.28906l-1.9961 1.998h-1.2969c-1.0907 0-2 0.9093-2 2v2c0 1.0907 0.9093 2 2 2h1.2969l1.9961 1.998a1.0001 1.0001 0 0 0 1.707-0.70703v-8.582a1.0001 1.0001 0 0 0-0.61719-0.92383 1.0001 1.0001 0 0 0-0.28516-0.072266zm-0.097656 0.99609v8.582l-2.2891-2.291h-1.7109c-0.554 0-1-0.446-1-1v-2c0-0.554 0.446-1 1-1h1.7109z" color="#000000" fill="#363636" stroke-linecap="round" stroke-linejoin="round" style="-inkscape-stroke:none;paint-order:stroke fill markers"/>
</svg>
