<svg width="16" height="16" version="1.1" xmlns="http://www.w3.org/2000/svg">
 <path d="m12.363 0.92969a0.5 0.5 0 0 0 0 0.70703c1.688 1.6877 2.6364 3.9763 2.6367 6.3633-0.0097 2.3829-0.96468 4.6633-2.6543 6.3438a0.5 0.5 0 0 0-2e-3 0.70898 0.5 0.5 0 0 0 0.70898 2e-3c1.8776-1.8674 2.9371-4.4047 2.9473-7.0528a0.50005 0.50005 0 0 0 0-0.0019531c-4.01e-4 -2.6518-1.0544-5.1954-2.9297-7.0703a0.5 0.5 0 0 0-0.70703 0z" color="#000000" fill="#363636" opacity=".35" stroke-linecap="round" stroke-linejoin="round" style="-inkscape-stroke:none;paint-order:normal"/>
 <path d="m10.242 3.0508a0.5 0.5 0 0 0 0 0.70703c1.1254 1.1252 1.7576 2.6508 1.7578 4.2422-0.0065 1.5885-0.64326 3.1082-1.7695 4.2285a0.5 0.5 0 0 0-2e-3 0.70898 0.5 0.5 0 0 0 0.70898 2e-3c1.3143-1.3073 2.0556-3.0839 2.0625-4.9375a0.50005 0.50005 0 0 0 0-0.0019531c-2.8e-4 -1.8562-0.7381-3.6368-2.0508-4.9492a0.5 0.5 0 0 0-0.70703 0z" color="#000000" fill="#363636" opacity=".35" stroke-linecap="round" stroke-linejoin="round" style="-inkscape-stroke:none;paint-order:normal"/>
 <path d="m8.4746 5.0254a0.5 0.5 0 0 0-0.35352 0.14648 0.5 0.5 0 0 0 0 0.70703c0.56277 0.56265 0.87879 1.3253 0.87891 2.1211-0.0032746 0.7941-0.32182 1.5551-0.88477 2.1152a0.5 0.5 0 0 0 0 0.70703 0.5 0.5 0 0 0 0.70703 0c0.75086-0.74715 1.174-1.7611 1.1777-2.8203a0.50005 0.50005 0 0 0 0-0.0019531c-1.602e-4 -1.0606-0.42183-2.0782-1.1719-2.8281a0.5 0.5 0 0 0-0.35352-0.14648z" color="#000000" fill="#363636" stroke-linecap="round" stroke-linejoin="round" style="-inkscape-stroke:none;paint-order:normal"/>
 <path d="m6.0977 2.7129a1.0001 1.0001 0 0 0-0.80469 0.28906l-1.9961 1.998h-1.2969c-1.0907 0-2 0.9093-2 2v2c0 1.0907 0.9093 2 2 2h1.2969l1.9961 1.998a1.0001 1.0001 0 0 0 1.707-0.70703v-8.582a1.0001 1.0001 0 0 0-0.61719-0.92383 1.0001 1.0001 0 0 0-0.28516-0.072266zm-0.097656 0.99609v8.582l-2.2891-2.291h-1.7109c-0.554 0-1-0.446-1-1v-2c0-0.554 0.446-1 1-1h1.7109z" color="#000000" fill="#363636" stroke-linecap="round" stroke-linejoin="round" style="-inkscape-stroke:none;paint-order:stroke fill markers"/>
</svg>
