<svg width="16" height="16" version="1.1" xmlns="http://www.w3.org/2000/svg">
 <g fill="#363636" stroke-linecap="round" stroke-linejoin="round" stroke-width="2.001" style="paint-order:stroke fill markers" aria-label="î§">
  <path d="m8.8328 5.1704c0.37518 0.37518 0.66438 0.80768 0.86761 1.2975s0.30484 1.0005 0.30484 1.532c0 0.53151-0.10161 1.0422-0.30484 1.532-0.20323 0.48982-0.49243 0.92232-0.86761 1.2975l-0.70347-0.70347c0.28139-0.28139 0.49764-0.60446 0.64875-0.96922 0.15111-0.36997 0.22667-0.75557 0.22667-1.1568 0-0.40124-0.075557-0.78424-0.22667-1.149-0.15111-0.36997-0.36736-0.69565-0.64875-0.97704zm-3.5408-3.1734h0.71128v12.006h-0.71128l-3.0015-3.0015h-2.2902v-6.0029h2.2902zm-0.2892 1.7118-2.2902 2.2902h-1.7118v4.0019h1.7118l2.2902 2.2902z" fill="#363636" stroke-width="2.001"/>
 </g>
</svg>
