<svg width="16px" height="16px" version="1.1" viewBox="0 0 16 16" xmlns="http://www.w3.org/2000/svg">
 <path class="error" d="m5.2324 5.7324c-0.12781 0-0.25558 0.04855-0.35351 0.14648-0.19587 0.19587-0.19587 0.51117 0 0.70704l1.4141 1.4141-1.4141 1.4141c-0.19587 0.19587-0.19587 0.51117 0 0.70704s0.51117 0.19587 0.70704 0l1.4141-1.4141 1.4141 1.4141c0.19587 0.19587 0.51117 0.19587 0.70704 0s0.19587-0.51117 0-0.70704l-1.4141-1.4141 1.4141-1.4141c0.19587-0.19587 0.19587-0.51117 0-0.70704s-0.51117-0.19587-0.70704 0l-1.4141 1.4141-1.4141-1.4141c-0.097934-0.097934-0.22571-0.14649-0.35351-0.14648z" fill="#ff5555"/>
 <path class="error" d="m3 3c-1.662 0-3 1.338-3 3v4c0 1.662 1.338 3 3 3h9c1.662 0 3-1.338 3-3v-1h1v-2h-1v-1c0-1.662-1.338-3-3-3zm0 1h9c1.108 0 1.9254 0.89452 2 2v4c0 1.108-0.892 2-2 2h-9c-1.108 0-2-0.892-2-2v-4c0-1.108 0.892-2 2-2z" fill="#ff5555"/>
</svg>
