<svg width="16" height="16" enable-background="new 0 0 64 64" version="1.1" viewBox="0 0 16 16" xmlns="http://www.w3.org/2000/svg">
 <path d="m5.5 0c-0.65571 0-1.2111 0.41602-1.416 1h-1.084c-1.108 0-2 0.892-2 2v10c0 1.108 0.892 2 2 2h2.5c0.277 0 0.5-0.223 0.5-0.5s-0.223-0.5-0.5-0.5h-2.5c-0.554 0-1-0.446-1-1v-10c0-0.554 0.446-1 1-1h1.084c0.2049 0.58398 0.7603 1 1.416 1h3c0.65571 0 1.2111-0.41602 1.416-1h1.084c0.554 0 1 0.446 1 1v0.5c0 0.277 0.223 0.5 0.5 0.5s0.5-0.223 0.5-0.5v-0.5c0-1.108-0.892-2-2-2h-1.084c-0.2049-0.58398-0.7603-1-1.416-1zm0 1h3c0.277 0 0.5 0.223 0.5 0.5s-0.223 0.5-0.5 0.5h-3c-0.277 0-0.5-0.223-0.5-0.5s0.223-0.5 0.5-0.5zm-1.4414 0.080078c-0.011106 0.038401-0.019277 0.077566-0.027344 0.11719-0.0046 0.022588-0.010094 0.045408-0.013672 0.068359 0.00355-0.023165 0.00908-0.045564 0.013672-0.068359 0.00799-0.039721 0.016277-0.078714 0.027344-0.11719zm5.8828 0c0.011067 0.038473 0.019349 0.077466 0.027344 0.11719 0.00459 0.022796 0.010122 0.045194 0.013672 0.068359-0.00358-0.022952-0.00907-0.045771-0.013672-0.068359-0.00807-0.039622-0.016238-0.078787-0.027344-0.11719zm-5.9238 0.6543c0.00358 0.022952 0.00907 0.045771 0.013672 0.068359 0.00807 0.039622 0.016238 0.078787 0.027344 0.11719-0.011067-0.038473-0.01935-0.077466-0.027344-0.11719-0.004588-0.022796-0.010122-0.045194-0.013672-0.068359zm5.9648 0c-0.00355 0.023165-0.00908 0.045564-0.013672 0.068359-0.00799 0.039721-0.016277 0.078714-0.027344 0.11719 0.011106-0.038401 0.019277-0.077566 0.027344-0.11719 0.0046-0.022588 0.010094-0.045408 0.013672-0.068359z" fill="#363636" stroke-linecap="round" stroke-linejoin="round" stroke-width="2" style="paint-order:stroke fill markers"/>
 <path d="m9 5c-1.108 0-2 0.892-2 2v6c0 1.108 0.892 2 2 2h4c1.108 0 2-0.892 2-2v-6c0-1.108-0.892-2-2-2zm0 1h4c0.554 0 1 0.446 1 1v6c0 0.554-0.446 1-1 1h-4c-0.554 0-1-0.446-1-1v-6c0-0.554 0.446-1 1-1z" fill="#363636" stroke-linecap="round" stroke-linejoin="round" stroke-width="2" style="paint-order:stroke fill markers"/>
 <path d="m9.2324 7.5254-0.70703 0.70703 1.7676 1.7676-1.7676 1.7676 0.70703 0.70703 1.7676-1.7676 1.7676 1.7676 0.70703-0.70703-1.7676-1.7676 1.7676-1.7676-0.70703-0.70703-1.7676 1.7676z" fill="#363636" stroke-linecap="round" stroke-linejoin="round" stroke-opacity=".9971" stroke-width="1.732"/>
</svg>
