<svg width="15.974" height="16" version="1.1" xmlns="http://www.w3.org/2000/svg">
 <path d="m11.569 12.289 2.5649 2.565c0.1953 0.1952 0.5119 0.1952 0.7072 0 0.1952-0.1953 0.1952-0.5119 0-0.7072l-13-13c-0.19526-0.19527-0.51184-0.19527-0.7071 0-0.19527 0.19526-0.19527 0.51184 0 0.7071l1.8436 1.8436c-0.62577 0.94731-0.99007 2.0825-0.99007 3.3028 0 2.8672 1.935 5.5058 5.7316 7.9218 0.16379 0.1043 0.37309 0.1043 0.53688 0 1.3359-0.8501 2.4413-1.7278 3.3131-2.6332zm-0.7067-0.7067c-0.6844 0.7135-1.5355 1.4169-2.5554 2.1099l-0.31943 0.2131-0.31943-0.2131c-3.1409-2.1341-4.6806-4.3664-4.6806-6.6918 0-0.94308 0.2611-1.8252 0.71495-2.578zm-1.4135-4.2419-1.8013-1.8013c0.10923-0.02531 0.22304-0.03869 0.33997-0.03869 0.82843 0 1.5 0.67157 1.5 1.5 0 0.11693-0.01338 0.23074-0.03869 0.33997zm2.6527 2.6527c0.5924-0.97953 0.886-1.9772 0.886-2.9927 0-2.7614-2.2386-5-5-5-1.0946 0-2.107 0.35171-2.9304 0.94828l-0.71459-0.7146c1.0104-0.77385 2.274-1.2337 3.645-1.2337 3.3137 0 6 2.6863 6 6 0 1.2853-0.3888 2.5247-1.1599 3.7187z" fill="#363636"/>
</svg>
