<svg width="16px" height="16px" version="1.1" viewBox="0 0 16 16" xmlns="http://www.w3.org/2000/svg">
 <path d="m4 2v4.0234a5.5 5.5 0 0 0-1 0.18555v-3.209h-1v3.6035a5.5 5.5 0 0 0-1 0.6543v-5.2578h3zm4 3v2.2676a5.5 5.5 0 0 0-1-0.6543v-0.61328h-1v0.21289a5.5 5.5 0 0 0-1-0.17578v-1.0371h3zm4 3v6h-2.6133a5.5 5.5 0 0 0 0.61328-2.5v1.5h1v-4h-1v2.5a5.5 5.5 0 0 0-1-3.1426v-0.35742h3zm4 3v3h-3v-3zm-1 1h-1v1h1z" fill="#363636"/>
 <path d="m4.5 7a4.5 4.5 0 0 1 4.5 4.5 4.5 4.5 0 0 1-4.5 4.5 4.5 4.5 0 0 1-4.5-4.5 4.5 4.5 0 0 1 4.5-4.5zm0 1a3.5 3.5 0 0 0-3.5 3.5 3.5 3.5 0 0 0 3.5 3.5 3.5 3.5 0 0 0 3.5-3.5 3.5 3.5 0 0 0-3.5-3.5zm1.4141 1.3789 0.70703 0.70703-1.4141 1.4141 1.4141 1.4141-0.70703 0.70703-1.4141-1.4141-1.4141 1.4141-0.70703-0.70703 1.4141-1.4141-1.4141-1.4141 0.70703-0.70703 1.4141 1.4141z" fill="#363636" style="paint-order:stroke fill markers"/>
</svg>
