<svg width="16" height="16" version="1.1" xmlns="http://www.w3.org/2000/svg">
 <path d="m12 0c-0.554 0-1 0.446-1 1v5c0 0.554 0.446 1 1 1h1v7.4453c0 0.30778 0.223 0.55469 0.5 0.55469s0.5-0.24691 0.5-0.55469v-7.4453h1c0.554 0 1-0.446 1-1v-5c0-0.554-0.446-1-1-1zm-10 1c-1.108 0-2 0.892-2 2v7c0 1.108 0.89614 1.9043 2 2h3v2h-1.5c-0.034625 0-0.068955 0.0031-0.10156 0.0098-0.032607 0.0066-0.06382 0.01668-0.09375 0.0293s-0.057393 0.02894-0.083984 0.04688c-0.026592 0.01793-0.051625 0.03795-0.074219 0.06055-0.022594 0.02259-0.042611 0.04763-0.060547 0.07422s-0.034258 0.05405-0.046875 0.08399c-0.012617 0.02993-0.022658 0.06114-0.029297 0.09375-0.0066385 0.032555-0.0097655 0.066885-0.0097655 0.10151 0 0.03463 0.00313 0.06896 0.00977 0.10156 0.00664 0.03261 0.01668 0.06382 0.029297 0.09375s0.028939 0.05739 0.046875 0.08399c0.017936 0.02659 0.037953 0.05162 0.060547 0.07422 0.022594 0.02259 0.047627 0.04261 0.074219 0.06055s0.054055 0.03426 0.083984 0.04688c0.02993 0.01262 0.061143 0.02266 0.09375 0.0293 0.032603 0.006621 0.066933 0.009748 0.10156 0.009748h8c0.03463 0 0.06896-0.0031 0.10156-0.0098 0.03261-0.0066 0.06382-0.01668 0.09375-0.0293s0.05739-0.02894 0.08399-0.04688c0.02659-0.01793 0.05162-0.03795 0.07422-0.06055 0.02259-0.02259 0.04261-0.04763 0.06055-0.07422s0.03426-0.05405 0.04688-0.08399c0.01262-0.02993 0.02266-0.06114 0.0293-0.09375 0.006621-0.032555 0.009748-0.066885 0.009748-0.10151 0-0.277-0.223-0.5-0.5-0.5h-0.5v-2h0.5c0.277 0 0.5-0.223 0.5-0.5s-0.22404-0.52392-0.5-0.5h-9.5c-0.554 0-1-0.446-1-1v-7c0-0.554 0.446-1 1-1h7.5c0.277 0 0.5-0.223 0.5-0.5s-0.223-0.5-0.5-0.5h-3zm10 0h3v1h-3zm0 2h3v3h-3zm-6 9h4v2h-4z" fill="#363636"/>
 <path d="m6.3789 3.877c-0.12781 0-0.25558 0.050503-0.35352 0.14844-0.19587 0.19587-0.19587 0.51116 0 0.70703l1.2676 1.2676h-3.793c-0.277 0-0.5 0.223-0.5 0.5s0.223 0.5 0.5 0.5h3.793l-1.2676 1.2676c-0.19587 0.19587-0.19587 0.51116 0 0.70703s0.51116 0.19587 0.70703 0l2.0859-2.0879c0.025092-0.020691 0.047749-0.045152 0.068359-0.070313 0.0046257-0.0056646 0.0093314-0.011766 0.013672-0.017578 0.0058589-0.0078439 0.01218-0.015245 0.017578-0.023438 0.0078877-0.011921 0.014726-0.024709 0.021484-0.037109 0.001117-0.0020613 0.0028175-0.0037805 0.0039063-0.0058593 0.0026031-0.0049392 0.0034334-0.010621 0.0058594-0.015625 0.0012741-0.002646 0.0026775-0.0051406 0.0039062-0.0078125 0.0032975-0.0071705 0.0068018-0.014134 0.0097656-0.021484 0.011877-0.029458 0.02121-0.059829 0.027344-0.091797 0.0028217-0.014515 0.0062916-0.030254 0.0078125-0.044922 6.53e-5 -6.47e-4 -6.29e-5 -0.0013052 0-0.0019531 6.11e-5 -6.357e-4 -5.87e-5 -0.0013172 0-0.0019531 0.0015302-0.015918 0.0019531-0.030899 0.0019531-0.046875 0-0.015983-5.007e-4 -0.031284-0.0019531-0.046875-5.97e-5 -6.208e-4 6.2e-5 -0.0013325 0-0.0019531v-0.0019531c-0.0015092-0.01495-0.0050255-0.030398-0.0078125-0.044922-0.0061342-0.031968-0.015466-0.062339-0.027344-0.091797-0.0029638-0.0073507-0.0064681-0.014314-0.0097656-0.021484-0.0035663-0.0077549-0.0058206-0.015905-0.0097656-0.023438-0.001078-0.0020453-0.0027979-0.0038258-0.0039063-0.0058593-0.0068233-0.012592-0.01364-0.025205-0.021484-0.037109-9.748e-4 -0.0014732-0.0029143-0.0024411-0.0039063-0.0039063-8.166e-4 -0.0012107-0.0011262-0.0027032-0.0019531-0.0039062-0.0026775-0.0038956-0.0050283-0.0079046-0.0078125-0.011719-0.0050304-0.0068879-0.012152-0.012846-0.017578-0.019531-3.11e-4 -3.808e-4 3.122e-4 -0.0015731 0-0.0019531v-0.0019532c-0.010174-0.012338-0.021906-0.023859-0.033203-0.035156-0.011297-0.011297-0.022819-0.02303-0.035156-0.033203l-2.0859-2.0879c-0.097934-0.097934-0.22571-0.14844-0.35352-0.14844z" fill="#363636"/>
</svg>
