<svg width="16" height="16" version="1.1" xmlns="http://www.w3.org/2000/svg">
 <path d="m12 0c-0.554 0-1 0.446-1 1v5c0 0.554 0.446 1 1 1h1v7.4453c0 0.30778 0.223 0.55469 0.5 0.55469s0.5-0.24691 0.5-0.55469v-7.4453h1c0.554 0 1-0.446 1-1v-5c0-0.554-0.446-1-1-1zm-10 1c-1.108 0-2 0.892-2 2v7c0 1.108 0.89614 1.9043 2 2h3v2h-1.5c-0.034625 0-0.068955 0.0031-0.10156 0.0098-0.032607 0.0066-0.06382 0.01668-0.09375 0.0293s-0.057393 0.02894-0.083984 0.04688c-0.026592 0.01793-0.051625 0.03795-0.074219 0.06055-0.022594 0.02259-0.042611 0.04763-0.060547 0.07422s-0.034258 0.05405-0.046875 0.08399c-0.012617 0.02993-0.022658 0.06114-0.029297 0.09375-0.00664 0.03255-0.00977 0.06688-0.00977 0.10151s0.00313 0.06896 0.00977 0.10156c0.00664 0.03261 0.01668 0.06382 0.029297 0.09375s0.028939 0.05739 0.046875 0.08399c0.017936 0.02659 0.037953 0.05162 0.060547 0.07422 0.022594 0.02259 0.047627 0.04261 0.074219 0.06055s0.054055 0.03426 0.083984 0.04688c0.02993 0.01262 0.061143 0.02266 0.09375 0.0293 0.032603 0.0066 0.066933 0.0097 0.10156 0.0097h8c0.03463 0 0.06896-0.0031 0.10156-0.0098 0.03261-0.0066 0.06382-0.01668 0.09375-0.0293s0.05739-0.02894 0.08399-0.04688c0.02659-0.01793 0.05162-0.03795 0.07422-0.06055 0.02259-0.02259 0.04261-0.04763 0.06055-0.07422s0.03426-0.05405 0.04688-0.08399c0.01262-0.02993 0.02266-0.06114 0.0293-0.09375 0.0066-0.03256 0.0097-0.06689 0.0097-0.10151 0-0.277-0.223-0.5-0.5-0.5h-0.5v-2h0.5c0.277 0 0.5-0.223 0.5-0.5s-0.22404-0.52392-0.5-0.5h-9.4999c-0.554 0-1-0.446-1-1v-7c0-0.554 0.446-1 1-1h7.5c0.277 0 0.5-0.223 0.5-0.5s-0.223-0.5-0.5-0.5h-3zm10 0h3v1h-3zm0 2h3v3h-3zm-6 9h4v2h-4z" fill="#363636"/>
 <path d="m5.621 3.877c0.12781 0 0.25558 0.050503 0.35352 0.14844 0.19587 0.19587 0.19587 0.51116 0 0.70703l-1.2676 1.2676h3.793c0.277 0 0.5 0.223 0.5 0.5s-0.223 0.5-0.5 0.5h-3.793l1.2676 1.2676c0.19587 0.19587 0.19587 0.51116 0 0.70703s-0.51116 0.19587-0.70703 0l-2.0859-2.0879c-0.025092-0.020691-0.047749-0.045152-0.068359-0.070313-0.00463-0.00566-0.00933-0.011766-0.013672-0.017578-0.00586-0.00784-0.01218-0.015245-0.017578-0.023438-0.00789-0.011921-0.014726-0.024709-0.021484-0.037109-0.00112-0.00206-0.00282-0.00378-0.00391-0.00586-0.0026-0.00494-0.00343-0.010621-0.00586-0.015625-0.00127-0.00265-0.00268-0.00514-0.00391-0.00781-0.0033-0.00717-0.0068-0.014134-0.00977-0.021484-0.011877-0.029458-0.02121-0.059829-0.027344-0.091797-0.00282-0.014515-0.00629-0.030254-0.00781-0.044922-6.53e-5 -6.47e-4 6.29e-5 -0.00131 0-0.00195-6.11e-5 -6.357e-4 5.87e-5 -0.00132 0-0.00195-0.00153-0.015918-0.00195-0.030899-0.00195-0.046875 0-0.015983 5.007e-4 -0.031284 0.00195-0.046875 5.97e-5 -6.208e-4 -6.2e-5 -0.00133 0-0.00195v-0.00195c0.00151-0.01495 0.00503-0.030398 0.00781-0.044922 0.00613-0.031968 0.015466-0.062339 0.027344-0.091797 0.00296-0.00735 0.00647-0.014314 0.00977-0.021484 0.00357-0.00775 0.00582-0.015905 0.00977-0.023438 0.00108-0.00205 0.0028-0.00383 0.00391-0.00586 0.00682-0.012592 0.01364-0.025205 0.021484-0.037109 9.748e-4 -0.00147 0.00291-0.00244 0.00391-0.00391 8.166e-4 -0.00121 0.00113-0.0027 0.00195-0.00391 0.00268-0.0039 0.00503-0.0079 0.00781-0.011719 0.00503-0.00689 0.012152-0.012846 0.017578-0.019531 3.11e-4 -3.808e-4 -3.122e-4 -0.00157 0-0.00195v-0.00195c0.010174-0.012338 0.021906-0.023859 0.033203-0.035156s0.022819-0.02303 0.035156-0.033203l2.0859-2.0879c0.097934-0.097934 0.22571-0.14844 0.35352-0.14844z" fill="#363636"/>
</svg>
