<svg width="16" height="16.007" version="1.1" xmlns="http://www.w3.org/2000/svg">
 <path d="m12.48 8.728a0.44 0.44 0 0 0-0.361 0.22l-3.06 5.397a0.437 0.437 0 0 0 0.378 0.655h6.125a0.437 0.437 0 0 0 0.379-0.655l-3.06-5.396a0.439 0.439 0 0 0-0.401-0.22zm-0.48 1.272h1v2h-1zm0 3h1v1h-1z" color="#000000" fill="#f9c440" stroke-linecap="round" stroke-linejoin="round" stroke-width="2" style="-inkscape-stroke:none"/>
 <path d="m4.5 1.0039c-0.82843 1e-7 -1.5 0.67157-1.5 1.5v0.5h-0.5c-1.3807 0-2.5 1.1193-2.5 2.5v5c-1.4803e-16 0.8284 0.67157 1.5 1.5 1.5h1.5v1.5c0 0.8284 0.67157 1.5 1.5 1.5h3.6035c-0.11259-0.31885-0.12307-0.67263 0.011719-1h-3.6152c-0.27614 0-0.5-0.2239-0.5-0.5v-4c0-0.27614 0.22386-0.5 0.5-0.5h6.4395l0.31055-0.54883a1.0001 1.0001 0 0 1 0.001953-0.0058593c0.10056-0.17467 0.2365-0.32095 0.39453-0.4375-0.047948-0.0046226-0.097324-0.0078126-0.14648-0.0078126h-7c-0.82843 0-1.5 0.67157-1.5 1.5v1.5h-1.5c-0.27614 0-0.5-0.22386-0.5-0.5v-5c0-0.82843 0.67157-1.5 1.5-1.5h11c0.8284 0 1.5 0.67157 1.5 1.5v5c0 0.043853-0.006972 0.084471-0.017578 0.125l0.54688 0.96289c0.28908-0.27343 0.4707-0.6586 0.4707-1.0879v-5c0-1.3807-1.1193-2.5-2.5-2.5h-0.5v-0.5c0-0.82843-0.6716-1.5-1.5-1.5h-7zm0 1h7c0.2761 0 0.5 0.22386 0.5 0.5v0.5h-8v-0.5c0-0.27614 0.22386-0.5 0.5-0.5z" fill="#363636"/>
</svg>
