<svg width="16" height="16" version="1.1" xmlns="http://www.w3.org/2000/svg">
 <path d="m11.496 1.9303c-2.4468-1.4059-5.5012-1.2041-7.7435 0.50924a0.50048 0.50054 0 0 0-0.09284 0.70047 0.50048 0.50054 0 0 0 0.70038 0.092851c1.9235-1.4698 4.538-1.6399 6.6372-0.43462 2.1009 1.2131 3.2657 3.5667 2.9541 5.9728a0.50048 0.50054 0 0 0 0.43059 0.56019 0.50048 0.50054 0 0 0 0.56013-0.43064c0.36316-2.8041-0.99592-5.5556-3.4443-6.9693a0.50053 0.50059 0 0 0-0.0017-9.76e-4zm-9.5463 4.9342a0.50048 0.50054 0 0 0-0.33113-0.18894 0.50048 0.50054 0 0 0-0.56013 0.43064c-0.36248 2.7988 0.98998 5.5453 3.4308 6.9615a0.50053 0.50059 0 0 0 0.00339 2e-3c2.4467 1.406 5.5012 1.2041 7.7435-0.50924a0.50048 0.50054 0 0 0 0.09284-0.70047 0.50048 0.50054 0 0 0-0.70038-0.09285c-1.923 1.4693-4.5366 1.6398-6.6355 0.43556-2.0944-1.2152-3.255-3.5654-2.9439-5.9669a0.50048 0.50054 0 0 0-0.099466-0.37125z" fill="#363636" stroke-width="1.001"/>
</svg>
