<svg width="16" height="16" version="1.1" xmlns="http://www.w3.org/2000/svg">
 <g transform="translate(-833 191)">
  <path transform="translate(833 -191)" d="m8 1a7 7 0 0 0-7 7 7 7 0 0 0 7 7 7 7 0 0 0 6.707-5h-1.0527a6 6 0 0 1-5.6543 4 6 6 0 0 1-6-6 6 6 0 0 1 6-6 6 6 0 0 1 5.1816 3h-1.6816c-0.277 0-0.5 0.223-0.5 0.5s0.223 0.5 0.5 0.5h2.1543 0.8457 0.20703a7 7 0 0 0-0.013672-0.037109c7.54e-4 -3.132e-4 0.001202-0.0016362 0.001953-0.0019531a7 7 0 0 0-0.33398-0.875 7 7 0 0 0-0.005859-0.017578 7 7 0 0 0-0.00586-0.0097656 7 7 0 0 0-0.02539-0.058594h-0.00586a7 7 0 0 0-6.3184-4z" fill="#363636"/>
 </g>
</svg>
