<svg width="16" height="16" version="1.1" viewBox="0 0 16 16" xmlns="http://www.w3.org/2000/svg">
 <defs>
  <style id="current-color-scheme" type="text/css">.ColorScheme-Text { color:#363636; } .ColorScheme-Text { color:#363636; }</style>
 </defs>
 <path d="m1 2c-0.554 0-1 0.446-1 1v10c0 0.554 0.446 1 1 1h14c0.554 0 1-0.446 1-1v-10c0-0.554-0.446-1-1-1h-14zm0 1h14v7.4062l-2.9922-3.1211-3.1602 3.1602-3.8164-4.1484-4.0312 3.6582v-6.9551zm10 1a1 1 0 0 0-1 1 1 1 0 0 0 1 1 1 1 0 0 0 1-1 1 1 0 0 0-1-1zm-6.0312 3.7031 4.8711 5.2969h-8.8398v-1.6934l3.9688-3.6035zm7.0234 1.0117 3.0078 3.1367v1.1484h-3.8027l-1.6719-1.8184 2.4668-2.4668z" color="#727272" fill="#363636"/>
</svg>
