<svg width="16" height="16.003" version="1.1" xmlns="http://www.w3.org/2000/svg">
 <path d="m2 6.0015c0-3.3137 2.6863-6 6-6 3.3137 0 6 2.6863 6 6v3c0 1.1046-0.8954 2-2 2h-1c-0.5523 0-1-0.4477-1-1v-3c0-0.55228 0.4477-1 1-1h2c0-2.7614-2.2386-5-5-5-2.7614 0-5 2.2386-5 5h2c0.55228 0 1 0.44772 1 1v3c0 0.5523-0.44772 1-1 1h-2v1c0 1.1046 0.89543 2 2 2h1c0-1.1046 0.89543-2 2-2 1.1046 0 2 0.8954 2 2s-0.8954 2-2 2c-0.74028 0-1.3866-0.4022-1.7324-1h-1.2676c-1.6568 0-3-1.3431-3-3zm11 1h-2v3h1c0.5523 0 1-0.4477 1-1zm-10 3h2v-3h-2zm4 4c0 0.5523 0.44772 1 1 1 0.5523 0 1-0.4477 1-1s-0.4477-1-1-1c-0.55228 0-1 0.4477-1 1z" fill="#363636"/>
</svg>
