<svg width="16" height="16" version="1.1" xmlns="http://www.w3.org/2000/svg">
 <path d="m2 3c-1.108 0-2 0.892-2 2v7c0 1.108 0.892 2 2 2h12c1.108 0 2-0.892 2-2v-7c0-1.108-0.892-2-2-2zm0 1h12c0.554 0 1 0.446 1 1v7c0 0.554-0.446 1-1 1h-12c-0.554 0-1-0.446-1-1v-7c0-0.554 0.446-1 1-1z" fill="#333333"/>
 <path d="m2 6v1h1v-1zm2 0v1h1v-1zm2 0v1h1v-1zm2 0v1h1v-1zm2 0v1h1v-1zm2 0v1h2v-1zm-10 2v1h2v-1zm3 0v1h1v-1zm2 0v1h1v-1zm2 0v1h1v-1zm2 0v1h3v-1zm-9 2v1h2v-1zm3 0v1h6v-1zm7 0v1h2v-1z" fill="#363636"/>
</svg>
