<svg width="24" height="24" version="1.1" xmlns="http://www.w3.org/2000/svg">
 <defs>
  <style id="current-color-scheme" type="text/css">.ColorScheme-Text { color:#dedede; } .ColorScheme-Highlight { color:#4285f4; }</style>
 </defs>
 <path class="ColorScheme-Text" d="m12 5a1 1 0 0 0-0.994 1.1 4.988 4.988 0 0 0-4.006 4.9v4.5l-2 2v0.5h14v-0.5l-2-2v-3.63a4 4 0 0 1-1 0.126v3.926l1 1.078h-10l1-1.078v-4.922a4 4 0 0 1 4-4c0.044 1e-3 0.087 3e-3 0.13 6e-3a4 4 0 0 1 0.741-1.492 1 1 0 0 0-0.871-0.514zm-1.73 14a2 2 0 0 0 1.73 1 2 2 0 0 0 1.728-1z" fill="currentColor"/>
 <path d="m19 8a3 3 0 0 1-6 0 3 3 0 1 1 6 0z" fill="#ff8080"/>
</svg>
