<svg version="1.1" viewBox="0 0 22 22" xmlns="http://www.w3.org/2000/svg">
 <defs>
  <style id="current-color-scheme" type="text/css">.ColorScheme-Text {
        color:#363636;
      }</style>
 </defs>
 <path class="ColorScheme-Text" d="m15 12v1h-1v5h5v-5h-1v-1zm0 2h3v3h-3z" fill="currentColor"/>
 <path class="ColorScheme-Text" d="m5 4c-1.108 0-2 0.892-2 2v10c0 1.108 0.892 2 2 2h8v-1h-8c-0.554 0-1-0.446-1-1v-7h5l2-2h6c0.554 0 1 0.446 1 1v3h1v-3c0-1.108-0.892-2-2-2h-6l-2-2zm0 1h3.5859l1.4961 1.5039-1.4961 1.4961h-4.5859v-2c0-0.554 0.446-1 1-1z" fill="currentColor"/>
</svg>
