<svg version="1.1" viewBox="0 0 22 22" xmlns="http://www.w3.org/2000/svg">
 <defs>
  <style id="current-color-scheme" type="text/css">.ColorScheme-Text {
        color:#363636;
      }</style>
 </defs>
 <path class="ColorScheme-Text" d="m15.5 11c-1.933 0-3.5 1.567-3.5 3.5s1.567 3.5 3.5 3.5 3.5-1.567 3.5-3.5-1.567-3.5-3.5-3.5zm0 1c0.48983 7.83e-4 0.96864 0.14544 1.377 0.41602l-0.73242 0.73242c-0.20112-0.09682-0.42132-0.14753-0.64453-0.14844-0.82843 0-1.5 0.67157-1.5 1.5 9.07e-4 0.22321 0.05162 0.44341 0.14844 0.64453l-0.73242 0.73242c-0.27057-0.40832-0.41523-0.88712-0.41602-1.377 0-1.3807 1.1193-2.5 2.5-2.5zm2.084 1.123c0.27057 0.40832 0.41523 0.88712 0.41602 1.377 0 1.3807-1.1193 2.5-2.5 2.5-0.48983-7.83e-4 -0.96864-0.14544-1.377-0.41602l0.73242-0.73242c0.20112 0.09682 0.42132 0.14753 0.64453 0.14844 0.82843 0 1.5-0.67157 1.5-1.5-9.07e-4 -0.22321-0.05162-0.44341-0.14844-0.64453l0.73242-0.73242z" fill="currentColor"/>
 <path class="ColorScheme-Text" d="m5 4c-1.108 0-2 0.892-2 2v10c0 1.108 0.892 2 2 2h7.6719a4.5 4.5 0 0 1-0.91211-1h-6.7598c-0.554 0-1-0.446-1-1v-7h5l2-2h6c0.554 0 1 0.446 1 1v2.7578a4.5 4.5 0 0 1 1 0.91602v-3.6738c0-1.108-0.892-2-2-2h-6l-2-2zm0 1h3.5859l1.4961 1.5039-1.4961 1.4961h-4.5859v-2c0-0.554 0.446-1 1-1z" fill="currentColor"/>
</svg>
