<svg version="1.1" viewBox="0 0 22 22" xmlns="http://www.w3.org/2000/svg">
 <defs>
  <style id="current-color-scheme" type="text/css">.ColorScheme-Text {
                color:#363636;
            }</style>
 </defs>
 <path class="ColorScheme-Text" d="m15.5 10c-1.385 0-2.5 1.115-2.5 2.5v0.5c-0.554 0-1 0.446-1 1v3c0 0.554 0.446 1 1 1h5c0.554 0 1-0.446 1-1v-3c0-0.554-0.446-1-1-1v-0.5c0-1.385-1.115-2.5-2.5-2.5zm0 1c0.831 0 1.5 0.669 1.5 1.5v0.5h-3v-0.5c0-0.831 0.669-1.5 1.5-1.5zm-2.5 3h5v3h-5z" fill="currentColor"/>
 <path class="ColorScheme-Text" d="m5 4c-1.108 0-2 0.892-2 2v10c0 1.108 0.892 2 2 2h6v-1h-6c-0.554 0-1-0.446-1-1v-7h5l2-2h6c0.554 0 1 0.446 1 1v1h1v-1c0-1.108-0.892-2-2-2h-6l-2-2h-4zm0 1h3.5859l1.4961 1.5039-1.4961 1.4961h-4.5859v-2c0-0.554 0.446-1 1-1z" fill="currentColor"/>
</svg>
