<svg width="22" height="22" version="1.1" xmlns="http://www.w3.org/2000/svg">
 <style id="current-color-scheme" type="text/css">.ColorScheme-Text {
            color:#363636;
        }
        .ColorScheme-NegativeText {
            color:#da4453;
        }</style>
 <path class="ColorScheme-Text" d="m5.0044 8.5682c0.03208-0.81542 0.2367-1.5853 0.57916-2.2776l-2.4371-2.4371c-0.19527-0.19526-0.19527-0.51184 0-0.7071 0.19526-0.19527 0.51184-0.19527 0.7071 0l15 15c0.1952 0.1953 0.1952 0.5119 0 0.7072-0.1953 0.1952-0.5119 0.1952-0.7072 0l-2.8492-2.8493-1.7976-2.99e-4 -5e-3 0.1613c-0.0851 1.3037-1.1694 2.3347-2.4946 2.3347-1.3255 0-2.41-1.0315-2.4947-2.3356l-0.0057-0.1604-3.5007 6e-4c-0.08795 0-0.17533-0.0116-0.25989-0.0344l-0.12446-0.0425c-0.41078-0.171-0.65275-0.5885-0.60235-1.052l0.02109-0.1274 0.04242-0.1281 0.9233-2.2192 0.0011-3.6082zm9.2946 6.4379-7.9606-7.9606c-0.17077 0.42055-0.28124 0.87023-0.32128 1.3395l-0.01322 0.21225-0.0039 0.20491v3.6979l-0.03841 0.1922-0.96271 2.3124zm-1.7994 0.9979h-3l0.0073 0.1414c0.06855 0.7127 0.63578 1.2796 1.3486 1.3477l0.14444 0.0069c0.7797 0 1.4205-0.5949 1.4931-1.3555zm3.5388-3.3118 0.8749 2.0997 0.852 0.8521c0.15-0.1749 0.236-0.3982 0.236-0.6394l-0.0087-0.1313-0.0152-0.0862c-0.0127-0.0569-0.0304-0.1128-0.053-0.1669l-0.9254-2.2222 9.99e-4 -3.5959-0.0045-0.22452-0.0134-0.22222c-0.2405-3.0205-2.8355-5.3554-5.9844-5.3554-1.6393 0-3.1282 0.63266-4.2124 1.6639l0.7067 0.70671c0.90176-0.84838 2.1393-1.3706 3.5057-1.3706 2.697 0 4.8932 2.0349 4.9983 4.6083l0.0041 0.2041-9.9e-5 3.6876z" fill="currentColor"/>
</svg>
