<svg width="16" height="16" version="1.1" viewBox="0 0 16 16" xmlns="http://www.w3.org/2000/svg">
 <defs>
  <style id="current-color-scheme" type="text/css">.ColorScheme-Text { color:#363636; }</style>
 </defs>
 <path d="m5.1667 1c0.27046 0 0.53484 0.073102 0.76571 0.21016l0.13429 0.089838 1.6003 1.7h5.833c1.2703 0 2.3192 0.94737 2.4789 2.1741l0.0158 0.16153 0.0053 0.16438v7c0 1.3255-1.0315 2.41-2.3356 2.4947l-0.1644 0.0053h-11c-1.3255 0-2.41-1.0315-2.4947-2.3356l-0.00532-0.1644v-9c0-1.3255 1.0315-2.41 2.3356-2.4947l0.16438-0.00532zm0.99096 4.5345c-0.24772 0.26011-0.57925 0.42143-0.93328 0.4577l-0.15292 0.00781-4.0714-1e-3v6.501c0 0.7797 0.59489 1.4204 1.3555 1.4931l0.14446 0.0069h11c0.7797 0 1.4204-0.5949 1.4931-1.3555l0.0069-0.1445v-7c0-0.7797-0.5949-1.4204-1.3555-1.4931l-0.1445-0.00687h-5.883zm-0.99096-3.5345h-2.6667c-0.7797 0-1.4204 0.59489-1.4931 1.3555l-0.00687 0.14446v1.499l4.0714 1e-3c0.10947 0 0.21512-0.03589 0.30131-0.10098l0.06076-0.05419 1.2605-1.3238-1.2273-1.421c-0.06491-0.04868-0.14035-0.08059-0.21966-0.0935z" fill="#363636"/>
</svg>
