<svg width="16" height="16.007" version="1.1" xmlns="http://www.w3.org/2000/svg">
 <path d="m4.5 1c-0.82843 0-1.5 0.67157-1.5 1.5v0.5h-0.5c-1.3807 0-2.5 1.1193-2.5 2.5v5c0 0.8284 0.67157 1.5 1.5 1.5h1.5v1.5c0 0.8284 0.67157 1.5 1.5 1.5h5.5v-0.14453a4 4 0 0 1-1.6426-0.85547h-3.8574c-0.27614 0-0.5-0.2239-0.5-0.5v-4c0-0.27614 0.22386-0.5 0.5-0.5h3.0469a4 4 0 0 1 0.81055-1h-3.8574c-0.82843 0-1.5 0.67157-1.5 1.5v1.5h-1.5c-0.27614 0-0.5-0.22386-0.5-0.5v-5c0-0.82843 0.67157-1.5 1.5-1.5h11c0.8284 0 1.5 0.67157 1.5 1.5v5c0 0.043853-0.006972 0.086424-0.017578 0.12695a4 4 0 0 1 0.017578 0.37305 4 4 0 0 1-0.12305 0.94922c0.64549-0.16752 1.123-0.75134 1.123-1.4492v-5c0-1.3807-1.1193-2.5-2.5-2.5h-0.5v-0.5c0-0.82843-0.6716-1.5-1.5-1.5h-7zm0 1h7c0.2761 0 0.5 0.22386 0.5 0.5v0.5h-8v-0.5c0-0.27614 0.22386-0.5 0.5-0.5z" fill="#363636"/>
 <path d="m10.957 8.0078a3 3 0 0 0-2.0781 0.87695 3 3 0 0 0 0 4.2441 3 3 0 0 0 3.8594 0.32422l1.7969 1.7969c0.19587 0.19587 0.51116 0.19587 0.70703 0s0.19587-0.51116 0-0.70703l-1.8008-1.8008a3 3 0 0 0-0.32031-3.8574 3 3 0 0 0-2.1641-0.87695zm0.07227 1a2 2 0 0 1 1.3848 0.58594 2 2 0 0 1 0 2.8281 2 2 0 0 1-2.8281 0 2 2 0 0 1 0-2.8281 2 2 0 0 1 1.4434-0.58594z" fill="#363636"/>
</svg>
