<?xml version="1.0" encoding="UTF-8"?>
<svg xmlns="http://www.w3.org/2000/svg" xmlns:xlink="http://www.w3.org/1999/xlink" xmlns:cc="http://creativecommons.org/ns#" xmlns:dc="http://purl.org/dc/elements/1.1/" xmlns:rdf="http://www.w3.org/1999/02/22-rdf-syntax-ns#" xmlns:inkscape="http://www.inkscape.org/namespaces/inkscape" xmlns:sodipodi="http://sodipodi.sourceforge.net/DTD/sodipodi-0.dtd" width="64" height="64">
    <style type="text/css" id="current-color-scheme">
      .ColorScheme-Text {
        color:#7B7C7E;
      }
      .ColorScheme-Background{
        color:#EFF0F1;
      }
      .ColorScheme-Accent{
        color:#3DAEE6;
      }
      .ColorScheme-ButtonText {
        color:#7B7C7E;
      }
</style>
    <g style="fill:none" id="64-64osd-rotate-cw" inkscape:label="#osd-rotate-cw">
      <rect id="rect4252-6" height="64" width="64" x="0" y="0" style="fill:none"/>
      <path id="path4256-2" d="m 59,11 -54,0 0,34 54,0 0,-34 z m -54,-1 -1,0 0,1 0,34 0,1 1,0 23,0 0,7 -7,0 0,1 7,0 1,0 6,0 1,0 7,0 0,-1 -7,0 0,-7 23,0 1,0 0,-1 0,-34 0,-1 -1,0 -54,0 z m 24,43 0,-7 6,0 0,7 -6,0 z M 7,13 57,13 57,42 7,42 7,13 Z m -1,-1 1,0 50,0 1,0 0,1 0,29 0,1 -1,0 -50,0 -1,0 0,-1 0,-29 0,-1 z" inkscape:connector-curvature="0" style="color:#7b7c7e;fill:currentColor;fill-opacity:1;fill-rule:evenodd;stroke:none" class="ColorScheme-Text"/>
      <path style="fill:currentColor;fill-opacity:1;stroke:none" d="m 25.347656,19 c -3.19899,0 -9.351562,1 -9.351562,1 L 19.625,23.628906 c -0.41202,1.249235 -0.623906,2.555676 -0.628906,3.871094 0.004,3.154487 1.200539,6.190817 3.349609,8.5 l 3.007813,0 c -2.73173,-1.970437 -4.352422,-5.131772 -4.357422,-8.5 0.007,-2.482594 0.89149,-4.882402 2.5,-6.773438 L 25.347656,19 Z m 12.291016,0 c 2.73173,1.970437 4.352422,5.131772 4.357422,8.5 -0.007,2.482594 -0.893443,4.882402 -2.501953,6.773438 L 37.644531,36 c 3.19899,0 9.351563,-1 9.351563,-1 l -3.63086,-3.628906 c 0.41202,-1.249235 0.62586,-2.555676 0.63086,-3.871094 -0.004,-3.154487 -1.20054,-6.190817 -3.34961,-8.5 l -3.007812,0 z m -4.375,1.431641 -7.46875,2.867187 3.941406,10.269531 7.46875,-2.867187 -3.941406,-10.269531 z m -2.44336,2.007812 3.226563,8.404297 -3.736328,1.431641 -3.224609,-8.400391 3.734374,-1.435547 z m 4.017579,4.886719 0.359375,0.933594 -0.935547,0.357422 -0.357422,-0.933594 0.933594,-0.357422 z m 0.716797,1.865234 0.359374,0.933594 -0.933593,0.359375 -0.359375,-0.933594 0.933594,-0.359375 z" id="path4264-9" class="ColorScheme-Accent" inkscape:connector-curvature="0"/>
    </g>
</svg>
