<svg width="64" height="64" version="1.1" viewBox="0 0 64 64" xmlns="http://www.w3.org/2000/svg">
 <defs>
  <filter id="filter20" x="-.052941" y="-.043902" width="1.1059" height="1.0878" color-interpolation-filters="sRGB">
   <feGaussianBlur stdDeviation="0.75000069"/>
  </filter>
  <filter id="filter21" x="-.058909" y="-.0405" width="1.1178" height="1.081" color-interpolation-filters="sRGB">
   <feGaussianBlur stdDeviation="0.54000023"/>
  </filter>
  <filter id="filter22" x="-.058909" y="-.0405" width="1.1178" height="1.081" color-interpolation-filters="sRGB">
   <feGaussianBlur stdDeviation="0.54000023"/>
  </filter>
 </defs>
 <g transform="translate(0 -988.36)">
  <g transform="translate(19)">
   <rect x="23" y="1011.4" width="22" height="32" rx="4" ry="4" fill="#000000" filter="url(#filter22)" opacity=".1" stroke-linecap="round" stroke-linejoin="round" stroke-width="1.0569" style="paint-order:stroke fill markers"/>
   <rect x="23" y="1010.4" width="22" height="32" rx="4" ry="4" fill="#000000" opacity=".15" stroke-linecap="round" stroke-linejoin="round" stroke-width="1.0569" style="paint-order:stroke fill markers"/>
   <rect x="24" y="1011.4" width="20" height="30" rx="3" ry="3" fill="#ececec" stroke-linecap="round" stroke-linejoin="round" stroke-width=".72722" style="paint-order:stroke fill markers"/>
   <rect x="24" y="1015.4" width="20" height="1" fill="#000000" opacity=".15"/>
   <rect x="40" y="1012.4" width="2" height="2" rx="1" fill="#ffaaaa" stroke-width=".1"/>
   <rect x="37" y="1012.4" width="2" height="2" rx="1" fill="#ffd42a" stroke-width=".1"/>
   <rect x="34" y="1012.4" width="2" height="2" rx="1" fill="#bcd35f" stroke-width=".1"/>
   <path transform="translate(-4 11)" x="28" y="1005.3622" width="20" height="25" d="m28 1005.4h20v22a3 3 135 0 1-3 3h-14a3 3 45 0 1-3-3z" fill="#ffffff" stroke-width=".11381"/>
  </g>
  <g transform="translate(-23)">
   <rect x="23" y="1011.4" width="22" height="32" rx="4" ry="4" fill="#000000" filter="url(#filter21)" opacity=".1" stroke-linecap="round" stroke-linejoin="round" stroke-width="1.0569" style="paint-order:stroke fill markers"/>
   <rect x="23" y="1010.4" width="22" height="32" rx="4" ry="4" fill="#000000" opacity=".15" stroke-linecap="round" stroke-linejoin="round" stroke-width="1.0569" style="paint-order:stroke fill markers"/>
   <rect x="24" y="1011.4" width="20" height="30" rx="3" ry="3" fill="#ececec" stroke-linecap="round" stroke-linejoin="round" stroke-width=".72722" style="paint-order:stroke fill markers"/>
   <rect x="24" y="1015.4" width="20" height="1" fill="#000000" opacity=".15"/>
   <rect x="40" y="1012.4" width="2" height="2" rx="1" fill="#999999" stroke-width=".1"/>
   <rect x="37" y="1012.4" width="2" height="2" rx="1" fill="#ffd42a" stroke-width=".1"/>
   <rect x="34" y="1012.4" width="2" height="2" rx="1" fill="#bcd35f" stroke-width=".1"/>
   <path transform="translate(-4 11)" x="28" y="1005.3622" width="20" height="25" d="m28 1005.4h20v22a3 3 135 0 1-3 3h-14a3 3 45 0 1-3-3z" fill="#ffffff" stroke-width=".11381"/>
  </g>
  <rect x="15" y="998.36" width="34" height="41" rx="4" ry="4" fill="#000000" filter="url(#filter20)" opacity=".1" stroke-linecap="round" stroke-linejoin="round" stroke-width="1.0569" style="paint-order:stroke fill markers"/>
  <rect x="15" y="997.36" width="34" height="41" rx="4" ry="4" fill="#000000" opacity=".15" stroke-linecap="round" stroke-linejoin="round" stroke-width="1.0569" style="paint-order:stroke fill markers"/>
  <rect x="16" y="998.36" width="32" height="39" rx="3" ry="3" fill="#ececec" stroke-linecap="round" stroke-linejoin="round" style="paint-order:stroke fill markers"/>
  <rect x="16" y="1002.4" width="32" height="1" fill="#000000" opacity=".15"/>
  <rect x="44" y="999.36" width="2" height="2" rx="1" fill="#ffaaaa" stroke-width=".1"/>
  <rect x="41" y="999.36" width="2" height="2" rx="1" fill="#ffd42a" stroke-width=".1"/>
  <rect x="38" y="999.36" width="2" height="2" rx="1" fill="#bcd35f" stroke-width=".1"/>
  <path x="16" y="1003.3622" width="32" height="33.999977" d="m16 1003.4h32v31a3 3 135 0 1-3 3h-26a3 3 45 0 1-3-3z" fill="#ffffff" stroke-width=".11381"/>
 </g>
</svg>
