<svg width="64" height="64" version="1.1" viewBox="0 0 64 64" xmlns="http://www.w3.org/2000/svg" xmlns:xlink="http://www.w3.org/1999/xlink">
 <defs>
  <linearGradient id="linearGradient5910-3-2-8" x1="759.86" x2="779.86" y1="179.93" y2="199.93" gradientTransform="translate(-737.86 828.43)" gradientUnits="userSpaceOnUse">
   <stop stop-color="#197cf1" offset="0"/>
   <stop stop-color="#21c9fb" offset="1"/>
  </linearGradient>
  <linearGradient id="linearGradient9922-2" x1="64" x2="4.2969e-7" y1="306" y2="358" gradientTransform="translate(1e-5 688.36)" gradientUnits="userSpaceOnUse">
   <stop stop-color="#ffa92d" offset="0"/>
   <stop stop-color="#ffa92d" stop-opacity="0" offset="1"/>
  </linearGradient>
 </defs>
 <g transform="translate(0 -988.36)">
  <path d="m16 995.36-13 23h13zm16 37v12l28-12z" fill="url(#linearGradient9922-2)" fill-rule="evenodd"/>
  <g transform="translate(-93 23.002)">
   <rect x="93" y="994.36" width="33" height="30" rx="4" ry="4" fill="#000000" opacity=".15" stroke-linecap="round" stroke-linejoin="round" stroke-width="1.0569" style="paint-order:stroke fill markers"/>
   <rect x="94" y="995.36" width="31" height="28" rx="3" ry="3" fill="#ececec" stroke-linecap="round" stroke-linejoin="round" style="paint-order:stroke fill markers"/>
   <rect x="94" y="1001.4" width="31" height=".99998" fill="#000000" opacity=".15" stroke-width="1.3919"/>
   <rect x="121" y="997.36" width="2" height="2" rx="1" fill="#ffaaaa" stroke-width=".1"/>
   <rect x="117" y="997.36" width="2" height="2" rx="1" fill="#ffd42a" stroke-width=".1"/>
   <rect x="113" y="997.36" width="2" height="2" rx="1" fill="#bcd35f" stroke-width=".1"/>
   <path x="16" y="1003.3622" width="32" height="33.999977" d="m94 1002.4h31v18c0 1.6568-1.3431 3-3 3h-25c-1.6569 0-3-1.3432-3-3z" fill="#ffffff" stroke-width=".11381"/>
  </g>
  <g transform="translate(-62 .00214)">
   <rect x="74" y="994.36" width="52" height="38" rx="4" ry="4" fill="#000000" opacity=".15" stroke-linecap="round" stroke-linejoin="round" stroke-width="1.0569" style="paint-order:stroke fill markers"/>
   <rect x="75" y="995.36" width="50" height="36" rx="3" ry="3" fill="#ececec" stroke-linecap="round" stroke-linejoin="round" style="paint-order:stroke fill markers"/>
   <rect x="75" y="1001.4" width="50" height="1" fill="#000000" opacity=".15" stroke-width="1.3919"/>
   <rect x="121" y="997.36" width="2" height="2" rx="1" fill="#ffaaaa" stroke-width=".1"/>
   <rect x="117" y="997.36" width="2" height="2" rx="1" fill="#ffd42a" stroke-width=".1"/>
   <rect x="113" y="997.36" width="2" height="2" rx="1" fill="#bcd35f" stroke-width=".1"/>
   <path x="16" y="1003.3622" width="32" height="33.999977" d="m75 1002.4h50v26c0 1.6568-1.3431 3-3 3h-44c-1.6569 0-3-1.3432-3-3z" fill="#ffffff" stroke-width=".11381"/>
  </g>
  <path d="m32 1008.4c-5.5228 0-10 4.4772-10 10 4e-3 2.4777 0.92753 4.8657 2.5918 6.7012l-9.5918 9.5918 0.70703 0.707 9.5918-9.5918c1.8355 1.6643 4.2235 2.5879 6.7012 2.5918 5.5228 0 10-4.4771 10-10 0-5.5228-4.4772-10-10-10zm0 1c4.9706 0 9 4.0295 9 9 0 4.9706-4.0294 9-9 9s-9-4.0294-9-9c0-4.9705 4.0294-9 9-9zm-0.5 3v5.5h-5.5v1h5.5v5.5h1v-5.5h5.5v-1h-5.5v-5.5z" fill="url(#linearGradient5910-3-2-8)"/>
 </g>
</svg>
