<svg width="64" height="64" version="1.1" viewBox="0 0 64 64" xmlns="http://www.w3.org/2000/svg" xmlns:xlink="http://www.w3.org/1999/xlink">
 <defs>
  <linearGradient id="linearGradient10730" x1="20" x2="42" y1="32.973" y2="32.973" gradientTransform="translate(-3e-5 989.51)" gradientUnits="userSpaceOnUse">
   <stop stop-color="#ffc169" offset="0"/>
   <stop stop-color="#ffa92d" offset="1"/>
  </linearGradient>
  <linearGradient id="linearGradient4503" x2="0" y1="37" y2="4" gradientUnits="userSpaceOnUse">
   <stop stop-color="#da4453" offset="0"/>
   <stop stop-color="#ff7336" offset="1"/>
  </linearGradient>
  <linearGradient id="linearGradient4503-6" x1="20.438" x2="23.531" y1="22.312" y2="25.406" gradientUnits="userSpaceOnUse">
   <stop offset="0"/>
   <stop stop-opacity="0" offset="1"/>
  </linearGradient>
 </defs>
 <g transform="translate(0 -988.36)">
  <rect y="993.36" width="64" height="53" rx="4" ry="4" fill="#000000" opacity=".15" stroke-linecap="round" stroke-linejoin="round" stroke-width="1.0569" style="paint-order:stroke fill markers"/>
  <rect x="1" y="994.36" width="62" height="51" rx="3" ry="3" fill="#ececec" stroke-linecap="round" stroke-linejoin="round" style="paint-order:stroke fill markers"/>
  <rect x="1" y="1000.4" width="62" height="1" fill="#000000" opacity=".15" stroke-width="1.3919"/>
  <rect x="59" y="996.36" width="2" height="2" rx="1" fill="#ffaaaa" stroke-width=".1"/>
  <rect x="55" y="996.36" width="2" height="2" rx="1" fill="#ffd42a" stroke-width=".1"/>
  <rect x="51" y="996.36" width="2" height="2" rx="1" fill="#bcd35f" stroke-width=".1"/>
  <path x="16" y="1003.3622" width="32" height="33.999977" d="m1 1001.4h62v41c0 1.6568-1.3431 3-3 3h-56c-1.6569 0-3-1.3432-3-3z" fill="#f9f9f9" stroke-width=".11381"/>
  <path d="m31 1011.5c-6.0751 0-11 4.9249-11 11 5e-3 5.6842 4.3394 10.429 10 10.945v-0.9961c-5.1096-0.5135-8.9997-4.8138-9-9.9492 0-5.5228 4.4772-10 10-10s10 4.4772 10 10h-0.0156c0.0156 4-4.2463 6.9965-8.3594 7-4.1153-7e-4 -8.625-3-8.625-7 0-3.866 3.134-7 7-7s7 3.134 7 7c0 2.2092-2.4624 4-5.5 4s-5.5-1.7908-5.5-4c2e-3 -2.0671 2-4 5-3.9805 1-0.019 1.9728 1.3635 2 2.4805 0 1.3807-0.89543 2.5-2 2.5-0.94942-1e-3 -2-0.8216-1.957-2h-1.0078c-0.0352 2 1.4752 2.9975 2.9648 3 1.6568 0 3-1.567 3-3.5s-1.3432-3.5-3-3.5c-4 0-5.9214 2.424-6 5 0 2.7614 2.9102 5 6.5 5s6.5-2.2386 6.5-5c0-4.4183-3.5817-8-8-8s-8 3.5817-8 8c0 5 4.9618 7.9943 9.625 8 4.6654 0 9.375-3 9.375-8 0-6.0751-4.9249-11-11-11z" fill="url(#linearGradient10730)"/>
  <g transform="translate(21.998 989.21)" fill-rule="evenodd">
   <path d="m33.998 4-2.33 1.1433c-2.3317 1.1442-4.7945 3.7502-4.7945 3.7502l0.36638 2.944c-0.13821 0.20059-0.28327 0.41489-0.42936 0.62925l-1.0362-1.8569-1.6859 2.0984 1.1908 2.0423c-7e-3 0.01055-0.016 0.02316-0.02289 0.03371l-1.4913-1.6939s-0.97074 1.1432-3.9501 5.402c-2.9793 4.2588-5.4414 9.2169-5.4414 9.2169l0.11451 3.3682c-0.1603 0.23725-0.3299 0.4943-0.48661 0.72476l-0.46943-2.7586-1.0362 1.7164-0.26047 1.6546-0.58107 0.69948s-0.96214 3.5989-0.77777 4.2494c0.18438 0.65051 2.624-0.62836 2.624-0.62836l0.12882-0.8568 1.975-0.63487-2.1983-0.43823c0.05297-0.08873 0.11795-0.19668 0.17173-0.28654 0.26303 0.08114 0.5727 0.17206 1.1535 0.27811 1.3925 0.25426 2.33-0.25282 2.33-0.25282l1.0047-1.2726s-0.77722 0.54057-1.6516 0.69948c-0.86138 0.15654-2.326-0.20534-2.3701-0.2163 0.07688-0.12742 0.15934-0.26407 0.23758-0.39328 0.36982-0.09422 3.7025-0.96362 5.6618-2.3457 2.0726-1.462 6.1856-5.9751 6.1856-5.9751 2e-6 0-0.99211-0.0089-3.1295-0.04066-2.014-0.02995-3.7941-0.01618-4 0 0.09296-0.1486 0-1 0-1l8.5864-1.3443s0.55199-1.0489 1.394-2.7333c0.84199-1.6844 3.0196-5.9223 3.0196-5.9223s-1.4625-0.04151-2.7677-0.2213c-1.2458-0.1716-2.4252-0.47171-2.5361-0.50003 0.01508-0.02315 0.03087-0.04715 0.0458-0.07024 0.18133-0.08387 1.3458-0.61988 2.2155-0.89051 0.93886-0.29215 3.8012-0.69667 3.8012-0.69667s0.02289-0.40452 0.22899-1.236c0.20609-0.83151 0.61828-2.7417 0.61828-2.7417l-4.9806 2.8064c0.20965-0.28847 0.40776-0.54504 0.61255-0.81747l4.5512-2.6631s0.0458-0.58431 0.13739-1.3484c0.091578-0.76408 0.071543-1.6209 0.071541-1.6209z" fill="url(#linearGradient4503)"/>
   <path d="m34 4s-4.6206 4.9406-9.2221 11.275c-4.6015 6.3339-9.2677 13.499-13.934 21.68-4.0519 7.1039-2.5856 7.0455-2.5856 7.0455s0.45951-1.1837 3.6774-6.7614c3.0758-5.3314 6.9669-12.216 13.474-21.705 3.1015-4.5225 8.5901-11.534 8.5901-11.534z" fill="#31363b"/>
   <path d="m33.998 4-0.70703 0.88281-2.5767 3.2977-3.9722 5.0285c0.18133-0.08387 1.3452-0.62 2.2148-0.89062 0.93886-0.29215 3.8008-0.69726 3.8008-0.69726 0 0 0.02437-0.40482 0.23047-1.2363 0.20609-0.83151 0.61719-2.7422 0.61719-2.7422l-4.3003 2.4088c0.20965-0.28847 0.40849-0.54398 0.61328-0.81641l3.8706-2.2662s0.04513-0.58356 0.13672-1.3477c0.09158-0.76408 0.072266-1.6211 0.072266-1.6211zm-7.2559 9.209-7.7422 10.791 8.5859-1.3438s0.55254-1.0499 1.3945-2.7344c0.84199-1.6844 3.0195-5.9219 3.0195-5.9219s-1.4623-0.04092-2.7676-0.2207c-1.2458-0.1716-2.4262-0.47168-2.5371-0.5 0.01508-0.02315 0.03195-0.04722 0.04688-0.07031zm-7.7422 10.791-7.9648 13.52c0.58041 0.20392 2.4648-0.78516 2.4648-0.78516l0.12891-0.85547 1.9766-0.63476-2.1992-0.43945c0.05297-0.08873 0.11809-0.19531 0.17188-0.28516 0.26303 0.08114 0.57346 0.17129 1.1543 0.27734 1.3925 0.25426 2.3281-0.25195 2.3281-0.25195l1.0059-1.2734s-0.77797 0.54031-1.6523 0.69922c-0.86138 0.15654-2.325-0.20583-2.3691-0.2168 0.07688-0.12742 0.15809-0.26336 0.23633-0.39258 0.36982-0.09422 3.7029-0.96367 5.6621-2.3457 2.0726-1.462 6.1855-5.9746 6.1855-5.9746 2e-6 0-0.99155-0.0093-3.1289-0.04102-2.014-0.02995-3.7941-0.01618-4 0 0.09296-0.1486 0-1 0-1z" fill="url(#linearGradient4503-6)" opacity=".2"/>
  </g>
 </g>
</svg>
