<svg width="64" height="64" version="1.1" viewBox="0 0 64 64" xmlns="http://www.w3.org/2000/svg">
 <defs>
  <linearGradient id="linearGradient9454" x1="567.57" x2="543.57" y1="763.93" y2="745.93" gradientTransform="translate(-525.57,266.43)" gradientUnits="userSpaceOnUse">
   <stop stop-color="#197cf1" offset="0"/>
   <stop stop-color="#21c9fb" offset="1"/>
  </linearGradient>
  <linearGradient id="c" x1="520" x2="410" y1="-620" y2="-620" gradientTransform="matrix(.032213 0 0 .032213 17.661 1056.1)" gradientUnits="userSpaceOnUse">
   <stop offset="0"/>
   <stop stop-opacity="0" offset="1"/>
  </linearGradient>
  <linearGradient id="b" x1="10.583" x2="225.69" y1="-184.68" y2="-184.68" gradientTransform="matrix(.12178 0 0 .12178 17.661 1056.1)" gradientUnits="userSpaceOnUse">
   <stop stop-color="#fafbfb" offset="0"/>
   <stop stop-color="#fafbfb" stop-opacity="0" offset="1"/>
  </linearGradient>
  <linearGradient id="linearGradient1" x1="-240.47" x2="-240.47" y1="-60.605" y2="-29.026" gradientTransform="matrix(1.0311,0,0,1.0133,277.81,1064.7)" gradientUnits="userSpaceOnUse">
   <stop stop-color="#4285db" offset="0"/>
   <stop stop-color="#42b9db" offset="1"/>
  </linearGradient>
 </defs>
 <g transform="translate(0 -984.36)">
  <g transform="translate(0 .66294)" stroke-width="1.0667">
   <rect y="989.7" width="64" height="52" rx="5.3333" ry="5.3333" fill="#4d4d4d"/>
   <rect x="1" y="990.7" width="62" height="50" rx="4.2667" ry="4.1931" fill="url(#linearGradient1)"/>
   <path d="m24.106 1036.8 15.467-16.755 12.889 16.755z" fill="#1a1a1a"/>
   <path d="m22.946 1026.6-20.339 13.062c0.74027 0.608 1.6821 0.9877 2.7275 0.9877h39.812z" fill="#e6e6e6" opacity=".9"/>
   <path d="m18.95 1040.6 3.9957-14.049 22.202 14.049z" fill="#fafbfb"/>
   <path d="m39.573 1018.7-5.1563 5.4774v16.433h24.25c1.1669 0 2.2187-0.4586 2.9867-1.2z" fill="#b0b2b5"/>
   <path d="m39.571 1018.7 6.4459 21.912h12.65c1.1669 0 2.2187-0.4586 2.9867-1.2z" fill="#ffffff"/>
   <path d="m18.95 1040.6 3.9957-14.049 22.202 14.049z" fill="url(#b)"/>
   <path d="m33.127 1033v7.6053h1.2885v-6.7893z" fill="url(#c)" opacity=".35"/>
   <path d="m1.0667 1036.4v0.073c0 2.323 1.9029 4.1937 4.2667 4.1937h53.333c2.3637 0 4.2667-1.8708 4.2667-4.1937v-0.073z" fill="#ffffff" opacity=".35"/>
   <circle cx="56.533" cy="1038.5" r="1.0667" fill="#4d4d4d"/>
   <path d="m6.3999 1037.5v1.0666h1.0667v-1.0666zm1.0667 1.0666v1.0667h1.0667v-1.0667z" fill="#4d4d4d"/>
  </g>
  <g transform="translate(3,-10.04)">
   <rect x="15" y="1004.4" width="42" height="38" rx="4" ry="4" fill="#000000" opacity=".15" stroke-linecap="round" stroke-linejoin="round" stroke-width="1.0569" style="paint-order:stroke fill markers"/>
   <rect x="16" y="1005.4" width="40" height="36" rx="3" ry="3" fill="#ececec" stroke-linecap="round" stroke-linejoin="round" style="paint-order:stroke fill markers"/>
   <rect x="16" y="1011.4" width="40" height="1" fill="#000000" opacity=".15" stroke-width="1.3919"/>
   <rect x="52" y="1007.4" width="2" height="2" rx="1" fill="#ffaaaa" stroke-width=".1"/>
   <rect x="48" y="1007.4" width="2" height="2" rx="1" fill="#ffd42a" stroke-width=".1"/>
   <rect x="44" y="1007.4" width="2" height="2" rx="1" fill="#bcd35f" stroke-width=".1"/>
   <path x="16" y="1003.3622" width="32" height="33.999977" d="m16 1012.4h40v26c0 1.6568-1.3431 3-3 3h-34c-1.6569 0-3-1.3432-3-3z" fill="#ffffff" stroke-width=".11381"/>
  </g>
  <path d="m22 1012.4v2h1v-1h1v-1zm5 0v1h2v-1zm4 0v1h2v-1zm5 0v1h1v1h1v-2zm-6 4v1h2.293l-3.293 3.2929 0.70703 0.7071 3.293-3.293v2.293h1v-4h-1zm-8 1v2h1v-2zm15 0v2h1v-2zm0 4v2h1v-2zm-15 1v6h6v-6zm1 1h4v4h-4zm14 3v1h-1v1h2v-2zm-6 1v1h2v-1z" color="#4d4d4d" fill="url(#linearGradient9454)"/>
 </g>
</svg>
