<svg width="64" height="64" version="1.1" viewBox="0 0 64 64" xmlns="http://www.w3.org/2000/svg">
 <g transform="translate(-93 -988.36)">
  <rect x="93" y="994.36" width="31" height="25" rx="4" ry="4" fill="#000000" opacity=".15" stroke-linecap="round" stroke-linejoin="round" stroke-width="1.0569" style="paint-order:stroke fill markers"/>
  <rect x="94" y="995.36" width="29" height="22.998" rx="3" ry="3" fill="#ececec" stroke-linecap="round" stroke-linejoin="round" style="paint-order:stroke fill markers"/>
  <rect x="94" y="999.36" width="29" height=".99998" fill="#000000" opacity=".15" stroke-width=".9672"/>
  <rect x="119" y="996.36" width="2" height="2" rx="1" fill="#ffaaaa" stroke-width=".1"/>
  <rect x="116" y="996.36" width="2" height="2" rx="1" fill="#ffd42a" stroke-width=".1"/>
  <rect x="113" y="996.36" width="2" height="2" rx="1" fill="#bcd35f" stroke-width=".1"/>
  <path x="16" y="1003.3622" width="32" height="33.999977" d="m94 1000.4h29v15c0 1.6568-1.3431 3-3 3h-23c-1.6569 0-3-1.3432-3-3z" fill="#ffffff" stroke-width=".11381"/>
 </g>
 <g transform="translate(-60 -988.36)">
  <rect x="93" y="994.36" width="31" height="25" rx="4" ry="4" fill="#000000" opacity=".15" stroke-linecap="round" stroke-linejoin="round" stroke-width="1.0569" style="paint-order:stroke fill markers"/>
  <rect x="94" y="995.36" width="29" height="22.998" rx="3" ry="3" fill="#ececec" stroke-linecap="round" stroke-linejoin="round" style="paint-order:stroke fill markers"/>
  <rect x="94" y="999.36" width="29" height=".99998" fill="#000000" opacity=".15" stroke-width=".9672"/>
  <rect x="119" y="996.36" width="2" height="2" rx="1" fill="#ffaaaa" stroke-width=".1"/>
  <rect x="116" y="996.36" width="2" height="2" rx="1" fill="#ffd42a" stroke-width=".1"/>
  <rect x="113" y="996.36" width="2" height="2" rx="1" fill="#bcd35f" stroke-width=".1"/>
  <path x="16" y="1003.3622" width="32" height="33.999977" d="m94 1000.4h29v15c0 1.6568-1.3431 3-3 3h-23c-1.6569 0-3-1.3432-3-3z" fill="#ffffff" stroke-width=".11381"/>
 </g>
 <g transform="translate(-93 -961.36)">
  <rect x="93" y="994.36" width="31" height="25" rx="4" ry="4" fill="#000000" opacity=".15" stroke-linecap="round" stroke-linejoin="round" stroke-width="1.0569" style="paint-order:stroke fill markers"/>
  <rect x="94" y="995.36" width="29" height="22.998" rx="3" ry="3" fill="#ececec" stroke-linecap="round" stroke-linejoin="round" style="paint-order:stroke fill markers"/>
  <rect x="94" y="999.36" width="29" height=".99998" fill="#000000" opacity=".15" stroke-width=".9672"/>
  <rect x="119" y="996.36" width="2" height="2" rx="1" fill="#ffaaaa" stroke-width=".1"/>
  <rect x="116" y="996.36" width="2" height="2" rx="1" fill="#ffd42a" stroke-width=".1"/>
  <rect x="113" y="996.36" width="2" height="2" rx="1" fill="#bcd35f" stroke-width=".1"/>
  <path x="16" y="1003.3622" width="32" height="33.999977" d="m94 1000.4h29v15c0 1.6568-1.3431 3-3 3h-23c-1.6569 0-3-1.3432-3-3z" fill="#ffffff" stroke-width=".11381"/>
 </g>
 <g transform="translate(-60 -961.36)">
  <rect x="93" y="994.36" width="31" height="25" rx="4" ry="4" fill="#000000" opacity=".15" stroke-linecap="round" stroke-linejoin="round" stroke-width="1.0569" style="paint-order:stroke fill markers"/>
  <rect x="94" y="995.36" width="29" height="22.998" rx="3" ry="3" fill="#ececec" stroke-linecap="round" stroke-linejoin="round" style="paint-order:stroke fill markers"/>
  <rect x="94" y="999.36" width="29" height=".99998" fill="#000000" opacity=".15" stroke-width=".9672"/>
  <rect x="119" y="996.36" width="2" height="2" rx="1" fill="#ffaaaa" stroke-width=".1"/>
  <rect x="116" y="996.36" width="2" height="2" rx="1" fill="#ffd42a" stroke-width=".1"/>
  <rect x="113" y="996.36" width="2" height="2" rx="1" fill="#bcd35f" stroke-width=".1"/>
  <path x="16" y="1003.3622" width="32" height="33.999977" d="m94 1000.4h29v15c0 1.6568-1.3431 3-3 3h-23c-1.6569 0-3-1.3432-3-3z" fill="#ffffff" stroke-width=".11381"/>
 </g>
</svg>
