<svg width="64" height="64" version="1.1" viewBox="0 0 64 64" xmlns="http://www.w3.org/2000/svg" xmlns:xlink="http://www.w3.org/1999/xlink">
 <defs>
  <linearGradient id="linearGradient6719" x1="769.5" x2="769.86" y1="197.84" y2="215.93" gradientTransform="matrix(1 0 0 1.4286 -736.86 737.89)" gradientUnits="userSpaceOnUse">
   <stop stop-color="#ffa92d" offset="0"/>
   <stop stop-color="#ffa92d" stop-opacity="0" offset="1"/>
  </linearGradient>
  <linearGradient id="linearGradient6808" x1="47" x2="23" y1="40" y2="22" gradientTransform="translate(-3 988.36)" gradientUnits="userSpaceOnUse">
   <stop stop-color="#197cf1" offset="0"/>
   <stop stop-color="#21c9fb" offset="1"/>
  </linearGradient>
 </defs>
 <g transform="translate(0 -988.36)">
  <rect transform="scale(-1)" x="-64" y="-1046.4" width="64" height="6" ry="0" fill="#666666"/>
  <path d="m29 1046.4-21-20h48l-21 20z" fill="url(#linearGradient6719)" fill-rule="evenodd"/>
  <path class="ColorScheme-Text" d="m31 1041.4c-0.1385 0-0.25 0.1115-0.25 0.25s0.1115 0.25 0.25 0.25 0.25-0.1115 0.25-0.25-0.1115-0.25-0.25-0.25zm1.75 0-0.5 0.5 0.75 0.75-0.75 0.75 0.5 0.5 1.25-1.25zm-2.375 1.5c-0.20775 0-0.375 0.1672-0.375 0.375 0 0.2077 0.16725 0.375 0.375 0.375s0.375-0.1673 0.375-0.375c0-0.2078-0.16725-0.375-0.375-0.375zm1.125 1.5c-0.277 0-0.5 0.223-0.5 0.5s0.223 0.5 0.5 0.5 0.5-0.223 0.5-0.5-0.223-0.5-0.5-0.5z" color="#4d4d4d" fill="#ffffff"/>
  <g transform="translate(-68 -.037855)">
   <rect x="74" y="994.36" width="52" height="38" rx="4" ry="4" fill="#000000" opacity=".15" stroke-linecap="round" stroke-linejoin="round" stroke-width="1.0569" style="paint-order:stroke fill markers"/>
   <rect x="75" y="995.36" width="50" height="36" rx="3" ry="3" fill="#ececec" stroke-linecap="round" stroke-linejoin="round" style="paint-order:stroke fill markers"/>
   <rect x="75" y="1001.4" width="50" height="1" fill="#000000" opacity=".15" stroke-width="1.3919"/>
   <rect x="121" y="997.36" width="2" height="2" rx="1" fill="#ffaaaa" stroke-width=".1"/>
   <rect x="117" y="997.36" width="2" height="2" rx="1" fill="#ffd42a" stroke-width=".1"/>
   <rect x="113" y="997.36" width="2" height="2" rx="1" fill="#bcd35f" stroke-width=".1"/>
   <path x="16" y="1003.3622" width="32" height="33.999977" d="m75 1002.4h50v26c0 1.6568-1.3431 3-3 3h-44c-1.6569 0-3-1.3432-3-3z" fill="#ffffff" stroke-width=".11381"/>
  </g>
  <path d="m33 1010.4v1h6v6h1v-7zm-9 9v7h7v-1h-6v-6zm11.998 0.4297v4.6562l-1.6211-1.6211-0.70703 0.707 2.1211 2.1211 0.70703 0.7071 2.8301-2.8282-0.70703-0.707-1.623 1.6211v-4.6562z" color="#4d4d4d" fill="url(#linearGradient6808)"/>
 </g>
</svg>
