<svg width="64" height="64" version="1.1" viewBox="0 0 64 64" xmlns="http://www.w3.org/2000/svg" xmlns:xlink="http://www.w3.org/1999/xlink">
 <defs>
  <linearGradient id="linearGradient16598" x1="748.86" x2="760.86" y1="198.43" y2="198.43" gradientTransform="translate(-743.86 833.93)" gradientUnits="userSpaceOnUse">
   <stop stop-color="#197cf1" offset="0"/>
   <stop stop-color="#20bcfa" offset="1"/>
  </linearGradient>
  <linearGradient id="linearGradient1" x1="-240.47" x2="-240.47" y1="-60.605" y2="-29.026" gradientTransform="matrix(1.0311,0,0,1.0133,277.81,1064.7)" gradientUnits="userSpaceOnUse">
   <stop stop-color="#4285db" offset="0"/>
   <stop stop-color="#42b9db" offset="1"/>
  </linearGradient>
  <linearGradient id="b" x1="10.583" x2="225.69" y1="-184.68" y2="-184.68" gradientTransform="matrix(.12178 0 0 .12178 17.661 1056.1)" gradientUnits="userSpaceOnUse">
   <stop stop-color="#fafbfb" offset="0"/>
   <stop stop-color="#fafbfb" stop-opacity="0" offset="1"/>
  </linearGradient>
  <linearGradient id="c" x1="520" x2="410" y1="-620" y2="-620" gradientTransform="matrix(.032213 0 0 .032213 17.661 1056.1)" gradientUnits="userSpaceOnUse">
   <stop offset="0"/>
   <stop stop-opacity="0" offset="1"/>
  </linearGradient>
 </defs>
 <g transform="translate(0 -988.36)">
  <g transform="translate(0 4.6573)" stroke-width="1.0667">
   <rect y="989.7" width="64" height="52" rx="5.3333" ry="5.3333" fill="#4d4d4d"/>
   <rect x="1" y="990.7" width="62" height="50" rx="4.2667" ry="4.1931" fill="url(#linearGradient1)"/>
   <path d="m24.106 1036.8 15.467-16.755 12.889 16.755z" fill="#1a1a1a"/>
   <path d="m22.946 1026.6-20.339 13.062c0.74027 0.608 1.6821 0.9877 2.7275 0.9877h39.812z" fill="#e6e6e6" opacity=".9"/>
   <path d="m18.95 1040.6 3.9957-14.049 22.202 14.049z" fill="#fafbfb"/>
   <path d="m39.573 1018.7-5.1563 5.4774v16.433h24.25c1.1669 0 2.2187-0.4586 2.9867-1.2z" fill="#b0b2b5"/>
   <path d="m39.571 1018.7 6.4459 21.912h12.65c1.1669 0 2.2187-0.4586 2.9867-1.2z" fill="#ffffff"/>
   <path d="m18.95 1040.6 3.9957-14.049 22.202 14.049z" fill="url(#b)"/>
   <path d="m33.127 1033v7.6053h1.2885v-6.7893z" fill="url(#c)" opacity=".35"/>
   <path d="m1.0667 1036.4v0.073c0 2.323 1.9029 4.1937 4.2667 4.1937h53.333c2.3637 0 4.2667-1.8708 4.2667-4.1937v-0.073z" fill="#ffffff" opacity=".35"/>
   <circle cx="56.533" cy="1038.5" r="1.0667" fill="#4d4d4d"/>
   <path d="m6.3999 1037.5v1.0666h1.0667v-1.0666zm1.0667 1.0666v1.0667h1.0667v-1.0667z" fill="#4d4d4d"/>
  </g>
  <rect x="1.0667" y="1020.3" width="25" height="25" rx="4.2931" ry="4.2931" fill="#ffffff" fill-opacity=".8125"/>
  <path class="ColorScheme-Text" d="m11 1039.4h1c1.108 0 2-0.892 2-2v-10h-2l2.4004-3 2.5996 3h-2v10c0 1.662-1.338 3-3 3h-1z" color="#4d4d4d" fill="url(#linearGradient16598)"/>
 </g>
</svg>
