<svg width="64" height="64" version="1.1" viewBox="0 0 64 64" xmlns="http://www.w3.org/2000/svg" xmlns:xlink="http://www.w3.org/1999/xlink">
 <defs>
  <linearGradient id="linearGradient7574" x1="45" x2="19" y1="42" y2="22" gradientTransform="translate(-3e-5 990.36)" gradientUnits="userSpaceOnUse">
   <stop stop-color="#197cf1" offset="0"/>
   <stop stop-color="#21c9fb" offset="1"/>
  </linearGradient>
 </defs>
 <g transform="translate(0 -988.36)">
  <path d="m4 993.36h56c2.216 0 4.2447 1.7976 4 4l-5 45c-0.24472 2.2024-1.784 4-4 4h-45c-2.216 0-3.7071-1.8034-4-4l-6-45c-0.29287-2.1966 1.784-4 4-4z" opacity=".15" stroke-linecap="round" stroke-linejoin="round" stroke-width="1.0569" style="paint-order:stroke fill markers"/>
  <path d="m4 994.36h56c1.662 0 3.1835 1.3482 3 3l-5 45c-0.18354 1.6518-1.338 3-3 3h-45c-1.662 0-2.7803-1.3526-3-3l-6-45c-0.21966-1.6474 1.338-3 3-3z" fill="#ececec" stroke-linecap="round" stroke-linejoin="round" style="paint-order:stroke fill markers"/>
  <rect x="1.3994" y="1000.4" width="61.152" height="1.0443" fill="#000000" opacity=".15" stroke-width="1.3919"/>
  <rect x="59" y="996.36" width="2" height="2" rx="1" fill="#ffaaaa" stroke-width=".1"/>
  <rect x="55" y="996.36" width="2" height="2" rx="1" fill="#ffd42a" stroke-width=".1"/>
  <rect x="51" y="996.36" width="2" height="2" rx="1" fill="#bcd35f" stroke-width=".1"/>
  <path x="16" y="1003.3622" width="32" height="33.999977" d="m1.5387 1001.4h61.012l-4.5511 41c-0.18279 1.6467-1.3431 3-3 3h-45.065c-1.6569 0-2.7627-1.3603-3-3z" fill="#f9f9f9" stroke-width=".11381"/>
  <path d="m27 1012.4v6h11v-6zm1 1h9v4h-9zm-6.375 1.5c-0.34625 0-0.625 0.2787-0.625 0.625 0 0.3462 0.27875 0.625 0.625 0.625s0.625-0.2788 0.625-0.625c0-0.3463-0.27875-0.625-0.625-0.625zm20.75 0c-0.34625 0-0.625 0.2787-0.625 0.625 0 0.3462 0.27875 0.625 0.625 0.625s0.625-0.2788 0.625-0.625c0-0.3463-0.27875-0.625-0.625-0.625zm-24.5 2.5c-0.34625 0-0.625 0.2787-0.625 0.625 0 0.3462 0.27875 0.625 0.625 0.625s0.625-0.2788 0.625-0.625c0-0.3463-0.27875-0.625-0.625-0.625zm28.25 0c-0.34625 0-0.625 0.2787-0.625 0.625 0 0.3462 0.27875 0.625 0.625 0.625s0.625-0.2788 0.625-0.625c0-0.3463-0.27875-0.625-0.625-0.625zm-29.5 3.75c-0.34625 0-0.625 0.2787-0.625 0.625 0 0.3462 0.27875 0.625 0.625 0.625s0.625-0.2788 0.625-0.625c0-0.3463-0.27875-0.625-0.625-0.625zm30.75 0c-0.34625 0-0.625 0.2787-0.625 0.625 0 0.3462 0.27875 0.625 0.625 0.625s0.625-0.2788 0.625-0.625c0-0.3463-0.27875-0.625-0.625-0.625zm-21.875 2.5-0.88477 0.8847 2.8672 2.8653h-3.9824v1.25h3.9824l-2.8672 2.8672 0.88477 0.8828 4.1152-4.1153 0.25977-0.2597-0.25977-0.2578zm13 0-4.1152 4.1172-0.25977 0.2578 0.25977 0.2597 4.1152 4.1153 0.88477-0.8828-2.8672-2.8672h3.9824v-1.25h-3.9824l2.8672-2.8653zm-20.625 1.25c-0.34625 0-0.625 0.2787-0.625 0.625 0 0.3462 0.27875 0.625 0.625 0.625s0.625-0.2788 0.625-0.625c0-0.3463-0.27875-0.625-0.625-0.625zm28.25 0c-0.34625 0-0.625 0.2787-0.625 0.625 0 0.3462 0.27875 0.625 0.625 0.625s0.625-0.2788 0.625-0.625c0-0.3463-0.27875-0.625-0.625-0.625zm-24.5 2.5c-0.34625 0-0.625 0.2787-0.625 0.625 0 0.3462 0.27875 0.625 0.625 0.625s0.625-0.2788 0.625-0.625c0-0.3463-0.27875-0.625-0.625-0.625zm20.75 0c-0.34625 0-0.625 0.2787-0.625 0.625 0 0.3462 0.27875 0.625 0.625 0.625s0.625-0.2788 0.625-0.625c0-0.3463-0.27875-0.625-0.625-0.625z" color="#4d4d4d" color-rendering="auto" fill="url(#linearGradient7574)" image-rendering="auto" shape-rendering="auto" solid-color="#000000" style="isolation:auto;mix-blend-mode:normal;text-decoration-color:#000000;text-decoration-line:none;text-decoration-style:solid"/>
 </g>
</svg>
