<svg width="64" height="64" version="1.1" viewBox="0 0 64 64" xmlns="http://www.w3.org/2000/svg" xmlns:xlink="http://www.w3.org/1999/xlink">
 <defs>
  <linearGradient id="linearGradient1" x1="-240.47" x2="-240.47" y1="-60.605" y2="-29.026" gradientTransform="matrix(.96667 0 0 .95 262.45 67.575)" gradientUnits="userSpaceOnUse">
   <stop stop-color="#4285db" offset="0"/>
   <stop stop-color="#42b9db" offset="1"/>
  </linearGradient>
  <linearGradient id="linearGradient2" x1="10.583" x2="225.69" y1="-184.68" y2="-184.68" gradientTransform="matrix(.11417 0 0 .11417 18.557 59.5)" gradientUnits="userSpaceOnUse">
   <stop stop-color="#fafbfb" offset="0"/>
   <stop stop-color="#fafbfb" stop-opacity="0" offset="1"/>
  </linearGradient>
  <linearGradient id="linearGradient3" x1="520" x2="410" y1="-620" y2="-620" gradientTransform="matrix(.0302 0 0 .0302 18.557 59.5)" gradientUnits="userSpaceOnUse">
   <stop offset="0"/>
   <stop stop-opacity="0" offset="1"/>
  </linearGradient>
  <linearGradient id="linearGradient18">
   <stop stop-color="#ffffff" offset="0"/>
   <stop stop-color="#d1d1d1" offset="1"/>
  </linearGradient>
  <linearGradient id="linearGradient8860-0" x1="11" x2="46" y1="28.5" y2="28.5" gradientTransform="translate(-.0702 988.36)" gradientUnits="userSpaceOnUse">
   <stop stop-color="#ffc169" offset="0"/>
   <stop stop-color="#ffa92d" offset="1"/>
  </linearGradient>
  <linearGradient id="linearGradient4" x1="25.225" x2="25.225" y1="44.329" y2="6.1235" gradientUnits="userSpaceOnUse" xlink:href="#linearGradient18"/>
  <linearGradient id="linearGradient5" x1="25.225" x2="25.225" y1="44.047" y2="7" gradientUnits="userSpaceOnUse" xlink:href="#linearGradient18"/>
  <linearGradient id="linearGradient6" x1="32" x2="32" y1="45" y2="7" gradientUnits="userSpaceOnUse" xlink:href="#linearGradient18"/>
 </defs>
 <g transform="translate(0 -988.36)">
  <g transform="translate(0 .00216)">
   <g transform="translate(0 .00216)">
    <g transform="translate(0,4)">
     <g transform="matrix(.51667 0 0 .51667 -1.0333 991.6)">
      <rect transform="translate(270.4,69.763)" x="-268.4" y="-63.763" width="60" height="40" rx="5" ry="5" fill="#4d4d4d"/>
      <rect x="3" y="7" width="58" height="38" rx="4" ry="3.931" fill="url(#linearGradient1)"/>
      <path d="m24.599 41.375 14.5-15.708 12.083 15.708z" fill="#1a1a1a"/>
      <path d="m23.512 31.828-19.068 12.246c0.694 0.57 1.577 0.926 2.557 0.926h37.324z" fill="#e6e6e6" opacity=".9"/>
      <path d="M 19.766,45 23.512,31.829 44.326,45 Z" fill="#fafbfb"/>
      <path d="m39.1 24.459-4.834 5.135v15.406h22.734c1.094 0 2.08-0.43 2.8-1.125z" fill="#b0b2b5"/>
      <path d="m39.098 24.457 6.043 20.543h11.859c1.094 0 2.08-0.43 2.8-1.125z" fill="#ffffff"/>
      <path d="M 19.766,45 23.512,31.829 44.326,45 Z" fill="url(#linearGradient2)"/>
      <path d="m33.057 37.87v7.13h1.208v-6.365z" fill="url(#linearGradient3)" opacity=".35"/>
     </g>
     <g transform="matrix(.51667 0 0 .51667 31.967 991.6)">
      <rect transform="translate(270.4,69.763)" x="-268.4" y="-63.763" width="60" height="40" rx="5" ry="5" fill="#4d4d4d"/>
      <rect x="3" y="7" width="58" height="38" rx="4" ry="3.931" fill="url(#linearGradient5)"/>
     </g>
     <g transform="matrix(.51667 0 0 .51667 -1.0333 1014.3)">
      <rect transform="translate(270.4,69.763)" x="-268.4" y="-63.763" width="60" height="40" rx="5" ry="5" fill="#4d4d4d"/>
      <rect x="3" y="7" width="58" height="38" rx="4" ry="3.931" fill="url(#linearGradient6)"/>
     </g>
     <g transform="matrix(.51667 0 0 .51667 31.967 1014.3)">
      <rect transform="translate(270.4,69.763)" x="-268.4" y="-63.763" width="60" height="40" rx="5" ry="5" fill="#4d4d4d"/>
      <rect x="3" y="7" width="58" height="38" rx="4" ry="3.931" fill="url(#linearGradient4)"/>
     </g>
    </g>
   </g>
   <path d="m37.93 1001.4v8l8-4zm-23 2a2 2 0 0 0-2 2 2 2 0 0 0 2 2 2 2 0 0 0 2-2 2 2 0 0 0-2-2zm-4 21 4 8 4-8z" fill="url(#linearGradient8860-0)"/>
  </g>
 </g>
</svg>
