<svg width="64" height="64" version="1.1" viewBox="0 0 64 64" xmlns="http://www.w3.org/2000/svg" xmlns:xlink="http://www.w3.org/1999/xlink">
 <defs>
  <linearGradient id="linearGradient14146" x1="47" x2="23" y1="46" y2="28" gradientTransform="translate(-18 978.36)" gradientUnits="userSpaceOnUse">
   <stop stop-color="#197cf1" offset="0"/>
   <stop stop-color="#21c9fb" offset="1"/>
  </linearGradient>
 </defs>
 <g transform="translate(0 -988.36)">
  <g transform="matrix(.55735 0 0 .55735 30.624 1020)" stroke-linecap="round" stroke-linejoin="round" stroke-width="3">
   <path d="m27.168 43.736c1.3523-0.21511 2.6789-0.56853 3.959-1.0547l-0.34375-3.1172c1.1703-0.50928 2.2795-1.1487 3.3066-1.9062l2.5215 1.8516c1.0624-0.86566 2.033-1.8382 2.8965-2.9023l-1.8496-2.5176c0.76216-1.0259 1.4062-2.1345 1.9199-3.3047l3.0859 0.33984c0.48842-1.2811 0.8438-2.6091 1.0605-3.9629l-2.8418-1.248c0.075045-0.63531 0.11417-1.2743 0.11719-1.9141-0.0071-0.63798-0.05016-1.2751-0.12891-1.9082l2.8652-1.2598c-0.21511-1.3523-0.56853-2.6789-1.0547-3.959l-3.1172 0.34375c-0.50928-1.1703-1.1487-2.2795-1.9062-3.3066l1.8516-2.5215c-0.86566-1.0624-1.8382-2.033-2.9023-2.8965l-2.5176 1.8496c-1.0259-0.76216-2.1345-1.4062-3.3047-1.9199l0.33984-3.0859c-1.2811-0.48842-2.6091-0.8438-3.9629-1.0605l-1.248 2.8418c-0.63531-0.075045-1.2743-0.11417-1.9141-0.11719-0.63798 0.00713-1.2751 0.050163-1.9082 0.12891l-1.2598-2.8652c-1.3523 0.21511-2.6789 0.56853-3.959 1.0547l0.34375 3.1172c-1.1703 0.50928-2.2795 1.1487-3.3066 1.9063l-2.5215-1.8516c-1.0624 0.86566-2.033 1.8382-2.8965 2.9023l1.8496 2.5176c-0.76216 1.0259-1.4062 2.1345-1.9199 3.3047l-3.0859-0.33984c-0.48842 1.2811-0.8438 2.6091-1.0605 3.9629l2.8418 1.248c-0.075045 0.63531-0.11417 1.2743-0.11719 1.9141 0.00713 0.63798 0.050163 1.2751 0.12891 1.9082l-2.8652 1.2598c0.21511 1.3523 0.56853 2.6789 1.0547 3.959l3.1172-0.34375c0.50928 1.1703 1.1487 2.2795 1.9063 3.3066l-1.8516 2.5215c0.86566 1.0624 1.8382 2.033 2.9023 2.8965l2.5176-1.8496c1.0259 0.76216 2.1345 1.4062 3.3047 1.9199l-0.33984 3.0859c1.2811 0.48842 2.6091 0.8438 3.9629 1.0605l1.248-2.8418c0.63531 0.075045 1.2743 0.11417 1.9141 0.11719 0.63798-0.0071 1.2751-0.05016 1.9082-0.12891z" color="#000000" fill="#cccccc"/>
   <path d="m16.979 5.2793c-0.03519 0.012922-0.07035 0.025943-0.10547 0.039063l0.23828 2.1699c0.03509-0.0177 0.07025-0.035278 0.10547-0.052734zm14.041 0.021484-0.23438 2.1211c0.03521 0.015506 0.07037 0.031131 0.10547 0.046875l0.23438-2.1328c-0.03512-0.011817-0.07028-0.023535-0.10547-0.035156zm8.0859 5.6387-1.4473 1.9707c0.12165 0.16968 0.24016 0.34158 0.35547 0.51562l1.4961-2.0371c-0.1325-0.15177-0.26728-0.30152-0.4043-0.44922zm-30.211 2e-3c-0.13638 0.14836-0.27051 0.29876-0.40234 0.45117l1.5 2.041c0.1133-0.17667 0.22985-0.35118 0.34961-0.52348zm34.648 8.9746-2.6719 1.1758c0.03331 0.32216 0.05741 0.64521 0.07227 0.96875l2.793-1.2285c-0.0573-0.3068-0.12177-0.61223-0.19336-0.91602zm-39.074 0.0078c-0.071562 0.30314-0.13603 0.60791-0.19336 0.91406l2.7754 1.2188c0.012869-0.32414 0.035014-0.64784 0.066406-0.9707zm2.5566 3.502c-0.011699 0.19122-0.020164 0.38265-0.025391 0.57418 0.010206 0.31361 0.029094 0.62688 0.056641 0.93945l0.072266-0.03125c-0.056097-0.4924-0.090635-0.98701-0.10352-1.4824zm33.949 0.14844c-0.01294 0.44765-0.04356 0.89461-0.0918 1.3398l0.06641 0.0293c0.025663-0.31396 0.042596-0.62853 0.050781-0.9434-0.0067-0.14203-0.01515-0.28397-0.02539-0.42578zm2.5566 3.502c-0.20795 1.0376-0.49792 2.0571-0.86719 3.0488l-3.0859-0.33984c-0.51372 1.1702-1.1578 2.2788-1.9199 3.3047l0.34961 0.47656c0.60956-0.87575 1.1353-1.8069 1.5703-2.7812l3.0859 0.33984c0.48842-1.2811 0.8438-2.6091 1.0605-3.9629zm-39.074 0.0078-0.19336 0.08398c0.21511 1.3523 0.56853 2.6789 1.0547 3.959l3.1172-0.34375c0.42822 0.97693 0.94744 1.9114 1.5508 2.791l0.35547-0.48439c-0.75753-1.0272-1.397-2.1364-1.9063-3.3066l-3.1172 0.34375c-0.36698-0.99-0.65499-2.0075-0.86133-3.043zm34.648 8.9746c-0.75822 0.88831-1.5928 1.7085-2.4941 2.4512l-2.5215-1.8516c-1.0272 0.75753-2.1364 1.397-3.3066 1.9062l0.10547 0.94727c1.1313-0.49956 2.2047-1.1211 3.2012-1.8535l2.5215 1.8516c1.0624-0.86566 2.033-1.8382 2.8965-2.9023zm-30.211 2e-3 -0.4043 0.55078c0.86566 1.0624 1.8382 2.033 2.9023 2.8965l2.5176-1.8496c0.99494 0.73911 2.0677 1.3672 3.1992 1.873l0.10547-0.95312c-1.1702-0.51372-2.2788-1.1578-3.3047-1.9199l-2.5176 1.8496c-0.90254-0.74132-1.7384-1.5602-2.498-2.4473zm17.014 3.8105c-0.63314 0.078743-1.2702 0.12178-1.9082 0.12891-0.63972-3e-3 -1.2788-0.04214-1.9141-0.11719l-1.248 2.8418c-1.3168-0.21232-2.609-0.55582-3.8574-1.0254l-0.10547 0.96484c1.2811 0.48842 2.6091 0.8438 3.9629 1.0605l1.248-2.8418c0.63531 0.075045 1.2743 0.11417 1.9141 0.11719 0.63798-0.0071 1.2751-0.05016 1.9082-0.12891l1.2598 2.8652c1.3523-0.21511 2.6789-0.56853 3.959-1.0547l-0.10547-0.96094c-1.2475 0.46599-2.5384 0.80622-3.8535 1.0156z" color="#000000" fill="#808080"/>
  </g>
  <path d="m15 1010.4 0.0117 19.5 5.9883-8h9l-15-11.5z" fill="url(#linearGradient14146)"/>
  <g transform="matrix(.55735 0 0 .55735 30.624 1012)" stroke-linecap="round" stroke-linejoin="round" stroke-width="3">
   <path d="m27.168 43.736c1.3523-0.21511 2.6789-0.56853 3.959-1.0547l-0.34375-3.1172c1.1703-0.50928 2.2795-1.1487 3.3066-1.9062l2.5215 1.8516c1.0624-0.86566 2.033-1.8382 2.8965-2.9023l-1.8496-2.5176c0.76216-1.0259 1.4062-2.1345 1.9199-3.3047l3.0859 0.33984c0.48842-1.2811 0.8438-2.6091 1.0605-3.9629l-2.8418-1.248c0.075045-0.63531 0.11417-1.2743 0.11719-1.9141-0.0071-0.63798-0.05016-1.2751-0.12891-1.9082l2.8652-1.2598c-0.21511-1.3523-0.56853-2.6789-1.0547-3.959l-3.1172 0.34375c-0.50928-1.1703-1.1487-2.2795-1.9062-3.3066l1.8516-2.5215c-0.86566-1.0624-1.8382-2.033-2.9023-2.8965l-2.5176 1.8496c-1.0259-0.76216-2.1345-1.4062-3.3047-1.9199l0.33984-3.0859c-1.2811-0.48842-2.6091-0.8438-3.9629-1.0605l-1.248 2.8418c-0.63531-0.075045-1.2743-0.11417-1.9141-0.11719-0.63798 0.00713-1.2751 0.050163-1.9082 0.12891l-1.2598-2.8652c-1.3523 0.21511-2.6789 0.56853-3.959 1.0547l0.34375 3.1172c-1.1703 0.50928-2.2795 1.1487-3.3066 1.9063l-2.5215-1.8516c-1.0624 0.86566-2.033 1.8382-2.8965 2.9023l1.8496 2.5176c-0.76216 1.0259-1.4062 2.1345-1.9199 3.3047l-3.0859-0.33984c-0.48842 1.2811-0.8438 2.6091-1.0605 3.9629l2.8418 1.248c-0.075045 0.63531-0.11417 1.2743-0.11719 1.9141 0.00713 0.63798 0.050163 1.2751 0.12891 1.9082l-2.8652 1.2598c0.21511 1.3523 0.56853 2.6789 1.0547 3.959l3.1172-0.34375c0.50928 1.1703 1.1487 2.2795 1.9063 3.3066l-1.8516 2.5215c0.86566 1.0624 1.8382 2.033 2.9023 2.8965l2.5176-1.8496c1.0259 0.76216 2.1345 1.4062 3.3047 1.9199l-0.33984 3.0859c1.2811 0.48842 2.6091 0.8438 3.9629 1.0605l1.248-2.8418c0.63531 0.075045 1.2743 0.11417 1.9141 0.11719 0.63798-0.0071 1.2751-0.05016 1.9082-0.12891z" color="#000000" fill="#b3b3b3"/>
   <path d="m16.979 5.2793c-0.03519 0.012922-0.07035 0.025943-0.10547 0.039063l0.23828 2.1699c0.03509-0.0177 0.07025-0.035278 0.10547-0.052734zm14.041 0.021484-0.23438 2.1211c0.03521 0.015506 0.07037 0.031131 0.10547 0.046875l0.23438-2.1328c-0.03512-0.011817-0.07028-0.023535-0.10547-0.035156zm8.0859 5.6387-1.4473 1.9707c0.12165 0.16968 0.24016 0.34158 0.35547 0.51562l1.4961-2.0371c-0.1325-0.15177-0.26728-0.30152-0.4043-0.44922zm-30.211 2e-3c-0.13638 0.14836-0.27051 0.29876-0.40234 0.45117l1.5 2.041c0.1133-0.17667 0.22985-0.35118 0.34961-0.52348zm34.648 8.9746-2.6719 1.1758c0.03331 0.32216 0.05741 0.64521 0.07227 0.96875l2.793-1.2285c-0.0573-0.3068-0.12177-0.61223-0.19336-0.91602zm-39.074 0.0078c-0.071562 0.30314-0.13603 0.60791-0.19336 0.91406l2.7754 1.2188c0.012869-0.32414 0.035014-0.64784 0.066406-0.9707zm2.5566 3.502c-0.011699 0.19122-0.020164 0.38265-0.025391 0.57418 0.010206 0.31361 0.029094 0.62688 0.056641 0.93945l0.072266-0.03125c-0.056097-0.4924-0.090635-0.98701-0.10352-1.4824zm33.949 0.14844c-0.01294 0.44765-0.04356 0.89461-0.0918 1.3398l0.06641 0.0293c0.025663-0.31396 0.042596-0.62853 0.050781-0.9434-0.0067-0.14203-0.01515-0.28397-0.02539-0.42578zm2.5566 3.502c-0.20795 1.0376-0.49792 2.0571-0.86719 3.0488l-3.0859-0.33984c-0.51372 1.1702-1.1578 2.2788-1.9199 3.3047l0.34961 0.47656c0.60956-0.87575 1.1353-1.8069 1.5703-2.7812l3.0859 0.33984c0.48842-1.2811 0.8438-2.6091 1.0605-3.9629zm-39.074 0.0078-0.19336 0.08398c0.21511 1.3523 0.56853 2.6789 1.0547 3.959l3.1172-0.34375c0.42822 0.97693 0.94744 1.9114 1.5508 2.791l0.35547-0.48439c-0.75753-1.0272-1.397-2.1364-1.9063-3.3066l-3.1172 0.34375c-0.36698-0.99-0.65499-2.0075-0.86133-3.043zm34.648 8.9746c-0.75822 0.88831-1.5928 1.7085-2.4941 2.4512l-2.5215-1.8516c-1.0272 0.75753-2.1364 1.397-3.3066 1.9062l0.10547 0.94727c1.1313-0.49956 2.2047-1.1211 3.2012-1.8535l2.5215 1.8516c1.0624-0.86566 2.033-1.8382 2.8965-2.9023zm-30.211 2e-3 -0.4043 0.55078c0.86566 1.0624 1.8382 2.033 2.9023 2.8965l2.5176-1.8496c0.99494 0.73911 2.0677 1.3672 3.1992 1.873l0.10547-0.95312c-1.1702-0.51372-2.2788-1.1578-3.3047-1.9199l-2.5176 1.8496c-0.90254-0.74132-1.7384-1.5602-2.498-2.4473zm17.014 3.8105c-0.63314 0.078743-1.2702 0.12178-1.9082 0.12891-0.63972-3e-3 -1.2788-0.04214-1.9141-0.11719l-1.248 2.8418c-1.3168-0.21232-2.609-0.55582-3.8574-1.0254l-0.10547 0.96484c1.2811 0.48842 2.6091 0.8438 3.9629 1.0605l1.248-2.8418c0.63531 0.075045 1.2743 0.11417 1.9141 0.11719 0.63798-0.0071 1.2751-0.05016 1.9082-0.12891l1.2598 2.8652c1.3523-0.21511 2.6789-0.56853 3.959-1.0547l-0.10547-0.96094c-1.2475 0.46599-2.5384 0.80622-3.8535 1.0156z" color="#000000" fill="#808080"/>
  </g>
  <g transform="matrix(.55735 0 0 .55735 30.624 1002)">
   <circle transform="matrix(.96593 .25882 -.25882 .96593 0 0)" cx="29.394" cy="16.971" r="15" color="#000000" fill="#666666" stroke-linecap="round" stroke-linejoin="round" stroke-width="3"/>
   <path d="m27.168 43.736a20 20 0 0 0 3.959-1.0547l-0.34375-3.1172a17 17 0 0 0 3.3066-1.9062l2.5215 1.8516a20 20 0 0 0 2.8965-2.9023l-1.8496-2.5176a17 17 0 0 0 1.9199-3.3047l3.0859 0.33984a20 20 0 0 0 1.0605-3.9629l-2.8418-1.248a17 17 0 0 0 0.11719-1.9141 17 17 0 0 0-0.12891-1.9082l2.8652-1.2598a20 20 0 0 0-1.0547-3.959l-3.1172 0.34375a17 17 0 0 0-1.9062-3.3066l1.8516-2.5215a20 20 0 0 0-2.9023-2.8965l-2.5176 1.8496a17 17 0 0 0-3.3047-1.9199l0.33984-3.0859a20 20 0 0 0-3.9629-1.0605l-1.248 2.8418a17 17 0 0 0-1.9141-0.11719 17 17 0 0 0-1.9082 0.12891l-1.2598-2.8652a20 20 0 0 0-3.959 1.0547l0.34375 3.1172a17 17 0 0 0-3.3066 1.9063l-2.5215-1.8516a20 20 0 0 0-2.8965 2.9023l1.8496 2.5176a17 17 0 0 0-1.9199 3.3047l-3.0859-0.33984a20 20 0 0 0-1.0605 3.9629l2.8418 1.248a17 17 0 0 0-0.11719 1.9141 17 17 0 0 0 0.12891 1.9082l-2.8652 1.2598a20 20 0 0 0 1.0547 3.959l3.1172-0.34375a17 17 0 0 0 1.9063 3.3066l-1.8516 2.5215a20 20 0 0 0 2.9023 2.8965l2.5176-1.8496a17 17 0 0 0 3.3047 1.9199l-0.33984 3.0859a20 20 0 0 0 3.9629 1.0605l1.248-2.8418a17 17 0 0 0 1.9141 0.11719 17 17 0 0 0 1.9082-0.12891l1.2598 2.8652zm-3.168-5.7363a14 14 0 0 1-14-14 14 14 0 0 1 14-14 14 14 0 0 1 14 14 14 14 0 0 1-14 14z" color="#000000" fill="#999999" stroke-linecap="round" stroke-linejoin="round" stroke-width="3"/>
   <path d="m16.979 5.2793c-0.03519 0.012922-0.07035 0.025943-0.10547 0.039063l0.23828 2.1699c0.03509-0.0177 0.07025-0.035278 0.10547-0.052734zm14.041 0.021484-0.23438 2.1211c0.03521 0.015506 0.07037 0.031131 0.10547 0.046875l0.23438-2.1328c-0.03512-0.011817-0.07028-0.023535-0.10547-0.035156zm8.0859 5.6387-1.4473 1.9707c0.12165 0.16968 0.24016 0.34158 0.35547 0.51562l1.4961-2.0371c-0.1325-0.15177-0.26728-0.30152-0.4043-0.44922zm-30.211 2e-3c-0.13638 0.14836-0.27051 0.29876-0.40234 0.45117l1.5 2.041c0.1133-0.17667 0.22985-0.35118 0.34961-0.52348zm34.648 8.9746-2.6719 1.1758c0.03331 0.32216 0.05741 0.64521 0.07227 0.96875l2.793-1.2285c-0.0573-0.3068-0.12177-0.61223-0.19336-0.91602zm-39.074 0.0078c-0.071562 0.30314-0.13603 0.60791-0.19336 0.91406l2.7754 1.2188c0.012869-0.32414 0.035014-0.64784 0.066406-0.9707zm2.5566 3.502c-0.011699 0.19122-0.020164 0.38265-0.025391 0.57418 0.010206 0.31361 0.029094 0.62688 0.056641 0.93945l0.072266-0.03125c-0.056097-0.4924-0.090635-0.98701-0.10352-1.4824zm33.949 0.14844c-0.01294 0.44765-0.04356 0.89461-0.0918 1.3398l0.06641 0.0293c0.025663-0.31396 0.042596-0.62853 0.050781-0.9434-0.0067-0.14203-0.01515-0.28397-0.02539-0.42578zm2.5566 3.502c-0.20795 1.0376-0.49792 2.0571-0.86719 3.0488l-3.0859-0.33984c-0.51372 1.1702-1.1578 2.2788-1.9199 3.3047l0.34961 0.47656c0.60956-0.87575 1.1353-1.8069 1.5703-2.7812l3.0859 0.33984c0.48842-1.2811 0.8438-2.6091 1.0605-3.9629zm-39.074 0.0078-0.19336 0.08398c0.21511 1.3523 0.56853 2.6789 1.0547 3.959l3.1172-0.34375c0.42822 0.97693 0.94744 1.9114 1.5508 2.791l0.35547-0.48439c-0.75753-1.0272-1.397-2.1364-1.9063-3.3066l-3.1172 0.34375c-0.36698-0.99-0.65499-2.0075-0.86133-3.043zm34.648 8.9746c-0.75822 0.88831-1.5928 1.7085-2.4941 2.4512l-2.5215-1.8516c-1.0272 0.75753-2.1364 1.397-3.3066 1.9062l0.10547 0.94727c1.1313-0.49956 2.2047-1.1211 3.2012-1.8535l2.5215 1.8516c1.0624-0.86566 2.033-1.8382 2.8965-2.9023zm-30.211 2e-3 -0.4043 0.55078c0.86566 1.0624 1.8382 2.033 2.9023 2.8965l2.5176-1.8496c0.99494 0.73911 2.0677 1.3672 3.1992 1.873l0.10547-0.95312c-1.1702-0.51372-2.2788-1.1578-3.3047-1.9199l-2.5176 1.8496c-0.90254-0.74132-1.7384-1.5602-2.498-2.4473zm17.014 3.8105c-0.63314 0.078743-1.2702 0.12178-1.9082 0.12891-0.63972-3e-3 -1.2788-0.04214-1.9141-0.11719l-1.248 2.8418c-1.3168-0.21232-2.609-0.55582-3.8574-1.0254l-0.10547 0.96484c1.2811 0.48842 2.6091 0.8438 3.9629 1.0605l1.248-2.8418c0.63531 0.075045 1.2743 0.11417 1.9141 0.11719 0.63798-0.0071 1.2751-0.05016 1.9082-0.12891l1.2598 2.8652c1.3523-0.21511 2.6789-0.56853 3.959-1.0547l-0.10547-0.96094c-1.2475 0.46599-2.5384 0.80622-3.8535 1.0156z" color="#000000" fill="#808080" stroke-linecap="round" stroke-linejoin="round" stroke-width="3"/>
   <rect x="11" y="11" width="26" height="26" rx="13" fill="#5f8dd3"/>
   <path d="m24 11c-0.94371 0-1.8617 0.10405-2.7473 0.29326l-1.1527 2.3067-1.7418-1.3064c-3.124 1.5023-5.5439 4.2067-6.665 7.5296l2.5568-1.0232 1.95 1.3 0.65-1.95 8.45-4.55-0.51543-2.5746c-0.25988-0.01534-0.5207-0.02542-0.78457-0.02542zm9.6269 4.2694-0.52686 1.5806 0.65 0.65-2.6 3.9 1.3 4.55 4.3113 0.53955c0.15506-0.80553 0.23867-1.6374 0.23867-2.4896 0-2.2261-0.55674-4.3165-1.5349-6.1445l-1.0651-0.35547 0.3872-0.77568c-0.34797-0.51615-0.74368-0.99542-1.1603-1.4549zm-22.369 6.1306c-0.14346 0.71224-0.22489 1.4475-0.24755 2.1976l4.5398 1.7024-0.65-1.95-1.3-1.95zm4.2923 3.9 3.25 7.8v2.8196c1.5917 0.6922 3.3478 1.0804 5.2 1.0804 0.12915 0 0.25644-0.0052 0.38467-0.0089l4.1653-7.1411-10.4-5.85-2.6 1.3z" fill="#aade87" fill-rule="evenodd"/>
  </g>
 </g>
</svg>
