<svg width="64" height="64" version="1.1" viewBox="0 0 64 64" xmlns="http://www.w3.org/2000/svg" xmlns:xlink="http://www.w3.org/1999/xlink">
 <defs>
  <linearGradient id="linearGradient11478" x1="777.86" x2="755.86" y1="202.93" y2="181.93" gradientTransform="translate(-733.86 834.43)" gradientUnits="userSpaceOnUse">
   <stop stop-color="#ffc169" offset="0"/>
   <stop stop-color="#ffa92d" offset="1"/>
  </linearGradient>
 </defs>
 <g transform="translate(0 -988.36)">
  <rect y="993.36" width="64" height="53" rx="4" ry="4" fill="#000000" opacity=".15" stroke-linecap="round" stroke-linejoin="round" stroke-width="1.0569" style="paint-order:stroke fill markers"/>
  <rect x="1" y="994.36" width="62" height="51" rx="3" ry="3" fill="#ececec" stroke-linecap="round" stroke-linejoin="round" style="paint-order:stroke fill markers"/>
  <rect x="1" y="1000.4" width="62" height="1" fill="#000000" opacity=".15" stroke-width="1.3919"/>
  <rect x="59" y="996.36" width="2" height="2" rx="1" fill="#ffaaaa" stroke-width=".1"/>
  <rect x="55" y="996.36" width="2" height="2" rx="1" fill="#ffd42a" stroke-width=".1"/>
  <rect x="51" y="996.36" width="2" height="2" rx="1" fill="#bcd35f" stroke-width=".1"/>
  <path x="16" y="1003.3622" width="32" height="33.999977" d="m1 1001.4h62v41c0 1.6568-1.3431 3-3 3h-56c-1.6569 0-3-1.3432-3-3z" fill="#f9f9f9" stroke-width=".11381"/>
  <rect x="5" y="1004.4" width="52" height="38" rx="4" ry="4" fill="#000000" opacity=".15" stroke-linecap="round" stroke-linejoin="round" stroke-width="1.0569" style="paint-order:stroke fill markers"/>
  <rect x="6" y="1005.4" width="50" height="36" rx="3" ry="3" fill="#ececec" stroke-linecap="round" stroke-linejoin="round" style="paint-order:stroke fill markers"/>
  <rect x="6" y="1011.4" width="50" height="1" fill="#000000" opacity=".15" stroke-width="1.3919"/>
  <rect x="52" y="1007.4" width="2" height="2" rx="1" fill="#ffaaaa" stroke-width=".1"/>
  <rect x="48" y="1007.4" width="2" height="2" rx="1" fill="#ffd42a" stroke-width=".1"/>
  <rect x="44" y="1007.4" width="2" height="2" rx="1" fill="#bcd35f" stroke-width=".1"/>
  <path x="16" y="1003.3622" width="32" height="33.999977" d="m6 1012.4h50v26c0 1.6568-1.3431 3-3 3h-44c-1.6569 0-3-1.3432-3-3z" fill="#ffffff" stroke-width=".11381"/>
  <path class="ColorScheme-Text" d="m31 1018.4c-2.216 0-4 1.784-4 4v4h-2v8h12v-8h-2v-4c0-2.216-1.784-4-4-4zm0 1c1.662 0 3 1.561 3 3.5v3.5h-6v-3.5c0-1.939 1.338-3.5 3-3.5zm-5 8h10v6h-10z" color="#4d4d4d" fill="url(#linearGradient11478)"/>
 </g>
</svg>
