<svg width="64" height="64" version="1.1" viewBox="0 0 64 64" xmlns="http://www.w3.org/2000/svg" xmlns:xlink="http://www.w3.org/1999/xlink">
 <defs>
  <linearGradient id="linearGradient4224-1-6" x2="0" y1="25" y2="11" gradientTransform="matrix(1.7143 0 0 1.7143 4.5714 989.5)" gradientUnits="userSpaceOnUse">
   <stop stop-color="#2e3436" offset="0"/>
   <stop stop-color="#555753" offset="1"/>
  </linearGradient>
 </defs>
 <g transform="translate(0 -988.36)">
  <rect y="993.36" width="64" height="53" rx="4" ry="4" fill="#000000" opacity=".15" stroke-linecap="round" stroke-linejoin="round" stroke-width="1.0569" style="paint-order:stroke fill markers"/>
  <rect x="1" y="994.36" width="62" height="51" rx="3" ry="3" fill="#ececec" stroke-linecap="round" stroke-linejoin="round" style="paint-order:stroke fill markers"/>
  <rect x="1" y="1000.4" width="62" height="1" fill="#000000" opacity=".15" stroke-width="1.3919"/>
  <rect x="59" y="996.36" width="2" height="2" rx="1" fill="#ffaaaa" stroke-width=".1"/>
  <rect x="55" y="996.36" width="2" height="2" rx="1" fill="#ffd42a" stroke-width=".1"/>
  <rect x="51" y="996.36" width="2" height="2" rx="1" fill="#bcd35f" stroke-width=".1"/>
  <path x="16" y="1003.3622" width="32" height="33.999977" d="m1 1001.4h62v41c0 1.6568-1.3431 3-3 3h-56c-1.6569 0-3-1.3432-3-3z" fill="#f9f9f9" stroke-width=".11381"/>
  <path d="m32 1008.4-3.4286 6.8571h6.8572l-3.4286-6.8571zm-5.1429 8.5714-6.8572 3.4288 6.8572 3.4284v-6.8572zm10.286 0v6.8572l6.8572-3.4284-6.8572-3.4288zm-5.1429 1.7143c-0.94972 0-1.7143 0.7647-1.7143 1.7145 0 0.9494 0.76457 1.7141 1.7143 1.7141 0.94971 0 1.7143-0.7647 1.7143-1.7141 0-0.9498-0.76458-1.7145-1.7143-1.7145zm-3.4286 6.8572 3.4286 6.8571 3.4286-6.8571h-6.8572z" fill="url(#linearGradient4224-1-6)" stroke-width=".1"/>
 </g>
</svg>
