<svg width="64" height="64" version="1.1" viewBox="0 0 64 64" xmlns="http://www.w3.org/2000/svg">
 <g transform="translate(0 -988.36)">
  <rect y="993.36" width="64" height="53" rx="4" ry="4" fill="#000000" opacity=".15" stroke-linecap="round" stroke-linejoin="round" stroke-width="1.0569" style="paint-order:stroke fill markers"/>
  <rect x="1" y="994.36" width="62" height="51" rx="3" ry="3" fill="#ececec" stroke-linecap="round" stroke-linejoin="round" style="paint-order:stroke fill markers"/>
  <rect x="1" y="1000.4" width="62" height="1" fill="#000000" opacity=".15" stroke-width="1.3919"/>
  <rect x="59" y="996.36" width="2" height="2" rx="1" fill="#ffaaaa" stroke-width=".1"/>
  <rect x="55" y="996.36" width="2" height="2" rx="1" fill="#ffd42a" stroke-width=".1"/>
  <rect x="51" y="996.36" width="2" height="2" rx="1" fill="#bcd35f" stroke-width=".1"/>
  <path x="16" y="1003.3622" width="32" height="33.999977" d="m1 1001.4h62v41c0 1.6568-1.3431 3-3 3h-56c-1.6569 0-3-1.3432-3-3z" fill="#999999"/>
  <rect x="5" y="1009.4" width="38" height="26" rx="4" ry="4" fill="#000000" opacity=".15" stroke-linecap="round" stroke-linejoin="round" stroke-width="1.0569" style="paint-order:stroke fill markers"/>
  <rect x="6" y="1010.4" width="36" height="24" rx="3" ry="3" fill="#4d4d4d" stroke-linecap="round" stroke-linejoin="round" style="paint-order:stroke fill markers"/>
  <rect x="38" y="1011.4" width="2" height="2" rx="1" fill="#ffaaaa" stroke-width=".1"/>
  <rect x="34" y="1011.4" width="2" height="2" rx="1" fill="#ffd42a" stroke-width=".1"/>
  <rect x="30" y="1011.4" width="2" height="2" rx="1" fill="#bcd35f" stroke-width=".1"/>
  <path x="16" y="1003.3622" width="32" height="33.999977" d="m6 1015.4h36v15.96c0 1.6568-1.3431 3-3 3h-30c-1.6569 0-3-1.3432-3-3z" fill="#ffffff"/>
  <rect x="6" y="1014.4" width="36" height="1" fill="#000000" opacity=".15" stroke-width="1.2134"/>
 </g>
</svg>
