<svg width="64" height="64" version="1.1" viewBox="0 0 64 64" xmlns="http://www.w3.org/2000/svg">
 <defs>
  <filter id="filter13" x="-.096261" y="-.123" width="1.1925" height="1.246" color-interpolation-filters="sRGB">
   <feGaussianBlur stdDeviation="0.92249949"/>
  </filter>
 </defs>
 <g transform="translate(0 -988.36)">
  <rect y="993.36" width="64" height="53" rx="4" ry="4" fill="#000000" opacity=".15" stroke-linecap="round" stroke-linejoin="round" stroke-width="1.0569" style="paint-order:stroke fill markers"/>
  <rect x="1" y="994.36" width="62" height="51" rx="3" ry="3" fill="#ececec" stroke-linecap="round" stroke-linejoin="round" style="paint-order:stroke fill markers"/>
  <rect x="1" y="1000.4" width="62" height="1" fill="#000000" opacity=".15" stroke-width="1.3919"/>
  <rect x="59" y="996.36" width="2" height="2" rx="1" fill="#ffaaaa" stroke-width=".1"/>
  <rect x="55" y="996.36" width="2" height="2" rx="1" fill="#ffd42a" stroke-width=".1"/>
  <rect x="51" y="996.36" width="2" height="2" rx="1" fill="#bcd35f" stroke-width=".1"/>
  <path x="16" y="1003.3622" width="32" height="33.999977" d="m1 1001.4h62v41c0 1.6568-1.3431 3-3 3h-56c-1.6569 0-3-1.3432-3-3z" fill="#ffffff" stroke-width=".11381"/>
  <rect x="5" y="1004.4" width="52" height="38" rx="4" ry="4" fill="#000000" opacity=".15" stroke-linecap="round" stroke-linejoin="round" stroke-width="1.0569" style="paint-order:stroke fill markers"/>
  <rect x="6" y="1005.4" width="50" height="36" rx="3" ry="3" fill="#ececec" stroke-linecap="round" stroke-linejoin="round" style="paint-order:stroke fill markers"/>
  <rect x="6" y="1011.4" width="50" height="1" fill="#000000" opacity=".15" stroke-width="1.3919"/>
  <rect x="52" y="1007.4" width="2" height="2" rx="1" fill="#ffaaaa" stroke-width=".1"/>
  <rect x="48" y="1007.4" width="2" height="2" rx="1" fill="#ffd42a" stroke-width=".1"/>
  <rect x="44" y="1007.4" width="2" height="2" rx="1" fill="#bcd35f" stroke-width=".1"/>
  <path x="16" y="1003.3622" width="32" height="33.999977" d="m6 1012.4h50v26c0 1.6568-1.3431 3-3 3h-44c-1.6569 0-3-1.3432-3-3z" fill="#f2f2f2" stroke-width=".11381"/>
  <rect x="21" y="1019.4" width="23" height="18" rx="3" ry="3" fill="#000000" filter="url(#filter13)" opacity=".1" stroke-linecap="round" stroke-linejoin="round" stroke-width="1.0569" style="paint-order:stroke fill markers"/>
  <rect x="20" y="1018.4" width="23" height="18" rx="3" ry="3" fill="#000000" opacity=".15" stroke-linecap="round" stroke-linejoin="round" stroke-width="1.0569" style="paint-order:stroke fill markers"/>
  <rect x="21" y="1019.4" width="21" height="15" rx="2" ry="2" fill="#ececec" stroke-linecap="round" stroke-linejoin="round" style="paint-order:stroke fill markers"/>
  <rect x="21" y="1023.4" width="21" height=".99998" fill="#000000" opacity=".15" stroke-width="1.3919"/>
  <rect x="39" y="1020.4" width="2" height="2" rx="1" fill="#ffaaaa" stroke-width=".1"/>
  <rect x="36" y="1020.4" width="2" height="2" rx="1" fill="#ffd42a" stroke-width=".1"/>
  <rect x="33" y="1020.4" width="2" height="2" rx="1" fill="#bcd35f" stroke-width=".1"/>
  <path x="16" y="1003.3622" width="32" height="33.999977" d="m21 1024.4h21v9c0 1-1 2-2 2h-17c-1 0-2-1-2-2z" fill="#ffffff" stroke-width=".11381"/>
 </g>
</svg>
