<svg width="64" height="64" version="1.1" viewBox="0 0 64 64" xmlns="http://www.w3.org/2000/svg" xmlns:xlink="http://www.w3.org/1999/xlink">
 <defs>
  <linearGradient id="a" x1="-240.47" x2="-240.47" y1="-60.605" y2="-29.026" gradientTransform="matrix(.96667 0 0 .95 262.45 67.575)" gradientUnits="userSpaceOnUse">
   <stop stop-color="#4285db" offset="0"/>
   <stop stop-color="#42b9db" offset="1"/>
  </linearGradient>
  <linearGradient id="b" x1="10.583" x2="225.69" y1="-184.68" y2="-184.68" gradientTransform="matrix(.11417 0 0 .11417 18.557 59.5)" gradientUnits="userSpaceOnUse">
   <stop stop-color="#fafbfb" offset="0"/>
   <stop stop-color="#fafbfb" stop-opacity="0" offset="1"/>
  </linearGradient>
  <linearGradient id="c" x1="520" x2="410" y1="-620" y2="-620" gradientTransform="matrix(.0302 0 0 .0302 18.557 59.5)" gradientUnits="userSpaceOnUse">
   <stop offset="0"/>
   <stop stop-opacity="0" offset="1"/>
  </linearGradient>
  <linearGradient id="linearGradient15" x1="-240.47" x2="-240.47" y1="-60.605" y2="-29.026" gradientTransform="matrix(.96667 0 0 .95 262.45 67.575)" gradientUnits="userSpaceOnUse" xlink:href="#a"/>
  <linearGradient id="linearGradient16" x1="10.583" x2="225.69" y1="-184.68" y2="-184.68" gradientTransform="matrix(.11417 0 0 .11417 18.557 59.5)" gradientUnits="userSpaceOnUse" xlink:href="#b"/>
  <linearGradient id="linearGradient17" x1="520" x2="410" y1="-620" y2="-620" gradientTransform="matrix(.0302 0 0 .0302 18.557 59.5)" gradientUnits="userSpaceOnUse" xlink:href="#c"/>
 </defs>
 <g transform="translate(0 -988.36)">
  <g transform="translate(0 4)">
   <g transform="matrix(.51667 0 0 .51667 -1.0333 991.6)">
    <rect transform="translate(270.4,69.763)" x="-268.4" y="-63.763" width="60" height="40" rx="5" ry="5" fill="#4d4d4d"/>
    <rect x="3" y="7" width="58" height="38" rx="4" ry="3.931" fill="url(#linearGradient15)"/>
    <path d="m24.599 41.375 14.5-15.708 12.083 15.708z" fill="#1a1a1a"/>
    <path d="m23.512 31.828-19.068 12.246c0.694 0.57 1.577 0.926 2.557 0.926h37.324z" fill="#e6e6e6" opacity=".9"/>
    <path d="M 19.766,45 23.512,31.829 44.326,45 Z" fill="#fafbfb"/>
    <path d="m39.1 24.459-4.834 5.135v15.406h22.734c1.094 0 2.08-0.43 2.8-1.125z" fill="#b0b2b5"/>
    <path d="m39.098 24.457 6.043 20.543h11.859c1.094 0 2.08-0.43 2.8-1.125z" fill="#ffffff"/>
    <path d="M 19.766,45 23.512,31.829 44.326,45 Z" fill="url(#linearGradient16)"/>
    <path d="m33.057 37.87v7.13h1.208v-6.365z" fill="url(#linearGradient17)" opacity=".35"/>
   </g>
   <g transform="matrix(.51667 0 0 .51667 31.967 991.6)">
    <rect transform="translate(270.4,69.763)" x="-268.4" y="-63.763" width="60" height="40" rx="5" ry="5" fill="#4d4d4d"/>
    <rect x="3" y="7" width="58" height="38" rx="4" ry="3.931" fill="url(#linearGradient15)"/>
    <path d="m24.599 41.375 14.5-15.708 12.083 15.708z" fill="#1a1a1a"/>
    <path d="m23.512 31.828-19.068 12.246c0.694 0.57 1.577 0.926 2.557 0.926h37.324z" fill="#e6e6e6" opacity=".9"/>
    <path d="M 19.766,45 23.512,31.829 44.326,45 Z" fill="#fafbfb"/>
    <path d="m39.1 24.459-4.834 5.135v15.406h22.734c1.094 0 2.08-0.43 2.8-1.125z" fill="#b0b2b5"/>
    <path d="m39.098 24.457 6.043 20.543h11.859c1.094 0 2.08-0.43 2.8-1.125z" fill="#ffffff"/>
    <path d="M 19.766,45 23.512,31.829 44.326,45 Z" fill="url(#linearGradient16)"/>
    <path d="m33.057 37.87v7.13h1.208v-6.365z" fill="url(#linearGradient17)" opacity=".35"/>
   </g>
   <g transform="matrix(.51667 0 0 .51667 -1.0333 1014.3)">
    <rect transform="translate(270.4,69.763)" x="-268.4" y="-63.763" width="60" height="40" rx="5" ry="5" fill="#4d4d4d"/>
    <rect x="3" y="7" width="58" height="38" rx="4" ry="3.931" fill="url(#linearGradient15)"/>
    <path d="m24.599 41.375 14.5-15.708 12.083 15.708z" fill="#1a1a1a"/>
    <path d="m23.512 31.828-19.068 12.246c0.694 0.57 1.577 0.926 2.557 0.926h37.324z" fill="#e6e6e6" opacity=".9"/>
    <path d="M 19.766,45 23.512,31.829 44.326,45 Z" fill="#fafbfb"/>
    <path d="m39.1 24.459-4.834 5.135v15.406h22.734c1.094 0 2.08-0.43 2.8-1.125z" fill="#b0b2b5"/>
    <path d="m39.098 24.457 6.043 20.543h11.859c1.094 0 2.08-0.43 2.8-1.125z" fill="#ffffff"/>
    <path d="M 19.766,45 23.512,31.829 44.326,45 Z" fill="url(#linearGradient16)"/>
    <path d="m33.057 37.87v7.13h1.208v-6.365z" fill="url(#linearGradient17)" opacity=".35"/>
   </g>
   <g transform="matrix(.51667 0 0 .51667 31.967 1014.3)">
    <rect transform="translate(270.4,69.763)" x="-268.4" y="-63.763" width="60" height="40" rx="5" ry="5" fill="#4d4d4d"/>
    <rect x="3" y="7" width="58" height="38" rx="4" ry="3.931" fill="url(#linearGradient15)"/>
    <path d="m24.599 41.375 14.5-15.708 12.083 15.708z" fill="#1a1a1a"/>
    <path d="m23.512 31.828-19.068 12.246c0.694 0.57 1.577 0.926 2.557 0.926h37.324z" fill="#e6e6e6" opacity=".9"/>
    <path d="M 19.766,45 23.512,31.829 44.326,45 Z" fill="#fafbfb"/>
    <path d="m39.1 24.459-4.834 5.135v15.406h22.734c1.094 0 2.08-0.43 2.8-1.125z" fill="#b0b2b5"/>
    <path d="m39.098 24.457 6.043 20.543h11.859c1.094 0 2.08-0.43 2.8-1.125z" fill="#ffffff"/>
    <path d="M 19.766,45 23.512,31.829 44.326,45 Z" fill="url(#linearGradient16)"/>
    <path d="m33.057 37.87v7.13h1.208v-6.365z" fill="url(#linearGradient17)" opacity=".35"/>
   </g>
  </g>
 </g>
</svg>
