<svg width="64" height="64" version="1.1" viewBox="0 0 64 64" xmlns="http://www.w3.org/2000/svg" xmlns:xlink="http://www.w3.org/1999/xlink">
 <defs>
  <linearGradient id="linearGradient4518-7-7-6" x1="47" x2="23" y1="46" y2="28" gradientTransform="matrix(1 0 0 -1 -18 1075.4)" gradientUnits="userSpaceOnUse">
   <stop stop-color="#197cf1" offset="0"/>
   <stop stop-color="#21c9fb" offset="1"/>
  </linearGradient>
  <linearGradient id="linearGradient1" x1="-240.47" x2="-240.47" y1="-60.605" y2="-29.026" gradientTransform="matrix(1.0311,0,0,1.0133,277.81,1064.7)" gradientUnits="userSpaceOnUse">
   <stop stop-color="#4285db" offset="0"/>
   <stop stop-color="#42b9db" offset="1"/>
  </linearGradient>
  <linearGradient id="b" x1="10.583" x2="225.69" y1="-184.68" y2="-184.68" gradientTransform="matrix(.12178 0 0 .12178 17.661 1056.1)" gradientUnits="userSpaceOnUse">
   <stop stop-color="#fafbfb" offset="0"/>
   <stop stop-color="#fafbfb" stop-opacity="0" offset="1"/>
  </linearGradient>
  <linearGradient id="c" x1="520" x2="410" y1="-620" y2="-620" gradientTransform="matrix(.032213 0 0 .032213 17.661 1056.1)" gradientUnits="userSpaceOnUse">
   <stop offset="0"/>
   <stop stop-opacity="0" offset="1"/>
  </linearGradient>
 </defs>
 <g transform="translate(0 -988.36)">
  <g transform="translate(0 4.6573)" stroke-width="1.0667">
   <rect y="989.7" width="64" height="52" rx="5.3333" ry="5.3333" fill="#4d4d4d"/>
   <rect x="1" y="990.7" width="62" height="50" rx="4.2667" ry="4.1931" fill="url(#linearGradient1)"/>
   <path d="m24.106 1036.8 15.467-16.755 12.889 16.755z" fill="#1a1a1a"/>
   <path d="m22.946 1026.6-20.339 13.062c0.74027 0.608 1.6821 0.9877 2.7275 0.9877h39.812z" fill="#e6e6e6" opacity=".9"/>
   <path d="m18.95 1040.6 3.9957-14.049 22.202 14.049z" fill="#fafbfb"/>
   <path d="m39.573 1018.7-5.1563 5.4774v16.433h24.25c1.1669 0 2.2187-0.4586 2.9867-1.2z" fill="#b0b2b5"/>
   <path d="m39.571 1018.7 6.4459 21.912h12.65c1.1669 0 2.2187-0.4586 2.9867-1.2z" fill="#ffffff"/>
   <path d="m18.95 1040.6 3.9957-14.049 22.202 14.049z" fill="url(#b)"/>
   <path d="m33.127 1033v7.6053h1.2885v-6.7893z" fill="url(#c)" opacity=".35"/>
   <path d="m1.0667 1036.4v0.073c0 2.323 1.9029 4.1937 4.2667 4.1937h53.333c2.3637 0 4.2667-1.8708 4.2667-4.1937v-0.073z" fill="#ffffff" opacity=".35"/>
   <circle cx="56.533" cy="1038.5" r="1.0667" fill="#4d4d4d"/>
   <path d="m6.3999 1037.5v1.0666h1.0667v-1.0666zm1.0667 1.0666v1.0667h1.0667v-1.0667z" fill="#4d4d4d"/>
  </g>
  <g transform="translate(-1 -1.0378)" opacity=".75">
   <rect x="4" y="1007.4" width="37" height="31" rx="4" ry="4" fill="#000000" opacity=".15" stroke-linecap="round" stroke-linejoin="round" stroke-width="1.0569" style="paint-order:stroke fill markers"/>
   <rect x="5" y="1008.4" width="35" height="29" rx="3" ry="3" fill="#ececec" stroke-linecap="round" stroke-linejoin="round" style="paint-order:stroke fill markers"/>
   <rect x="5" y="1014.4" width="35" height=".99998" fill="#000000" opacity=".15" stroke-width="1.3919"/>
   <rect x="36" y="1010.4" width="2" height="2" rx="1" fill="#ffaaaa" stroke-width=".1"/>
   <rect x="32" y="1010.4" width="2" height="2" rx="1" fill="#ffd42a" stroke-width=".1"/>
   <rect x="28" y="1010.4" width="2" height="2" rx="1" fill="#bcd35f" stroke-width=".1"/>
   <path x="16" y="1003.3622" width="32" height="33.999977" d="m5 1015.4h35v19c0 1.6568-1.3431 3-3 3h-29c-1.6569 0-3-1.3432-3-3z" fill="#ffffff" stroke-width=".11381"/>
  </g>
  <g transform="translate(4 -1)">
   <rect x="18" y="1042.4" width="11" height="3" fill="#cfd5d5"/>
   <rect x="18" y="1045.4" width="11" height="1" fill="#7cbcec"/>
   <rect x="6" y="1042.4" width="11" height="3" fill="#eff1f1"/>
   <rect x="6" y="1045.4" width="11" height="1" fill="#3daee9"/>
  </g>
  <path d="m15 1043.4 0.0117-19.5 5.9883 8h9l-15 11.5z" fill="url(#linearGradient4518-7-7-6)"/>
  <g transform="translate(19 -8.0379)">
   <rect x="4" y="1007.4" width="37" height="31" rx="4" ry="4" fill="#000000" opacity=".15" stroke-linecap="round" stroke-linejoin="round" stroke-width="1.0569" style="paint-order:stroke fill markers"/>
   <rect x="5" y="1008.4" width="35" height="29" rx="3" ry="3" fill="#ececec" stroke-linecap="round" stroke-linejoin="round" style="paint-order:stroke fill markers"/>
   <rect x="5" y="1014.4" width="35" height=".99998" fill="#000000" opacity=".15" stroke-width="1.3919"/>
   <rect x="36" y="1010.4" width="2" height="2" rx="1" fill="#ffaaaa" stroke-width=".1"/>
   <rect x="32" y="1010.4" width="2" height="2" rx="1" fill="#ffd42a" stroke-width=".1"/>
   <rect x="28" y="1010.4" width="2" height="2" rx="1" fill="#bcd35f" stroke-width=".1"/>
   <path x="16" y="1003.3622" width="32" height="33.999977" d="m5 1015.4h35v19c0 1.6568-1.3431 3-3 3h-29c-1.6569 0-3-1.3432-3-3z" fill="#ffffff" stroke-width=".11381"/>
  </g>
 </g>
</svg>
