<svg width="64" height="64" version="1.1" viewBox="0 0 64 64" xmlns="http://www.w3.org/2000/svg">
 <g transform="translate(0 -988.36)">
  <g transform="translate(-736.36 830.43)">
   <path d="m736.86 163.93h63c-0.12114 2.3114 0.12805 4.7888-1.0923 7.3681-7.6188 16.103-33.536 36.178-38.759 44.632 1.149-0.0884-17.087-0.0624-17.087-0.0624 1.9629-13.845-0.26097-29.521-4.1439-44.839-0.60269-2.3775-0.91859-4.0985-0.91859-7.0985z" fill="#f2f2f2"/>
   <path transform="translate(736.86 157.93)" d="m1 6c0 2 0.10906 3.9921 0.62891 6h60.869c0.62892-2.1412 0.50195-3.6475 0.50195-6z" fill="#e6e6e6"/>
   <path transform="translate(736.86 157.93)" d="m1.6289 12c0.086416 0.33377 0.17685 0.66586 0.26172 1h60.178c0.15352-0.33572 0.29282-0.66801 0.42969-1h-60.869z" fill="#000000" opacity=".15"/>
   <path d="m742.86 172.93h52c-3.0017 11.609-28.28 27.644-35 40h-14.375c0.6039-9.3108 0.74937-24.727-2.625-40z" fill="#ffffff"/>
   <path d="m796.86 164.93c1.108 0 2 0.892 2 2s-0.892 2-2 2-2-0.892-2-2 0.892-2 2-2z" fill="#808080"/>
  </g>
 </g>
</svg>
