<svg width="16" height="16" version="1.1" viewBox="0 0 16 16" xmlns="http://www.w3.org/2000/svg">
 <defs>
  <style id="current-color-scheme" type="text/css">.ColorScheme-Text { color:#363636; }</style>
 </defs>
 <path d="m8 0a3 3 0 0 0-2.8223 2h-4.1777c-0.27614 0-0.5 0.22386-0.5 0.5l0.0078125 0.089844c0.04233 0.23324 0.24673 0.41016 0.49219 0.41016h0.55273l1.2969 11.229c0.11644 1.0092 0.97045 1.7715 1.9863 1.7715h6.3281c1.0159 0 1.8699-0.76228 1.9863-1.7715l1.2949-11.229h0.55469c0.2761 0 0.5-0.22386 0.5-0.5s-0.2239-0.5-0.5-0.5h-4.1719a3 3 0 0 0-2.8281-2zm0 1a2 2 0 0 1 1.7305 1h-0.23047-3.2246a2 2 0 0 1 1.7246-1zm-5.4395 2h2.4395 1 4 1 2.4375l-1.2812 11.115c-0.0582 0.5046-0.48419 0.88477-0.99219 0.88477h-6.3281c-0.50794 0-0.93397-0.38017-0.99219-0.88477l-1.2832-11.115zm3.9395 2.5c-0.27614 0-0.5 0.19588-0.5 0.4375v6.125l0.0078125 0.078125c0.04233 0.2041 0.24673 0.35938 0.49219 0.35938 0.27614 0 0.5-0.1959 0.5-0.4375v-6.125l-0.0078125-0.078125c-0.04233-0.20409-0.24673-0.35938-0.49219-0.35938zm3 0c-0.2761 0-0.5 0.19588-0.5 0.4375v6.125l0.0078125 0.078125c0.0423 0.2041 0.24669 0.35938 0.49219 0.35938 0.2761 0 0.5-0.1959 0.5-0.4375v-6.125l-0.0078125-0.078125c-0.0423-0.20409-0.24669-0.35938-0.49219-0.35938z" fill="#363636"/>
</svg>
