<svg width="16" height="16" version="1.1" xmlns="http://www.w3.org/2000/svg">
 <path d="m1.5 3c-0.82843 0-1.5 0.67157-1.5 1.5v8c-1.4803e-16 0.8284 0.67157 1.5 1.5 1.5h10.008a2.5 2.5 0 0 1-0.45117-1h-9.5566c-0.27614 0-0.5-0.2239-0.5-0.5v-8c0-0.27614 0.22386-0.5 0.5-0.5h12c0.2761 0 0.5 0.22386 0.5 0.5v5.5508a2.5 2.5 0 0 1 1 0.45117v-6.002c0-0.82843-0.6716-1.5-1.5-1.5h-12zm2 8c-0.27614 0-0.5 0.2239-0.5 0.5s0.22386 0.5 0.5 0.5h7.5566a2.5 2.5 0 0 1 0.45117-1c-0.00262-4e-5 -0.005182 0-0.007812 0h-8z" fill="#363636"/>
 <circle cx="3.5" cy="6.5" r=".5" fill="#363636" stroke-linecap="round" stroke-linejoin="round" stroke-width="2" style="paint-order:stroke fill markers"/>
 <circle cx="5.5" cy="6.5" r=".5" fill="#363636" stroke-linecap="round" stroke-linejoin="round" stroke-width="2" style="paint-order:stroke fill markers"/>
 <circle cx="7.5" cy="6.5" r=".5" fill="#363636" stroke-linecap="round" stroke-linejoin="round" stroke-width="2" style="paint-order:stroke fill markers"/>
 <circle cx="9.5" cy="6.5" r=".5" fill="#363636" stroke-linecap="round" stroke-linejoin="round" stroke-width="2" style="paint-order:stroke fill markers"/>
 <circle cx="4.5" cy="8.5" r=".5" fill="#363636" stroke-linecap="round" stroke-linejoin="round" stroke-width="2" style="paint-order:stroke fill markers"/>
 <circle cx="6.5" cy="8.5" r=".5" fill="#363636" stroke-linecap="round" stroke-linejoin="round" stroke-width="2" style="paint-order:stroke fill markers"/>
 <circle cx="8.5" cy="8.5" r=".5" fill="#363636" stroke-linecap="round" stroke-linejoin="round" stroke-width="2" style="paint-order:stroke fill markers"/>
 <circle cx="11.5" cy="6.5" r=".5" fill="#363636" stroke-linecap="round" stroke-linejoin="round" stroke-width="2" style="paint-order:stroke fill markers"/>
 <circle cx="10.5" cy="8.5" r=".5" fill="#363636" stroke-linecap="round" stroke-linejoin="round" stroke-width="2" style="paint-order:stroke fill markers"/>
 <circle cx="13.5" cy="12.5" r="1.5" fill="#363636" opacity=".35" stroke-linecap="round" stroke-linejoin="round" stroke-width="1.2" style="paint-order:stroke fill markers"/>
</svg>
