<svg width="16" height="16" version="1.1" xmlns="http://www.w3.org/2000/svg">
 <path d="m12.596 3.4038c-0.19587-0.19587-0.51124-0.19587-0.70711 0l-3.8891 3.8891-3.8891-3.8891c-0.19587-0.19587-0.51124-0.19587-0.70711 0s-0.19587 0.51124 0 0.70711l3.8891 3.8891-3.8891 3.8891c-0.19587 0.19587-0.19587 0.51124 0 0.70711s0.51124 0.19587 0.70711 0l3.8891-3.8891 3.8891 3.8891c0.19587 0.19587 0.51124 0.19587 0.70711 0s0.19587-0.51124 0-0.70711l-3.8891-3.8891 3.8891-3.8891c0.19587-0.19587 0.19587-0.51124 0-0.70711z" fill="#363636" stroke-linecap="round" stroke-linejoin="round" stroke-opacity=".08" style="paint-order:stroke markers fill"/>
</svg>
