<svg width="16px" height="16px" version="1.1" viewBox="0 0 16 16" xmlns="http://www.w3.org/2000/svg">
 <filter id="a" x="0" y="0" width="1" height="1">
  <feColorMatrix in="SourceGraphic" values="0 0 0 0 1 0 0 0 0 1 0 0 0 0 1 0 0 0 1 0"/>
 </filter>
 <path d="m4.5 1c-0.82843 0-1.5 0.67157-1.5 1.5v0.5h-0.5c-1.3807 0-2.5 1.1193-2.5 2.5v5c0 0.8284 0.67157 1.5 1.5 1.5h1.5v1.5c0 0.8284 0.67157 1.5 1.5 1.5h7c0.8284 0 1.5-0.6716 1.5-1.5v-1.5h1.5c0.8284 0 1.5-0.6716 1.5-1.5v-5c0-0.8402-0.41513-1.5819-1.0508-2.0352l-0.72266 0.72266c0.46125 0.25585 0.77344 0.74766 0.77344 1.3125v5c0 0.27614-0.2239 0.5-0.5 0.5h-1.5v-1.5c0-0.82843-0.6716-1.5-1.5-1.5h-1.0859l-1 1h2.0859c0.2761 0 0.5 0.22386 0.5 0.5v4c0 0.2761-0.2239 0.5-0.5 0.5h-7c-0.27614 0-0.5-0.2239-0.5-0.5v-4c0-0.27614 0.22386-0.5 0.5-0.5h0.5a1.0001 1.0001 0 0 1 0.29297-0.70703l0.29297-0.29297h-1.0859c-0.82843 0-1.5 0.67157-1.5 1.5v1.5h-1.5c-0.27614 0-0.5-0.22386-0.5-0.5v-5c0-0.82843 0.67157-1.5 1.5-1.5h7.0859l1-1h-6.5859v-0.5c0-0.27614 0.22386-0.5 0.5-0.5h7c0.026558 0 0.052686 0.0038227 0.078125 0.0078125l0.75586-0.75586c-0.23852-0.1599-0.52527-0.25195-0.83398-0.25195h-7z" fill="#363636"/>
 <path d="m6 10h1l9-9-1-1-9 9z" fill="#363636"/>
 <path d="m6 10h1l9-9-1-1-9 9z" color="#000000" fill="#363636" stroke-linecap="round" stroke-linejoin="round" style="-inkscape-stroke:none"/>
</svg>
