<svg width="16" height="16" version="1.1" xmlns="http://www.w3.org/2000/svg">
 <g transform="translate(.89198 -.37964)" fill="#363636" stroke-linecap="square" style="paint-order:stroke fill markers" aria-label="">
  <path transform="translate(-.89198 .37964)" d="m3 1c-1.108 0-2 0.892-2 2v10c0 1.108 0.892 2 2 2h1a4 4 0 0 1 0.29492-1.5078c0.00706-0.0178 0.01-0.037068 0.017578-0.054688 0.00736-0.0173 0.01784-0.031688 0.025391-0.048828a4 4 0 0 1 0.29297-0.54297c0.038423-0.06088 0.079694-0.11942 0.12109-0.17773a4 4 0 0 1 0.32422-0.39648c0.00534-0.0057 0.010249-0.011868 0.015625-0.017578 0.026373-0.02799 0.045025-0.062613 0.072266-0.089844 0.031848-0.03185 0.07068-0.055267 0.10352-0.085937a4 4 0 0 1 0.39062-0.32031c0.063812-0.045799 0.1285-0.090642 0.19531-0.13281a4 4 0 0 1 0.14648-0.089844 5.5 5.5 0 0 1 0-0.035156 5.5 5.5 0 0 1 0.37305-1.9902c-0.17651-0.11555-0.34187-0.24421-0.49023-0.39258-0.27082-0.27083-0.48698-0.58856-0.64844-0.95312-0.15625-0.36457-0.23438-0.75252-0.23438-1.1641 0-0.41147 0.07812-0.79941 0.23438-1.1641 0.16145-0.36457 0.37761-0.6823 0.64844-0.95312s0.58856-0.48438 0.95312-0.64062c0.36459-0.16145 0.75254-0.24219 1.1641-0.24219 0.41147 0 0.79941 0.08073 1.1641 0.24219 0.36457 0.15624 0.6823 0.3698 0.95313 0.64062 0.27082 0.27083 0.48438 0.58856 0.64062 0.95312 0.0296 0.066838 0.042233 0.13862 0.066407 0.20703a5.5 5.5 0 0 1 0.67578-0.042969 5.5 5.5 0 0 1 0.36328 0.011719c-0.048905-0.19196-0.097353-0.38404-0.17578-0.56641-0.20832-0.48959-0.4948-0.91416-0.85938-1.2734-0.35939-0.36457-0.78396-0.65104-1.2734-0.85938-0.48436-0.20832-1.0026-0.3125-1.5547-0.3125-0.55206 0-1.0729 0.10418-1.5625 0.3125-0.48438 0.20832-0.90895 0.4948-1.2734 0.85938-0.35936 0.35938-0.64324 0.78395-0.85156 1.2734-0.20832 0.48436-0.31055 1.0026-0.31055 1.5547 0 0.34891 0.042317 0.69019 0.13086 1.0234 0.088541 0.33333 0.21616 0.65106 0.38281 0.95312 0.17187 0.29686 0.37762 0.57032 0.61719 0.82031 0.23957 0.24478 0.51043 0.45574 0.8125 0.63281-0.36975 0.16145-0.71103 0.3646-1.0234 0.60937-0.31248 0.24478-0.59115 0.52084-0.83594 0.82813-0.24479 0.30728-0.45313 0.64326-0.625 1.0078-0.16666 0.35935-0.28906 0.73439-0.36719 1.125h-0.09375c-0.554 0-1-0.446-1-1v-10c0-0.554 0.446-1 1-1h10c0.554 0 1 0.446 1 1v3.5996a5.5 5.5 0 0 1 1 0.66016v-4.2598c0-1.108-0.892-2-2-2h-10z"/>
 </g>
 <path d="m11.5 7a4.5 4.5 0 0 0-4.5 4.5 4.5 4.5 0 0 0 4.5 4.5 4.5 4.5 0 0 0 4.5-4.5 4.5 4.5 0 0 0-4.5-4.5zm0 1a3.5 3.5 0 0 1 3.5 3.5 3.5 3.5 0 0 1-3.5 3.5 3.5 3.5 0 0 1-3.5-3.5 3.5 3.5 0 0 1 3.5-3.5zm-0.5 1v1h1v-1h-1zm0 2v3h1v-3h-1z" fill="#363636" stroke-linecap="square" stroke-width="2" style="paint-order:stroke fill markers"/>
</svg>
