<svg width="16" height="16" version="1.1" xmlns="http://www.w3.org/2000/svg">
 <path d="m7.5 0c-1.939 0-3.5 1.561-3.5 3.5v5c0 1.939 1.561 3.5 3.5 3.5s3.5-1.561 3.5-3.5v-5c0-1.939-1.561-3.5-3.5-3.5zm0 1c1.385 0 2.5 1.115 2.5 2.5v5c0 1.385-1.115 2.5-2.5 2.5s-2.5-1.115-2.5-2.5v-5c0-1.385 1.115-2.5 2.5-2.5zm-5 6a0.5 0.5 0 0 0-0.5 0.5v1c0 2.8784 2.1891 5.2255 5 5.4766v1.0234h-1.5c-0.277 0-0.5 0.223-0.5 0.5s0.223 0.5 0.5 0.5h4c0.277 0 0.5-0.223 0.5-0.5s-0.223-0.5-0.5-0.5h-1.5v-1.0234c2.8109-0.25111 5-2.5982 5-5.4766v-1-0.0078125a0.5 0.5 0 0 0-0.5-0.49219 0.5 0.5 0 0 0-0.5 0.49219 0.5 0.5 0 0 0 0 0.0078125v1c0 2.493-2.007 4.5-4.5 4.5s-4.5-2.007-4.5-4.5v-1.0078a0.5 0.5 0 0 0-0.5-0.49219z" fill="#363636" stroke-linecap="round" stroke-linejoin="round" stroke-width="2" style="paint-order:stroke fill markers"/>
</svg>
