<svg width="16" height="16" version="1.1" xmlns="http://www.w3.org/2000/svg">
 <circle cx="3.5" cy="6.5" r=".5" fill="#363636" stroke-linecap="round" stroke-linejoin="round" stroke-width="2" style="paint-order:stroke fill markers"/>
 <circle cx="5.5" cy="6.5" r=".5" fill="#363636" stroke-linecap="round" stroke-linejoin="round" stroke-width="2" style="paint-order:stroke fill markers"/>
 <circle cx="7.5" cy="6.5" r=".5" fill="#363636" stroke-linecap="round" stroke-linejoin="round" stroke-width="2" style="paint-order:stroke fill markers"/>
 <circle cx="9.5" cy="6.5" r=".5" fill="#363636" stroke-linecap="round" stroke-linejoin="round" stroke-width="2" style="paint-order:stroke fill markers"/>
 <circle cx="4.5" cy="8.5" r=".5" fill="#363636" stroke-linecap="round" stroke-linejoin="round" stroke-width="2" style="paint-order:stroke fill markers"/>
 <circle cx="6.5" cy="8.5" r=".5" fill="#363636" stroke-linecap="round" stroke-linejoin="round" stroke-width="2" style="paint-order:stroke fill markers"/>
 <circle cx="8.5" cy="8.5" r=".5" fill="#363636" stroke-linecap="round" stroke-linejoin="round" stroke-width="2" style="paint-order:stroke fill markers"/>
 <circle cx="11.5" cy="6.5" r=".5" fill="#363636" stroke-linecap="round" stroke-linejoin="round" stroke-width="2" style="paint-order:stroke fill markers"/>
 <circle cx="10.5" cy="8.5" r=".5" fill="#363636" stroke-linecap="round" stroke-linejoin="round" stroke-width="2" style="paint-order:stroke fill markers"/>
 <path d="m2 3c-1.108 0-2 0.892-2 2v7c0 1.108 0.892 2 2 2h11c1.108 0 2-0.892 2-2v-7c0-1.108-0.892-2-2-2zm0 1h11c0.554 0 1 0.446 1 1v7c0 0.554-0.446 1-1 1h-11c-0.554 0-1-0.446-1-1v-7c0-0.554 0.446-1 1-1z" fill="#333333" stroke-linecap="round" stroke-linejoin="round" stroke-width="2" style="paint-order:stroke fill markers"/>
 <rect x="3" y="11" width="9" height="1" rx=".5" ry=".5" fill="#333333" stroke-linecap="round" stroke-linejoin="round" stroke-width="2" style="paint-order:stroke fill markers"/>
</svg>
