<svg width="16" height="16" version="1.1" xmlns="http://www.w3.org/2000/svg">
 <path d="m8 2c-0.554 0-1 0.446-1 1v1h-6c-0.554 0-1 0.446-1 1v6c0 0.554 0.446 1 1 1h6c0.1828 0 0.35286-0.049794 0.5-0.13477 0.14714 0.084972 0.3172 0.13477 0.5 0.13477h7c0.554 0 1-0.446 1-1v-8c0-0.554-0.446-1-1-1h-7zm0 1h7v8h-7v-8zm-7 2h6v6h-6v-6zm1 8v1h5v-1h-5zm7 0v1h5v-1h-5z" fill="#363636"/>
 <rect x="3" y="12" width="1" height="1" fill="#333333" style="paint-order:stroke fill markers"/>
 <rect x="5" y="12" width="1" height="1" fill="#333333" style="paint-order:stroke fill markers"/>
 <rect x="10" y="12" width="1" height="1" fill="#333333" style="paint-order:stroke fill markers"/>
 <rect x="12" y="12" width="1" height="1" fill="#333333" style="paint-order:stroke fill markers"/>
</svg>
