<svg width="24" height="24" version="1.1" viewBox="0 0 24 24" xmlns="http://www.w3.org/2000/svg">
 <defs>
  <style id="current-color-scheme" type="text/css">.ColorScheme-Text { color:#363636; }</style>
 </defs>
 <path class="ColorScheme-Text" d="m9.5 4h5c0.2761 0 0.5 0.22386 0.5 0.5v3.5c1.1046 0 2 0.89543 2 2v8c0 1.1046-0.8954 2-2 2h-6c-1.1046 0-2-0.8954-2-2v-8c0-1.1046 0.89543-2 2-2v-3.5c0-0.27614 0.22386-0.5 0.5-0.5zm4.5 4v-3h-4v3zm-5 1c-0.55228 0-1 0.44772-1 1v8c0 0.5523 0.44772 1 1 1h6c0.5523 0 1-0.4477 1-1v-8c0-0.55228-0.4477-1-1-1z" fill="currentColor"/>
</svg>
