<svg width="32" height="32" viewBox="0 0 32 32" fill="none" xmlns="http://www.w3.org/2000/svg">
<style type="text/css" id="current-color-scheme">.ColorScheme-Text { color: #363636; } </style>
<path fill="currentColor" fill-rule="evenodd" clip-rule="evenodd" d="M4 10C4 9.89645 4.00525 9.79412 4.01549 9.69327C4.16912 8.1805 5.4467 7 7 7H25C26.6569 7 28 8.34315 28 10V22C28 23.6569 26.6569 25 25 25H7C5.34315 25 4 23.6569 4 22V10ZM5.01033 9.79551C5.11275 8.787 5.96447 8 7 8H25C26.1046 8 27 8.89543 27 10V19C27 20.1046 26.1046 21 25 21H7C5.89543 21 5 20.1046 5 19V10C5 9.93096 5.0035 9.86275 5.01033 9.79551ZM27 21.2361V22C27 23.1046 26.1046 24 25 24H7C5.89543 24 5 23.1046 5 22V21.2361C5.53076 21.7111 6.23165 22 7 22H25C25.7684 22 26.4692 21.7111 27 21.2361Z" class="ColorScheme-Text"/>
<path fill="currentColor" fill-rule="evenodd" clip-rule="evenodd" d="M11.5 12C10.1193 12 9 13.1193 9 14.5C9 15.8807 10.1193 17 11.5 17H20.5C21.8807 17 23 15.8807 23 14.5C23 13.1193 21.8807 12 20.5 12H11.5ZM10 14.5C10 13.6716 10.6716 13 11.5 13C12.3284 13 13 13.6716 13 14.5C13 15.3284 12.3284 16 11.5 16C10.6716 16 10 15.3284 10 14.5ZM19 14.5C19 13.6716 19.6716 13 20.5 13C21.3284 13 22 13.6716 22 14.5C22 15.3284 21.3284 16 20.5 16C19.6716 16 19 15.3284 19 14.5Z" class="ColorScheme-Text"/>
</svg>
