<svg version="1.1" viewBox="0 0 32 32" xmlns="http://www.w3.org/2000/svg">
 <defs>
  <style id="current-color-scheme" type="text/css">.ColorScheme-Text {
        color:#363636;
      }</style>
 </defs>
 <path class="ColorScheme-Text" d="m6.25 4-0.79688 1.4531-1.4531 0.79688 1.4531 0.79688 0.79688 1.4531 0.79688-1.4531 1.4531-0.79688-1.4531-0.79688zm7.5 0-0.79688 1.4531-1.4531 0.79688 1.4531 0.79688 0.79688 1.4531 0.79688-1.4531 1.4531-0.79688-1.4531-0.79688zm-4.5 6-0.79688 1.4531-1.4531 0.79688 1.4531 0.79688 0.79688 1.4531 0.79688-1.4531 1.4531-0.79688-1.4531-0.79688z" fill="currentColor"/>
 <path d="m25.899 6.1005c-1.1752-1.1752-3.0674-1.1752-4.2426 0l-15.556 15.556c-1.1752 1.1752-1.1752 3.0674 0 4.2426 1.1752 1.1752 3.0674 1.1752 4.2426 0l15.556-15.556c1.1752-1.1752 1.1752-3.0674 0-4.2426zm-0.70711 0.70711c0.78347 0.78347 0.78347 2.045 0 2.8284l-3.5355 3.5355-2.8284-2.8284 3.5355-3.5355c0.78347-0.78347 2.045-0.78347 2.8284 0zm-7.0711 4.2426 2.8284 2.8284-11.314 11.314c-0.78347 0.78347-2.045 0.78347-2.8284 0-0.78347-0.78347-0.78347-2.045 0-2.8284z" class="ColorScheme-Text" fill="currentColor"/>
</svg>
