<svg version="1.1" viewBox="0 0 32 32" xmlns="http://www.w3.org/2000/svg">
 <defs>
  <style id="current-color-scheme" type="text/css">.ColorScheme-Text {
        color:#363636;
      }
      .ColorScheme-Highlight {
        color:#3daee9;
      }</style>
 </defs>
 <path class="ColorScheme-Text" d="m15.227 4c-0.67916 0-1.3288 0.27182-1.8066 0.75195-0.47575 0.47801-0.74409 1.1289-0.74219 1.8047l-2e-3 0.00391c-0.01922 1.1596-0.96929 2.0978-2.1289 2.0977-0.0013-1.3e-5 -0.0026 1.55e-5 -0.0039 0-0.34917-0.0043-0.69674-0.10081-1.0039-0.28125a1.0001 1.0001 0 0 0-0.00977-0.00586c-1.2125-0.6948-2.7938-0.26344-3.4902 0.94531l-0.80664 1.3262a1.0001 1.0001 0 0 0-0.011719 0.02148c-0.69495 1.2062-0.27593 2.7849 0.92578 3.4863a1.0001 1.0001 0 0 0 0.00391 0.0059c0.65877 0.38088 1.0664 1.0843 1.0664 1.8438 0 0.76119-0.40812 1.4676-1.0664 1.8477-1.2046 0.69676-1.6246 2.2763-0.92969 3.4805a1.0001 1.0001 0 0 0 0.00195 2e-3l0.75781 1.3066a1.0001 1.0001 0 0 0 0.011719 0.02344c7.21e-4 0.0013 0.00321 5.59e-4 0.00391 2e-3 0.33152 0.59574 0.88489 1.032 1.5352 1.2168 0.65143 0.18521 1.3566 0.10675 1.9512-0.22656a1.0001 1.0001 0 0 0 0.00977-0.0059c0.4849-0.28004 1.0632-0.359 1.6016-0.21484a1.0001 1.0001 0 0 0 2e-3 0c0.54006 0.14451 1.0007 0.50143 1.2812 0.99023a1.0001 1.0001 0 0 0 0.0059 0.0098c0.18031 0.30613 0.27692 0.65346 0.28125 1.0059a1.0001 1.0001 0 0 0 0 0.0039c-2.6e-4 1.3995 1.1646 2.5585 2.5624 2.5585h1.5371c1.3909 0 2.5467-1.15 2.5586-2.5391a1.0001 1.0001 0 0 0 0-2e-3 1.0001 1.0001 0 0 0 0-2e-3 1.0001 1.0001 0 0 0 0-2e-3 1.0001 1.0001 0 0 0 0-2e-3 1.0001 1.0001 0 0 0 0-2e-3 1.0001 1.0001 0 0 0 0-2e-3 1.0001 1.0001 0 0 0 0-2e-3c-0.0027-0.56504 0.22185-1.1046 0.62305-1.5059 0.39975-0.39966 0.94361-0.62316 1.5078-0.62109 0.35778 0.01027 0.70746 0.10782 1.0176 0.28516 1.2084 0.69625 2.7894 0.27339 3.4902-0.93164l-0.01953 0.0332a1.0001 1.0001 0 0 0 0.01953-0.0293l0.80273-1.3379a1.0001 1.0001 0 0 0 0.01758-0.02734c1.3e-5 -2.2e-5 8e-3 -0.02432 0.0098-0.0293 0.31984-0.57442 0.40912-1.254 0.23828-1.8945-0.17452-0.65428-0.60179-1.2154-1.1914-1.5547-0.48919-0.28142-0.84464-0.74524-0.99024-1.291-0.14482-0.5429-0.06696-1.1232 0.2168-1.6113a1.0001 1.0001 0 0 0 0.10547-0.39258l-0.10156 0.38477c0.18364-0.31898 0.44878-0.58405 0.76758-0.76758a1.0001 1.0001 0 0 0 0.0059-0.0039c1.1985-0.70113 1.6201-2.2722 0.93164-3.4785a1.0001 1.0001 0 0 0-0.03125-0.06055l-0.73641-1.2751c-0.69694-1.2098-2.2795-1.6371-3.4902-0.94336a1.0001 1.0001 0 0 0-0.0078 0.00586c-0.48272 0.28203-1.0608 0.36159-1.6035 0.2207-0.54399-0.14124-1.0094-0.49368-1.2949-0.98047a1.0001 1.0001 0 0 0-2e-3 -0.00391c-0.18226-0.30868-0.27936-0.65823-0.28316-1.0117a1.0001 1.0001 0 0 0-2e-3 -0.00781c0.015069-0.68192-0.24114-1.3486-0.72066-1.8418-0.48267-0.49649-1.1468-0.77568-1.8379-0.77539zm0 1h1.5371c0.42183-1.775e-4 0.82693 0.17007 1.1211 0.47266 0.29414 0.30254 0.4516 0.71108 0.43945 1.1328-2e-4 0.01023-2e-4 0.021022 0 0.03125 0.0057 0.53146 0.15153 1.0521 0.42188 1.5098 0.41905 0.71449 1.1044 1.2332 1.9062 1.4414 0.79823 0.20721 1.6495 0.0917 2.3613-0.32422 0.75448-0.43229 1.6929-0.17917 2.127 0.57422l0.73633 1.2754c0.0085 0.01877 0.01741 0.03859 0.02734 0.05664 0.42838 0.75056 0.17757 1.6828-0.56836 2.1191-0.4718 0.2716-0.86306 0.66478-1.1348 1.1367v2e-3c-0.41666 0.71681-0.53404 1.5718-0.32031 2.373 0.21395 0.80201 0.73924 1.4863 1.459 1.9004 0.35759 0.20574 0.61829 0.54671 0.72461 0.94531 0.10576 0.39653 0.04885 0.81658-0.15625 1.1719-0.0011 0.0019 0.0011 4e-3 0 0.0059l-0.80469 1.3379c-0.0021 0.0031-0.0038 0.0066-0.0059 0.0098-0.43652 0.75053-1.3746 1.0018-2.127 0.56836-1e-3 -0.0011-0.0029-0.0028-0.0039-0.0039-0.45508-0.26022-0.96828-0.40398-1.4922-0.41797-0.0052-5e-5 -0.0085-5e-5 -0.01367 0-0.83256-0.0041-1.6339 0.32734-2.2227 0.91602-0.58844 0.5886-0.91805 1.3863-0.91406 2.2188-0.007327 0.86468-0.69464 1.5467-1.5605 1.5467h-1.5371c-0.87112 0-1.5625-0.68768-1.5625-1.5586 1.9e-5 -0.0031 2e-5 -0.0066 0-0.0098-0.0055-0.53033-0.15086-1.051-0.41992-1.5078-0.41183-0.71746-1.0914-1.2432-1.8906-1.457-0.79634-0.21322-1.6478-0.09961-2.3613 0.3125-0.36238 0.20315-0.78796 0.25227-1.1875 0.13867-0.39954-0.11352-0.73809-0.37885-0.93945-0.74219-2e-3 -0.0052-0.00386-0.01044-0.00586-0.01563l-0.77344-1.332c-0.43184-0.74832-0.18347-1.6826 0.56445-2.1152 0.96781-0.55881 1.5664-1.5953 1.5664-2.7129 0-1.1167-0.59966-2.152-1.5664-2.7109v-2e-3c-0.74877-0.43708-0.99752-1.3733-0.56445-2.125l0.81055-1.332c0.0031-0.00509 0.00677-0.010455 0.00977-0.015625 0.43404-0.75335 1.3726-1.0084 2.127-0.57617 0.45604 0.26789 0.97489 0.41444 1.5039 0.41992 0.0031 1.83e-5 0.0066 1.83e-5 0.0098 0 1.7032 2.09e-4 3.1044-1.3849 3.1289-3.0879 5.1e-5 -0.00514 5.1e-5 -0.00853 0-0.013672-0.0019-0.41246 0.16023-0.80728 0.45117-1.0996 0.29082-0.29219 0.68722-0.45703 1.0996-0.45703zm0.77344 7a4 4 0 0 0-4 4 4 4 0 0 0 4 4 4 4 0 0 0 4-4 4 4 0 0 0-4-4zm0 1a3 3 0 0 1 3 3 3 3 0 0 1-3 3 3 3 0 0 1-3-3 3 3 0 0 1 3-3zm10.785 8.2949c-2.99e-4 8.42e-4 -0.0039 0.01173-0.0039 0.01172l-0.0078 0.01172c0.0044-0.0076 0.0074-0.0158 0.01172-0.02344z" fill="currentColor"/>
</svg>
