<svg version="1.1" viewBox="0 0 32 32" xmlns="http://www.w3.org/2000/svg">
 <defs>
  <style id="current-color-scheme" type="text/css">.ColorScheme-Text {
        color:#363636;
      }
      .ColorScheme-Highlight {
        color:#3daee9;
      }</style>
 </defs>
 <path d="m15.162 3c-0.71665 0-1.4039 0.28626-1.9082 0.79297-0.50332 0.50571-0.78638 1.1935-0.7832 1.9082-0.019981 1.3157-1.0987 2.381-2.4141 2.3809-0.39856-0.0041438-0.79482-0.11488-1.1445-0.32031a1.0001 1.0001 0 0 0-0.0097656-0.0058594c-1.2811-0.7341-2.9477-0.27919-3.6836 0.99805l-0.88281 1.4492a1.0001 1.0001 0 0 0-0.011719 0.021484c-0.73432 1.2746-0.29132 2.9385 0.97852 3.6797a1.0001 1.0001 0 0 0 0.0039062 0.005859c0.74666 0.43167 1.207 1.2289 1.207 2.0898 0 0.86279-0.46075 1.6629-1.207 2.0938-1.2726 0.73608-1.7166 2.3997-0.98242 3.6719a1.0001 1.0001 0 0 0 0.0019531 0.003906l0.82812 1.4258a1.0001 1.0001 0 0 0 0.011719 0.025391c7.204e-4 0.0013 0.0031763 6.08e-4 0.0039063 0.001953 0.34983 0.62877 0.93645 1.0901 1.623 1.2852 0.68775 0.19554 1.4311 0.11155 2.0586-0.24023a1.0001 1.0001 0 0 0 0.0097656-0.005859c0.54977-0.31751 1.2056-0.40378 1.8164-0.24024 0.61273 0.16396 1.1351 0.56706 1.4531 1.1211a1.0001 1.0001 0 0 0 0.00586 0.009766c0.20477 0.34767 0.31548 0.74196 0.32031 1.1426a1.0001 1.0001 0 0 0 0 0.003906c-4.5e-5 1.4791 1.2281 2.7012 2.7051 2.7012h1.6777c1.4696 0 2.6887-1.2119 2.7012-2.6797a1.0001 1.0001 0 0 0 0-0.001953 1.0001 1.0001 0 0 0 0-0.001953 1.0001 1.0001 0 0 0 0-0.001953 1.0001 1.0001 0 0 0 0-0.001953 1.0001 1.0001 0 0 0 0-0.001953 1.0001 1.0001 0 0 0 0-0.001953c-0.0031-0.64072 0.24843-1.2542 0.70312-1.709 0.45344-0.45334 1.0707-0.70768 1.7109-0.70508 0.40414 0.01141 0.79968 0.12059 1.1504 0.32031a1.0001 1.0001 0 0 0 0.003906 0.003906c1.276 0.73517 2.9423 0.29086 3.6836-0.98047l0.87695-1.459a1.0001 1.0001 0 0 0 0.001953-0.001953c1e-5 -1.7e-5 0.006812-0.018795 0.007813-0.021485 0.35432-0.61381 0.45536-1.3457 0.27148-2.0352-0.18418-0.69052-0.63569-1.2827-1.2578-1.6406-0.55462-0.31907-0.958-0.8442-1.123-1.4629-0.16425-0.61575-0.07554-1.2748 0.24609-1.8281a1.0001 1.0001 0 0 0 0.001953-0.007812c0.20835-0.36188 0.5094-0.66288 0.87109-0.87109a1.0001 1.0001 0 0 0 0.005859-0.003906c1.2617-0.73812 1.7066-2.3855 0.99024-3.6582 0.0027 5e-3 0.005459 0.007112 0.005859 0.007812a1.0001 1.0001 0 0 0-0.044922-0.085937l-0.80469-1.3926c-0.73682-1.2772-2.4047-1.7269-3.6836-0.99414a1.0001 1.0001 0 0 0-0.005859 0.0039063c-0.54741 0.31984-1.205 0.40973-1.8203 0.25-0.61684-0.16017-1.1432-0.55958-1.4668-1.1113a1.0001 1.0001 0 0 0-0.001953-0.0019531c-0.20689-0.35032-0.31797-0.74863-0.32226-1.1504a1.0001 1.0001 0 0 0-0.001954-0.0078125c0.016635-0.72092-0.25501-1.4261-0.76172-1.9473-0.5093-0.52316-1.2106-0.81867-1.9395-0.81836h-1.6758zm0 1h1.6777c0.46018-1.941e-4 0.89979 0.18553 1.2207 0.51562 0.32088 0.33005 0.49372 0.77625 0.48047 1.2363-2.17e-4 0.011142-2.17e-4 0.022043 0 0.033203 0.0062 0.57978 0.16602 1.1472 0.46094 1.6465 0.45714 0.77944 1.2054 1.3471 2.0801 1.5742 0.8708 0.22604 1.7977 0.098264 2.5742-0.35547 0.82307-0.47159 1.8468-0.19493 2.3203 0.62695l0.80274 1.3926c0.0093 0.02048 0.02041 0.040867 0.03125 0.060547 0.46732 0.8188 0.1946 1.8364-0.61914 2.3125-0.51469 0.29629-0.94382 0.72539-1.2402 1.2402v0.001953c-0.45454 0.78198-0.58081 1.7158-0.34766 2.5898 0.2334 0.87493 0.80466 1.6206 1.5898 2.0723 0.3901 0.22445 0.67503 0.59641 0.79102 1.0312 0.11537 0.43258 0.053816 0.88975-0.16992 1.2773-0.0011 2e-3 0.0012 0.005813 0 0.007813l-0.87891 1.459c-0.0022 0.0034-0.003659 0.006246-0.005859 0.009766-0.47621 0.81877-1.4995 1.094-2.3203 0.62109l-0.003906-0.003907c-0.49645-0.28388-1.0554-0.43982-1.627-0.45508-0.0056-5.5e-5 -0.009965-5.5e-5 -0.015625 0-0.90825-0.0044-1.7834 0.35585-2.4258 0.99805-0.64194 0.64211-1.0004 1.5118-0.99609 2.4199-8e-3 0.94356-0.75658 1.6875-1.7012 1.6875h-1.6777c-0.95032 0-1.7051-0.75107-1.7051-1.7012 2.1e-5 -0.0034 2.1e-5 -0.006245 0-0.009766-6e-3 -0.57855-0.16547-1.1462-0.45898-1.6445-0.44928-0.78268-1.1906-1.3565-2.0625-1.5898-0.86874-0.23261-1.7958-0.10779-2.5742 0.3418-0.39533 0.22162-0.85905 0.27432-1.2949 0.15039-0.43587-0.12384-0.80572-0.41417-1.0254-0.81055-0.00222-0.0056-0.0036393-0.009965-0.0058594-0.015625l-0.84375-1.4531c-0.4711-0.81635-0.20069-1.8367 0.61523-2.3086 1.0558-0.60961 1.707-1.7398 1.707-2.959 0-1.2183-0.6524-2.3473-1.707-2.957v-0.001953c-0.81689-0.47681-1.0877-1.4984-0.61523-2.3184l0.88281-1.4531c0.00342-0.0054499 0.0064786-0.0099669 0.0097656-0.015625 0.4735-0.82184 1.4974-1.1024 2.3203-0.63086 0.4975 0.29225 1.0635 0.45298 1.6406 0.45898 0.0034 2.03e-5 0.008299 2.03e-5 0.011719 0 1.8581 2.262e-4 3.3873-1.5094 3.4141-3.3672 5.5e-5 -0.0056301 5.5e-5 -0.011993 0-0.017578-2e-3 -0.44996 0.17479-0.88031 0.49219-1.1992 0.31733-0.31885 0.74938-0.49805 1.1992-0.49805zm12.648 17.193c4e-4 0.00231 0.001951 0.01558 0.001953 0.015625 0 1.23e-4 -0.003712 0.056258-0.007812 0.11133 0.0029-0.062363 0.005399-0.11715 0.005859-0.12695zm-0.015625 0.24219c-4e-4 0.00463-0.001948 0.025365-0.001953 0.025391-4e-5 1.69e-4 -0.041965 0.10807-0.078125 0.20117 0.02897-0.083381 0.074478-0.21044 0.080078-0.22656z" class="ColorScheme-Text" style="fill:currentColor"/>
 <path d="m16 11a5 5 0 0 0-5 5 5 5 0 0 0 5 5 5 5 0 0 0 5-5 5 5 0 0 0-5-5zm0 1a4 4 0 0 1 4 4 4 4 0 0 1-4 4 4 4 0 0 1-4-4 4 4 0 0 1 4-4z" class="ColorScheme-Text" style="fill:currentColor"/>
</svg>
