<svg version="1.1" viewBox="0 0 32 32" xmlns="http://www.w3.org/2000/svg">
 <defs>
  <style id="current-color-scheme" type="text/css">.ColorScheme-Text {
        color:#363636;
      }
      .ColorScheme-Highlight {
        color:#3daee9;
      }</style>
 </defs>
 <path class="ColorScheme-Text" d="m10 4c-1.662 0-3 1.338-3 3v1h-1c-2.216 0-4 1.784-4 4v10c0 1.108 0.892 2 2 2h3v2c0 1.662 1.338 3 3 3h12c0.35152 0 0.68706-0.06372 1-0.17383v-1.0938c-0.29408 0.16962-0.63478 0.26758-1 0.26758h-12c-1.108 0-2-0.892-2-2v-6c0-1.108 0.892-2 2-2h14.234c-0.54852-0.61278-1.3434-1-2.2344-1h-12c-1.662 0-3 1.338-3 3v3h-3c-0.554 0-1-0.446-1-1v-10c0-1.662 1.338-3 3-3h20c1.662 0 3 1.338 3 3v9h1v-9c0-2.216-1.784-4-4-4h-1v-1c0-1.662-1.338-3-3-3zm0 1h12c1.108 0 2 0.892 2 2v1h-16v-1c0-1.108 0.892-2 2-2z" fill="currentColor"/>
 <path class="ColorScheme-Highlight" d="m24 28 5-4.5-5-4.5z" fill="currentColor"/>
</svg>
