<svg width="24" height="24" version="1.1" xmlns="http://www.w3.org/2000/svg">
 <defs>
  <style id="current-color-scheme" type="text/css">.ColorScheme-Text { color:#363636; }</style>
 </defs>
 <path d="m8.5 5c-0.82843 0-1.5 0.67157-1.5 1.5v0.5h-0.5c-1.3807 0-2.5 1.1193-2.5 2.5v5c0 0.8284 0.67157 1.5 1.5 1.5h1.5v1.5c0 0.8284 0.67157 1.5 1.5 1.5h7c0.8284 0 1.5-0.6716 1.5-1.5v-1.5h1.5c0.8284 0 1.5-0.6716 1.5-1.5v-5c0-1.3807-1.1193-2.5-2.5-2.5h-0.5v-0.5c0-0.82843-0.6716-1.5-1.5-1.5zm0 1h7c0.2761 0 0.5 0.22386 0.5 0.5v0.5h-8v-0.5c0-0.27614 0.22386-0.5 0.5-0.5zm-2 2h11c0.8284 0 1.5 0.67157 1.5 1.5v5c0 0.27614-0.2239 0.5-0.5 0.5h-1.5v-1.5c0-0.82843-0.6716-1.5-1.5-1.5h-7c-0.82843 0-1.5 0.67157-1.5 1.5v1.5h-1.5c-0.27614 0-0.5-0.22386-0.5-0.5v-5c0-0.82843 0.67157-1.5 1.5-1.5zm0 1a0.5 0.5 0 0 0-0.5 0.5 0.5 0.5 0 0 0 0.5 0.5 0.5 0.5 0 0 0 0.5-0.5 0.5 0.5 0 0 0-0.5-0.5zm2 4h7c0.2761 0 0.5 0.22386 0.5 0.5v4c0 0.2761-0.2239 0.5-0.5 0.5h-7c-0.27614 0-0.5-0.2239-0.5-0.5v-4c0-0.27614 0.22386-0.5 0.5-0.5z" fill="#363636"/>
</svg>
