<svg version="1.1" viewBox="0 0 24 24" xmlns="http://www.w3.org/2000/svg">
 <defs>
  <style id="current-color-scheme" type="text/css">.ColorScheme-Text {
        color:#363636
      }</style>
 </defs>
 <path class="ColorScheme-Text" d="m12 4a8 3 0 0 0-8 3v10a8 3 0 0 0 8 3 8 3 0 0 0 8-3v-10a8 3 0 0 0-8-3zm0 1a7 2 0 0 1 7 2 7 2 0 0 1-7 2 7 2 0 0 1-7-2 7 2 0 0 1 7-2zm7 3.4453v3.5547a7 2 0 0 1-7 2 7 2 0 0 1-7-2v-3.5488a8 3 0 0 0 7 1.5488 8 3 0 0 0 7-1.5547zm0 5v3.5547a7 2 0 0 1-7 2 7 2 0 0 1-7-2v-3.5488a8 3 0 0 0 7 1.5488 8 3 0 0 0 7-1.5547z" fill="currentColor"/>
</svg>
