<svg width="16" height="16" enable-background="new" version="1.1" xmlns="http://www.w3.org/2000/svg">
 <defs>
  <style id="current-color-scheme" type="text/css">
   .ColorScheme-Text { color:#dedede; } .ColorScheme-Highlight { color:#5294e2; }
  </style>
 </defs>
 <path class="ColorScheme-Text" d="m8.6941 2.0393c0.18522 0.0781 0.30563 0.25964 0.30563 0.46067v11c0 0.2014-0.12087 0.3832-0.30661 0.4611-0.18575 0.0779-0.40011 0.0367-0.54379-0.1044l-2.9264-2.875h-1.7231c-0.82843 0-1.5-0.6716-1.5-1.5v-2.989c0-0.82842 0.67157-1.5 1.5-1.5h1.7244l2.9267-2.8509c0.144-0.14028 0.35802-0.18066 0.54325-0.10251zm-0.69437 1.6457-2.2234 2.1658c-0.0934 0.091-0.21855 0.14184-0.34888 0.14184h-1.9277c-0.27614 0-0.5 0.22386-0.5 0.5v2.989c0 0.27614 0.22386 0.5 0.5 0.5h1.9277c0.13107 0 0.2569 0.0515 0.3504 0.14328l2.2219 2.1829zm2.1469 2.4614c0.1953-0.19526 0.5119-0.19526 0.7072 0l1.1464 1.1464 1.1464-1.1464c0.1953-0.19526 0.5119-0.19526 0.7072 0 0.1952 0.19526 0.1952 0.51185 0 0.70711l-1.1465 1.1464 1.1465 1.1464c0.1952 0.19526 0.1952 0.51185 0 0.70711-0.1953 0.19523-0.5119 0.19523-0.7072 0l-1.1464-1.1464-1.1464 1.1464c-0.1953 0.19523-0.5119 0.19523-0.7072 0-0.19522-0.19526-0.19522-0.51185 0-0.70711l1.1465-1.1464-1.1465-1.1464c-0.19522-0.19526-0.19522-0.51185 0-0.70711z" fill="currentColor"/>
</svg>
