<svg width="16" height="16" enable-background="new" version="1.1" xmlns="http://www.w3.org/2000/svg">
 <defs>
  <style id="current-color-scheme" type="text/css">
   .ColorScheme-Text { color:#dedede; } .ColorScheme-Highlight { color:#5294e2; }
  </style>
 </defs>
 <path class="ColorScheme-Text" d="m11.811 3.1088c-0.2161-0.172-0.5306-0.13631-0.7026 0.0797-0.172 0.21593-0.1358 0.53074 0.0799 0.7028l0.0111 9e-3c0.0108 9e-3 0.0283 0.0242 0.0516 0.0452 0.0467 0.042 0.1162 0.10736 0.2011 0.19551 0.1701 0.17659 0.3999 0.44278 0.6303 0.79376 0.4605 0.70134 0.9188 1.7334 0.9188 3.069 0 1.3355-0.4583 2.3654-0.9185 3.0644-0.2303 0.3499-0.46 0.615-0.6299 0.7908-0.0848 0.0877-0.1543 0.1528-0.2009 0.1945-0.0233 0.0209-0.0408 0.0359-0.0516 0.045l-0.0116 0.01-9e-4 8e-4c-0.2153 0.1717-0.2513 0.4854-0.0802 0.7014 0.1715 0.2164 0.4867 0.2523 0.7032 0.0808l0.0329-0.0271c0.0186-0.0155 0.044-0.0374 0.0755-0.0656 0.0629-0.0563 0.1497-0.1379 0.2526-0.2443 0.2054-0.2125 0.4761-0.5257 0.7462-0.936 0.5407-0.8213 1.0832-2.0395 1.0832-3.6142 0-1.5747-0.5425-2.7947-1.0829-3.6178-0.27-0.41124-0.5406-0.72538-0.7458-0.93857-0.1028-0.10673-0.1897-0.18862-0.2525-0.24515-0.0314-0.0283-0.0569-0.0503-0.0754-0.0659l-0.0224-0.0187-7e-3 -6e-3 -2e-3 -2e-3z" fill="currentColor" opacity=".35"/>
 <path class="ColorScheme-Text" d="m10.11 5.1887c0.1719-0.2161 0.4864-0.25192 0.7025-0.08l9e-4 6.7e-4 9e-4 7.5e-4 2e-3 2e-3 5e-3 4e-3 0.015 0.0125c0.0118 0.01 0.0271 0.0234 0.0454 0.0402 0.0366 0.0336 0.0854 0.0809 0.1422 0.14215 0.1135 0.12243 0.26 0.30177 0.405 0.54024 0.2915 0.47953 0.5736 1.193 0.5736 2.1471 0 0.95413-0.2821 1.6683-0.5734 2.1486-0.1449 0.2388-0.2912 0.4186-0.4046 0.5413-0.0567 0.0614-0.1055 0.1089-0.1421 0.1425-0.0196 0.0181-0.0398 0.0357-0.0602 0.0529l-0.0088 0.0077s-0.4463 0.2423-0.7027-0.0785c-0.17156-0.2146-0.13767-0.5271 0.0751-0.7001l2e-3 -1e-3 -8e-4 7e-4 2e-3 -1e-3 -9e-4 7e-4c3e-3 -2e-3 9e-3 -8e-3 0.0183-0.0163 0.0182-0.0168 0.0477-0.0452 0.0848-0.0854 0.0745-0.0806 0.1786-0.20732 0.2841-0.38133 0.2096-0.34546 0.4284-0.88238 0.4284-1.6299 0-0.74749-0.2188-1.2833-0.4281-1.6276-0.1055-0.17346-0.2095-0.29969-0.2838-0.37985-0.0371-0.04-0.0665-0.0683-0.0847-0.0849-9e-3 -8e-3 -0.0153-0.0137-0.0182-0.0162l1e-3 7.6e-4c-0.21573-0.17198-0.25105-0.48599-0.0792-0.70197zm0.0782 0.70121-1e-3 -1e-3z" fill="currentColor" opacity=".35"/>
 <path class="ColorScheme-Text" d="m8.6927 2.0393c0.18522 0.0782 0.30563 0.25964 0.30563 0.46067v11c0 0.2014-0.12087 0.3832-0.30661 0.4611-0.18575 0.0779-0.40011 0.0367-0.54379-0.1044l-2.9264-2.875h-1.7231c-0.82843 0-1.5-0.6716-1.5-1.5v-2.989c0-0.82842 0.67157-1.5 1.5-1.5h1.7244l2.9267-2.8509c0.144-0.14028 0.35802-0.18066 0.54325-0.10251zm-0.69437 1.6457-2.2234 2.1658c-0.0934 0.0909-0.21855 0.14184-0.34888 0.14184h-1.9277c-0.27614 0-0.5 0.22386-0.5 0.5v2.989c0 0.27614 0.22386 0.5 0.5 0.5h1.9277c0.13107 0 0.2569 0.0515 0.3504 0.14328l2.2219 2.1829z" fill="currentColor"/>
</svg>
