<svg width="16" height="16" version="1.1" xmlns="http://www.w3.org/2000/svg">
 <defs>
  <style id="current-color-scheme" type="text/css">.ColorScheme-Text { color:#ffffff; } .ColorScheme-Highlight { color:#5294e2; }</style>
 </defs>
 <circle class="ColorScheme-Highlight" cx="13.5" cy="12.5" r="1.5" fill="currentColor"/>
 <path d="m7.9062 1a7 7 0 0 0-6.9062 7 7 7 0 0 0 7 7 7 7 0 0 0 3.5312-0.95703 2.5 2.5 0 0 1-0.44531-0.89844 6 6 0 0 1-3.0859 0.85547 6 6 0 0 1-6-6 6 6 0 0 1 6-6 6 6 0 0 1 6 6 6 6 0 0 1-0.3457 2.0059 2.5 2.5 0 0 1 0.96875 0.26172 7 7 0 0 0 0.37695-2.2676 7 7 0 0 0-7-7 7 7 0 0 0-0.09375 0z" fill="#ffffff" stroke-linecap="round" stroke-linejoin="round" stroke-width="2" style="paint-order:stroke fill markers"/>
 <path d="m7.5 12v-5.0859l-1.6211 1.6211-0.70703-0.70703 2.8281-2.8281 2.8281 2.8281-0.70703 0.70703-1.6211-1.6211v5.0859z" fill="#ffffff" stroke-linecap="round" stroke-linejoin="round" stroke-width="2" style="paint-order:stroke fill markers"/>
</svg>
