<svg width="16" height="16" version="1.1" xmlns="http://www.w3.org/2000/svg">
 <defs>
  <style id="current-color-scheme" type="text/css"/>
 </defs>
 <path d="m5.5254 4.8184 2.4746 2.4746 2.4746-2.4746 0.70703 0.70703-2.4746 2.4746 2.4746 2.4746-0.70703 0.70703-2.4746-2.4746-2.4746 2.4746-0.70703-0.70703 2.4746-2.4746-2.4746-2.4746z" fill="#ff2a2a" fill-rule="evenodd" style="paint-order:stroke fill markers"/>
 <path d="m7.9062 1a7 7 0 0 0-6.9062 7 7 7 0 0 0 7 7 7 7 0 0 0 7-7 7 7 0 0 0-7-7 7 7 0 0 0-0.09375 0zm0.09375 1a6 6 0 0 1 6 6 6 6 0 0 1-6 6 6 6 0 0 1-6-6 6 6 0 0 1 6-6z" fill="#ff2a2a" stroke-linecap="round" stroke-linejoin="round" stroke-width="2" style="paint-order:stroke fill markers"/>
</svg>
