<svg width="16" height="16" version="1.1" xmlns="http://www.w3.org/2000/svg">
 <defs>
  <style id="current-color-scheme" type="text/css">.ColorScheme-Text { color:#dedede; } .ColorScheme-Highlight { color:#5294e2; }</style>
 </defs>
 <path class="ColorScheme-Text" d="m8 0a8 8 0 0 0-8 8 8 8 0 0 0 8 8 8 8 0 0 0 8-8 8 8 0 0 0-8-8zm-0.09375 1a7 7 0 0 1 0.09375 0 7 7 0 0 1 7 7 7 7 0 0 1-7 7 7 7 0 0 1-7-7 7 7 0 0 1 6.9062-7z" fill="currentColor"/>
 <path class="ColorScheme-Text" d="m5.1715 5.1716a4 4 0 0 1 4.8545-0.61181l-0.73611 0.73611a3 3 0 0 0-3.4112 0.5828 3 3 0 0 0-0.58555 3.414l1.2927-1.2927 0.70711 0.70711-2.1213 2.1213a4 4 0 0 1-1.2e-6 -5.6569zm5.6569-1.1e-6a4 4 0 0 1 2e-6 5.6569 4 4 0 0 1-4.8545 0.61181l0.73611-0.73611a3 3 0 0 0 3.4112-0.5828 3 3 0 0 0 0.58276-3.4113l-1.2899 1.2899-0.70711-0.70711 1.4143-1.4142z" fill="currentColor"/>
</svg>
