<svg width="16" height="16" version="1.1" xmlns="http://www.w3.org/2000/svg">
 <style id="current-color-scheme" type="text/css">.ColorScheme-Text {
            color:#dedede;
        }
        .ColorScheme-Highlight {
            color:#3daee9;
        }
        .ColorScheme-NegativeText {
            color:#da4453;
        }</style>
 <path class="ColorScheme-Text" d="m7.9941 1c-3.2266 0-5.8715 2.4513-5.9941 5.5684l-0.0039062 0.22461v3.6074l-0.92383 2.2207-0.042969 0.12695-0.021484 0.12695c-0.0504 0.4635 0.19274 0.88176 0.60352 1.0527l0.125 0.042969c0.08456 0.0228 0.17182 0.033203 0.25977 0.033203h2.0039v-0.003906h1.1777a3 3 0 0 0 2.8223 2 3 3 0 0 0 2.8223-2h2.1777v0.003906h0.99805l0.13476-0.009765 0.11524-0.027344c0.4527-0.129 0.75-0.51489 0.75-0.96289l-0.009766-0.13086-0.013672-0.085938c-0.0127-0.0569-0.030134-0.11192-0.052734-0.16602l-0.92578-2.2227v-3.5957l-0.003906-0.22461-0.00586-0.10352a4.0056 4.0056 0 0 1-0.99023 0.39453v3.6309l0.039062 0.19141 0.96289 2.3125-0.044922 0.001953h-2.9531a3 3 0 0 0 0-0.001953 3 3 0 0 0 0-0.001953 3 3 0 0 0 0-0.001953h-1a2 2 0 0 1 0 0.001953 2 2 0 0 1 0 0.001953 2 2 0 0 1 0 0.001953l-4-0.001953a2 2 0 0 1 0-0.003906h-1a3 3 0 0 0 0 0.003906h-3.0039l0.96289-2.3125 0.037109-0.19141v-3.6973l0.0039062-0.20508 0.013672-0.21289c0.21002-2.4613 2.3579-4.3848 4.9805-4.3848 0.043781 0 0.08735 0.0028407 0.13086 0.0039062a4.0056 4.0056 0 0 1 0.39844-0.98047c-0.17444-0.014676-0.35097-0.023438-0.5293-0.023438zm-1.7188 13h3.4492a2 2 0 0 1-1.7246 1 2 2 0 0 1-1.7246-1z" fill="currentColor"/>
 <path class="ColorScheme-Highlight" d="m15 3a3 3 0 0 1-6 0 3 3 0 1 1 6 0z" fill="currentColor"/>
</svg>
