<svg width="16" height="16" version="1.1" xmlns="http://www.w3.org/2000/svg">
 <defs>
  <style id="current-color-scheme" type="text/css">.ColorScheme-Text { color:#363636; } .ColorScheme-Highlight { color:#5294e2; }</style>
 </defs>
 <path class="ColorScheme-Text" d="m12.717 0.71875a0.5 0.5 0 0 0-0.35352 0.14648 0.5 0.5 0 0 0 0 0.70508c1.688 1.6877 2.6364 3.9782 2.6367 6.3652-0.0097 2.3829-0.96468 4.6633-2.6543 6.3438a0.5 0.5 0 0 0-0.001953 0.70898 0.5 0.5 0 0 0 0.70898 0.001953c1.8776-1.8674 2.9371-4.4046 2.9473-7.0527a0.50005 0.50005 0 0 0 0-0.0019531c-4.01e-4 -2.6518-1.0544-5.1954-2.9297-7.0703a0.5 0.5 0 0 0-0.35352-0.14648zm-6.6191 1.9277a1.0001 1.0001 0 0 0-0.80469 0.28906l-1.9961 1.998h-0.29688-0.0019531-0.99805c-1.0907 0-2 0.9093-2 2v2c0 1.0907 0.9093 2 2 2h0.99805 0.0019531 0.29688l1.9961 1.998a1.0001 1.0001 0 0 0 1.707-0.70703v-8.582a1.0001 1.0001 0 0 0-0.61719-0.92383 1.0001 1.0001 0 0 0-0.28516-0.072266zm4.498 0.19336a0.5 0.5 0 0 0-0.35352 0.14648 0.5 0.5 0 0 0 0 0.70703c1.1254 1.1252 1.7576 2.6508 1.7578 4.2422-0.0065 1.5885-0.64329 3.1082-1.7695 4.2285a0.5 0.5 0 0 0-0.001953 0.70898 0.5 0.5 0 0 0 0.70898 0.001953c1.3143-1.3073 2.0556-3.0839 2.0625-4.9375a0.50005 0.50005 0 0 0 0-0.0019531c-2.8e-4 -1.8562-0.73808-3.6368-2.0508-4.9492a0.5 0.5 0 0 0-0.35352-0.14648zm-4.5957 0.80273v8.582l-2.2891-2.291h-0.71094-0.0019531-0.99805c-0.554 0-1-0.446-1-1v-2c0-0.554 0.446-1 1-1h0.99805 0.0019531 0.71094l2.2891-2.291zm2.4746 1.3164a0.5 0.5 0 0 0-0.35352 0.14648 0.5 0.5 0 0 0 0 0.70703c0.56277 0.56265 0.87879 1.3272 0.87891 2.123-0.00327 0.7941-0.32182 1.5532-0.88477 2.1133a0.5 0.5 0 0 0 0 0.70703 0.5 0.5 0 0 0 0.70703 0c0.75086-0.74715 1.174-1.7611 1.1777-2.8203a0.50005 0.50005 0 0 0 0-0.0019531c-1.607e-4 -1.0606-0.42181-2.0763-1.1719-2.8262a0.5 0.5 0 0 0-0.35352-0.14648v-0.0019531z" fill="currentColor"/>
</svg>
