<svg width="16" height="16" version="1.1" xmlns="http://www.w3.org/2000/svg">
 <defs>
  <style id="current-color-scheme" type="text/css">.ColorScheme-Text { color:#363636; } .ColorScheme-Highlight { color:#5294e2; }</style>
 </defs>
 <path class="ColorScheme-Text" d="m3 3c-1.662 0-3 1.338-3 3v4c0 1.662 1.338 3 3 3h9c1.662 0 3-1.338 3-3v-1h1v-2h-1v-1c0-1.662-1.338-3-3-3h-9zm0 1h9c1.108 0 1.9254 0.89452 2 2v4c0 1.108-0.892 2-2 2h-9c-1.108 0-2-0.892-2-2v-4c0-1.108 0.892-2 2-2zm0 1c-0.554 0-1 0.446-1 1v4c0 0.554 0.446 1 1 1h9c0.554 0 1-0.446 1-1v-4c0-0.554-0.446-1-1-1h-9z" fill="currentColor"/>
</svg>
